<svg width="157" height="196" viewBox="0 0 157 196" fill="none" xmlns="http://www.w3.org/2000/svg">
<g clip-path="url(#clip0_97_589)">
<path d="M29.0947 46.6088C19.7044 48.5369 10.5261 54.5187 8.45118 64.5388C6.93661 71.8717 9.61739 81.2846 17.5083 83.4708C18.3564 83.7137 19.4015 82.651 18.6139 81.8919C5.14942 69.0631 15.3273 54.4731 29.7157 48.5521C30.791 48.1118 30.2306 46.3811 29.0947 46.6088Z" fill="white"/>
<path d="M6.51535e-05 89.7713C2.10531 112.286 38.9244 116.932 53.2219 104.149C53.9338 103.511 53.1614 102.145 52.2678 102.676C36.6829 111.846 7.80008 109.857 2.55968 89.3159C2.15075 87.6914 -0.151392 88.1013 6.51535e-05 89.7713Z" fill="white"/>
<path d="M48.9811 108.066C63.9753 99.1842 84.2251 102.661 100.885 102.706C110.124 102.722 119.408 102.448 128.617 101.537C138.113 100.596 146.019 99.3816 151.517 90.7278C157.909 80.6621 153.562 68.7746 147.11 59.969C146.353 58.9366 144.762 60.0449 145.262 61.1684C150.366 72.4942 156.076 90.1964 140.082 96.0112C131.404 99.169 120.347 98.7439 111.26 99.0172C100.825 99.336 90.3742 99.0779 79.9388 99.0931C68.5493 99.1083 57.4778 99.5334 47.9512 106.456C47.0727 107.094 48.0421 108.643 48.9962 108.081L48.9811 108.066Z" fill="white"/>
<path d="M24.8994 58.7089C32.7752 66.8313 44.1647 67.2564 54.8121 67.2412C61.3853 67.226 67.8828 67.1805 74.4409 67.9396C81.8623 68.7898 88.9656 71.2189 96.3416 72.0387C97.326 72.145 98.0227 70.6268 97.0534 70.1106C74.9407 58.2534 47.5422 70.5661 26.2323 57.2666C25.3235 56.7049 24.0967 57.8739 24.9146 58.7241L24.8994 58.7089Z" fill="white"/>
<path d="M80.9839 67.1957C92.7672 63.4912 104.959 65.4801 117 63.9922C123.846 63.1421 131.767 59.4984 130.965 51.4823C130.859 50.4347 129.405 50.4651 129.056 51.3152C124.179 62.9143 111.275 60.9255 100.81 61.3202C93.6154 61.5935 87.0724 62.5803 80.3781 65.2827C79.3482 65.6926 79.8934 67.5297 80.9839 67.1805V67.1957Z" fill="white"/>
<path d="M56.1602 103.147C65.6868 101.37 75.0166 98.4251 84.3311 95.7834C92.8279 93.3847 101.643 91.411 109.7 87.7369C110.685 87.2815 110.17 85.824 109.14 85.9606C99.5525 87.2359 90.2228 90.6215 80.9688 93.3543C72.4721 95.8593 63.8542 98.1366 55.5998 101.386C54.6153 101.78 55.1454 103.344 56.1602 103.147Z" fill="white"/>
<path d="M3.19562 90.1964C2.63523 79.7512 10.0566 73.3596 11.7378 63.7797C11.8892 62.9143 10.617 62.2008 9.99603 62.8688C6.46709 66.6491 4.22553 72.2361 2.3929 77.0336C0.681442 81.5275 -0.151569 86.1276 1.49931 90.7278C1.87795 91.7602 3.24106 91.1074 3.19562 90.1812V90.1964Z" fill="white"/>
<path d="M127.224 42.1453C129.177 42.9803 131.54 43.4358 133.236 44.787C134.827 46.0471 135.902 48.0663 137.083 49.6756C141.551 55.794 142.066 60.9862 141.582 68.3191C141.521 69.2149 142.748 69.7614 143.278 68.9416C147.246 62.7777 145.02 55.0045 140.779 49.5845C137.038 44.8173 134.054 40.8852 127.587 40.5967C126.678 40.5512 126.391 41.7961 127.239 42.1453H127.224Z" fill="white"/>
<path d="M7.49705 102.038C-0.424129 110.297 1.27219 126.117 3.8318 136.259C5.48268 142.802 8.19376 148.875 10.5565 155.16C14.7518 166.289 11.5409 174.912 7.33045 185.266C6.452 187.422 9.67803 188.515 10.6474 186.496C13.5402 180.545 16.2513 174.092 16.6905 167.397C17.1146 161.081 14.7367 155.585 12.4194 149.847C9.32968 142.21 6.52773 134.27 5.83103 125.996C5.11918 117.57 7.90599 110.965 9.2691 102.965C9.42055 102.069 8.13317 101.355 7.48191 102.023L7.49705 102.038Z" fill="white"/>
<path d="M7.84541 187.665C12.1619 194.679 23.0365 195.529 30.4579 194.209C35.7286 193.267 40.6206 190.049 46.0731 190.246C49.1477 190.352 52.3282 191.521 55.3119 192.204C76.3644 197.048 100.037 198.763 119.711 188.121C121.12 187.361 120.12 185.433 118.666 185.919C105.989 190.109 93.9485 193.085 80.4992 192.538C71.6238 192.174 62.9454 190.504 54.3123 188.5C49.1931 187.316 45.3158 186.359 40.0905 187.726C35.8195 188.849 31.9119 190.838 27.4591 191.263C20.1588 191.962 15.2062 189.396 8.7693 186.663C8.20891 186.42 7.51221 187.119 7.84541 187.68V187.665Z" fill="white"/>
<path d="M146.019 93.9919C147.807 101.856 151.002 108.931 151.669 117.114C152.396 126.026 150.714 134.391 148.776 143.045C147.352 149.406 145.883 156.253 147.398 162.751C148.958 169.447 153.41 174.29 153.304 181.486C153.289 182.64 154.561 183.035 155.304 182.215C158.787 178.328 156.121 173.197 154.153 169.128C149.427 159.366 150.714 151.046 152.986 140.783C156.273 125.95 157.575 106.077 147.67 93.2328C147.095 92.4889 145.807 93.0962 146.004 94.0071L146.019 93.9919Z" fill="white"/>
<path d="M117.152 189.016C122.604 186.435 128.026 185.418 133.994 186.511C138.007 187.255 141.915 188.773 146.065 188.455C150.593 188.09 154.865 186.192 155.743 181.44C155.894 180.621 154.759 180.074 154.168 180.621C146.565 187.711 139.583 183.171 130.662 182.883C125.224 182.701 120.499 184.279 116.107 187.407C115.198 188.06 116.183 189.487 117.152 189.031V189.016Z" fill="white"/>
<path d="M62.1577 67.3171C74.3954 54.6705 85.0277 36.528 86.2545 18.5828C86.3302 17.5352 84.7096 17.0798 84.4067 18.1577C81.9834 26.5685 80.1962 34.782 76.3189 42.7222C72.169 51.2393 66.8226 58.7848 60.522 65.8141C59.689 66.7554 61.2793 68.228 62.1577 67.3019V67.3171Z" fill="white"/>
<path d="M29.1705 60.5763C34.0625 49.5693 36.3192 36.8012 37.9852 24.9289C38.1973 23.3803 35.8194 23.1678 35.5771 24.7012C33.7293 36.7253 30.4881 48.2181 27.6256 59.9994C27.3833 61.0166 28.7312 61.5631 29.1705 60.5763Z" fill="white"/>
<path d="M36.1527 24.3672C37.9096 31.3813 41.4083 39.5492 47.2545 44.1342C47.8906 44.6352 48.9811 43.8002 48.5267 43.0562C46.5426 39.9287 44.0739 37.2112 42.211 33.9926C40.3784 30.8043 38.8486 27.358 37.6218 23.8965C37.3341 23.0767 35.9407 23.517 36.1527 24.3672Z" fill="white"/>
<path d="M37.5008 63.0358C40.0755 59.8779 42.2262 56.386 44.3315 52.9094C46.2095 49.797 48.3602 46.624 49.587 43.208C49.9354 42.2516 48.6328 41.5836 48.027 42.3882C45.7703 45.4246 44.1497 49.0379 42.1959 52.2869C40.227 55.5814 38.0763 58.7696 36.2134 62.14C35.7287 63.0206 36.8495 63.8404 37.5008 63.0358Z" fill="white"/>
<path d="M48.7994 44.1493C55.7513 48.3548 63.5664 51.543 71.2756 54.0328C72.6387 54.4731 73.396 52.378 72.048 51.9529C64.1874 49.4934 56.9326 46.3052 49.481 42.8589C48.7388 42.5097 48.1027 43.7091 48.8146 44.1493H48.7994Z" fill="white"/>
<path d="M37.5006 25.7032C45.2401 33.3094 55.3271 40.5664 65.8988 43.4813C67.2316 43.8457 67.898 42.039 66.6409 41.4621C61.4611 39.0937 56.1904 37.2415 51.4044 34.0685C46.9515 31.1232 43.0439 27.4036 38.5457 24.5645C37.849 24.1242 36.8494 25.0503 37.5158 25.7032H37.5006Z" fill="white"/>
<path d="M76.1222 66.1329C83.3164 59.3314 89.2081 50.9964 94.4788 42.6463C99.1891 35.1768 106.005 25.2022 106.883 16.1992C106.959 15.3642 105.717 14.7873 105.262 15.6071C100.643 23.9421 97.4927 32.9905 92.4947 41.2496C87.4209 49.6301 81.8321 57.7676 75.1377 64.9639C74.4865 65.6623 75.3952 66.8313 76.1222 66.1329Z" fill="white"/>
<path d="M84.4068 19.3115C86.4212 19.4482 88.6779 19.6911 90.662 19.1597C91.5707 18.9168 91.5102 17.7174 90.6014 17.5352C88.587 17.1253 86.3606 17.5352 84.3463 17.7782C83.483 17.8844 83.5435 19.266 84.4068 19.3115Z" fill="white"/>
<path d="M87.2997 35.3134C89.6776 30.941 92.7976 24.1698 91.4345 19.0686C91.2376 18.3551 90.1774 18.1273 89.9047 18.932C89.102 21.3308 89.2232 24.018 88.6931 26.523C88.1024 29.3165 87.1331 32.0189 85.8911 34.5847C85.4974 35.3893 86.8605 36.118 87.2845 35.3134H87.2997Z" fill="white"/>
<path d="M84.119 46.8062C85.8153 44.9843 87.6479 43.2232 89.1928 41.2799C89.6623 40.6878 88.7687 39.868 88.2234 40.3842C86.4514 42.0542 84.8763 43.952 83.2254 45.7434C82.6347 46.3811 83.5131 47.4287 84.1038 46.791L84.119 46.8062Z" fill="white"/>
<path d="M91.6314 36.027C95.236 30.44 98.0077 24.0787 98.5529 17.3682C98.659 16.017 96.7506 15.8956 96.4931 17.1709C95.236 23.5473 93.6457 29.4683 90.4349 35.1768C89.9805 35.9814 91.1164 36.8164 91.6314 36.0118V36.027Z" fill="white"/>
<path d="M99.0376 18.0514C101.052 18.2488 103.581 18.5069 105.535 17.8085C106.247 17.5504 106.171 16.3814 105.459 16.1689C103.475 15.5919 100.961 16.0474 98.9618 16.351C98.0077 16.5029 98.0834 17.9452 99.0224 18.0362L99.0376 18.0514Z" fill="white"/>
<path d="M90.4651 20.1162C93.1307 20.2832 96.7202 19.6759 98.7801 17.8389C99.3859 17.3075 98.9315 16.1689 98.0834 16.351C96.7808 16.6395 95.5995 17.262 94.3272 17.6112C93.0398 17.9603 91.707 18.1729 90.4045 18.4006C89.4655 18.5676 89.4958 20.0403 90.4651 20.101V20.1162Z" fill="white"/>
<path d="M105.399 17.5049C108.155 21.3763 112.396 24.5797 116.001 27.6465C120.09 31.1383 124.301 34.4632 128.647 37.6362C129.874 38.532 131.222 36.6039 129.995 35.6929C125.906 32.6565 121.877 29.5442 117.97 26.2801C114.123 23.0615 110.579 19.1142 106.398 16.3814C105.656 15.8956 104.899 16.8065 105.384 17.4897L105.399 17.5049Z" fill="white"/>
<path d="M113.077 62.6866C117.833 60.136 121.968 56.1128 125.058 51.6948C127.678 47.9297 131.161 42.3123 130.571 37.5907C130.465 36.7557 129.283 36.528 128.829 37.196C126.224 41.0674 125.497 46.0926 122.877 50.1462C119.999 54.6098 116.288 57.965 112.169 61.2595C111.427 61.8516 112.229 63.1421 113.077 62.6714V62.6866Z" fill="white"/>
<path d="M66.9438 59.802C72.8657 58.9063 78.7725 58.5115 84.7551 58.6026C86.1333 58.6178 86.3756 56.5075 84.9671 56.4316C78.7877 56.1128 72.6688 56.6745 66.656 58.1472C65.6109 58.4053 65.8684 59.969 66.9438 59.802Z" fill="white"/>
<path d="M83.2255 57.4033C82.8469 59.3314 85.6943 61.0773 87.0725 61.9579C89.0566 63.2332 91.2527 64.0985 93.57 64.5236C95.3269 64.8424 95.4935 62.1704 93.8275 61.806C91.6919 61.3202 89.6776 60.5156 87.8752 59.2403C86.5727 58.3294 85.5731 56.629 83.8768 56.7049C83.5133 56.7201 83.2861 57.0996 83.2255 57.4033Z" fill="white"/>
<path d="M65.9896 41.7809C66.8378 45.5309 67.5799 49.3112 68.5492 53.0156C68.9127 54.4276 71.0937 54.0784 70.8059 52.6209C70.0638 48.8558 69.0642 45.121 68.1857 41.3862C67.8525 39.9895 65.6715 40.369 65.9896 41.7809Z" fill="white"/>
<path d="M67.6861 42.3123C68.1253 42.4186 68.4888 42.6919 68.9432 42.8437C69.5339 43.0259 70.1245 43.1625 70.7001 43.3902C71.9572 43.8912 73.1082 44.62 74.1078 45.5309C75.3195 46.6392 76.8795 44.9692 75.6376 43.8457C74.5319 42.8589 73.2748 42.039 71.9117 41.4621C71.2756 41.1888 70.6092 40.9763 69.9428 40.8093C69.1855 40.6271 68.7614 40.8093 68.0344 40.7941C67.2166 40.7789 66.7622 42.0998 67.6861 42.3123Z" fill="white"/>
<path d="M38.7882 53.38C41.787 49.3112 43.9377 44.8629 45.2705 39.9743C45.5431 38.9571 44.0134 38.3802 43.7257 39.3974C42.4383 44.1342 40.3936 48.5066 37.5765 52.5298C37.0313 53.3041 38.2278 54.1391 38.7882 53.38Z" fill="white"/>
<path d="M37.7883 46.9428C38.0307 45.8345 38.5002 44.5896 38.4699 43.451C38.4699 42.616 37.4248 42.3579 37.0614 43.1321C36.5464 44.2252 36.4555 45.622 36.1981 46.791C35.986 47.793 37.5612 47.9297 37.7732 46.9428H37.7883Z" fill="white"/>
<path d="M40.1966 38.2435C40.6207 36.2547 41.3629 34.114 41.3931 32.0796C41.3931 31.2902 40.3178 30.9865 40.0149 31.7608C39.2576 33.7193 39.1364 36.0573 38.7881 38.1069C38.6366 39.0178 39.9997 39.0937 40.1815 38.2435H40.1966Z" fill="white"/>
<path d="M61.6733 45.5157C56.0694 43.6028 50.9501 40.6878 45.4371 38.6383C44.8616 38.4257 44.4072 39.2455 44.9373 39.6099C49.7233 42.8437 55.9633 44.5744 61.4915 46.0319C61.8247 46.123 62.0216 45.6372 61.6733 45.5157Z" fill="white"/>
<path d="M53.9187 40.369C49.4204 37.7273 45.5431 34.3721 41.8779 30.6829C41.2266 30.0301 40.1361 30.941 40.7722 31.6242C44.4526 35.5108 48.8903 38.5016 53.6309 40.9156C53.9338 41.0674 54.2064 40.5512 53.9187 40.3842V40.369Z" fill="white"/>
<path d="M41.1357 41.705C41.7112 40.1716 42.832 38.3194 42.7411 36.6494C42.7108 36.194 42.1202 36.1788 41.8778 36.4521C41.3629 37.0897 41.2114 37.9703 40.9842 38.7597C40.7419 39.6403 40.5299 40.5208 40.3027 41.4014C40.1664 41.9328 40.9237 42.2364 41.1206 41.705H41.1357Z" fill="white"/>
<path d="M40.6963 62.5044C43.1499 60.1816 45.1037 57.464 46.6637 54.4579C46.8909 54.0328 46.1488 53.6381 45.9216 54.0632C44.3464 56.963 42.4229 59.6046 40.2874 62.1097C40.0754 62.3526 40.4691 62.717 40.7115 62.4892L40.6963 62.5044Z" fill="white"/>
<path d="M46.3155 54.5946C49.5415 54.883 52.8887 53.714 55.2817 51.543C55.8118 51.0572 55.1303 50.2373 54.5548 50.6776C52.1012 52.6057 49.5112 53.5166 46.4064 53.6229C45.8006 53.6381 45.6794 54.5338 46.3155 54.5946Z" fill="white"/>
<path d="M55.5997 51.4063C59.7799 52.9397 64.0661 54.2302 68.2917 55.6118C68.8976 55.8091 69.2459 54.8678 68.6401 54.6705C64.3993 53.3345 60.1434 51.8922 55.8571 50.708C55.4028 50.5865 55.1453 51.2393 55.5997 51.4063Z" fill="white"/>
<path d="M87.1026 58.2383C94.2211 50.207 100.158 40.7637 104.444 30.9258C104.656 30.4248 103.884 30.1515 103.657 30.6373C98.8708 40.4753 93.3123 49.2809 86.618 57.9043C86.3908 58.2079 86.8452 58.5115 87.0875 58.2383H87.1026Z" fill="white"/>
<path d="M103.778 31.0928C106.807 32.3074 110.609 31.5179 113.244 29.7416C113.744 29.4076 113.199 28.5422 112.669 28.8459C109.761 30.4855 107.216 30.7132 103.945 30.3944C103.536 30.3489 103.4 30.941 103.778 31.0928Z" fill="white"/>
<path d="M113.562 29.9997C115.153 31.275 116.894 32.3833 118.53 33.613C120.151 34.8124 121.695 36.3154 123.452 37.2871C123.77 37.4693 124.194 37.0897 123.922 36.7709C122.65 35.3286 120.893 34.2355 119.333 33.0968C117.591 31.8215 115.834 30.5007 113.941 29.4531C113.577 29.2558 113.229 29.7264 113.562 29.9997Z" fill="white"/>
<path d="M122.483 36.2091C121.044 38.8812 121.453 42.5097 123.104 44.9995C123.422 45.4702 124.164 44.954 123.922 44.4682C122.634 41.6898 122.559 39.4125 123.089 36.4369C123.149 36.118 122.634 35.9055 122.468 36.2091H122.483Z" fill="white"/>
<path d="M109.2 61.5783C115.986 57.9954 121.09 51.4215 123.831 44.3315C124.089 43.6483 123.028 43.2536 122.771 43.9368C120.029 51.3304 115.243 56.629 108.882 61.0925C108.61 61.2899 108.913 61.7301 109.2 61.5783Z" fill="white"/>
<path d="M46.8002 15.8197C50.1019 22.8034 53.2674 29.4531 55.2666 36.9682C55.6907 38.532 58.1897 38.0917 57.7505 36.528C55.6301 28.9825 52.7676 21.3308 48.2542 14.8784C47.6786 14.0586 46.3761 14.9391 46.8002 15.8197Z" fill="white"/>
<path d="M47.5423 15.9867C59.3559 8.45639 70.8666 3.41596 84.9673 2.01921C86.2698 1.89775 85.9063 -0.121455 84.6189 0.0151828C71.1393 1.44229 57.3718 6.13354 46.8153 14.848C46.2398 15.3187 46.8759 16.4118 47.5423 15.9867Z" fill="white"/>
<path d="M83.5282 1.62448C85.9818 6.60418 87.6176 11.7205 88.4657 17.2164C88.602 18.0666 90.0106 18.0514 89.9954 17.1557C89.9349 11.3258 88.3597 5.75399 85.1943 0.835012C84.5733 -0.136638 82.983 0.531371 83.5282 1.62448Z" fill="white"/>
<path d="M86.512 3.08195C87.9811 3.11232 89.3745 3.08195 90.7831 2.61131C91.6918 2.30767 91.192 0.713555 90.2681 0.986831C89.0262 1.36638 87.7842 1.80666 86.4666 1.86739C85.785 1.89775 85.8304 3.06677 86.512 3.08195Z" fill="white"/>
<path d="M89.6472 2.47467C90.8286 7.9402 91.9948 13.2235 92.2523 18.8409C92.2977 19.8125 94.0243 19.767 93.994 18.765C93.7971 13.1021 93.1762 7.31774 91.2375 1.95848C90.9195 1.06274 89.4503 1.54857 89.6472 2.45949V2.47467Z" fill="white"/>
<path d="M92.1463 4.91898C94.615 4.99489 96.9323 5.04043 99.3253 5.73881C100.537 6.10318 101.234 4.23579 100.007 3.8866C97.4775 3.15786 94.6907 2.71758 92.0705 3.21859C91.1466 3.40077 91.1466 4.88861 92.1311 4.91898H92.1463Z" fill="white"/>
<path d="M99.083 5.6629C99.507 7.80356 100.067 9.97459 100.098 12.176C100.128 14.1193 99.8403 16.0322 99.7494 17.9755C99.7039 18.9016 101.006 19.0079 101.158 18.1122C101.885 14.1497 101.612 9.30658 100.825 5.37444C100.598 4.25097 98.8406 4.55461 99.0678 5.69326L99.083 5.6629Z" fill="white"/>
<path d="M55.0546 21.1182C57.1144 19.2508 57.7959 16.3662 57.3113 13.6942C57.1598 12.8744 55.8421 13.1021 56.039 13.9219C56.5994 16.3814 55.8724 18.5373 54.4033 20.5109C54.1004 20.9208 54.6911 21.4674 55.0697 21.1182H55.0546Z" fill="white"/>
<path d="M76.001 6.30054C76.7886 9.07885 81.2263 11.5383 83.9979 10.3238C84.4523 10.1264 84.3311 9.38249 83.8313 9.36731C82.4228 9.30658 81.2414 9.36731 79.9086 8.76003C78.5606 8.15275 77.561 7.12037 76.5917 6.04245C76.3797 5.81472 75.9102 5.98172 76.001 6.31572V6.30054Z" fill="white"/>
<path d="M56.6903 13.3905C63.097 10.7489 69.2007 8.31975 75.9708 6.71046C76.5918 6.55864 76.4403 5.58699 75.789 5.70844C69.1704 6.96855 62.1579 9.21549 56.3874 12.7529C56.0088 12.9806 56.2663 13.5727 56.6903 13.3905Z" fill="white"/>
<path d="M84.0432 9.89868C84.331 11.4624 84.7399 13.0262 85.1186 14.5596C85.4518 15.9108 85.679 17.3531 86.2696 18.6132C86.4514 18.9775 86.936 18.765 86.9058 18.4006C86.8149 16.8369 86.2393 15.2428 85.8456 13.7246C85.4972 12.3582 85.1489 11.007 84.7096 9.67095C84.5885 9.27622 83.9675 9.50395 84.0281 9.8835L84.0432 9.89868Z" fill="white"/>
<path d="M55.0393 21.5281C54.7364 20.7387 54.6607 21.0878 54.8122 22.5453C55.1757 23.3348 55.4937 24.1242 55.7815 24.9441C56.4933 26.9026 57.0083 28.9218 57.5687 30.9258C58.3714 33.8407 59.2044 36.6798 60.5372 39.3974C60.8098 39.9591 61.6731 39.5492 61.4157 38.9723C59.6739 35.1009 58.75 31.0321 57.4929 27.0088C56.9628 25.3084 56.3116 21.4826 54.5395 20.6779C54.2215 20.5261 53.9186 20.9816 54.1458 21.2397C54.2821 21.4218 54.4184 21.5888 54.5547 21.771C54.7364 22.0443 55.1757 21.8621 55.0242 21.5433L55.0393 21.5281Z" fill="white"/>
<path d="M107.958 43.1625C104.46 42.1605 102.491 46.3355 103.43 49.2201C104.445 52.3173 107.792 54.1543 110.806 52.5602C113.699 51.0268 115.062 47.0187 112.85 44.3619C111.063 42.2212 106.853 41.2648 105.005 43.785C104.763 44.119 105.141 44.5137 105.505 44.3771C107.383 43.6028 109.306 43.2536 111.078 44.5137C113.32 46.0926 113.047 49.1442 111.109 50.875C109.049 52.712 106.202 52.0288 104.914 49.6756C103.627 47.3072 104.626 43.7091 107.807 43.8305C108.17 43.8305 108.352 43.284 107.958 43.1777V43.1625Z" fill="white"/>
<path d="M70.8212 20.101C67.7315 19.6152 65.2779 23.0615 65.4445 25.8854C65.6414 28.9977 68.6403 30.9562 71.5785 30.8954C74.956 30.8195 77.6822 27.9046 77.5005 24.4886C77.3036 20.9664 73.7747 18.8105 70.5335 19.8581C69.7913 20.101 70.3214 21.1941 71.0484 20.9664C74.0018 20.0099 76.6978 22.6668 76.2283 25.6121C75.8042 28.2386 73.3809 29.9541 70.791 29.6657C65.1113 29.0432 65.6566 21.8318 70.8364 20.8753C71.2908 20.7994 71.2453 20.1617 70.8061 20.0858L70.8212 20.101Z" fill="white"/>
<path d="M51.2531 64.2048C51.8134 61.7149 53.7975 59.1795 56.6903 59.9994C59.3408 60.7585 59.7195 63.2331 59.6589 65.5712C59.6589 65.9963 60.2496 66.3151 60.5071 65.89C62.0974 63.218 59.5832 59.5287 56.8872 58.8455C53.8127 58.0713 49.996 60.9103 50.5412 64.2352C50.6169 64.6603 51.1622 64.5843 51.2531 64.2048Z" fill="white"/>
<path d="M15.7667 73.6177C15.4638 72.9041 15.2972 72.1754 15.282 71.4011C15.282 70.6723 15.5092 69.9892 15.5244 69.2604C15.5395 68.5924 14.6459 68.137 14.237 68.7898C13.2525 70.3383 13.7069 72.6916 14.4036 74.2705C14.7974 75.151 16.1302 74.5134 15.7515 73.6328L15.7667 73.6177Z" fill="white"/>
<path d="M17.3115 70.6116C16.5391 73.5569 16.4028 77.0792 17.887 79.8423C18.2808 80.5862 19.6136 80.2674 19.3713 79.3716C18.5837 76.4567 18.0082 73.9517 18.5837 70.9001C18.72 70.1713 17.5084 69.8981 17.3115 70.6116Z" fill="white"/>
<path d="M19.447 73.2988C19.447 73.9213 19.3864 74.6197 19.553 75.227C19.7499 76.0164 20.8101 75.9709 20.9616 75.1662C21.0828 74.5438 20.9616 73.8606 20.9313 73.2381C20.8859 72.4031 19.447 72.4486 19.447 73.2988Z" fill="white"/>
<path d="M20.9464 77.8079C20.3709 80.1307 20.9464 83.1975 23.2789 84.3514C23.9907 84.7005 24.4148 83.7441 24.0665 83.2279C22.976 81.5882 22.1127 80.2522 22.5519 78.1874C22.7488 77.2765 21.1736 76.9122 20.9464 77.8231V77.8079Z" fill="white"/>
<path d="M23.3697 74.6652C23.4151 75.0903 23.4454 75.5154 23.4908 75.9557C23.5514 76.7148 24.8236 76.6693 24.8388 75.895C24.8388 75.4699 24.8539 75.0296 24.8691 74.6045C24.8994 73.5114 23.2788 73.5569 23.3697 74.6652Z" fill="white"/>
<path d="M23.8998 78.9921C24.1421 81.7856 25.2175 84.9586 27.4893 86.7197C28.0194 87.1297 28.9282 86.4465 28.5344 85.824C27.0501 83.5011 25.7324 81.5427 25.3992 78.7188C25.2781 77.732 23.8089 78.0204 23.8847 78.9921H23.8998Z" fill="white"/>
<path d="M27.3077 77.1399C27.7621 80.4344 29.4432 84.989 32.4572 86.7805C33.0176 87.1145 34.0021 86.5376 33.5629 85.8392C32.6844 84.4424 31.4576 83.3342 30.6246 81.8767C29.7462 80.3281 29.1555 78.6277 28.7768 76.8818C28.5648 75.9405 27.1714 76.1834 27.3077 77.1399Z" fill="white"/>
<path d="M31.9877 78.0812C32.0634 80.9354 34.3353 85.4596 37.3493 86.1276C38.1217 86.3098 38.364 85.3078 38.0308 84.8068C37.2735 83.6378 35.971 82.8939 35.1834 81.6945C34.3958 80.4799 34.0323 79.1439 33.5477 77.7927C33.2902 77.0336 31.9574 77.2613 31.9725 78.066L31.9877 78.0812Z" fill="white"/>
<path d="M37.4855 78.1419C37.743 80.6014 38.9849 84.0325 41.4234 85.0953C42.0898 85.3837 42.6653 84.6095 42.4079 84.0022C41.9686 82.9546 41.1356 82.1348 40.5752 81.1479C39.9997 80.1156 39.5605 78.9617 39.2576 77.8231C38.9547 76.6996 37.3492 76.9729 37.4704 78.1419H37.4855Z" fill="white"/>
<path d="M43.2864 79.0528C43.6196 79.7967 43.9225 80.5407 44.2709 81.2846C44.6041 81.983 44.8616 82.6813 45.5128 83.1368C45.9824 83.4708 46.6942 83.152 46.7396 82.5599C46.8002 81.7552 46.4367 81.1024 46.1035 80.404C45.7552 79.6753 45.3765 78.9465 45.013 78.233C44.4526 77.1247 42.7866 77.9294 43.2864 79.0528Z" fill="white"/>
<path d="M48.5419 80.4496C49.2992 81.6034 49.9807 83.0153 51.1166 83.8352C51.6316 84.2147 52.4949 83.7289 52.3283 83.0609C51.9648 81.6034 50.8743 80.404 50.011 79.1895C49.284 78.1571 47.8603 79.4172 48.5267 80.4496H48.5419Z" fill="white"/>
<path d="M53.4642 80.571C54.388 81.6034 54.9636 82.8331 55.7663 83.9414C56.2358 84.5791 57.1294 84.0022 57.0537 83.3341C56.9022 81.8008 55.8875 80.4799 54.8121 79.4324C54.0094 78.6429 52.6766 79.7208 53.4642 80.5862V80.571Z" fill="white"/>
<path d="M58.1897 80.4648C58.5229 80.9202 58.8561 81.3757 59.1893 81.8311C59.5074 82.2714 59.78 82.7572 60.2495 83.0305C60.7645 83.3342 61.5975 82.9698 61.4309 82.2714C61.1734 81.1935 60.1435 80.2218 59.4771 79.3413C58.8258 78.4607 57.5384 79.569 58.1897 80.4344V80.4648Z" fill="white"/>
<path d="M62.4456 80.8139C62.7637 81.3149 63.0515 81.8615 63.5664 82.1651C64.1571 82.5143 65.0053 82.0892 64.8538 81.3453C64.7175 80.6621 64.248 80.1611 63.8239 79.6297C63.0818 78.6733 61.8095 79.8575 62.4305 80.8139H62.4456Z" fill="white"/>
<path d="M77.5762 97.4079C78.1063 98.6832 79.1211 99.9737 80.5145 100.292C81.1657 100.444 81.5292 99.5334 81.1506 99.0779C80.4387 98.2429 79.6057 97.6812 79.0908 96.6792C78.591 95.7227 77.1521 96.4059 77.5762 97.4079Z" fill="white"/>
<path d="M80.8021 95.3583C82.0743 97.332 83.3768 99.3208 84.7551 101.203C85.1792 101.78 86.2394 101.294 86.0425 100.596C85.4064 98.2277 83.8766 95.9201 81.9834 94.3563C81.3928 93.8705 80.3628 94.6903 80.8021 95.3583Z" fill="white"/>
<path d="M85.164 95.4798C85.9213 97.3623 86.5726 99.4726 87.7842 101.112C88.2386 101.72 89.2534 101.203 89.1019 100.49C88.693 98.501 87.5571 96.5729 86.6786 94.751C86.194 93.7794 84.7551 94.4778 85.164 95.4798Z" fill="white"/>
<path d="M88.4811 94.3563C89.6321 96.2541 90.662 98.3947 92.0857 100.095C92.5855 100.702 93.5246 100.065 93.2217 99.3664C92.3584 97.3927 90.9498 95.5557 89.7987 93.7338C89.3141 92.9596 87.9964 93.5517 88.4811 94.3563Z" fill="white"/>
<path d="M92.0856 92.8229C92.2976 93.5213 92.4188 94.2804 92.858 94.8725C93.2366 95.3887 94.1605 95.085 94.1908 94.4474C94.2211 93.7794 93.9485 93.1569 93.7667 92.5193C93.4487 91.4869 91.7826 91.7602 92.1007 92.8077L92.0856 92.8229Z" fill="white"/>
<path d="M95.0997 97.165C95.6904 98.4403 96.2357 99.7763 96.9324 101.006C97.3413 101.735 98.3863 101.234 98.0986 100.444C97.6139 99.1235 96.9324 97.8482 96.3265 96.5729C95.9479 95.7834 94.7211 96.3603 95.0997 97.165Z" fill="white"/>
<path d="M95.9176 92.2915C96.4629 94.2652 97.4625 96.6943 98.9922 98.1063C99.5677 98.6376 100.522 98.1366 100.189 97.332C99.7949 96.3755 99.1588 95.5405 98.6741 94.6296C98.1895 93.7187 97.7654 92.7622 97.311 91.8361C96.9475 91.1073 95.6601 91.4414 95.9025 92.2915H95.9176Z" fill="white"/>
<path d="M99.5069 91.4414C100.673 93.3998 101.794 95.3583 103.218 97.1194C103.717 97.7267 104.672 97.0891 104.354 96.3907C103.445 94.3867 102.218 92.5648 101.037 90.7126C100.461 89.8169 98.9314 90.4849 99.5069 91.4414Z" fill="white"/>
<path d="M103.763 90.0143C104.202 90.7582 104.687 91.4869 105.399 91.9879C106.05 92.4586 106.732 91.7146 106.504 91.0466C106.247 90.3027 105.732 89.6499 105.187 89.0881C104.551 88.4201 103.248 89.1185 103.763 90.0143Z" fill="white"/>
<path d="M106.944 93.8097C107.413 94.7207 107.837 95.6771 108.458 96.497C108.988 97.2105 109.897 96.4362 109.655 95.7227C109.352 94.8118 108.822 93.9768 108.367 93.1266C107.883 92.2308 106.459 92.8988 106.928 93.8097H106.944Z" fill="white"/>
<path d="M108.004 89.4981C108.685 90.7582 109.397 92.246 110.488 93.2025C110.957 93.6124 111.805 93.0658 111.639 92.4737C111.245 91.077 110.2 89.7865 109.337 88.6327C108.791 87.904 107.565 88.6934 108.004 89.4981Z" fill="white"/>
<path d="M112.32 86.0821C112.82 86.7957 113.29 87.5092 113.714 88.2683C114.108 88.9667 114.471 89.7258 115.031 90.3027C115.577 90.8493 116.501 90.4545 116.395 89.6651C116.167 87.9343 114.759 86.2339 113.744 84.8675C113.017 83.8959 111.608 85.1105 112.305 86.0821H112.32Z" fill="white"/>
<path d="M115.592 83.6074C116.394 84.8675 117.106 86.2339 118.242 87.2208C118.878 87.7825 119.605 86.9019 119.378 86.2643C118.893 84.9283 117.879 83.7896 117.046 82.6662C116.47 81.8919 115.077 82.7572 115.607 83.6074H115.592Z" fill="white"/>
<path d="M120.044 83.6378C120.771 84.6246 121.453 85.6874 122.316 86.5679C122.831 87.0841 123.876 86.5528 123.467 85.824C122.831 84.6854 121.983 83.6833 121.196 82.651C120.605 81.8767 119.469 82.8483 120.044 83.6378Z" fill="white"/>
<path d="M132.055 76.4567C133.07 77.2006 133.888 78.2178 134.585 79.2654C134.978 79.8575 136.054 79.3413 135.857 78.6733C135.402 77.0943 134.448 75.9101 133.04 75.06C132.101 74.4982 131.162 75.8039 132.055 76.4719V76.4567Z" fill="white"/>
<path d="M135.054 74.5589C135.857 75.0448 136.099 75.6672 136.553 76.4415C136.871 76.9729 137.947 76.9881 137.917 76.1986C137.871 74.9537 136.977 73.9061 135.917 73.314C135.084 72.8434 134.206 74.0428 135.054 74.5589Z" fill="white"/>
<path d="M137.765 72.0539C138.219 72.7978 138.628 73.6936 139.234 74.3312C139.825 74.9385 140.734 74.3312 140.446 73.5417C140.143 72.7219 139.507 71.9628 139.022 71.2341C138.553 70.5205 137.311 71.31 137.765 72.0539Z" fill="white"/>
<path d="M129.511 79.6449C130.026 79.9637 130.48 80.2977 131.071 80.4648C131.737 80.6621 132.419 79.8727 131.888 79.2957C131.48 78.8403 131.01 78.567 130.495 78.2482C129.556 77.6713 128.572 79.068 129.511 79.6601V79.6449Z" fill="white"/>
<path d="M142.354 76.5933C144.444 79.8878 145.504 83.5315 145.459 87.4333C145.459 88.4353 147.004 88.5719 147.004 87.5851C147.019 83.319 145.853 79.402 143.551 75.8342C143.111 75.1662 141.93 75.9101 142.369 76.5933H142.354Z" fill="white"/>
<path d="M143.475 72.0235C147.701 76.897 148.958 82.1044 149.397 88.3746C149.457 89.2248 150.745 89.1033 150.836 88.3139C151.578 82.0589 148.715 75.6217 144.656 71.0064C143.99 70.2472 142.793 71.2493 143.46 72.0235H143.475Z" fill="white"/>
<path d="M145.883 68.9871C148.079 72.2209 149.397 75.8494 150.154 79.6905C150.321 80.5255 151.472 80.2826 151.426 79.4627C151.169 75.2118 149.609 71.3707 147.155 67.9092C146.534 67.0287 145.292 68.1066 145.883 68.9871Z" fill="white"/>
<path d="M139.794 81.5123C141.188 85.2775 141.233 88.8452 140.976 92.7926C140.915 93.6276 142.263 94.0223 142.475 93.1417C143.445 89.0578 142.702 84.7309 141.188 80.8595C140.824 79.9334 139.461 80.6014 139.81 81.5123H139.794Z" fill="white"/>
<path d="M137.78 87.4485C137.947 88.5871 138.053 89.7713 138.386 90.8796C138.598 91.5628 139.81 91.6994 139.794 90.8189C139.779 89.5891 139.522 88.3898 139.325 87.1752C139.158 86.1732 137.629 86.4465 137.78 87.4485Z" fill="white"/>
<path d="M117.243 58.2686C117.394 59.3162 117.939 60.2271 118.712 60.9407C119.439 61.6087 120.514 62.307 121.529 61.8668C122.014 61.6542 122.074 61.0469 121.786 60.6674C121.377 60.1208 120.62 59.9386 120.12 59.4832C119.59 59.0125 119.287 58.3597 119.045 57.7069C118.666 56.6593 117.091 57.2514 117.228 58.2838L117.243 58.2686Z" fill="white"/>
<path d="M119.181 56.8567C119.802 57.5095 120.438 58.1775 121.059 58.8304C121.65 59.4376 122.195 60.1056 122.952 60.4852C123.513 60.7737 124.073 60.0297 123.831 59.5287C123.467 58.7848 122.801 58.2231 122.225 57.6462C121.62 57.0389 120.999 56.4316 120.393 55.8243C119.666 55.0956 118.454 56.1128 119.166 56.8719L119.181 56.8567Z" fill="white"/>
<path d="M121.711 54.3668C122.226 55.217 122.831 55.9306 123.604 56.5834C124.285 57.1452 125.224 57.9043 126.148 57.9043C126.739 57.9043 127.239 57.2059 126.769 56.7049C126.224 56.1128 125.406 55.8243 124.77 55.3385C124.104 54.8223 123.528 54.1998 123.028 53.5318C122.498 52.8486 121.256 53.6077 121.726 54.382L121.711 54.3668Z" fill="white"/>
<path d="M123.831 52.1047C124.255 52.9549 124.8 53.7292 125.361 54.5035C125.921 55.2778 126.421 56.0369 127.178 56.6442C127.784 57.1148 128.435 56.3709 128.208 55.7636C127.905 54.8982 127.345 54.215 126.815 53.4863C126.269 52.7272 125.724 51.9833 125.058 51.3153C124.497 50.7535 123.437 51.3153 123.831 52.1047Z" fill="white"/>
<path d="M125.815 49.5238C126.436 51.2545 127.481 53.1826 129.087 54.1695C129.783 54.5946 130.51 53.7899 130.041 53.1219C129.011 51.71 127.89 50.5258 127.224 48.8558C126.845 47.9145 125.497 48.5977 125.83 49.5238H125.815Z" fill="white"/>
<path d="M128.496 48.5218C128.662 48.9469 128.829 49.372 128.996 49.7971C129.314 50.5865 130.45 50.0248 130.177 49.2353C130.026 48.8102 129.874 48.3699 129.723 47.9449C129.435 47.125 128.163 47.7019 128.496 48.5369V48.5218Z" fill="white"/>
<path d="M16.7207 62.7777C17.0691 62.2159 17.4477 61.6998 17.584 61.0469C17.7203 60.3637 16.8419 60.0905 16.3875 60.4245C15.918 60.7585 15.6454 61.3354 15.3273 61.806C14.7215 62.717 16.1452 63.719 16.7207 62.7777Z" fill="white"/>
<path d="M20.7497 56.9478C21.9007 55.2929 23.4456 54.0177 25.2479 53.1067C26.8534 52.3021 28.5648 52.2414 30.2157 51.6341C31.1093 51.3001 30.6549 50.1462 29.9279 49.9792C25.8689 49.0987 21.5524 53.0005 19.6895 56.1887C19.2654 56.9022 20.265 57.6462 20.7648 56.9478H20.7497Z" fill="white"/>
<path d="M90.8285 64.3263C90.2075 65.7534 90.0409 67.4082 89.7986 68.9264C89.6774 69.6855 90.8133 69.9133 91.0859 69.2149C91.6463 67.7726 92.2976 66.2544 92.4642 64.7058C92.5702 63.719 91.2071 63.4761 90.8285 64.3263Z" fill="white"/>
<path d="M93.5397 67.4689C93.4186 68.3343 93.252 69.1997 93.1763 70.0802C93.1005 70.9456 94.3122 71.0064 94.4788 70.2017C94.6605 69.3515 94.7514 68.471 94.8726 67.6056C94.9937 66.7402 93.6609 66.6187 93.5246 67.4841L93.5397 67.4689Z" fill="white"/>
<path d="M97.9017 67.3323C97.6594 69.063 97.4019 70.809 97.1596 72.5397C97.0384 73.3596 98.3409 73.481 98.4469 72.6612C98.6741 70.9153 98.8862 69.1845 99.1134 67.4386C99.2194 66.6491 98.0077 66.5428 97.9017 67.3171V67.3323Z" fill="white"/>
<path d="M101.324 67.6663C101.158 69.1086 100.9 70.5812 100.855 72.0387C100.84 72.8889 101.991 72.98 102.157 72.1602C102.445 70.7331 102.506 69.23 102.657 67.7878C102.748 66.9224 101.415 66.8009 101.309 67.6663H101.324Z" fill="white"/>
<path d="M104.763 68.6379C104.323 70.2321 104.02 71.978 104.55 73.5721C104.793 74.3008 105.883 73.9972 105.959 73.3292C106.11 71.9476 105.989 70.5964 106.338 69.23C106.595 68.2128 105.065 67.6056 104.778 68.6531L104.763 68.6379Z" fill="white"/>
<path d="M108.125 68.729C108.155 70.2017 108.004 71.8262 108.367 73.2533C108.579 74.0883 109.7 74.0276 109.851 73.1926C110.124 71.7351 109.851 70.1258 109.791 68.6531C109.745 67.7118 108.11 67.7726 108.125 68.7139V68.729Z" fill="white"/>
<path d="M112.305 69.5641C111.608 70.8242 111.487 72.2968 112.35 73.4962C112.865 74.2098 113.759 73.4203 113.532 72.7371C113.29 71.9932 113.199 71.1885 113.577 70.475C114.047 69.5944 112.79 68.6835 112.29 69.5792L112.305 69.5641Z" fill="white"/>
<path d="M116.273 71.0367C116.304 71.7654 116.228 72.5549 116.531 73.2229C116.834 73.8909 117.833 73.8302 118.091 73.147C118.318 72.5397 118.227 71.8565 118.197 71.2189C118.197 70.6875 117.894 70.2169 117.318 70.1561C116.849 70.1106 116.243 70.5053 116.258 71.0367H116.273Z" fill="white"/>
<path d="M15.3728 182.154C19.5379 173.531 21.1736 166.258 18.4019 156.861C15.3728 146.582 9.31453 137.61 8.19375 126.74C8.11802 125.996 6.98209 126.208 7.05782 126.937C7.90598 135.257 11.4501 142.347 14.6458 149.968C19.4167 161.324 19.6287 170.676 14.2975 181.744C13.9794 182.412 15.0547 182.807 15.3879 182.154H15.3728Z" fill="white"/>
<path d="M9.01177 121.684C9.23895 116.659 10.3143 111.846 12.2378 107.2C12.5256 106.502 11.4351 106.107 11.1473 106.79C9.19351 111.542 8.10303 116.431 7.86069 121.578C7.8304 122.322 8.98147 122.428 9.01177 121.684Z" fill="white"/>
<path d="M16.6149 144.715C11.4502 132.949 10.5111 120.94 15.0851 108.794C15.3578 108.066 14.237 107.656 13.9644 108.369C9.40552 120.333 9.75387 133.678 16.115 144.943C16.2968 145.246 16.7663 145.034 16.6149 144.7V144.715Z" fill="white"/>
<path d="M17.4327 135.044C15.0852 126.664 15.3881 118.541 18.7958 110.495C19.1139 109.751 17.9325 109.326 17.6296 110.07C14.2521 118.131 13.8129 126.998 16.7663 135.257C16.9026 135.621 17.5236 135.424 17.4176 135.044H17.4327Z" fill="white"/>
<path d="M11.9651 188.667C12.5103 187.726 13.419 186.602 13.6008 185.524C13.6462 185.221 13.2524 185.039 13.0404 185.236C12.6315 185.6 12.4043 186.116 12.1468 186.587C11.859 187.118 11.5713 187.65 11.2835 188.196C11.0412 188.667 11.6924 189.153 11.9651 188.682V188.667Z" fill="white"/>
<path d="M15.4637 185.98C23.5061 177.797 24.1573 165.879 21.5674 155.16C21.4311 154.614 20.6435 154.75 20.7041 155.312C21.8249 166.137 22.8397 176.886 15.1002 185.646C14.9185 185.858 15.2668 186.192 15.4637 185.98Z" fill="white"/>
<path d="M22.7488 182.002C25.8082 176.552 27.5197 169.34 26.5049 163.116C26.4443 162.751 25.8688 162.767 25.8385 163.146C25.3084 169.735 24.4754 175.444 22.143 181.699C22.0066 182.063 22.5519 182.367 22.7488 182.017V182.002Z" fill="white"/>
<path d="M21.4462 187.377C25.2478 186.435 29.4128 184.097 31.1546 180.378C31.2909 180.104 30.8668 179.801 30.6548 180.029C29.3522 181.41 28.2466 182.913 26.7017 184.052C25.0963 185.251 23.1879 186.238 21.2796 186.86C20.9918 186.952 21.1433 187.453 21.4462 187.377Z" fill="white"/>
<path d="M26.8381 188.546C32.2451 186.375 37.8944 182.458 40.7569 177.22C40.969 176.825 40.4843 176.491 40.1814 176.825C36.0466 181.395 32.1996 185.236 26.5352 187.923C26.1262 188.121 26.414 188.728 26.8381 188.561V188.546Z" fill="white"/>
<path d="M35.1986 187.741C40.4541 182.746 46.2095 179.087 52.1314 174.988C52.4798 174.745 52.1011 174.229 51.7376 174.381C45.3159 177.022 39.3939 182.154 34.7593 187.225C34.4716 187.528 34.8654 188.045 35.1834 187.741H35.1986Z" fill="white"/>
<path d="M43.4378 184.887C46.0428 183.004 48.769 181.289 51.6619 179.877C54.2669 178.617 57.0689 177.857 59.6891 176.673C60.0677 176.506 59.8708 175.945 59.477 175.99C53.5096 176.734 47.4968 180.53 42.9379 184.295C42.5442 184.613 43.044 185.175 43.4378 184.887Z" fill="white"/>
<path d="M48.9206 184.583C55.1303 182.974 61.9307 180.317 67.3226 176.84C67.6709 176.613 67.4437 176.096 67.0348 176.248C60.9008 178.51 54.7062 181.334 48.7237 183.976C48.3905 184.128 48.5571 184.689 48.9206 184.598V184.583Z" fill="white"/>
<path d="M54.7363 185.752C62.5061 184.097 72.6082 181.501 76.743 173.941C76.9399 173.576 76.5007 173.273 76.2281 173.576C70.2001 180.226 63.0362 182.64 54.6303 185.084C54.2214 185.206 54.3123 185.828 54.7515 185.737L54.7363 185.752Z" fill="white"/>
<path d="M58.8864 188.561C60.7645 188.333 62.9303 188.333 64.6872 187.604C65.0356 187.452 64.9295 186.921 64.566 186.891C62.6728 186.739 60.5979 187.422 58.7501 187.787C58.2503 187.893 58.3866 188.622 58.8864 188.561Z" fill="white"/>
<path d="M68.1554 186.496C74.5166 183.687 80.8323 178.784 83.9826 172.437C84.1492 172.103 83.6343 171.876 83.4223 172.149C78.9391 177.903 74.4863 182.579 67.8222 185.813C67.383 186.025 67.701 186.693 68.1403 186.496H68.1554Z" fill="white"/>
<path d="M68.095 189.791C77.137 187.893 85.7094 181.926 89.4958 173.257C89.6473 172.923 89.1323 172.65 88.9203 172.954C83.7556 180.833 77.1975 186.572 67.9738 189.107C67.5649 189.214 67.6558 189.866 68.095 189.775V189.791Z" fill="white"/>
<path d="M75.0012 190.58C77.6972 190.033 80.7263 189.062 82.6195 186.951C82.8316 186.709 82.4983 186.375 82.2409 186.496C79.757 187.711 77.6063 189.244 74.9104 190.003C74.562 190.109 74.6377 190.641 75.0164 190.565L75.0012 190.58Z" fill="white"/>
<path d="M83.7253 185.858C88.2993 182.184 92.7976 176.719 94.2364 170.919C94.3122 170.585 93.8427 170.251 93.6458 170.616C90.6166 176.172 87.9661 180.955 83.3013 185.373C82.9983 185.661 83.3921 186.132 83.7253 185.874V185.858Z" fill="white"/>
<path d="M81.62 190.868C90.2681 187.058 97.7349 178.237 99.9462 169.022C100.037 168.657 99.5524 168.46 99.401 168.824C95.3571 178.283 89.9955 184.78 81.3776 190.352C81.0747 190.55 81.2716 191.035 81.62 190.868Z" fill="white"/>
<path d="M86.5725 191.066C88.5869 190.853 91.086 189.745 91.8735 187.711C91.9947 187.392 91.6009 187.149 91.3586 187.346C90.6467 187.908 90.0561 188.606 89.2988 189.123C88.4506 189.699 87.451 190.155 86.4665 190.398C86.0576 190.504 86.1636 191.081 86.5877 191.051L86.5725 191.066Z" fill="white"/>
<path d="M94.5999 186.01C100.219 180.833 105.459 174.366 107.913 167.018C108.019 166.714 107.565 166.441 107.398 166.744C103.612 173.682 99.916 179.968 94.1909 185.54C93.9032 185.813 94.297 186.283 94.5847 186.01H94.5999Z" fill="white"/>
<path d="M92.5856 191.157C101.779 187.134 109.806 177.918 112.123 168.08C112.214 167.686 111.699 167.473 111.533 167.868C107.353 177.918 101.673 184.932 92.3281 190.61C91.9949 190.808 92.2221 191.339 92.6007 191.172L92.5856 191.157Z" fill="white"/>
<path d="M101.521 187.619C102.672 187.21 103.808 186.83 104.899 186.299C105.156 186.177 105.035 185.722 104.732 185.798C103.521 186.101 102.385 186.572 101.218 187.012C100.809 187.164 101.097 187.771 101.506 187.635L101.521 187.619Z" fill="white"/>
<path d="M107.883 183.414C111.911 179.421 115.531 174.533 117.152 169.006C117.258 168.657 116.788 168.49 116.637 168.809C114.092 174.001 111.502 178.723 107.474 182.928C107.201 183.217 107.595 183.687 107.867 183.399L107.883 183.414Z" fill="white"/>
<path d="M108.67 186.466C114.153 182.169 119.121 176.78 122.21 170.479C122.362 170.175 121.877 169.932 121.695 170.206C117.727 176.005 113.608 181.349 108.261 185.965C107.943 186.238 108.352 186.724 108.685 186.466H108.67Z" fill="white"/>
<path d="M113.714 186.116C118.606 181.698 123.967 176.628 127.39 170.934C127.557 170.646 127.193 170.251 126.936 170.509C122.21 175.337 118.106 180.818 113.35 185.676C113.093 185.934 113.441 186.359 113.714 186.116Z" fill="white"/>
<path d="M120.181 183.627C122.029 181.258 124.119 179.072 126.421 177.144C128.541 175.368 130.98 174.062 133.176 172.407C133.479 172.179 133.146 171.785 132.843 171.891C127.436 173.743 122.831 178.692 119.636 183.262C119.393 183.611 119.923 183.976 120.181 183.642V183.627Z" fill="white"/>
<path d="M126.103 180.985C129.071 178.617 132.328 177.25 135.629 175.489C135.917 175.337 135.796 174.836 135.448 174.912C131.797 175.641 128.42 178.055 125.663 180.454C125.33 180.742 125.769 181.258 126.118 180.985H126.103Z" fill="white"/>
<path d="M130.798 181.516C133.176 179.983 136.008 178.541 138.068 176.582C138.356 176.309 138.068 175.838 137.689 176.005C135.069 177.189 132.661 179.285 130.298 180.939C129.889 181.228 130.389 181.79 130.798 181.516Z" fill="white"/>
<path d="M133.57 182.792C136.341 181.941 139.416 180.044 140.991 177.539C141.188 177.22 140.809 176.855 140.506 177.098C139.416 177.994 138.462 179.011 137.311 179.831C136.069 180.727 134.721 181.425 133.358 182.093C133.009 182.26 133.176 182.898 133.57 182.776V182.792Z" fill="white"/>
<path d="M138.704 183.065C141.127 182.351 144.293 180.545 145.126 177.949C145.232 177.645 144.838 177.311 144.581 177.569C143.672 178.45 143.021 179.543 142.021 180.363C140.961 181.228 139.764 181.896 138.492 182.367C138.098 182.518 138.31 183.186 138.719 183.065H138.704Z" fill="white"/>
<path d="M143.354 183.657C145.732 183.11 147.913 181.319 148.412 178.844C148.488 178.45 147.928 178.404 147.776 178.692C146.792 180.651 145.368 182.245 143.218 182.898C142.763 183.035 142.869 183.763 143.354 183.642V183.657Z" fill="white"/>
<path d="M148.276 171.572C144.717 165.089 143.566 158.03 144.899 150.742C145.035 150.014 143.884 149.907 143.748 150.636C142.4 158.09 143.596 165.439 147.231 172.073C147.595 172.726 148.64 172.225 148.276 171.572Z" fill="white"/>
<path d="M142.188 165.241C141.552 161.749 141.355 158.349 140.976 154.842C140.931 154.432 140.37 154.523 140.31 154.872C139.643 158.273 140.34 162.25 141.597 165.439C141.733 165.773 142.248 165.59 142.188 165.256V165.241Z" fill="white"/>
<path d="M145.398 146.036C151.214 130.687 151.381 112.317 143.99 97.4231C143.687 96.8158 142.854 97.2561 143.066 97.8634C148.791 114.063 150.063 129.26 144.808 145.823C144.686 146.218 145.262 146.431 145.398 146.051V146.036Z" fill="white"/>
<path d="M144.868 135.834C145.959 131.932 146.943 127.59 146.292 123.521C146.232 123.172 145.717 123.202 145.686 123.551C145.277 127.635 145.323 131.598 144.338 135.636C144.247 136.001 144.778 136.198 144.884 135.834H144.868Z" fill="white"/>
<path d="M145.611 118.921C145.217 112.605 144.081 105.53 141.082 99.8674C140.855 99.4423 140.067 99.6245 140.219 100.141C142.051 106.502 144.111 112.408 144.974 119.027C145.035 119.437 145.626 119.316 145.595 118.921H145.611Z" fill="white"/>
<path d="M140.537 150.272C141.233 146.628 142.082 142.939 142.521 139.25C142.551 138.931 142.036 138.794 141.96 139.128C141.097 142.772 140.612 146.537 140.022 150.226C139.961 150.56 140.476 150.606 140.537 150.272Z" fill="white"/>
<path d="M141.9 132.964C142.748 121.547 140.991 110.556 136.447 100.019C136.16 99.3664 135.145 99.837 135.433 100.505C139.916 110.829 141.976 121.654 141.4 132.919C141.385 133.237 141.87 133.298 141.9 132.964Z" fill="white"/>
<path d="M137.992 118.01C137.735 111.998 136.175 106.441 133.07 101.279C132.706 100.672 131.691 101.143 132.07 101.75C135.099 106.775 136.962 112.256 137.417 118.116C137.447 118.496 138.022 118.389 138.007 118.01H137.992Z" fill="white"/>
<path d="M33.7901 183.794C34.5474 184.75 35.2744 185.782 36.1225 186.648C36.3345 186.876 36.6526 186.587 36.486 186.344C35.8196 185.327 34.9563 184.401 34.1839 183.46C33.9718 183.202 33.578 183.536 33.7901 183.794Z" fill="white"/>
<path d="M36.486 182.564C37.3341 184.082 38.6064 185.357 40.227 186.025C40.4996 186.132 40.7268 185.722 40.4693 185.57C39.091 184.705 37.9097 183.687 37.0161 182.321C36.8192 182.002 36.2891 182.23 36.486 182.579V182.564Z" fill="white"/>
<path d="M39.2424 181.501C40.757 183.232 42.2413 185.175 44.0284 186.633C44.3011 186.845 44.5737 186.466 44.4071 186.208C43.1197 184.325 41.3022 182.731 39.7271 181.091C39.4545 180.803 38.9698 181.198 39.2424 181.501Z" fill="white"/>
<path d="M41.4841 178.389C41.8476 179.178 42.1959 180.044 42.7715 180.697C42.9381 180.894 43.3319 180.742 43.2561 180.469C43.0138 179.619 42.4989 178.859 42.0445 178.116C41.8324 177.782 41.3023 178.009 41.4841 178.389Z" fill="white"/>
<path d="M45.2098 182.913C46.0882 184.204 47.3605 185.782 48.8599 186.375C49.1022 186.466 49.3597 186.147 49.1628 185.95C48.5873 185.373 47.8754 184.947 47.2847 184.386C46.694 183.824 46.1488 183.202 45.6641 182.549C45.437 182.245 45.0129 182.625 45.2249 182.928L45.2098 182.913Z" fill="white"/>
<path d="M46.2397 178.814C48.9053 181.881 51.6315 184.978 54.5849 187.771C54.8272 187.999 55.2059 187.695 54.9787 187.437C52.4191 184.279 49.5414 181.319 46.694 178.419C46.4214 178.146 45.967 178.51 46.2245 178.814H46.2397Z" fill="white"/>
<path d="M52.4494 179.77C54.2517 182.928 56.9325 186.314 60.2797 187.923C60.6129 188.09 60.7946 187.589 60.5675 187.377C59.1892 186.162 57.6898 185.145 56.4175 183.809C55.1605 182.488 54.0548 181.015 53.1006 179.452C52.8735 179.072 52.2373 179.36 52.4645 179.755L52.4494 179.77Z" fill="white"/>
<path d="M57.0537 180.955C60.0222 183.961 62.8999 187.119 66.0805 189.897C66.3077 190.094 66.6409 189.73 66.444 189.502C63.6875 186.344 60.5372 183.49 57.5535 180.545C57.2657 180.256 56.7811 180.666 57.0688 180.955H57.0537Z" fill="white"/>
<path d="M63.006 181.759C65.5051 185.388 69.14 188.895 73.1233 190.838C73.4263 190.99 73.6534 190.519 73.396 190.322C69.6853 187.604 66.4138 184.947 63.4756 181.365C63.2181 181.046 62.7789 181.44 63.006 181.759Z" fill="white"/>
<path d="M67.5042 181.106C70.8362 184.963 74.6227 188.895 78.9089 191.688C79.2724 191.916 79.5753 191.43 79.2724 191.157C75.4557 187.695 71.5481 184.462 68.0343 180.651C67.7314 180.332 67.2164 180.757 67.5042 181.106Z" fill="white"/>
<path d="M69.1701 176.37C70.1546 177.493 71.1239 178.647 72.1993 179.71C72.4416 179.937 72.8051 179.634 72.5931 179.376C71.6692 178.191 70.6544 177.083 69.6548 175.975C69.3822 175.671 68.8975 176.081 69.1701 176.385V176.37Z" fill="white"/>
<path d="M74.0623 182.473C77.2126 185.965 80.8324 189.532 84.8914 191.946C85.2095 192.129 85.4821 191.719 85.2095 191.476C81.6199 188.333 77.8941 185.464 74.5318 182.063C74.2591 181.79 73.7896 182.169 74.0623 182.458V182.473Z" fill="white"/>
<path d="M77.9245 179.452C80.893 184.826 85.7245 189.821 91.5859 191.962C91.8736 192.068 92.1311 191.628 91.8434 191.461C86.3 188.318 81.7715 184.765 78.4697 179.193C78.2728 178.859 77.7276 179.102 77.9093 179.452H77.9245Z" fill="white"/>
<path d="M85.1945 180.499C87.7541 184.932 92.1615 189.153 97.3261 190.185C97.6896 190.261 97.7502 189.73 97.4624 189.593C92.6158 187.361 88.6477 184.917 85.8457 180.196C85.6034 179.801 84.9673 180.104 85.1945 180.499Z" fill="white"/>
<path d="M91.0708 180.362C94.2514 184.052 98.3407 187.711 102.975 189.411C103.293 189.532 103.551 189.062 103.248 188.88C98.9465 186.208 95.0087 183.778 91.5554 179.953C91.2828 179.649 90.7982 180.059 91.0708 180.362Z" fill="white"/>
<path d="M96.084 178.571C99.613 182.306 103.657 186.056 108.246 188.439C108.549 188.591 108.761 188.121 108.519 187.923C104.369 184.765 100.264 181.896 96.599 178.146C96.2961 177.842 95.7962 178.267 96.084 178.571Z" fill="white"/>
<path d="M102.627 178.146C105.626 181.046 109.124 184.279 113.002 185.934C113.32 186.071 113.532 185.615 113.274 185.418C111.608 184.082 109.715 183.05 108.004 181.759C106.292 180.469 104.656 179.102 103.066 177.675C102.794 177.432 102.369 177.888 102.627 178.146Z" fill="white"/>
<path d="M109.473 178.586C111.442 180.985 114.198 183.885 117.197 184.917C117.546 185.039 117.758 184.583 117.485 184.355C116.289 183.369 114.865 182.64 113.653 181.653C112.336 180.575 111.139 179.391 110.049 178.085C109.73 177.706 109.155 178.191 109.473 178.586Z" fill="white"/>
<path d="M113.335 176.81C115.274 179.087 117.758 181.395 120.635 182.397C120.938 182.503 121.181 182.078 120.908 181.896C118.379 180.165 115.97 178.677 113.911 176.339C113.593 175.975 113.017 176.461 113.335 176.825V176.81Z" fill="white"/>
<path d="M118.106 176.628C120.014 178.298 121.892 180.241 124.028 181.623C124.3 181.805 124.664 181.44 124.422 181.182C122.71 179.269 120.484 177.69 118.515 176.051C118.166 175.762 117.773 176.339 118.106 176.628Z" fill="white"/>
<path d="M19.8256 126.39C19.5378 125.009 19.8105 123.749 20.1134 122.398C20.174 122.094 19.7196 121.957 19.5681 122.2C18.72 123.491 18.7503 125.085 19.1592 126.512C19.2804 126.937 19.9316 126.831 19.8408 126.39H19.8256Z" fill="white"/>
<path d="M20.583 117.813C20.7194 114.685 21.9159 111.725 23.9151 109.326C24.2937 108.87 23.5364 108.339 23.1578 108.794C21.0071 111.391 19.9621 114.381 19.9772 117.752C19.9772 118.131 20.5679 118.207 20.583 117.813Z" fill="white"/>
<path d="M24.9448 128.06C24.8236 121.851 26.4745 116.537 28.5646 110.783C28.7161 110.373 28.1102 110.024 27.8679 110.419C24.7933 115.626 24.0209 122.155 24.3541 128.091C24.3693 128.425 24.9599 128.41 24.9599 128.06H24.9448Z" fill="white"/>
<path d="M29.5794 123.308C29.6854 120.712 29.9277 118.162 30.6699 115.657C31.3363 113.395 32.4873 111.436 33.3961 109.28C33.5627 108.886 33.0174 108.673 32.7751 108.961C29.6248 112.666 28.4586 118.602 28.807 123.354C28.8372 123.794 29.5642 123.764 29.5794 123.324V123.308Z" fill="white"/>
<path d="M35.1835 119.558C34.9714 116.051 36.0316 113.167 37.1221 109.903C37.2433 109.523 36.7435 109.25 36.5011 109.569C34.3807 112.347 34.0021 116.325 34.3353 119.695C34.3959 120.257 35.2138 120.09 35.1835 119.543V119.558Z" fill="white"/>
<path d="M40.1057 121.745C39.7422 116.917 40.8327 112.347 42.8622 107.99C43.1349 107.398 42.2261 107.094 41.9232 107.641C39.6059 112.074 38.9698 116.917 39.5453 121.836C39.5908 122.2 40.1209 122.094 40.1057 121.745Z" fill="white"/>
<path d="M44.907 118.207C44.8313 116.158 45.013 114.123 45.5583 112.15C46.0581 110.343 47.088 108.825 47.6787 107.079C47.7847 106.76 47.3909 106.426 47.1183 106.684C44.2406 109.402 43.6651 114.533 44.0891 118.253C44.1346 118.708 44.9221 118.693 44.907 118.222V118.207Z" fill="white"/>
<path d="M50.1321 120.226C50.0413 119.528 50.0261 118.845 50.1321 118.147C50.223 117.509 50.4805 116.917 50.5411 116.279C50.5714 115.945 50.1473 115.809 49.9504 116.067C49.1022 117.175 49.178 119.057 49.39 120.363C49.4657 120.849 50.2079 120.712 50.1321 120.226Z" fill="white"/>
<path d="M51.4346 113.395C52.8432 109.994 54.8272 106.35 55.5694 102.737C55.63 102.433 55.1604 102.266 55.009 102.524C53.1006 105.682 52.0707 109.705 50.7985 113.152C50.647 113.562 51.268 113.789 51.4346 113.395Z" fill="white"/>
<path d="M55.1453 119.574C56.4781 113.516 59.1135 108.719 62.2032 103.435C62.4304 103.04 61.9306 102.706 61.6428 103.04C57.6444 107.443 55.418 113.744 54.4183 119.513C54.3426 119.984 55.0393 120.029 55.1453 119.589V119.574Z" fill="white"/>
<path d="M61.355 118.192C62.7333 111.998 65.4746 107.018 68.4583 101.492C68.6704 101.097 68.1857 100.763 67.8979 101.097C63.8238 105.697 61.6125 112.165 60.522 118.116C60.416 118.663 61.249 118.708 61.355 118.192Z" fill="white"/>
<path d="M68.1405 113.455C69.8671 109.128 72.1086 104.604 73.1385 100.05C73.2143 99.7307 72.6993 99.5486 72.5478 99.837C70.276 103.921 68.928 108.779 67.3226 113.167C67.1257 113.683 67.9284 113.987 68.1253 113.47L68.1405 113.455Z" fill="white"/>
<path d="M73.6382 113.987C75.4103 109.523 77.3035 105.06 78.7272 100.459C78.8484 100.05 78.288 99.8522 78.1214 100.232C76.107 104.604 74.5167 109.189 72.8507 113.683C72.6538 114.199 73.4414 114.488 73.6382 113.971V113.987Z" fill="white"/>
<path d="M78.2122 115.095C79.3027 113.349 80.6658 111.558 81.3776 109.614C81.5139 109.22 81.0141 109.022 80.7718 109.295C79.4238 110.814 78.5151 112.848 77.5155 114.609C77.258 115.08 77.9093 115.566 78.2122 115.095Z" fill="white"/>
<path d="M83.0739 105.561C83.6191 103.845 84.4067 102.023 84.6188 100.232C84.6642 99.8674 84.1947 99.8218 84.0432 100.095C83.2254 101.674 82.877 103.602 82.3621 105.303C82.2257 105.758 82.9224 106.031 83.0739 105.561Z" fill="white"/>
<path d="M85.5428 113.516C87.3451 109.827 89.102 105.834 89.723 101.735C89.7836 101.37 89.2232 101.249 89.102 101.598C87.6783 105.515 86.603 109.447 84.8461 113.258C84.6492 113.698 85.3307 113.941 85.5428 113.516Z" fill="white"/>
<path d="M90.7378 112.226C91.798 108.961 93.1914 105.591 93.7518 102.19C93.8124 101.826 93.2974 101.765 93.1611 102.054C91.7223 105.151 90.9953 108.703 90.0411 111.967C89.9048 112.423 90.5863 112.681 90.7378 112.226Z" fill="white"/>
<path d="M95.6448 112.028C96.3567 108.582 97.1746 105.06 97.3866 101.553C97.4017 101.203 96.8868 101.052 96.7808 101.416C95.7812 104.832 95.3571 108.445 94.8573 111.952C94.7815 112.468 95.554 112.529 95.66 112.028H95.6448Z" fill="white"/>
<path d="M99.3708 115.475C100.249 114.017 100.825 112.271 100.416 110.556C100.34 110.206 99.81 110.206 99.7797 110.586C99.6283 112.134 99.4617 113.622 98.7044 115.019C98.4621 115.459 99.083 115.93 99.3557 115.475H99.3708Z" fill="white"/>
<path d="M100.855 107.17C101.067 105.5 101.567 103.572 101.355 101.887C101.309 101.568 100.84 101.537 100.749 101.826C100.189 103.42 100.264 105.409 100.098 107.094C100.052 107.58 100.794 107.656 100.855 107.17Z" fill="white"/>
<path d="M105.808 115.201C106.853 110.89 107.292 105.925 105.838 101.644C105.702 101.234 105.141 101.492 105.171 101.856C105.505 106.365 105.914 110.54 105.096 115.034C105.02 115.429 105.702 115.596 105.792 115.201H105.808Z" fill="white"/>
<path d="M112.093 113.167C112.063 109.174 112.32 104.908 111.639 100.96C111.563 100.551 110.957 100.581 110.912 100.991C110.488 104.969 111.018 109.22 111.245 113.197C111.275 113.668 112.093 113.653 112.093 113.167Z" fill="white"/>
<path d="M118.454 116.522C119.106 114.806 119.318 112.894 118.803 111.132C118.712 110.814 118.182 110.768 118.166 111.163C118.091 112.924 118.015 114.624 117.667 116.355C117.576 116.811 118.288 116.962 118.454 116.537V116.522Z" fill="white"/>
<path d="M118.954 107.625C118.545 104.786 118.409 101.659 117.485 98.9413C117.379 98.6376 116.864 98.7287 116.849 99.0475C116.804 101.917 117.637 104.953 118.121 107.777C118.212 108.309 119.03 108.172 118.954 107.625Z" fill="white"/>
<path d="M125.815 117.888C126.527 111.967 126.285 105.363 123.74 99.8826C123.573 99.5334 122.998 99.7004 123.089 100.095C124.376 106.122 125.558 111.588 125.133 117.828C125.103 118.268 125.77 118.329 125.815 117.888Z" fill="white"/>
<path d="M132.297 118.86C132.646 113.106 131.692 106.578 128.799 101.522C128.572 101.112 128.026 101.401 128.163 101.826C130.026 107.595 131.419 112.681 131.555 118.784C131.555 119.255 132.267 119.346 132.297 118.86Z" fill="white"/>
<path d="M4.84667 84.7764C2.92317 90.0142 3.48356 97.165 6.66415 101.826C6.89134 102.175 7.5426 101.871 7.42143 101.477C6.63386 98.9261 5.60395 96.5122 5.2556 93.8553C4.86182 90.8493 5.19502 87.9343 5.52823 84.9435C5.57366 84.5487 4.99813 84.4121 4.84667 84.7916V84.7764Z" fill="white"/>
<path d="M7.69409 89.8017C6.48243 93.9312 6.70962 99.0324 9.01176 102.767C9.19351 103.071 9.76904 102.965 9.66302 102.555C8.54224 98.2125 7.93642 94.5081 8.58768 89.9991C8.66341 89.4829 7.84554 89.2855 7.69409 89.8017Z" fill="white"/>
<path d="M11.238 93.7187C10.4352 96.8158 10.6776 100.626 12.4648 103.344C12.6617 103.633 13.1615 103.374 13.0857 103.056C12.3285 99.8826 11.7832 97.2105 12.071 93.916C12.1164 93.4454 11.3743 93.248 11.238 93.7338V93.7187Z" fill="white"/>
<path d="M15.2516 98.2733C14.8881 100.323 15.1607 103.314 16.751 104.832C16.9782 105.044 17.4477 104.908 17.3568 104.543C17.1145 103.557 16.6147 102.676 16.3875 101.674C16.13 100.581 16.0998 99.4726 16.1603 98.3492C16.1906 97.7723 15.3728 97.6964 15.2667 98.2581L15.2516 98.2733Z" fill="white"/>
<path d="M18.8108 99.8978C18.5837 102.448 19.5681 105.485 21.9611 106.714C22.2641 106.866 22.5215 106.426 22.3246 106.198C20.704 104.331 19.4924 102.57 19.6741 99.9737C19.7044 99.4271 18.8714 99.336 18.826 99.8978H18.8108Z" fill="white"/>
<path d="M22.8397 101.492C22.8094 102.767 23.0517 104.027 23.6727 105.151C24.1876 106.092 25.0358 107.352 26.1263 107.61C26.4746 107.686 26.7018 107.367 26.5049 107.064C25.9294 106.198 25.0812 105.667 24.5663 104.726C24.0362 103.754 23.7635 102.691 23.7635 101.583C23.7635 100.991 22.8548 100.9 22.8397 101.492Z" fill="white"/>
<path d="M27.7771 102.57C27.3681 105.075 29.4128 107.99 32.1087 107.686C32.3965 107.656 32.4571 107.17 32.1693 107.094C30.0944 106.593 28.3526 104.938 28.6555 102.661C28.7312 102.099 27.8831 102.023 27.7922 102.585L27.7771 102.57Z" fill="white"/>
<path d="M32.1693 102.555C32.6994 103.891 33.8505 105.849 35.3802 106.153C35.6831 106.213 35.8043 105.834 35.6528 105.621C35.2439 105.044 34.5926 104.65 34.1231 104.118C33.6233 103.541 33.2295 102.889 32.9417 102.175C32.7297 101.659 31.9573 102.038 32.1693 102.539V102.555Z" fill="white"/>
<path d="M36.2133 102.995C36.8343 104.407 38.4246 106.153 40.1209 106.031C40.4238 106.016 40.5147 105.545 40.2572 105.394C39.6514 105.029 38.985 104.877 38.4095 104.437C37.7734 103.967 37.2887 103.359 36.9403 102.646C36.7132 102.175 36.0165 102.524 36.2133 102.995Z" fill="white"/>
<path d="M40.7569 102.281C41.5597 103.754 43.574 105.318 45.3461 104.635C45.6035 104.528 45.5884 104.088 45.3158 104.012C44.6494 103.83 43.9678 103.8 43.3166 103.511C42.5593 103.177 41.9232 102.615 41.4991 101.917C41.2265 101.477 40.4995 101.795 40.7569 102.266V102.281Z" fill="white"/>
<path d="M44.8766 100.399C45.2401 101.477 46.1186 102.281 47.1939 102.646C48.0875 102.949 49.4658 103.025 50.117 102.205C50.3291 101.932 50.0413 101.629 49.7687 101.659C48.9205 101.72 48.2844 102.038 47.4211 101.735C46.5881 101.446 45.9823 100.839 45.6793 100.019C45.4825 99.4727 44.6949 99.8674 44.8766 100.399Z" fill="white"/>
<path d="M48.1935 99.2449C49.6475 100.611 52.0253 101.477 53.8883 100.384C54.2215 100.186 54.07 99.7156 53.6914 99.7459C51.8436 99.9281 50.2533 99.8826 48.7842 98.5921C48.4207 98.2733 47.8451 98.8957 48.2086 99.2298L48.1935 99.2449Z" fill="white"/>
<path d="M52.8432 98.0152C53.9034 98.7743 55.9784 99.7611 57.2658 99.0627C57.5232 98.9261 57.5384 98.5162 57.2355 98.4099C56.6599 98.2125 56.0238 98.3188 55.4331 98.2125C54.6607 98.0759 53.964 97.7571 53.3279 97.332C52.8735 97.0283 52.404 97.7115 52.8432 98.0304V98.0152Z" fill="white"/>
<path d="M58.0836 97.2713C58.8711 97.4534 59.689 97.7571 60.5069 97.7419C60.8704 97.7419 60.9764 97.2864 60.6432 97.1194C59.9162 96.7551 59.0529 96.6488 58.2653 96.4818C57.8261 96.3755 57.6443 97.165 58.0836 97.2713Z" fill="white"/>
<path d="M62.082 96.5729C62.8847 96.7702 63.6723 96.9828 64.5053 97.0283C64.8688 97.0435 64.9748 96.5577 64.6416 96.4211C63.8692 96.0871 63.0816 95.9352 62.2637 95.7682C61.8094 95.6771 61.6125 96.4666 62.082 96.5729Z" fill="white"/>
<path d="M79.8025 99.9888C81.3019 98.4099 82.9377 96.8765 84.2705 95.1458C84.4522 94.9029 84.1039 94.5992 83.8767 94.7966C82.2561 96.2237 80.8475 97.9241 79.3784 99.4878C79.0907 99.7915 79.5147 100.292 79.8025 99.9888Z" fill="white"/>
<path d="M83.4072 99.8826C84.7248 97.9696 86.2091 96.0871 87.3148 94.0375C87.4965 93.7035 87.0876 93.415 86.8452 93.7035C85.3458 95.4798 84.1342 97.5445 82.8468 99.4878C82.6044 99.8674 83.1648 100.262 83.4223 99.8826H83.4072Z" fill="white"/>
<path d="M86.2697 99.7915C87.2238 98.7287 88.178 97.666 89.1322 96.5881C90.0561 95.5405 91.1314 94.5081 91.8584 93.2936C92.0402 93.0051 91.6918 92.6559 91.404 92.8836C90.3438 93.7338 89.4957 94.8877 88.6021 95.9049C87.6176 97.0435 86.6332 98.1974 85.6638 99.336C85.3458 99.7004 85.9668 100.125 86.2848 99.7611L86.2697 99.7915Z" fill="white"/>
<path d="M90.2985 99.0931C91.0254 97.8482 91.8282 96.664 92.7521 95.5557C93.6608 94.4474 94.7664 93.5061 95.6146 92.3675C95.7963 92.1094 95.4934 91.6995 95.2057 91.8816C92.7975 93.3543 91.0255 96.2693 89.7078 98.6832C89.4806 99.0931 90.0713 99.5182 90.3136 99.1083L90.2985 99.0931Z" fill="white"/>
<path d="M94.2667 99.3816C95.9933 96.0263 98.3711 93.3695 100.704 90.4545C100.931 90.1661 100.522 89.8321 100.249 90.0446C97.2504 92.3067 95.1148 95.7834 93.4942 99.1083C93.2519 99.5941 94.0243 99.8522 94.2667 99.3967V99.3816Z" fill="white"/>
<path d="M97.841 98.8957C100.007 95.7531 102.46 92.5952 104.172 89.164C104.354 88.7997 103.808 88.572 103.581 88.8452C101.143 91.7298 99.2192 95.252 97.22 98.4403C96.9625 98.8654 97.5683 99.2905 97.8561 98.8805L97.841 98.8957Z" fill="white"/>
<path d="M102.264 98.0759C104.354 94.7814 106.626 91.5173 108.337 88.0102C108.504 87.6762 107.989 87.4333 107.777 87.7218C105.444 90.8037 103.581 94.2956 101.597 97.6053C101.34 98.0455 101.976 98.5162 102.264 98.0759Z" fill="white"/>
<path d="M105.172 98C107.565 94.4929 110.215 90.7126 111.639 86.6894C111.76 86.3706 111.29 86.1125 111.094 86.4009C108.716 89.9839 106.883 93.9312 104.535 97.5597C104.263 97.9696 104.884 98.4099 105.156 98H105.172Z" fill="white"/>
<path d="M109.427 95.829C112.002 92.7622 114.32 89.2248 115.501 85.3685C115.622 84.9738 115.092 84.8068 114.91 85.156C113.062 88.739 111.275 92.2005 108.806 95.4039C108.504 95.7986 109.125 96.2085 109.427 95.8441V95.829Z" fill="white"/>
<path d="M39.0607 60.1816C40.2724 61.806 41.0448 63.5064 41.9687 65.2827C42.105 65.5408 42.5442 65.4194 42.4685 65.1157C42.0596 63.1724 40.8328 61.2595 39.5302 59.7717C39.2728 59.468 38.8335 59.8476 39.0607 60.1664V60.1816Z" fill="white"/>
<path d="M41.3174 57.1452C42.5139 59.9235 44.0436 62.8991 45.8005 65.3435C45.9974 65.6167 46.3761 65.3283 46.27 65.0398C45.1493 62.2311 43.4529 59.3466 41.7566 56.8567C41.5749 56.5986 41.1962 56.8719 41.3174 57.1452Z" fill="white"/>
<path d="M43.3167 53.1371C45.2251 57.297 47.1637 61.6998 49.5719 65.5864C49.7688 65.9052 50.2383 65.6926 50.102 65.3283C48.4208 61.0773 46.0429 56.9022 43.8317 52.8942C43.6499 52.5754 43.1653 52.8031 43.3167 53.1371Z" fill="white"/>
<path d="M45.5431 50.2525C46.6033 51.3001 47.1183 52.6209 47.3303 54.0784C47.3758 54.382 47.8604 54.3668 47.8756 54.0632C47.9816 52.4235 47.2395 50.9205 46.0732 49.8122C45.7552 49.5086 45.2251 49.9489 45.5431 50.2677V50.2525Z" fill="white"/>
<path d="M49.3749 56.8871C50.9349 59.9538 52.4495 63.0358 54.1004 66.0418C54.2972 66.391 54.8576 66.1329 54.6759 65.7685C53.131 62.7018 51.4802 59.6806 49.8596 56.6593C49.7081 56.3709 49.2386 56.5834 49.3901 56.8871H49.3749Z" fill="white"/>
<path d="M50.9349 53.9721C53.3885 57.9346 55.4483 62.1856 57.9777 66.0722C58.1594 66.3606 58.5684 66.0418 58.4623 65.7685C56.7509 61.5024 53.9944 57.464 51.465 53.6381C51.2681 53.3496 50.7532 53.6685 50.9349 53.9721Z" fill="white"/>
<path d="M56.1298 55.551C58.3259 59.2706 60.0374 63.218 62.1426 66.9679C62.2941 67.2412 62.809 67.1349 62.703 66.7857C61.4611 62.7018 59.0378 58.7241 56.6902 55.1867C56.4781 54.8678 55.9329 55.217 56.1298 55.551Z" fill="white"/>
<path d="M59.6134 54.2758C61.2491 57.7221 62.8545 61.472 64.9901 64.6451C65.187 64.9487 65.5959 64.6147 65.4899 64.3263C64.1722 60.7888 62.0518 57.297 60.2192 54.0025C60.0223 53.6381 59.4316 53.8962 59.6285 54.2909L59.6134 54.2758Z" fill="white"/>
<path d="M61.7943 51.9225C63.3089 55.1411 64.7174 58.6178 66.6258 61.6087C66.8378 61.9275 67.3074 61.7149 67.171 61.3506C65.9594 58.0105 64.051 54.7768 62.4153 51.6341C62.2184 51.2545 61.6126 51.5278 61.7943 51.9225Z" fill="white"/>
<path d="M64.6871 52.4539C65.3384 53.2434 65.9139 54.0936 66.3986 55.0045C66.8378 55.8243 67.0801 56.7808 67.5648 57.5703C67.7465 57.8587 68.1555 57.7373 68.1252 57.3881C67.9737 55.4751 66.4289 53.4104 65.1869 52.0288C64.8991 51.71 64.4145 52.1199 64.6871 52.4539Z" fill="white"/>
<path d="M66.9136 51.7707C67.4891 52.9397 68.0192 54.1847 68.7765 55.2474C68.9885 55.5359 69.3672 55.217 69.2763 54.9286C68.8674 53.714 68.1555 52.5905 67.5345 51.4823C67.3225 51.1027 66.7167 51.376 66.9136 51.7859V51.7707Z" fill="white"/>
<path d="M78.7272 63.0661C79.1513 63.6582 79.545 64.3566 79.8328 65.0246C80.1206 65.6471 80.2266 66.3606 80.5598 66.9679C80.7113 67.2564 81.1505 67.1957 81.1808 66.8617C81.3777 65.3283 80.2114 63.6734 79.2118 62.6562C78.9089 62.3526 78.4546 62.7321 78.712 63.0813L78.7272 63.0661Z" fill="white"/>
<path d="M79.8024 60.0297C80.6809 62.1097 81.5139 64.5388 82.8164 66.391C82.983 66.6339 83.4071 66.4214 83.3465 66.1481C82.7861 63.9619 81.4684 61.7453 80.4688 59.7261C80.2568 59.301 79.6358 59.6046 79.8176 60.0449L79.8024 60.0297Z" fill="white"/>
<path d="M81.9835 58.2686C83.1345 60.7585 84.2704 63.385 85.7547 65.6926C85.9365 65.9811 86.3151 65.6623 86.2242 65.389C85.2852 62.8384 83.8918 60.3789 82.5893 57.9802C82.3772 57.6006 81.8017 57.8739 81.9835 58.2686Z" fill="white"/>
<path d="M84.2856 54.6857C85.3912 57.5399 86.4665 60.5763 87.966 63.2332C88.1174 63.4913 88.6172 63.385 88.5112 63.0662C87.6176 60.1057 86.1636 57.2059 84.846 54.4276C84.6793 54.0632 84.1341 54.3213 84.2856 54.7009V54.6857Z" fill="white"/>
<path d="M86.4818 51.71C88.5871 55.3385 90.1017 59.0581 91.3285 63.0661C91.4193 63.3546 91.8737 63.3091 91.8131 62.975C91.071 58.8152 89.3595 54.8527 87.0422 51.3304C86.8302 51.0116 86.2849 51.3608 86.4818 51.6948V51.71Z" fill="white"/>
<path d="M89.723 48.795C91.495 53.547 93.3731 58.3749 95.6146 62.9295C95.7661 63.2332 96.1902 63.0206 96.0841 62.7018C94.4484 57.8891 92.4037 53.1371 90.3136 48.5218C90.147 48.1422 89.5866 48.4155 89.7381 48.795H89.723Z" fill="white"/>
<path d="M92.0857 45.9105C92.7066 46.3204 92.8278 46.8973 93.1307 47.5046C93.2367 47.7323 93.6305 47.7475 93.7063 47.4742C93.994 46.5177 93.2065 45.6675 92.3886 45.3184C92.0402 45.1665 91.7676 45.6979 92.0857 45.8953V45.9105Z" fill="white"/>
<path d="M94.5241 50.875C96.796 54.7616 98.6438 58.7696 100.507 62.8688C100.688 63.2635 101.249 62.9751 101.097 62.5803C99.5525 58.4053 97.3867 54.3972 95.0542 50.6169C94.8573 50.2981 94.3121 50.541 94.509 50.875H94.5241Z" fill="white"/>
<path d="M94.8271 41.0674C97.8714 48.0815 101.173 54.9893 104.717 61.7757C104.96 62.2311 105.671 61.8971 105.429 61.4265C101.915 54.6249 98.553 47.7627 95.3118 40.8245C95.1603 40.5056 94.6757 40.7334 94.812 41.0522L94.8271 41.0674Z" fill="white"/>
<path d="M98.159 36.8923C98.886 38.2739 99.6433 39.701 100.597 40.9459C100.809 41.2192 101.203 40.9307 101.082 40.6423C100.491 39.2304 99.6281 37.8792 98.8102 36.6039C98.5679 36.2395 97.9469 36.4976 98.1741 36.9075L98.159 36.8923Z" fill="white"/>
<path d="M102.915 46.6392C105.384 51.5582 107.943 56.5682 111.184 61.0317C111.366 61.2898 111.805 61.0014 111.654 60.7281C109.019 55.885 106.05 51.2393 103.46 46.3811C103.278 46.0471 102.748 46.29 102.93 46.6392H102.915Z" fill="white"/>
<path d="M105.671 42.4945C107.958 47.0187 110.064 51.6341 112.335 56.1583C112.487 56.462 112.911 56.2494 112.79 55.9458C111.078 51.209 108.731 46.5936 106.232 42.2364C106.035 41.9024 105.505 42.1453 105.671 42.4945Z" fill="white"/>
<path d="M110.397 44.6352C111.048 46.1382 111.654 47.6716 112.411 49.129C112.563 49.4327 113.002 49.2201 112.881 48.9013C112.32 47.3679 111.593 45.8801 110.942 44.3771C110.791 44.0127 110.23 44.286 110.397 44.6352Z" fill="white"/>
<path d="M73.8655 43.6028C75.3347 43.0562 77.0916 42.616 78.4244 41.7506C78.6819 41.5836 78.6061 41.1281 78.2426 41.204C76.6675 41.4925 75.0621 42.4034 73.5929 43.0259C73.2143 43.1929 73.4869 43.7394 73.8655 43.6028Z" fill="white"/>
<path d="M73.1081 41.9935C74.6984 42.1757 76.6522 41.4469 77.3792 39.9287C77.5003 39.6706 77.152 39.4581 76.9551 39.6251C75.7889 40.6271 74.7741 41.3407 73.1687 41.3558C72.7749 41.3558 72.6992 41.9328 73.1081 41.9783V41.9935Z" fill="white"/>
<path d="M70.2911 41.0218C73.0173 40.5664 76.0464 39.8073 78.2728 38.0917C78.5303 37.8943 78.2577 37.53 77.9699 37.6362C75.3497 38.6383 72.9719 39.8832 70.2002 40.4905C69.8519 40.5664 69.9427 41.0826 70.2911 41.0218Z" fill="white"/>
<path d="M65.2021 41.0978C67.1256 40.3235 69.0491 39.5947 70.8666 38.5927C71.1089 38.4561 71.0029 38.0158 70.7151 38.1069C68.7007 38.7294 66.8227 39.6099 64.8992 40.4601C64.4902 40.6423 64.778 41.2648 65.2021 41.0978Z" fill="white"/>
<path d="M73.0778 38.3194C75.9252 36.9682 79.0452 35.8144 81.6805 34.0685C81.9683 33.8711 81.6502 33.4916 81.3776 33.5826C78.4242 34.615 75.6223 36.3761 72.8355 37.8032C72.5174 37.9703 72.7446 38.4561 73.0778 38.3043V38.3194Z" fill="white"/>
<path d="M60.4312 39.4277C67.7314 37.9703 75.0013 35.1616 80.9839 30.6373C81.2413 30.44 80.9536 29.9845 80.681 30.1515C74.138 34.0077 67.7768 37.0442 60.3403 38.866C59.992 38.9571 60.0828 39.5036 60.4463 39.4277H60.4312Z" fill="white"/>
<path d="M62.1579 35.9966C63.5664 35.0857 65.0961 34.5998 66.6713 34.0685C66.9893 33.9622 66.7773 33.5371 66.5047 33.5523C64.7781 33.6434 63.1726 34.448 61.7944 35.4349C61.4915 35.6474 61.8398 36.194 62.1427 35.9814L62.1579 35.9966Z" fill="white"/>
<path d="M68.9431 33.3549C73.8503 31.6849 78.9847 29.696 83.2255 26.6445C83.4678 26.4623 83.2104 26.0827 82.9377 26.2042C78.1669 28.4967 73.6837 31.0169 68.6857 32.8084C68.3222 32.945 68.5796 33.4764 68.9431 33.3549Z" fill="white"/>
<path d="M63.5968 31.1535C69.3521 29.5139 75.3044 27.2973 80.2267 23.8054C80.4539 23.6384 80.2116 23.274 79.9541 23.3955C74.4562 26.0372 69.2612 28.7548 63.4453 30.6677C63.1727 30.7588 63.3241 31.2143 63.5968 31.1383V31.1535Z" fill="white"/>
<path d="M64.7327 27.2214C67.9587 25.9764 71.2302 24.8074 74.3653 23.3651C74.6834 23.2133 74.4562 22.773 74.1382 22.8793C70.8667 23.9876 67.6861 25.3995 64.5055 26.7204C64.1723 26.857 64.4146 27.358 64.7479 27.2214H64.7327Z" fill="white"/>
<path d="M88.2386 16.0778C89.5411 16.8521 90.9345 17.8237 92.3734 18.3095C92.646 18.4006 92.8278 18.0514 92.6006 17.8692C91.4192 16.9128 89.8441 16.2751 88.4809 15.5919C88.2083 15.4553 87.966 15.9108 88.2235 16.0778H88.2386Z" fill="white"/>
<path d="M88.89 14.7266C90.965 15.8956 93.0854 17.2923 95.2966 18.1577C95.539 18.2488 95.7056 17.9148 95.4935 17.763C93.5549 16.3662 91.2376 15.3642 89.1324 14.2559C88.8597 14.1193 88.6174 14.5747 88.89 14.7266Z" fill="white"/>
<path d="M89.4201 12.9655C92.3281 14.8025 95.2663 16.7002 98.2954 18.3399C98.5378 18.4613 98.7801 18.1425 98.5529 17.9755C95.7207 16.017 92.6916 14.2863 89.723 12.5404C89.4352 12.3734 89.1323 12.7833 89.4201 12.9806V12.9655Z" fill="white"/>
<path d="M89.8289 10.2023C92.7217 12.1001 95.6145 13.9978 98.5225 15.8652C98.8405 16.0626 99.1737 15.5919 98.8557 15.3946C95.9477 13.512 93.0246 11.6598 90.1166 9.80759C89.844 9.64059 89.5562 10.0353 89.8289 10.2175V10.2023Z" fill="white"/>
<path d="M91.5405 8.48675C93.6458 9.33695 95.3875 10.5819 97.2808 11.7813C97.5079 11.9179 97.8108 11.6294 97.614 11.4169C96.0085 9.83795 93.7972 8.77521 91.7374 7.97056C91.4042 7.84911 91.2225 8.35012 91.5557 8.48675H91.5405Z" fill="white"/>
<path d="M92.5854 6.64973C93.5093 7.4392 94.4029 8.33493 95.4176 9.00294C95.66 9.16995 95.9932 8.83594 95.7811 8.60821C94.933 7.71247 93.8728 6.96855 92.9034 6.19427C92.6157 5.96654 92.3128 6.422 92.5854 6.64973Z" fill="white"/>
<path d="M29.0796 57.1148C30.7607 58.8455 32.4722 60.804 34.426 62.2311C34.6683 62.4133 34.9712 62.0793 34.7895 61.8364C33.3204 59.9538 31.3363 58.3142 29.5794 56.6897C29.2916 56.4164 28.807 56.796 29.0947 57.0996L29.0796 57.1148Z" fill="white"/>
<path d="M30.1549 54.7008C31.8361 57.5702 34.4109 60.5004 37.3794 62.0793C37.6672 62.2311 37.9398 61.8668 37.6823 61.6542C36.3495 60.5004 34.9258 59.468 33.699 58.1927C32.5631 57.0237 31.5786 55.718 30.6244 54.4124C30.4427 54.1695 30.0035 54.4428 30.1701 54.716L30.1549 54.7008Z" fill="white"/>
<path d="M32.0481 53.9721C34.0928 56.3253 36.1677 58.7848 38.4699 60.8799C38.6819 61.0773 38.9546 60.7281 38.8031 60.5156C36.9099 58.0713 34.638 55.8243 32.4722 53.6077C32.2299 53.3497 31.8209 53.6988 32.0481 53.9721Z" fill="white"/>
<path d="M32.4571 51.1483C34.108 52.9246 35.7285 54.883 37.5915 56.4468C37.8035 56.629 38.0761 56.295 37.9095 56.0976C36.4404 54.1999 34.5472 52.5146 32.8509 50.8143C32.6237 50.5865 32.2148 50.9053 32.4571 51.1483Z" fill="white"/>
<path d="M34.6078 49.4327C35.5771 50.7535 36.5313 52.1351 37.6218 53.3648C37.849 53.6229 38.1973 53.3041 38.0156 53.0308C37.1069 51.6493 36.0467 50.374 35.0168 49.0835C34.7896 48.8102 34.3958 49.1594 34.6078 49.4327Z" fill="white"/>
<path d="M31.9725 59.9083C32.7147 58.5571 33.0933 57.0237 33.578 55.5662C34.0626 54.0936 34.5927 52.6209 34.835 51.0875C34.8956 50.7232 34.3958 50.6776 34.2595 50.9509C33.5174 52.3932 33.0782 53.9873 32.5935 55.5359C32.1543 56.9022 31.609 58.2686 31.4273 59.6957C31.397 59.9842 31.8362 60.1816 31.9877 59.9083H31.9725Z" fill="white"/>
<path d="M33.1994 60.6218C34.6079 59.0733 35.8953 57.13 36.3951 55.0652C36.4708 54.7768 36.0619 54.4731 35.8801 54.7919C34.8654 56.629 33.9415 58.4508 32.745 60.1967C32.5481 60.4852 32.957 60.8951 33.2145 60.6218H33.1994Z" fill="white"/>
<path d="M36.0164 60.3637C36.3951 59.7565 36.8343 59.1644 37.1221 58.5115C37.2584 58.1775 36.804 57.9954 36.6071 58.2383C36.1679 58.7545 35.8347 59.3921 35.4863 59.9842C35.2743 60.3486 35.8044 60.7281 36.0316 60.3637H36.0164Z" fill="white"/>
<path d="M29.1402 171.876C30.3518 169.765 31.6089 167.2 31.4272 164.695C31.3969 164.391 30.9273 164.361 30.8365 164.634C30.064 166.987 29.7763 169.34 28.6101 171.587C28.4586 171.891 28.9736 172.164 29.1402 171.861V171.876Z" fill="white"/>
<path d="M27.5651 177.751C28.1558 177.159 28.7767 176.582 29.2765 175.899C29.4583 175.641 29.1099 175.337 28.8676 175.535C28.2163 176.066 27.6711 176.719 27.1259 177.356C26.8987 177.615 27.3228 178.009 27.5651 177.766V177.751Z" fill="white"/>
<path d="M26.6261 158.485C26.3838 156.041 26.2778 153.414 25.6568 151.031C25.5811 150.758 25.1116 150.727 25.1116 151.046C25.1116 153.536 25.672 156.117 26.0506 158.576C26.1112 158.956 26.6564 158.85 26.6261 158.47V158.485Z" fill="white"/>
<path d="M31.7301 160.14C31.9118 157.286 31.7755 154.082 30.7759 151.38C30.6547 151.061 30.1852 151.243 30.2155 151.562C30.579 154.447 31.0788 157.164 31.1091 160.094C31.1091 160.474 31.6846 160.55 31.7149 160.155L31.7301 160.14Z" fill="white"/>
<path d="M25.2327 136.532C24.6723 134.847 24.6875 133.192 24.4906 131.461C24.4603 131.188 24.0211 131.142 23.9453 131.416C23.5212 133.192 24.0362 135.15 24.6875 136.805C24.8389 137.185 25.3539 136.912 25.2479 136.547L25.2327 136.532Z" fill="white"/>
<path d="M23.2184 143.592C21.9764 139.219 21.5523 134.892 20.9162 130.414C20.8708 130.095 20.3407 130.11 20.3407 130.444C20.2498 134.892 21.3554 139.462 22.658 143.698C22.764 144.032 23.3092 143.956 23.2184 143.607V143.592Z" fill="white"/>
<path d="M28.7313 134.634C28.3375 133.936 28.0952 133.192 28.08 132.372C28.0649 131.628 28.3072 130.96 28.4284 130.231C28.489 129.928 28.0497 129.806 27.8831 130.034C26.8835 131.416 27.2925 133.587 28.08 134.953C28.3072 135.348 28.9585 135.044 28.7313 134.649V134.634Z" fill="white"/>
<path d="M33.8506 134.118C33.8203 132.736 33.8052 131.37 33.6386 130.004C33.5931 129.7 33.1085 129.715 33.0933 130.019C33.0025 131.37 33.0933 132.706 33.1388 134.042C33.1539 134.498 33.8658 134.574 33.8506 134.103V134.118Z" fill="white"/>
<path d="M136.235 123.961C137.235 129.609 136.871 134.999 135.857 140.601C135.796 140.95 136.356 141.087 136.462 140.737C138.053 135.226 137.962 129.457 136.841 123.855C136.765 123.475 136.175 123.567 136.235 123.961Z" fill="white"/>
<path d="M136.326 158.516C136.584 154.31 137.326 150.029 137.341 145.823C137.341 145.489 136.826 145.307 136.735 145.687C135.72 149.771 135.751 154.265 135.72 158.455C135.72 158.85 136.311 158.91 136.341 158.516H136.326Z" fill="white"/>
<path d="M138.25 162.6C138.507 163.025 138.689 163.526 138.78 164.011C138.871 164.467 138.78 164.922 138.886 165.363C138.946 165.606 139.31 165.742 139.446 165.484C140.022 164.467 139.446 163.085 138.795 162.235C138.583 161.947 138.053 162.266 138.25 162.584V162.6Z" fill="white"/>
<path d="M121.514 175.261C122.831 176.992 124.225 178.723 125.77 180.256C125.997 180.469 126.315 180.196 126.133 179.953C124.876 178.161 123.407 176.506 121.923 174.912C121.68 174.654 121.286 174.988 121.514 175.261Z" fill="white"/>
<path d="M121.271 169.553C124.467 173.288 126.89 177.417 129.738 181.365C129.935 181.638 130.359 181.349 130.222 181.046C128.284 176.673 124.891 172.665 121.695 169.173C121.438 168.9 120.999 169.264 121.256 169.553H121.271Z" fill="white"/>
<path d="M127.148 171.542C129.238 175.003 131.237 178.662 133.691 181.866C133.903 182.139 134.357 181.85 134.191 181.532C132.328 177.949 129.859 174.578 127.617 171.223C127.436 170.95 126.981 171.253 127.148 171.527V171.542Z" fill="white"/>
<path d="M132.343 173.637C133.494 177.493 135.614 181.653 138.553 184.477C138.825 184.735 139.219 184.416 139.007 184.097C136.599 180.636 134.493 177.417 132.933 173.455C132.812 173.136 132.252 173.303 132.358 173.637H132.343Z" fill="white"/>
<path d="M138.068 179.391C139.098 181.835 139.976 184.431 141.264 186.754C141.4 186.997 141.854 186.891 141.748 186.602C140.961 184.052 139.689 181.577 138.628 179.133C138.462 178.753 137.901 179.026 138.053 179.406L138.068 179.391Z" fill="white"/>
<path d="M141.854 184.249C141.673 185.13 141.869 186.116 142.551 186.739C142.793 186.967 143.157 186.678 142.96 186.39C142.506 185.737 142.294 185.099 142.445 184.295C142.521 183.915 141.93 183.854 141.854 184.234V184.249Z" fill="white"/>
<path d="M14.4188 65.389C14.3279 65.7686 14.1462 66.057 14.0704 66.4517C13.9796 66.892 13.8735 67.3171 13.8735 67.7726C13.8735 68.0914 14.2976 68.1977 14.4188 67.894C14.5702 67.5449 14.646 67.1957 14.7217 66.8161C14.8126 66.3607 14.7974 65.9356 14.8731 65.4953C14.9186 65.2372 14.4794 65.1309 14.4036 65.389H14.4188Z" fill="white"/>
<path d="M18.3564 62.884C16.8267 65.7685 16.2815 69.139 16.9176 72.3576C16.9782 72.6916 17.4326 72.5853 17.4174 72.2665C17.2357 69.0479 17.6749 66.1329 18.8108 63.1269C18.9168 62.8536 18.4928 62.6259 18.3564 62.884Z" fill="white"/>
<path d="M20.0529 65.1764C19.0382 68.6076 18.6595 72.2057 19.3411 75.728C19.4017 76.062 19.8712 75.9557 19.8409 75.6369C19.5683 72.1146 19.6591 68.7898 20.5376 65.3586C20.6285 65.0398 20.1438 64.8424 20.0378 65.1764H20.0529Z" fill="white"/>
<path d="M22.0068 68.0307C21.5675 69.9284 21.2798 71.978 21.5221 73.9365C21.5524 74.2249 22.0068 74.2098 22.0219 73.9213C22.1431 71.978 22.2188 70.0954 22.5823 68.1673C22.6429 67.8333 22.0825 67.7119 22.0068 68.0307Z" fill="white"/>
<path d="M24.2482 69.7462C24.2482 70.9001 24.1573 72.145 24.3845 73.2836C24.4451 73.5873 24.8843 73.5721 24.9297 73.2685C25.0812 72.1298 24.8994 70.8849 24.8389 69.7311C24.8237 69.397 24.2482 69.4274 24.2633 69.7614L24.2482 69.7462Z" fill="white"/>
<path d="M22.249 59.134C23.2032 57.8283 24.2634 56.6138 25.5659 55.6725C26.9139 54.7008 28.3527 54.1998 29.8521 53.5318C30.155 53.3952 30.0036 52.9397 29.6704 52.9853C26.4746 53.4407 23.3698 56.0976 21.7643 58.8152C21.5826 59.134 22.0067 59.4376 22.2338 59.1492L22.249 59.134Z" fill="white"/>
<path d="M26.1415 57.9043C26.6716 57.3881 27.232 56.8871 27.8378 56.462C28.489 56.0065 29.2463 55.7332 29.9127 55.3081C30.1854 55.1411 30.0945 54.6857 29.731 54.7464C28.171 54.9893 26.6413 56.295 25.7022 57.4943C25.4902 57.7676 25.8991 58.1472 26.1566 57.9043H26.1415Z" fill="white"/>
<path d="M89.1626 67.4538C90.4651 66.5276 91.9494 65.556 93.0702 64.4173C93.2671 64.22 93.0702 63.7949 92.7824 63.9619C91.3587 64.7665 90.0411 65.9507 88.784 66.9983C88.4811 67.2412 88.8597 67.6663 89.1626 67.4538Z" fill="white"/>
<path d="M92.0857 68.9416C92.7369 68.0307 93.4337 67.1653 94.2061 66.3606C94.9179 65.6167 95.7661 64.9943 96.4779 64.2503C96.6748 64.053 96.4779 63.6431 96.1902 63.7949C94.3121 64.8424 92.7521 66.8313 91.601 68.6076C91.389 68.9264 91.8585 69.2604 92.0857 68.9416Z" fill="white"/>
<path d="M94.4029 70.0195C95.9175 67.9699 97.7653 66.6187 99.8705 65.2675C100.128 65.1005 99.9614 64.6906 99.6585 64.8273C97.3564 65.7989 95.4026 67.7119 93.9637 69.7159C93.7517 70.0043 94.2061 70.308 94.4181 70.0347L94.4029 70.0195Z" fill="white"/>
<path d="M97.1595 70.9912C97.8562 69.7311 98.7195 68.5772 99.7797 67.5904C100.855 66.5884 102.097 65.9507 103.339 65.1765C103.581 65.0246 103.506 64.5388 103.172 64.6299C100.295 65.4497 97.932 68.1066 96.6143 70.7027C96.4477 71.0215 96.9929 71.2948 97.1595 70.9912Z" fill="white"/>
<path d="M101.945 70.2928C102.718 67.8181 104.49 66.1481 106.777 65.055C107.034 64.9335 106.913 64.4629 106.61 64.5388C104.02 65.2827 102.097 67.5145 101.34 70.0651C101.218 70.4598 101.824 70.6875 101.945 70.2928Z" fill="white"/>
<path d="M104.672 70.2624C106.55 68.5013 108.594 66.7554 110.215 64.7665C110.397 64.5388 110.063 64.2655 109.851 64.4325C107.837 65.9963 106.08 68.0003 104.293 69.8221C104.036 70.0954 104.399 70.5357 104.672 70.2776V70.2624Z" fill="white"/>
<path d="M108.261 71.2189C109.367 68.9264 110.942 67.1957 112.623 65.3283C112.85 65.0854 112.457 64.7817 112.214 64.9487C110.155 66.4062 108.685 68.7139 107.656 70.976C107.489 71.3555 108.08 71.5681 108.261 71.2037V71.2189Z" fill="white"/>
<path d="M111.109 71.2796C112.623 69.7007 114.153 68.1066 115.501 66.3758C115.683 66.1481 115.334 65.8445 115.137 66.0418C113.547 67.5448 112.093 69.2149 110.669 70.8849C110.442 71.143 110.882 71.5529 111.124 71.2948L111.109 71.2796Z" fill="white"/>
<path d="M115.683 71.0215C116.425 70.0347 117.182 69.0782 117.864 68.0459C118.045 67.7726 117.652 67.5145 117.455 67.7574C116.667 68.6987 115.955 69.7159 115.228 70.6875C115.016 70.976 115.471 71.2948 115.683 71.0064V71.0215Z" fill="white"/>
<path d="M75.7131 77.899C75.7131 79.0376 75.6374 80.3129 75.8494 81.4364C75.91 81.74 76.3492 81.7249 76.3795 81.4212C76.531 80.2826 76.3795 79.0376 76.3038 77.8838C76.2886 77.5498 75.7131 77.565 75.7131 77.9142V77.899Z" fill="white"/>
<path d="M77.9851 77.2462C77.9851 78.7644 77.8639 80.4344 78.1669 81.9374C78.2274 82.2411 78.6667 82.2259 78.7121 81.9222C78.9241 80.4192 78.6818 78.7492 78.5909 77.231C78.5758 76.8818 77.9851 76.9122 77.9851 77.2613V77.2462Z" fill="white"/>
<path d="M80.8173 76.5782C80.8324 78.0964 80.6658 79.7967 81.0142 81.2694C81.0899 81.5882 81.5291 81.573 81.5897 81.239C81.8321 79.7512 81.5594 78.0508 81.4837 76.5478C81.4686 76.1682 80.8173 76.1986 80.8173 76.5782Z" fill="white"/>
<path d="M83.71 76.4871C83.6797 78.0205 83.6191 79.6601 83.9069 81.1783C83.9675 81.482 84.4067 81.4668 84.437 81.1631C84.6339 79.6449 84.4673 77.9901 84.331 76.4719C84.3007 76.1227 83.71 76.1379 83.6948 76.5022L83.71 76.4871Z" fill="white"/>
<path d="M87.7388 76.9425C87.7388 78.2482 87.6025 79.7816 87.9054 81.0568C87.9812 81.3908 88.4355 81.3605 88.481 81.0265C88.7082 79.736 88.481 78.2026 88.375 76.9122C88.3447 76.5478 87.7237 76.563 87.7237 76.9425H87.7388Z" fill="white"/>
<path d="M90.6316 76.8514C90.6467 78.0356 90.6467 79.2047 90.7982 80.3888C90.8285 80.6773 91.298 80.6621 91.3132 80.3737C91.3889 79.1895 91.3132 78.0205 91.2526 76.8363C91.2374 76.4871 90.6165 76.5022 90.6165 76.8666L90.6316 76.8514Z" fill="white"/>
<path d="M93.5851 77.2765C93.2822 78.066 93.5246 79.0225 94.3727 79.3413C94.6151 79.4324 94.8574 79.1136 94.6756 78.9162C94.297 78.5215 94.0244 78.0812 94.2061 77.5043C94.3424 77.1095 93.7366 76.8818 93.5851 77.2765Z" fill="white"/>
<path d="M93.7819 77.5194C94.5544 77.8838 95.2814 78.4152 96.0841 78.6733C96.387 78.7644 96.6293 78.3544 96.3567 78.1723C95.6297 77.6864 94.7361 77.4435 93.9485 77.0792C93.6608 76.9425 93.5093 77.398 93.7819 77.5346V77.5194Z" fill="white"/>
<path d="M58.5987 79.0376C58.3715 80.3433 58.0535 81.8463 58.1746 83.1672C58.2049 83.4556 58.6441 83.486 58.735 83.2127C59.1288 81.9374 59.1439 80.404 59.1894 79.0832C59.1894 78.7036 58.6744 78.6581 58.5987 79.0225V79.0376Z" fill="white"/>
<path d="M62.0216 78.3544C61.6883 80.3737 61.0068 82.15 60.3858 84.0781C60.2949 84.3665 60.7039 84.6094 60.8705 84.3362C61.9155 82.5902 62.3699 80.404 62.5819 78.4152C62.6274 78.0508 62.067 78.0053 62.0216 78.3544Z" fill="white"/>
<path d="M65.3687 78.1571C64.8386 80.1004 64.1873 82.0589 63.839 84.0477C63.7935 84.3362 64.2328 84.4273 64.3388 84.154C65.0203 82.2866 65.4141 80.2674 65.9139 78.3393C66.0048 77.9901 65.4747 77.7927 65.3838 78.1419L65.3687 78.1571Z" fill="white"/>
<path d="M67.6709 78.734C67.3377 80.2674 66.8682 81.8311 66.747 83.3949C66.7167 83.7137 67.1862 83.8352 67.2923 83.5163C67.8072 82.0133 68.0041 80.3585 68.2919 78.7947C68.3676 78.3848 67.7466 78.3393 67.6709 78.734Z" fill="white"/>
<path d="M70.5334 78.1571C70.594 78.8555 70.594 79.569 70.5031 80.2522C70.4123 80.8899 70.1851 81.482 70.0791 82.1196C70.0336 82.4232 70.4577 82.5599 70.6243 82.317C71.4119 81.1328 71.427 79.3868 71.1393 78.0508C71.0484 77.6561 70.5031 77.7624 70.5334 78.1571Z" fill="white"/>
<path d="M72.9566 79.1591C72.79 80.2978 72.5174 81.482 72.4871 82.6358C72.4871 82.9242 72.9263 83.0609 73.002 82.7572C73.2898 81.6034 73.3807 80.3889 73.5624 79.2198C73.623 78.8403 73.0323 78.7796 72.9717 79.1591H72.9566Z" fill="white"/>
<path d="M133.676 49.0835C137.099 54.2454 138.734 59.8779 138.432 66.0722C138.401 66.6036 139.219 66.6795 139.249 66.1481C139.613 59.8476 137.886 53.7596 134.1 48.7191C133.873 48.4307 133.479 48.795 133.676 49.0835Z" fill="white"/>
<path d="M134.387 59.468C135.039 60.8951 135.508 62.3678 135.675 63.9163C135.841 65.5256 135.463 66.9679 135.463 68.5469C135.463 68.7898 135.811 69.0023 135.963 68.729C137.432 65.9204 136.462 61.806 135.054 59.1492C134.827 58.7241 134.19 59.0277 134.387 59.468Z" fill="white"/>
<path d="M132.615 63.6582C133.403 65.3586 133.251 66.8313 133.145 68.6228C133.13 68.972 133.57 69.0479 133.721 68.7594C134.569 67.1198 134.084 64.9032 133.282 63.3546C133.07 62.9447 132.418 63.2332 132.631 63.6734L132.615 63.6582Z" fill="white"/>
<path d="M129.95 66.3606C129.95 67.4841 129.798 68.8353 130.116 69.9132C130.192 70.1713 130.631 70.308 130.707 69.974C130.965 68.8505 130.753 67.4993 130.677 66.3455C130.647 65.9356 129.95 65.9507 129.95 66.3758V66.3606Z" fill="white"/>
<path d="M128.193 46.4418C128.98 45.3639 130.086 44.5744 131.389 44.3012C132.6 44.0431 133.57 44.453 134.736 44.6807C134.993 44.7263 135.19 44.3467 134.993 44.1645C132.858 42.1149 128.844 43.7546 127.617 46.0319C127.42 46.4115 127.905 46.791 128.178 46.4266L128.193 46.4418Z" fill="white"/>
<path d="M127.83 49.9792C129.632 47.1098 132.706 45.8345 136.008 46.0926C136.523 46.1382 136.569 45.4095 136.084 45.3184C132.57 44.6503 129.041 46.5936 127.36 49.6604C127.193 49.9792 127.617 50.2981 127.814 49.9792H127.83Z" fill="white"/>
<path d="M129.041 51.6948C131.207 49.1898 134.085 48.5825 137.22 49.205C137.629 49.2809 137.735 48.6736 137.371 48.5218C134.251 47.1706 130.389 48.628 128.481 51.3153C128.223 51.6796 128.753 52.0288 129.041 51.71V51.6948Z" fill="white"/>
<path d="M129.405 54.4731C132.752 52.3628 135.857 52.5754 139.537 53.38C139.855 53.4407 140.022 52.9549 139.749 52.7879C136.432 50.8902 132.025 51.8618 129.026 53.8962C128.708 54.1087 129.071 54.6705 129.389 54.4579L129.405 54.4731Z" fill="white"/>
<path d="M131.979 56.2494C132.903 55.4144 134.191 55.0045 135.433 55.0956C136.705 55.1867 137.507 55.8395 138.522 56.5075C138.765 56.6593 139.098 56.4012 138.961 56.1431C137.583 53.4559 133.403 53.9417 131.631 55.8091C131.389 56.0672 131.722 56.4923 131.994 56.2342L131.979 56.2494Z" fill="white"/>
<path d="M133.585 58.5874C134.281 58.3749 134.963 58.3445 135.675 58.5267C136.356 58.7089 136.811 59.134 137.401 59.468C137.629 59.5895 137.962 59.3921 137.81 59.1188C137.023 57.6462 134.781 57.5095 133.388 58.0105C133.07 58.132 133.236 58.6937 133.57 58.5874H133.585Z" fill="white"/>
<path d="M44.0132 162.675C44.8008 164.983 45.452 167.412 46.4516 169.629C46.5577 169.872 46.9817 169.75 46.906 169.477C46.3153 167.093 45.3309 164.755 44.5281 162.417C44.407 162.068 43.9072 162.326 44.0132 162.66V162.675Z" fill="white"/>
<path d="M48.7992 155.57C49.3748 161.461 50.9499 167.534 53.7519 172.787C53.9185 173.09 54.3577 172.878 54.2365 172.559C52.101 166.926 50.3441 161.431 49.299 155.494C49.2384 155.16 48.7538 155.251 48.7841 155.585L48.7992 155.57Z" fill="white"/>
<path d="M54.797 153.642C55.1605 159.609 56.7053 165.681 59.7042 170.874C59.8708 171.162 60.31 170.965 60.1737 170.646C57.7352 165.059 55.9935 159.624 55.2968 153.551C55.2514 153.217 54.7667 153.323 54.7818 153.642H54.797Z" fill="white"/>
<path d="M59.8708 145.672C60.2949 149.133 60.9613 152.625 61.7337 156.026C61.8095 156.375 62.3244 156.284 62.279 155.935C61.8246 152.473 61.2339 148.981 60.4161 145.58C60.3252 145.231 59.8254 145.322 59.8708 145.672Z" fill="white"/>
<path d="M63.9451 161.112C64.2783 164.664 65.5202 168.323 68.0041 170.965C68.2313 171.208 68.5797 170.904 68.3979 170.631C66.3684 167.61 64.9144 164.679 64.4903 161.021C64.4449 160.671 63.9148 160.763 63.9451 161.112Z" fill="white"/>
<path d="M67.2315 145.383C67.5344 154.341 69.9577 163.07 74.8044 170.631C75.0315 170.98 75.6071 170.722 75.395 170.342C70.9877 162.478 68.322 154.386 67.7465 145.353C67.7313 145.064 67.2164 145.079 67.2315 145.368V145.383Z" fill="white"/>
<path d="M73.093 148.662C74.5773 155.51 76.8643 162.372 80.1812 168.551C80.3629 168.9 80.893 168.657 80.7416 168.293C77.9245 161.81 75.4709 155.434 73.6837 148.571C73.5928 148.207 73.0173 148.298 73.1082 148.678L73.093 148.662Z" fill="white"/>
<path d="M80.9233 148.404C82.1349 153.779 84.013 159.335 86.7241 164.133C86.9058 164.437 87.3602 164.224 87.2239 163.89C85.1338 158.698 83.0891 153.688 81.4534 148.313C81.3474 147.979 80.8324 148.055 80.9233 148.404Z" fill="white"/>
<path d="M88.3901 149.103C89.0565 154.234 91.1164 159.259 94.8876 162.888C95.13 163.116 95.5086 162.812 95.2966 162.539C92.0251 158.455 89.7532 154.234 88.996 148.996C88.9354 148.602 88.3447 148.708 88.4053 149.103H88.3901Z" fill="white"/>
<path d="M95.0997 152.579C96.9626 155.965 98.7498 159.411 100.764 162.691C100.931 162.964 101.37 162.767 101.219 162.478C99.507 159.017 97.523 155.692 95.6298 152.321C95.448 151.987 94.9179 152.245 95.0997 152.579Z" fill="white"/>
<path d="M103.157 155.57C104.066 158.531 105.565 161.218 107.807 163.374C108.034 163.602 108.428 163.298 108.201 163.04C106.186 160.823 104.626 158.333 103.733 155.464C103.627 155.115 103.051 155.206 103.157 155.57Z" fill="white"/>
<path d="M110.276 157.18C111.472 158.865 112.623 160.611 113.911 162.235C114.077 162.448 114.486 162.205 114.335 161.962C113.214 160.186 111.942 158.5 110.73 156.8C110.503 156.481 110.048 156.876 110.276 157.195V157.18Z" fill="white"/>
<path d="M116.182 156.982C116.501 157.544 116.819 158.106 117.137 158.667C117.273 158.925 117.682 158.728 117.546 158.47C117.243 157.908 116.94 157.331 116.637 156.77C116.485 156.481 116.016 156.709 116.182 156.982Z" fill="white"/>
</g>
<defs>
<clipPath id="clip0_97_589">
<rect width="157" height="196" fill="white"/>
</clipPath>
</defs>
</svg>
