<svg width="99" height="113" viewBox="0 0 99 113" fill="none" xmlns="http://www.w3.org/2000/svg">
<g clip-path="url(#clip0_97_206)">
<path d="M15.4946 92.2484C40.4507 91.7086 65.4286 91.7518 90.3631 90.5857C91.8821 90.5209 91.7953 87.8865 90.2546 87.9081C65.4503 88.1456 40.6027 88.124 15.7984 88.9878C13.7151 89.0526 13.3679 92.2916 15.4946 92.2484Z" fill="white"/>
<path d="M13.1292 91.1903C12.8036 94.7965 12.9772 98.381 13.0641 101.987C13.1509 104.989 12.6083 108.422 13.6934 111.251C14.301 112.827 16.406 112.374 17.0136 111.1C18.294 108.401 17.5779 104.665 17.4694 101.771C17.3392 98.381 17.2306 94.9692 17.1655 91.579C17.1221 89.0525 13.3679 88.5559 13.1292 91.1903Z" fill="white"/>
<path d="M15.2558 112.46C40.1686 113.993 65.2549 111.726 90.1677 111.078C92.8586 111.013 93.271 106.824 90.5583 106.911C65.5371 107.688 40.5592 108.832 15.5379 109.329C13.5414 109.372 13.1508 112.352 15.2341 112.482L15.2558 112.46Z" fill="white"/>
<path d="M89.2345 88.6207C88.4967 95.1204 89.2996 101.922 89.2779 108.465C89.2779 110.97 93.0322 111.424 93.2492 108.832C93.7701 102.311 92.9888 95.4875 92.7718 88.9446C92.7067 86.7204 89.4949 86.2886 89.2345 88.6207Z" fill="white"/>
<path d="M19.9215 90.9096C18.511 96.2864 18.3808 101.901 19.2054 107.364C19.2922 107.99 20.2688 107.817 20.182 107.191C19.4441 101.728 19.7262 96.5024 20.6594 91.0823C20.7462 90.6505 20.0083 90.4777 19.8998 90.9096H19.9215Z" fill="white"/>
<path d="M23.9146 91.0823C23.1334 96.7183 22.9815 102.765 23.0466 108.444C23.0466 109.113 24.0231 109.243 24.1099 108.552C24.6741 102.851 25.0214 96.7831 24.7392 91.0607C24.7175 90.5857 23.9797 90.6505 23.9146 91.1039V91.0823Z" fill="white"/>
<path d="M28.9491 91.8382C28.2547 96.7183 28.2113 101.987 28.0377 106.932C28.016 107.645 29.0576 107.753 29.1444 107.04C29.8606 102.203 30.338 96.6752 29.7738 91.8166C29.7087 91.3199 28.9925 91.4063 28.9491 91.8598V91.8382Z" fill="white"/>
<path d="M35.8284 90.7152C35.2208 96.0705 35.3076 101.555 35.1991 106.932C35.1991 107.731 36.4144 107.861 36.4578 107.04C36.6531 101.62 37.0003 96.0921 36.6748 90.6721C36.6531 90.1754 35.8935 90.2402 35.8284 90.7152Z" fill="white"/>
<path d="M44.0097 90.888C43.6625 96.3512 42.903 102.484 43.6191 107.904C43.6842 108.465 44.4437 108.357 44.5305 107.861C45.5722 102.527 45.1816 96.416 45.1599 90.996C45.1599 90.2618 44.0531 90.1322 43.988 90.888H44.0097Z" fill="white"/>
<path d="M53.6015 91.9461C53.2543 96.8047 52.9071 102.354 53.6883 107.17C53.7751 107.688 54.5347 107.645 54.5998 107.127C55.2942 102.311 54.8168 96.7615 54.4044 91.903C54.361 91.4495 53.6449 91.4927 53.6015 91.9245V91.9461Z" fill="white"/>
<path d="M61.913 92.2052C62.282 97.3877 62.282 102.095 61.4573 107.234C61.3488 107.882 62.4339 108.141 62.6075 107.494C63.9095 102.613 64.1482 96.9559 62.7377 92.0541C62.5858 91.5358 61.8913 91.6654 61.9347 92.2052H61.913Z" fill="white"/>
<path d="M70.55 90.0243C70.5934 95.5523 70.333 100.778 69.6168 106.263C69.53 106.889 70.5717 107.148 70.7236 106.522C72.0039 101.253 72.3077 95.3579 71.4614 90.0027C71.3746 89.506 70.5283 89.506 70.55 90.0459V90.0243Z" fill="white"/>
<path d="M77.4727 90.0674C76.9301 95.7466 76.3659 101.728 76.5829 107.429C76.6046 108.077 77.516 108.185 77.6029 107.515C78.3841 101.858 78.4275 95.8545 78.4492 90.1538C78.4492 89.5492 77.5378 89.4412 77.4727 90.0674Z" fill="white"/>
<path d="M81.509 90.1323C81.6826 95.5955 80.9665 100.972 80.9882 106.392C80.9882 106.846 81.726 107.127 81.8562 106.587C83.2017 101.361 82.8761 95.4443 82.4204 90.0891C82.377 89.5708 81.4873 89.614 81.509 90.1323Z" fill="white"/>
<path d="M86.1748 89.7651C86.2399 96.3296 87.6288 102.657 86.6088 109.221C86.5003 109.89 87.5637 110.128 87.7807 109.48C89.7121 103.326 88.0628 95.9193 87.0645 89.7219C86.9777 89.2469 86.1748 89.2469 86.1965 89.7651H86.1748Z" fill="white"/>
<path d="M4.31856 70.9786C29.2747 70.4387 54.2526 70.4819 79.187 69.3159C80.7061 69.2511 80.6193 66.6167 79.0785 66.6383C54.2743 66.8758 29.4266 66.8542 4.62238 67.7179C2.53908 67.7827 2.19186 71.0218 4.31856 70.9786Z" fill="white"/>
<path d="M1.95313 69.9205C1.62761 73.5267 1.80122 77.1112 1.88803 80.7174C1.97483 83.7189 1.4323 87.1523 2.51736 89.9811C3.12498 91.5574 5.22998 91.104 5.83761 89.8299C7.11797 87.1307 6.40184 83.395 6.29333 80.5014C6.16313 77.1112 6.05462 73.6994 5.98952 70.3092C5.94612 67.7827 2.19184 67.2861 1.95313 69.9205Z" fill="white"/>
<path d="M4.0798 91.2119C28.9926 92.7667 54.0789 90.4777 78.9917 89.8299C81.6826 89.7651 82.0949 85.576 79.3823 85.6623C54.361 86.4397 29.3832 87.5842 4.36191 88.0808C2.36542 88.124 1.9748 91.104 4.0581 91.2335L4.0798 91.2119Z" fill="white"/>
<path d="M78.0586 67.3725C77.3208 73.8722 78.1237 80.6742 78.102 87.2171C78.102 89.722 81.8563 90.1754 82.0733 87.5842C82.5941 81.0629 81.8129 74.2393 81.5959 67.6964C81.5308 65.4722 78.319 65.0403 78.0586 67.3725Z" fill="white"/>
<path d="M8.74551 69.6398C7.33495 75.0166 7.20474 80.631 8.02938 86.0942C8.11618 86.7204 9.09273 86.5477 9.00593 85.9215C8.26809 80.4582 8.5502 75.2326 9.48335 69.8125C9.57015 69.3807 8.83232 69.2079 8.72381 69.6398H8.74551Z" fill="white"/>
<path d="M12.7386 69.8125C11.9573 75.4485 11.8054 81.4947 11.8705 87.1739C11.8705 87.8433 12.8471 87.9729 12.9339 87.2819C13.4981 81.5811 13.8453 75.5133 13.5632 69.7909C13.5415 69.3159 12.8037 69.3807 12.7386 69.8341V69.8125Z" fill="white"/>
<path d="M17.7731 70.5683C17.0787 75.4485 17.0353 80.7174 16.8617 85.6624C16.84 86.3749 17.8816 86.4829 17.9684 85.7703C18.6845 80.9333 19.162 75.4053 18.5977 70.5467C18.5326 70.0501 17.8165 70.1365 17.7731 70.5899V70.5683Z" fill="white"/>
<path d="M24.6524 69.4455C24.0448 74.8007 24.1316 80.2855 24.0231 85.6623C24.0231 86.4613 25.2383 86.5909 25.2817 85.7703C25.477 80.3503 25.8243 74.8223 25.4987 69.4023C25.477 68.9056 24.7175 68.9704 24.6524 69.4455Z" fill="white"/>
<path d="M32.8337 69.6182C32.4865 75.0814 31.7269 81.214 32.4431 86.6341C32.5082 87.1739 33.2677 87.0875 33.3545 86.5909C34.3962 81.2572 34.0055 75.1462 33.9838 69.7262C33.9838 68.992 32.8771 68.8624 32.812 69.6182H32.8337Z" fill="white"/>
<path d="M42.4255 70.6763C42.0783 75.5349 41.7311 81.0845 42.5123 85.8999C42.5991 86.4181 43.3586 86.3749 43.4237 85.8567C44.1182 81.0413 43.6407 75.4917 43.2284 70.6331C43.185 70.1796 42.4689 70.2228 42.4255 70.6547V70.6763Z" fill="white"/>
<path d="M50.7153 70.9354C51.0842 76.1179 51.0842 80.8254 50.2596 85.9647C50.1511 86.6125 51.2361 86.8716 51.4097 86.2238C52.7118 81.3436 52.9288 75.686 51.5399 70.7843C51.388 70.266 50.6936 70.3956 50.737 70.9354H50.7153Z" fill="white"/>
<path d="M59.3739 68.7545C59.4173 74.2825 59.1569 79.5081 58.4408 84.9929C58.354 85.6192 59.3956 85.8783 59.5476 85.2521C60.8279 79.9832 61.1317 74.0881 60.2854 68.7329C60.1986 68.2362 59.3522 68.2362 59.3739 68.7761V68.7545Z" fill="white"/>
<path d="M66.2749 68.7976C65.7324 74.4768 65.1681 80.4583 65.3852 86.159C65.4069 86.8068 66.3183 86.9148 66.4051 86.2454C67.1863 80.5878 67.2297 74.5848 67.2514 68.884C67.2514 68.2794 66.34 68.1714 66.2749 68.7976Z" fill="white"/>
<path d="M70.333 68.884C70.5066 74.3472 69.7904 79.7241 69.8121 85.1441C69.8121 85.5976 70.55 85.8783 70.6802 85.3384C72.0256 80.1128 71.7001 74.1961 71.2444 68.8408C71.201 68.3226 70.3113 68.3658 70.333 68.884Z" fill="white"/>
<path d="M74.9988 68.5169C75.0639 75.0814 76.4527 81.4084 75.4328 87.9729C75.3243 88.6423 76.3876 88.8798 76.6046 88.232C78.536 82.0778 76.8868 74.6711 75.8885 68.4737C75.8017 67.9987 74.9988 67.9987 75.0205 68.5169H74.9988Z" fill="white"/>
<path d="M7.81234 48.7802C32.7685 48.2404 57.7464 48.2836 82.6808 47.1175C84.1999 47.0527 84.1131 44.4183 82.5723 44.4399C57.7681 44.6774 32.9204 44.6558 8.11615 45.5196C6.03285 45.5844 5.68564 48.8234 7.81234 48.7802Z" fill="white"/>
<path d="M5.4469 47.7222C5.12139 51.3283 5.295 54.9129 5.3818 58.519C5.4686 61.5206 4.92608 64.954 6.01113 67.7827C6.61876 69.3591 8.72376 68.9056 9.33138 67.6316C10.6117 64.9324 9.89561 61.1966 9.78711 58.3031C9.6569 54.9129 9.54839 51.5011 9.48329 48.1108C9.43989 45.5844 5.68561 45.0877 5.4469 47.7222Z" fill="white"/>
<path d="M7.55184 69.0136C32.4646 70.5467 57.551 68.2794 82.4637 67.6316C85.1546 67.5668 85.567 63.3776 82.8543 63.464C57.8331 64.2413 32.8552 65.3858 7.83396 65.8825C5.83746 65.9257 5.44685 68.9056 7.53014 69.0351L7.55184 69.0136Z" fill="white"/>
<path d="M81.5307 45.1741C80.7928 51.6738 81.5958 58.4758 81.5741 65.0187C81.5741 67.5236 85.3284 67.9771 85.5454 65.3858C86.0662 58.8645 85.285 52.0409 85.0679 45.498C85.0028 43.2738 81.7911 42.842 81.5307 45.1741Z" fill="white"/>
<path d="M12.2176 47.4414C10.807 52.8183 10.6768 58.4327 11.5014 63.8959C11.5882 64.5221 12.5648 64.3493 12.478 63.7231C11.7401 58.2599 12.0222 53.0342 12.9554 47.6142C13.0422 47.1823 12.3044 47.0096 12.1959 47.4414H12.2176Z" fill="white"/>
<path d="M16.2324 47.6142C15.4511 53.2501 15.2992 59.2964 15.3643 64.9755C15.3643 65.6449 16.3409 65.7745 16.4277 65.0835C16.9919 59.3828 17.3391 53.3149 17.057 47.5926C17.0353 47.1175 16.2975 47.1823 16.2324 47.6358V47.6142Z" fill="white"/>
<path d="M21.2453 48.37C20.5508 53.2502 20.5074 58.519 20.3338 63.464C20.3121 64.1766 21.3538 64.2845 21.4406 63.572C22.1567 58.735 22.6341 53.207 22.0699 48.3484C22.0048 47.8517 21.2887 47.9381 21.2453 48.3916V48.37Z" fill="white"/>
<path d="M28.1244 47.2471C27.5168 52.6023 27.6036 58.0871 27.4951 63.464C27.4951 64.263 28.7104 64.3925 28.7538 63.572C28.9491 58.1519 29.2963 52.6239 28.9708 47.2039C28.9491 46.7073 28.1895 46.772 28.1244 47.2471Z" fill="white"/>
<path d="M36.3275 47.4414C35.9802 52.9046 35.2207 59.0373 35.9368 64.4573C36.0019 64.9971 36.7615 64.9107 36.8483 64.4141C37.8899 59.0804 37.4993 52.9694 37.4776 47.5494C37.4776 46.8152 36.3709 46.6856 36.3058 47.4414H36.3275Z" fill="white"/>
<path d="M45.8975 48.4779C45.5503 53.3365 45.2031 58.8861 45.9843 63.7015C46.0711 64.2198 46.8307 64.1766 46.8958 63.6583C47.5902 58.8429 47.1128 53.2933 46.7005 48.4347C46.6571 47.9813 45.9409 48.0245 45.8975 48.4563V48.4779Z" fill="white"/>
<path d="M54.2091 48.7586C54.578 53.9411 54.578 58.6486 53.7533 63.7879C53.6448 64.4357 54.7299 64.6948 54.9035 64.047C56.2055 59.1668 56.4226 53.5093 55.0337 48.6075C54.8818 48.0892 54.1874 48.2188 54.2308 48.7586H54.2091Z" fill="white"/>
<path d="M62.8461 46.5561C62.8895 52.0841 62.6291 57.3098 61.913 62.7946C61.8262 63.4208 62.8678 63.6799 63.0197 63.0537C64.3001 57.7848 64.6039 51.8897 63.7575 46.5345C63.6707 46.0378 62.8244 46.0378 62.8461 46.5777V46.5561Z" fill="white"/>
<path d="M69.7687 46.5993C69.2262 52.2784 68.6619 58.2599 68.8789 63.9606C68.9006 64.6085 69.8121 64.7164 69.8989 64.047C70.6801 58.3895 70.7235 52.3864 70.7452 46.6857C70.7452 46.081 69.8338 45.9731 69.7687 46.5993Z" fill="white"/>
<path d="M73.8051 46.6856C73.9787 52.1489 73.2626 57.5257 73.2843 62.9457C73.2843 63.3992 74.0221 63.6799 74.1523 63.1401C75.4978 57.9144 75.1723 51.9977 74.7166 46.6425C74.6732 46.1242 73.7834 46.1674 73.8051 46.6856Z" fill="white"/>
<path d="M78.4708 46.3185C78.5359 52.883 79.9248 59.21 78.9048 65.7745C78.7963 66.4439 79.8597 66.6814 80.0767 66.0336C82.0081 59.8794 80.3588 52.4728 79.3606 46.2754C79.2738 45.8003 78.4708 45.8003 78.4925 46.3185H78.4708Z" fill="white"/>
<path d="M21.0717 25.9772C46.0279 25.4374 71.0058 25.4806 95.9402 24.3145C97.4593 24.2498 97.3725 21.6153 95.8317 21.6369C71.0275 21.8744 46.1798 21.8528 21.3756 22.7166C19.2923 22.7814 18.945 26.0204 21.0717 25.9772Z" fill="white"/>
<path d="M18.7063 24.9191C18.3808 28.5253 18.5544 32.1099 18.6412 35.716C18.728 38.7175 18.1855 42.1509 19.2705 44.9797C19.8782 46.5561 21.9832 46.1026 22.5908 44.8286C23.8711 42.1294 23.155 38.3936 23.0465 35.5001C22.9163 32.1099 22.8078 28.6981 22.7427 25.3078C22.6993 22.7814 18.945 22.2847 18.7063 24.9191Z" fill="white"/>
<path d="M20.8112 46.189C45.724 47.7437 70.8104 45.4548 95.7231 44.807C98.4141 44.7422 98.8264 40.553 96.1138 40.6394C71.0925 41.4168 46.1146 42.5612 21.0934 43.0579C19.0969 43.1011 18.7062 46.081 20.7895 46.2106L20.8112 46.189Z" fill="white"/>
<path d="M94.7901 22.3495C94.0522 28.8492 94.8552 35.6512 94.8335 42.1941C94.8335 44.699 98.5878 45.1525 98.8048 42.5612C99.3256 36.0399 98.5444 29.2163 98.3273 22.6734C98.2622 20.4493 95.0505 20.0174 94.7901 22.3495Z" fill="white"/>
<path d="M25.477 24.6384C24.0664 30.0153 23.9362 35.6296 24.7608 41.0929C24.8476 41.7191 25.8242 41.5463 25.7374 40.9201C24.9995 35.4569 25.2817 30.2312 26.2148 24.8112C26.3016 24.3793 25.5638 24.2066 25.4553 24.6384H25.477Z" fill="white"/>
<path d="M29.4918 24.8112C28.7105 30.4472 28.5586 36.4934 28.6237 42.1726C28.6237 42.842 29.6003 42.9715 29.6871 42.2805C30.2513 36.5798 30.5985 30.5119 30.3164 24.7896C30.2947 24.3145 29.5569 24.3793 29.4918 24.8328V24.8112Z" fill="white"/>
<path d="M34.5263 25.567C33.8318 30.4471 33.7884 35.716 33.6148 40.661C33.5931 41.3736 34.6348 41.4815 34.7216 40.7689C35.4377 35.9319 35.9151 30.404 35.3509 25.5454C35.2858 25.0487 34.5697 25.1351 34.5263 25.5886V25.567Z" fill="white"/>
<path d="M41.4056 24.4441C40.7979 29.7993 40.8848 35.2841 40.7762 40.661C40.7762 41.4599 41.9915 41.5895 42.0349 40.7689C42.2302 35.3489 42.5774 29.8209 42.2519 24.4009C42.2302 23.9042 41.4707 23.969 41.4056 24.4441Z" fill="white"/>
<path d="M49.5869 24.6168C49.2396 30.0801 48.4801 36.2127 49.1962 41.6327C49.2613 42.1941 50.0209 42.0862 50.1077 41.5895C51.1493 36.2559 50.7587 30.1448 50.737 24.7248C50.737 23.9906 49.6303 23.8611 49.5652 24.6168H49.5869Z" fill="white"/>
<path d="M59.1787 25.6749C58.8314 30.5335 58.4842 36.0831 59.2655 40.8985C59.3523 41.4168 60.1118 41.3736 60.1769 40.8553C60.8713 36.0399 60.3939 30.4903 59.9816 25.6317C59.9382 25.1783 59.2221 25.2215 59.1787 25.6533V25.6749Z" fill="white"/>
<path d="M67.4685 25.9341C67.8374 31.1165 67.8374 35.824 67.0127 40.9633C66.9042 41.6111 67.9893 41.8702 68.1629 41.2224C69.465 36.3422 69.7037 30.6847 68.2931 25.7829C68.1412 25.2646 67.4468 25.3942 67.4902 25.9341H67.4685Z" fill="white"/>
<path d="M76.1055 23.7531C76.1489 29.2811 75.8885 34.5068 75.1724 39.9916C75.0856 40.6178 76.1272 40.8769 76.2791 40.2507C77.5595 34.9818 77.8633 29.0867 77.017 23.7315C76.9302 23.2348 76.0838 23.2348 76.1055 23.7747V23.7531Z" fill="white"/>
<path d="M83.0281 23.7963C82.4855 29.4754 81.9213 35.4569 82.1383 41.1576C82.16 41.8054 83.0715 41.9134 83.1583 41.244C83.9395 35.5864 83.9829 29.5834 84.0046 23.8826C84.0046 23.278 83.0932 23.1701 83.0281 23.7963Z" fill="white"/>
<path d="M87.0645 23.8611C87.2381 29.3243 86.522 34.7011 86.5437 40.1211C86.5437 40.5746 87.2815 40.8553 87.4117 40.3155C88.7572 35.0898 88.4317 29.1731 87.976 23.8179C87.9326 23.2996 87.0428 23.3428 87.0645 23.8611Z" fill="white"/>
<path d="M91.7302 23.494C91.817 30.0585 93.1842 36.3854 92.1642 42.9499C92.0557 43.6193 93.1191 43.8569 93.3361 43.209C95.2675 37.0548 93.6182 29.6482 92.62 23.4508C92.5332 22.9757 91.7302 22.9757 91.7519 23.494H91.7302Z" fill="white"/>
<path d="M2.56063 5.16091C27.5168 4.62106 52.4947 4.66425 77.4291 3.49819C78.9482 3.43341 78.8614 0.798973 77.3206 0.820567C52.5164 1.0581 27.6687 1.0365 2.86444 1.90025C0.781144 1.96503 0.433928 5.20409 2.56063 5.16091Z" fill="white"/>
<path d="M0.195316 4.12438C-0.130199 7.73053 0.0434093 11.3151 0.130213 14.9212C0.217017 17.9228 -0.325508 21.3562 0.759543 24.185C1.36717 25.7613 3.47217 25.3078 4.0798 24.0338C5.36016 21.3346 4.64402 17.5989 4.53552 14.7053C4.40531 11.3151 4.29681 7.90328 4.2317 4.51307C4.1883 1.9866 0.434027 1.48994 0.195316 4.12438Z" fill="white"/>
<path d="M2.30026 25.3942C27.213 26.949 52.2994 24.66 77.2121 24.0122C79.9031 23.9475 80.3154 19.7583 77.6028 19.8446C52.5815 20.622 27.6036 21.7665 2.58237 22.2631C0.585877 22.3063 0.195259 25.2863 2.27856 25.4158L2.30026 25.3942Z" fill="white"/>
<path d="M76.279 1.55473C75.5411 8.05445 76.3441 14.8565 76.3224 21.3994C76.3224 23.9042 80.0766 24.3577 80.2937 21.7665C80.8145 15.2452 80.0332 8.42154 79.8162 1.87864C79.7511 -0.345514 76.5394 -0.777388 76.279 1.55473Z" fill="white"/>
<path d="M6.96597 3.82209C5.55541 9.19893 5.4252 14.8133 6.24984 20.2765C6.33664 20.9027 7.31319 20.73 7.22638 20.1038C6.48855 14.6406 6.77066 9.41487 7.70381 3.99484C7.79061 3.56297 7.05278 3.39022 6.94427 3.82209H6.96597Z" fill="white"/>
<path d="M10.9807 3.99482C10.1994 9.63078 10.0475 15.677 10.1126 21.3562C10.1126 22.0256 11.0892 22.1551 11.176 21.4641C11.7402 15.7634 12.0874 9.69556 11.8053 3.97323C11.7836 3.49816 11.0458 3.56294 10.9807 4.01641V3.99482Z" fill="white"/>
<path d="M16.0153 4.77219C15.3209 9.65237 15.2775 14.9212 15.1038 19.8662C15.0821 20.5788 16.1238 20.6868 16.2106 19.9742C16.9267 15.1372 17.4042 9.60919 16.8399 4.7506C16.7748 4.25394 16.0587 4.34032 16.0153 4.79378V4.77219Z" fill="white"/>
<path d="M22.8945 3.62774C22.2868 8.98299 22.3736 14.4678 22.2651 19.8446C22.2651 20.6436 23.4804 20.7732 23.5238 19.9526C23.7191 14.5326 24.0663 9.00458 23.7408 3.58455C23.7191 3.0879 22.9596 3.15268 22.8945 3.62774Z" fill="white"/>
<path d="M31.0757 3.82207C30.7285 9.28528 29.969 15.4179 30.6851 20.8379C30.7502 21.3778 31.5098 21.2914 31.5966 20.7947C32.6382 15.4611 32.2476 9.35006 32.2259 3.93004C32.2259 3.19585 31.1191 3.06629 31.054 3.82207H31.0757Z" fill="white"/>
<path d="M40.6677 4.85858C40.3205 9.71717 39.9732 15.2668 40.7545 20.0822C40.8413 20.6004 41.6008 20.5572 41.6659 20.039C42.3604 15.2236 41.8829 9.67398 41.4706 4.81539C41.4272 4.36193 40.7111 4.40511 40.6677 4.83699V4.85858Z" fill="white"/>
<path d="M48.9575 5.13931C49.3264 10.3218 49.3264 15.0292 48.5017 20.1685C48.3932 20.8164 49.4783 21.0755 49.6519 20.4277C50.954 15.5475 51.1927 9.88993 49.7821 4.98816C49.6302 4.46991 48.9358 4.59947 48.9792 5.13931H48.9575Z" fill="white"/>
<path d="M57.5944 2.93674C57.6378 8.46473 57.3774 13.6904 56.6613 19.1752C56.5745 19.8014 57.6161 20.0606 57.768 19.4343C59.0484 14.1655 59.3522 8.27039 58.5058 2.91514C58.419 2.41849 57.5727 2.41849 57.5944 2.95833V2.93674Z" fill="white"/>
<path d="M64.5171 2.97993C63.9746 8.65908 63.4103 14.6405 63.6273 20.3413C63.649 20.9891 64.5605 21.0971 64.6473 20.4277C65.4285 14.7701 65.4719 8.76705 65.4936 3.0663C65.4936 2.46168 64.5822 2.35371 64.5171 2.97993Z" fill="white"/>
<path d="M68.5534 3.06629C68.727 8.5295 68.0109 13.9063 68.0326 19.3264C68.0326 19.7798 68.7704 20.0606 68.9006 19.5207C70.2461 14.295 69.9206 8.37835 69.4649 3.0231C69.4214 2.50485 68.5317 2.54804 68.5534 3.06629Z" fill="white"/>
<path d="M73.2191 2.69919C73.3059 9.26369 74.6731 15.5907 73.6531 22.1551C73.5446 22.8246 74.608 23.0621 74.825 22.4143C76.7564 16.2601 75.1071 8.85341 74.1089 2.65601C74.0221 2.18094 73.2191 2.18094 73.2408 2.69919H73.2191Z" fill="white"/>
</g>
<defs>
<clipPath id="clip0_97_206">
<rect width="99" height="113" fill="white"/>
</clipPath>
</defs>
</svg>
