<svg width="47" height="47" viewBox="0 0 47 47" fill="none" xmlns="http://www.w3.org/2000/svg">
<path fill-rule="evenodd" clip-rule="evenodd" d="M23.8973 46.2053C36.6566 46.2053 47 35.8619 47 23.1026C47 10.3434 36.6566 0 23.8973 0C11.1381 0 0.794678 10.3434 0.794678 23.1026C0.794678 35.8619 11.1381 46.2053 23.8973 46.2053ZM28.2008 11.8204C30.3513 12.184 32.4077 12.8235 34.3262 13.6887C34.3429 13.6954 34.3567 13.7078 34.365 13.7238C37.7644 18.6416 39.4421 24.1914 38.8151 30.5788C38.8137 30.5923 38.8093 30.6053 38.8024 30.617C38.7955 30.6286 38.7861 30.6387 38.775 30.6465C36.4949 32.3076 33.9504 33.5714 31.2491 34.3844C31.2301 34.3901 31.2097 34.3898 31.1909 34.3835C31.172 34.3772 31.1556 34.3652 31.1438 34.3493C30.5757 33.5706 30.0591 32.7505 29.6077 31.8891C29.6016 31.8772 29.598 31.8642 29.5973 31.8508C29.5966 31.8375 29.5988 31.8241 29.6036 31.8116C29.6085 31.7992 29.616 31.7879 29.6255 31.7786C29.6351 31.7692 29.6466 31.762 29.6591 31.7574C30.4779 31.454 31.2579 31.0891 32.0077 30.6578C32.0211 30.6498 32.0323 30.6387 32.0403 30.6254C32.0483 30.6121 32.0529 30.597 32.0536 30.5814C32.0544 30.5659 32.0512 30.5504 32.0445 30.5364C32.0378 30.5224 32.0278 30.5102 32.0152 30.501C31.856 30.3844 31.6992 30.2628 31.5488 30.1399C31.535 30.1289 31.5184 30.1221 31.5009 30.1201C31.4833 30.1181 31.4656 30.121 31.4497 30.1286C26.5833 32.3405 21.2505 32.3405 16.3264 30.1286C16.3105 30.1215 16.293 30.1188 16.2757 30.1211C16.2584 30.1233 16.2421 30.1302 16.2286 30.1412C16.0781 30.2628 15.9201 30.3844 15.7621 30.501C15.7497 30.5104 15.7398 30.5227 15.7333 30.5369C15.7268 30.551 15.7239 30.5666 15.7249 30.5821C15.7259 30.5976 15.7308 30.6127 15.739 30.6259C15.7472 30.6391 15.7586 30.6501 15.7722 30.6578C16.5246 31.0856 17.3095 31.4537 18.1195 31.7587C18.132 31.7631 18.1434 31.7702 18.153 31.7794C18.1626 31.7886 18.17 31.7998 18.1749 31.8122C18.1798 31.8245 18.182 31.8378 18.1813 31.8511C18.1806 31.8644 18.177 31.8773 18.1709 31.8891C17.7281 32.7511 17.2139 33.5744 16.6336 34.3505C16.6213 34.3659 16.6047 34.3773 16.586 34.3831C16.5672 34.3889 16.5471 34.3889 16.5283 34.3831C13.8315 33.5679 11.2912 32.3047 9.01362 30.6465C9.0028 30.6382 8.99378 30.6279 8.9871 30.616C8.98041 30.6041 8.97621 30.5911 8.97475 30.5775C8.44937 25.0528 9.51894 19.4579 13.4211 13.7213C13.4307 13.7062 13.4447 13.6944 13.4612 13.6875C15.3809 12.821 17.4373 12.1815 19.5865 11.8179C19.6059 11.8148 19.6258 11.8177 19.6435 11.8262C19.6612 11.8347 19.6759 11.8485 19.6856 11.8655C19.9719 12.3649 20.2302 12.8798 20.4593 13.4078C22.74 13.0671 25.0587 13.0671 27.3394 13.4078C27.5451 12.9313 27.8385 12.3282 28.1018 11.8655C28.1116 11.8487 28.1264 11.8353 28.1441 11.8272C28.1619 11.8191 28.1817 11.8167 28.2008 11.8204ZM16.2022 24.229C16.2022 25.8729 17.4248 27.2133 18.9069 27.2133C20.4129 27.2133 21.6116 25.8741 21.6116 24.229C21.6354 22.5952 20.4241 21.2447 18.9069 21.2447C17.401 21.2447 16.2022 22.5839 16.2022 24.229ZM26.2021 24.229C26.2021 25.8729 27.4234 27.2133 28.9068 27.2133C30.4253 27.2133 31.6115 25.8741 31.6115 24.229C31.6353 22.5952 30.424 21.2447 28.9068 21.2447C27.3996 21.2447 26.2021 22.5839 26.2021 24.229Z" fill="white"/>
</svg>
