<svg width="164" height="193" viewBox="0 0 164 193" fill="none" xmlns="http://www.w3.org/2000/svg">
<g clip-path="url(#clip0_97_22)">
<path d="M15.7039 66.3321C10.1537 67.7988 4.08378 70.435 1.2994 75.8188C-0.185603 78.6778 -0.668229 82.8548 1.31796 85.621C2.26465 86.9391 4.54784 85.8252 4.17659 84.2843C3.54547 81.6481 2.98859 79.6431 4.39934 77.0626C6.79391 72.7184 12.1399 70.6021 16.5021 68.8941C17.8943 68.3371 17.1704 65.9609 15.6854 66.3507L15.7039 66.3321Z" fill="white"/>
<path d="M1.93056 87.2919C44.1046 101.494 81.4896 69.6553 121.176 61.3568C123.701 60.8184 123.033 56.9012 120.471 57.3839C81.3782 64.6428 44.346 97.1312 3.04431 84.3029C1.09524 83.6903 -0.0185109 86.6421 1.93056 87.2919Z" fill="white"/>
<path d="M38.1275 189.398C80.3015 203.601 117.686 171.762 157.373 163.463C159.898 162.925 159.229 159.008 156.668 159.49C117.575 166.749 80.5428 199.238 39.2412 186.41C37.2921 185.797 36.1784 188.749 38.1275 189.398Z" fill="white"/>
<path d="M0.835328 84.5814C4.97477 101.55 11.4717 118.202 17.0775 134.744C23.0361 152.324 29.1246 169.887 35.603 187.282C36.4383 189.528 39.8352 187.913 38.9813 185.667C32.6515 168.81 26.6001 151.86 20.7158 134.855C14.8872 117.942 10.0238 100.343 3.06283 83.8574C2.54308 82.6321 0.501202 83.2633 0.816765 84.5814H0.835328Z" fill="white"/>
<path d="M158.636 161.31C172.242 155.016 156.204 129.805 151.545 122.435C149.893 119.817 146.217 122.119 147.943 124.756C153.457 133.221 164.538 149.577 156.983 159.361C156.148 160.437 157.485 161.848 158.636 161.31Z" fill="white"/>
<path d="M118.967 60.2243C129.474 67.7431 130.161 81.5553 133.706 93.0655C134.448 95.4789 138.347 94.8849 137.641 92.3786C134.764 81.9452 132.852 61.2268 120.341 57.6067C118.763 57.1426 117.519 59.2032 118.967 60.2243Z" fill="white"/>
<path d="M108.944 106.803C119.376 105.133 129.102 99.8974 137.883 94.198C139.999 92.8242 137.437 89.8538 135.358 91.209C126.745 96.7971 117.519 100.287 108.201 104.446C106.902 105.021 107.57 107.026 108.962 106.803H108.944Z" fill="white"/>
<path d="M134.931 84.4143C137.419 86.1223 137.511 89.4454 136.249 91.9331C135.024 94.3651 139.015 96.4258 140.463 94.1423C143.396 89.4454 141.205 83.8202 136.528 81.3697C134.746 80.4414 133.335 83.3375 134.931 84.4329V84.4143Z" fill="white"/>
<path d="M135.061 86.0109C135.766 87.4218 135.377 88.777 135.525 90.2622C135.692 91.9516 138.198 92.4529 139.089 91.0419C140.5 88.8142 139.553 85.9737 138.012 84.0987C136.75 82.5764 134.151 84.1915 135.061 86.0109Z" fill="white"/>
<path d="M135.934 95.1262C136.695 95.0334 137.419 95.0148 138.161 94.8106C139.033 94.5692 139.572 94.2351 140.24 93.6596C141.187 92.8427 140.611 91.4689 139.479 91.2647C138.644 91.0976 137.957 91.0976 137.122 91.339C136.36 91.5617 135.711 91.8959 134.987 92.1929C133.316 92.917 134.244 95.3118 135.915 95.1262H135.934Z" fill="white"/>
<path d="M109.129 104.483C101.537 107.509 98.5857 117.033 101.908 124.31C105.51 132.2 115.979 136.6 124.202 134.001C126.689 133.203 126.207 129.62 123.478 129.917C117.204 130.585 110.633 130.084 106.493 124.57C102.224 118.889 104.34 110.368 110.224 106.803C111.617 105.968 110.688 103.889 109.129 104.501V104.483Z" fill="white"/>
<path d="M123.088 134.502C132.202 132.107 141.075 127.485 149.781 123.865C152.417 122.769 150.505 118.704 147.869 119.855C139.386 123.549 130.031 126.668 122.123 131.495C120.712 132.349 121.195 135.003 123.088 134.502Z" fill="white"/>
<path d="M138.068 100.399C139.219 104.706 140.982 108.809 143.6 112.429C144.936 114.267 147.479 112.002 146.254 110.182C144.008 106.822 141.985 103.388 140.37 99.6746C139.832 98.4308 137.715 99.062 138.068 100.417V100.399Z" fill="white"/>
<path d="M134.95 82.3165C140.611 79.2718 146.44 84.4329 148.797 89.2969C151.043 93.9381 152.64 99.1733 154.013 104.093C155.498 109.384 154.496 112.967 151.359 117.255C150.171 118.871 149.187 120.059 148.389 121.971C147.758 123.475 149.892 124.477 150.839 123.252C153.586 119.669 158.691 117.107 159.341 112.206C160.195 105.801 155.944 97.1498 153.586 91.3204C150.746 84.3029 141.985 71.6788 133.613 80.2558C132.685 81.2026 133.613 83.0591 134.95 82.335V82.3165Z" fill="white"/>
<path d="M113.584 111.686C110.113 113.58 109.036 118.221 110.614 121.748C112.285 125.517 116.647 126.705 120.267 125.071C123.924 123.438 126.151 119.242 124.332 115.436C122.494 111.612 117.798 109.625 113.881 111.278C112.303 111.946 113.454 114.378 115.032 113.691C117.687 112.54 120.916 113.877 122.16 116.476C123.459 119.186 121.622 122.027 119.023 123.048C112.823 125.48 110.261 116.996 114.791 113.543C115.793 112.781 114.698 111.073 113.584 111.686Z" fill="white"/>
<path d="M114.104 117.385C113.399 120.319 116.925 122.992 119.468 121.154C120.415 120.467 119.376 118.815 118.336 119.409C117.204 120.059 115.663 119.149 115.942 117.812C116.146 116.754 114.345 116.327 114.085 117.385H114.104Z" fill="white"/>
<path d="M132.759 79.2718C132.982 79.309 133.223 79.3275 133.446 79.3647L132.722 79.1048C133.799 79.736 135.562 79.7545 136.546 78.9191C137.27 78.3065 137.103 77.3225 136.453 76.7656C135.915 76.3015 135.302 76.2643 134.615 76.2272C133.892 76.1901 133.335 76.3943 132.648 76.4871C131.033 76.7099 131.237 79.0676 132.759 79.2718Z" fill="white"/>
<path d="M14.6087 78.5107C16.1122 81.6853 17.4116 85.194 19.3235 88.1273C20.2146 89.4825 21.9409 87.9787 21.5139 86.6978C20.4559 83.4861 18.5254 80.3672 17.0218 77.3411C16.2607 75.7817 13.8476 76.9327 14.5901 78.4921L14.6087 78.5107Z" fill="white"/>
<path d="M17.1147 78.3065C39.3897 72.737 61.3306 65.4596 82.9931 57.8852C90.3624 55.3046 113.38 50.5892 106.623 38.1322C105.547 36.1457 102.614 37.5381 103.449 39.6359C107.459 49.7538 71.8742 58.0337 66.1198 59.9644C49.7291 65.4967 33.1156 70.2679 16.5949 75.3547C14.8129 75.9116 15.2027 78.7706 17.1147 78.2879V78.3065Z" fill="white"/>
<path d="M103.635 34.6049C108.591 31.3189 111.264 44.37 112.025 46.7463C113.473 51.2018 114.939 55.6759 116.387 60.1315C117.055 62.1736 120.1 60.7256 119.431 58.6835C117.965 54.2279 116.498 49.7723 115.013 45.3168C113.788 41.6224 112.934 36.7398 110.596 33.5281C108.479 30.5949 103.783 29.1282 101.611 32.7855C100.795 34.1593 102.317 35.4588 103.616 34.6049H103.635Z" fill="white"/>
<path d="M20.3075 69.878C18.8967 70.5649 17.8758 71.5117 17.1704 72.9598C16.5764 74.1851 16.0381 76.023 16.8177 77.2668C17.0219 77.5824 17.5973 77.6753 17.7273 77.2297C18.0428 76.1529 17.8943 75.0576 18.3213 73.9994C18.8039 72.8113 19.732 71.6788 20.8272 70.9919C21.4769 70.5835 21.0314 69.5439 20.3075 69.8966V69.878Z" fill="white"/>
<path d="M19.1751 71.1961C40.2436 66.7962 61.0708 60.3728 81.5452 53.7637C90.4181 50.9048 111.32 44.5741 103.282 30.929C102.799 30.1121 101.593 30.6691 101.945 31.5602C109.129 48.9926 70.6676 55.546 60.4768 58.6277C46.7219 62.7862 32.7815 66.2764 19.0081 70.3421C18.4883 70.4907 18.5997 71.3261 19.1566 71.1961H19.1751Z" fill="white"/>
<path d="M104.321 47.4888C108.108 43.7759 112.266 37.0368 106.697 32.8226C105.899 32.2285 105.082 33.3053 105.584 34.0293C106.994 36.0529 107.161 38.3178 106.605 40.657C106.493 41.1211 107.124 41.5852 107.421 41.084C109.073 38.4106 108.628 35.4403 106.846 32.9526C106.475 33.361 106.103 33.7694 105.732 34.1593C110.466 37.6866 106.196 43.5531 103.727 46.9504C103.468 47.3032 103.987 47.8044 104.303 47.4703L104.321 47.4888Z" fill="white"/>
<path d="M6.62684 92.063C23.0733 97.8924 41.9885 94.1794 58.0451 88.8327C67.7162 85.6025 77.0345 81.4254 86.3715 77.3225C91.6061 75.0205 96.8593 72.7185 102.187 70.6021C108.832 67.9659 118.875 62.6192 125.965 65.274C127.061 65.6824 127.692 63.9744 126.597 63.566C119.561 60.9484 111.282 65.2925 104.656 67.8173C94.4833 71.6788 84.6266 76.3386 74.6214 80.6085C52.1979 90.1694 31.0923 95.3676 6.79391 91.3576C6.38553 91.2833 6.25559 91.9145 6.62684 92.063Z" fill="white"/>
<path d="M8.39026 101.42C9.68964 101.568 11.6201 102.088 12.7896 101.345C13.5878 100.844 13.9219 99.6374 12.9752 99.0433C11.6573 98.1894 9.76389 98.7092 8.27889 98.8763C6.81245 99.0433 6.97951 101.234 8.3717 101.401L8.39026 101.42Z" fill="white"/>
<path d="M20.1403 102.255C22.4421 102.831 25.1522 102.886 26.9713 101.123C27.8067 100.324 27.2312 98.7092 25.969 98.9691C24.187 99.3404 22.572 99.9531 20.7343 99.7303C19.305 99.5632 18.6924 101.884 20.1589 102.255H20.1403Z" fill="white"/>
<path d="M34.4149 102.608C34.9347 102.589 35.3987 102.775 35.8999 102.719C36.3825 102.664 36.8652 102.515 37.3292 102.422C38.2945 102.218 39.1855 101.902 39.9837 101.327C40.689 100.807 40.4849 99.4518 39.6124 99.2291C38.6472 98.9877 37.719 99.0063 36.7538 99.1734C36.2897 99.2476 35.7885 99.3033 35.3245 99.4147C34.8233 99.5447 34.452 99.8788 33.9694 100.064C32.7628 100.491 33.097 102.682 34.4149 102.626V102.608Z" fill="white"/>
<path d="M48.6338 99.5261C50.0074 99.3775 52.3834 99.1733 53.1816 97.948C53.5343 97.3911 53.4972 96.4443 52.8475 96.0916C51.9379 95.5903 51.2511 95.7388 50.2859 95.9987C49.432 96.2401 48.5781 96.4814 47.7428 96.8156C46.165 97.4468 47.0746 99.6931 48.6153 99.5261H48.6338Z" fill="white"/>
<path d="M61.9989 95.7945C63.2797 95.2747 64.5791 94.792 65.8042 94.1423C67.6048 93.1954 66.3054 90.4107 64.4492 91.2833C63.1869 91.8773 62.0361 92.6385 60.8295 93.344C59.363 94.2165 60.3654 96.4443 61.9804 95.776L61.9989 95.7945Z" fill="white"/>
<path d="M74.083 90.2251C74.6213 89.9095 75.1968 89.6867 75.8279 89.5939C76.5147 89.5011 77.1644 89.6867 77.7955 89.2969C78.5009 88.8699 78.9093 87.8674 78.241 87.1805C76.7375 85.621 73.9902 86.7349 72.6537 88.0159C71.6328 88.9813 72.7094 90.9863 74.083 90.2065V90.2251Z" fill="white"/>
<path d="M86.1488 85.621C87.4853 85.1197 89.5272 84.4885 90.2882 83.189C90.7708 82.3536 90.3625 81.314 89.3601 81.184C87.838 80.9984 86.1116 82.2051 84.8865 82.9662C83.3087 83.9502 84.3482 86.2893 86.1488 85.621Z" fill="white"/>
<path d="M97.9545 81.1283C98.5671 79.7545 99.6808 79.5132 100.962 79.0491C102.205 78.6035 101.723 76.6913 100.535 76.5985C98.3072 76.4129 96.2839 78.3065 95.4857 80.2001C94.8175 81.7781 97.2863 82.6692 97.9545 81.1098V81.1283Z" fill="white"/>
<path d="M109.315 76.2829C109.853 75.9859 110.429 75.8188 110.967 75.5032C111.524 75.169 112.043 74.7977 112.563 74.445C113.287 73.9623 113.269 72.7927 112.749 72.1986C112.136 71.4746 111.227 71.5303 110.503 72.013C110.039 72.3286 109.556 72.6071 109.129 72.9598C108.702 73.3125 108.35 73.7395 107.904 74.0923C106.753 75.0205 107.997 77.0069 109.333 76.2829H109.315Z" fill="white"/>
<path d="M118.837 74.612C120.1 74.742 121.455 74.9091 122.55 74.1851C123.218 73.7395 123.051 72.6442 122.457 72.2357C121.399 71.5303 119.932 71.7531 118.726 71.883C117.148 72.0501 117.334 74.445 118.837 74.612Z" fill="white"/>
<path d="M121.677 83.3747C122.067 83.7831 122.439 84.173 122.847 84.5257C123.979 85.5282 125.576 83.7088 124.61 82.5949C124.313 82.2608 123.998 81.9637 123.682 81.6667C122.476 80.5157 120.471 82.1308 121.677 83.3747Z" fill="white"/>
<path d="M124.87 92.1558C125.408 92.6942 125.947 93.2326 126.504 93.7895C126.968 94.2537 127.673 94.6621 128.36 94.4579C129.065 94.2537 129.641 93.9566 129.882 93.1955C130.086 92.5457 130.049 91.7288 129.529 91.2276L127.896 89.5939C127.135 88.8327 125.965 88.6285 125.093 89.3711C124.332 90.0209 124.109 91.4132 124.87 92.1744V92.1558Z" fill="white"/>
<path d="M142.802 128.543C143.47 129.694 144.064 131.123 145.178 131.903C146.199 132.627 147.888 131.699 147.554 130.399C147.201 129.044 146.143 128.005 145.289 126.946C144.268 125.647 141.929 127.076 142.802 128.561V128.543Z" fill="white"/>
<path d="M148.11 137.138C148.018 137.751 147.98 138.364 147.98 138.976C147.98 139.849 148.519 140.666 149.447 140.74C150.245 140.814 151.229 140.164 151.21 139.273C151.21 138.512 151.173 137.77 151.062 137.008C150.821 135.282 148.333 135.505 148.11 137.12V137.138Z" fill="white"/>
<path d="M151.247 146.606C151.823 147.275 152.398 147.906 153.029 148.537C153.661 149.168 154.589 149.317 155.276 148.723C155.888 148.203 156.074 147.089 155.461 146.477C154.737 145.753 154.013 145.084 153.252 144.434C151.934 143.321 150.189 145.363 151.247 146.625V146.606Z" fill="white"/>
<path d="M152.695 153.847C152.64 154.478 152.621 155.072 152.64 155.703C152.64 156.576 153.16 157.374 154.088 157.467C154.904 157.541 155.833 156.891 155.851 156.019C155.851 155.258 155.851 154.497 155.777 153.735C155.628 151.972 152.844 152.157 152.695 153.865V153.847Z" fill="white"/>
<path d="M40.8748 183.328C42.1184 183.996 43.3621 184.739 44.7358 185.166C45.2926 185.333 46.0723 185.333 46.5178 184.85C46.8704 184.46 47.0375 184.163 47.1489 183.662C47.2603 183.049 46.8705 182.381 46.3878 182.028C45.2369 181.193 43.9004 180.636 42.6011 180.042C40.6891 179.151 38.9999 182.325 40.8748 183.328Z" fill="white"/>
<path d="M54.2954 187.134C54.9265 186.985 55.5206 186.948 56.1517 187.096C56.9684 187.282 57.6367 187.709 58.4906 187.542C58.2307 187.523 57.9708 187.486 57.6924 187.468C57.9894 187.542 58.2864 187.616 58.5834 187.672C59.5301 187.876 60.4025 186.614 59.9013 185.797C59.5301 185.184 59.2145 184.646 58.5648 184.312C58.0265 184.033 57.5067 183.848 56.9127 183.755C55.7062 183.569 54.4996 183.792 53.3673 184.2C51.7524 184.813 52.6062 187.486 54.2954 187.096V187.134Z" fill="white"/>
<path d="M67.2521 186.985C68.3102 186.929 69.294 186.855 70.3335 186.632C71.4658 186.391 72.3568 186.242 72.9137 185.129C73.1921 184.553 72.8394 183.922 72.431 183.55C71.5586 182.789 70.4077 183.198 69.4053 183.383C68.3658 183.588 67.4192 183.94 66.4168 184.293C65.7671 184.516 65.4887 185.407 65.6928 186.001C65.9342 186.725 66.5467 187.022 67.2892 186.966L67.2521 186.985Z" fill="white"/>
<path d="M82.1207 183.421C83.2716 183.272 84.4224 183.124 85.5362 182.808C86.4829 182.548 87.2068 181.731 87.0212 180.692C86.8541 179.763 85.8703 178.984 84.9051 179.206C83.6243 179.503 82.3991 179.967 81.174 180.432C79.4477 181.1 80.4315 183.625 82.1207 183.421Z" fill="white"/>
<path d="M95.0958 178.668C96.4138 178.427 98.4557 178.315 99.4023 177.294C100.052 176.607 100.033 175.401 99.0125 175.048C97.6018 174.565 95.9497 175.345 94.5946 175.772C93.8336 176.013 93.2581 176.607 93.4066 177.461C93.5366 178.241 94.3162 178.798 95.0958 178.649V178.668Z" fill="white"/>
<path d="M106.233 173.08C107.663 172.876 109.445 172.783 110.094 171.242C110.317 170.704 110.094 169.905 109.575 169.608C108.09 168.754 106.697 169.701 105.379 170.444C104.024 171.205 104.6 173.34 106.233 173.098V173.08Z" fill="white"/>
<path d="M118.243 168.699C118.54 168.346 119.116 168.457 119.487 168.532C121.288 168.903 121.789 166.118 120.192 165.487C118.596 164.856 116.684 165.487 115.867 167.009C114.958 168.661 117.018 170.128 118.262 168.699H118.243Z" fill="white"/>
<path d="M126.522 164.373C127.395 164.837 128.304 165.079 129.288 164.837C130.383 164.577 130.959 163.816 131.293 162.776C131.664 161.588 130.309 160.586 129.325 161.384C129.399 161.328 129.269 161.384 129.177 161.44C128.935 161.533 128.694 161.644 128.434 161.737C128.249 161.793 128.063 161.885 127.877 161.83C127.19 161.625 126.448 161.848 126.095 162.517C125.798 163.092 125.891 164.02 126.541 164.373H126.522Z" fill="white"/>
<path d="M137.845 162.108C138.328 162.052 138.811 162.108 139.293 161.978C139.813 161.867 140.314 161.644 140.797 161.44C141.354 161.198 141.818 160.567 141.836 159.955C141.836 159.416 141.762 159.008 141.409 158.599C141.02 158.135 140.296 157.801 139.683 157.987C139.182 158.135 138.644 158.265 138.161 158.488C137.697 158.711 137.363 159.045 136.936 159.323C135.562 160.196 136.082 162.312 137.827 162.108H137.845Z" fill="white"/>
<path d="M146.663 159.212C147.108 159.231 147.535 159.249 147.999 159.175C149.725 158.934 149.503 156.446 147.888 156.223C147.442 156.167 146.997 156.205 146.551 156.223C144.843 156.297 144.992 159.138 146.663 159.212Z" fill="white"/>
<path d="M5.56872 48.1757C8.5016 51.536 11.2117 55.2861 13.2536 59.259C14.9242 62.5078 15.7039 67.1676 18.3397 69.6553C19.3236 70.5835 20.9571 70.2122 21.1427 68.7827C21.6624 64.8655 18.5254 60.6328 16.502 57.4582C13.9033 53.411 11.0075 49.8466 7.61059 46.4492C6.42259 45.2611 4.41784 46.8576 5.56872 48.1757Z" fill="white"/>
<path d="M17.8757 74.8534C17.9685 74.742 18.0614 74.6492 18.1542 74.5378C17.7644 74.7235 17.3745 74.8905 17.0033 75.0762C18.6182 75.2061 19.5464 73.4054 20.3445 72.2358C20.7715 71.6046 21.2541 70.9919 21.6625 70.3422C22.1822 69.4882 22.2565 68.8755 21.9409 67.9473C21.7182 67.2975 20.9571 67.0933 20.3445 67.1304C18.7853 67.2418 18.0057 69.1726 17.2632 70.3422C16.5392 71.4746 15.2584 72.9784 15.9638 74.3522C15.9638 74.018 15.9267 73.7024 15.9267 73.3682C15.871 73.4982 15.7967 73.6096 15.741 73.7395C15.0728 75.0576 17.059 75.8374 17.8757 74.8534Z" fill="white"/>
<path d="M7.66628 49.3824C11.5273 45.818 15.5368 42.8847 20.1032 40.2671C23.0732 38.5591 27.9551 36.9997 29.8671 33.9736C30.424 33.0825 29.7186 32.1543 28.7533 32.21C24.6881 32.4699 19.9361 36.4613 16.5949 38.5777C12.771 41.0283 8.1489 43.6088 5.56871 47.4517C4.67771 48.7698 6.44115 50.5149 7.66628 49.3639V49.3824Z" fill="white"/>
<path d="M7.70341 50.0694C19.2493 48.6213 30.5353 41.3068 41.4501 37.3524C55.1678 32.3585 69.1083 29.3881 83.2158 25.7866C85.4804 25.211 84.9421 21.7951 82.5847 22.1664C70.2777 24.0786 58.1193 27.9958 46.3692 32.0615C33.1526 36.647 20.7157 44.1472 7.33216 48.0087C6.05135 48.38 6.32979 50.2736 7.70341 50.0879V50.0694Z" fill="white"/>
<path d="M82.7332 22.9833C82.4734 28.1628 82.6961 33.3796 82.7889 38.5406C82.8632 42.6063 82.9189 46.9319 84.3853 50.7377C84.9236 52.1486 86.9655 51.5731 87.1326 50.255C87.6894 46.0779 86.7242 41.5481 86.223 37.371C85.6476 32.5627 85.5176 27.7359 85.1835 22.8904C85.0907 21.4795 82.7889 21.5909 82.7147 22.9833H82.7332Z" fill="white"/>
<path d="M29.3103 14.6662C29.4959 21.8322 30.1085 28.8683 29.7558 36.0343C29.7001 37.0368 30.424 38.1693 31.5378 38.1878H32.1504C32.9857 38.1878 33.8767 37.798 34.1551 36.944C34.5264 35.7744 34.4521 35.2546 33.7467 34.2521C32.9485 33.1568 31.4821 33.9736 31.2408 35.0318C31.4635 34.7719 31.6863 34.512 31.909 34.2707C32.503 34.9947 33.097 35.7002 33.691 36.4242C33.6354 29.1653 33.4497 21.6651 31.7234 14.5734C31.4264 13.3295 29.2732 13.2182 29.3103 14.6662Z" fill="white"/>
<path d="M32.1318 14.9447C32.4845 4.73403 56.6158 5.92218 63.6139 5.17959C73.9903 4.08426 83.8285 4.71547 94.1678 4.95681C96.7109 5.01251 97.0636 1.41093 94.539 1.02107C79.7076 -1.22528 65.2288 0.64977 50.453 2.41343C42.3412 3.3788 29.663 3.73153 29.8672 14.7219C29.8857 16.1514 32.0761 16.4113 32.1132 14.9261L32.1318 14.9447Z" fill="white"/>
<path d="M93.8336 4.00999C98.0287 5.60656 97.6761 18.0636 98.1958 21.4609C99.1425 27.8658 99.7551 34.0665 99.291 40.5456C99.1239 42.959 102.799 43.3117 103.041 40.8983C103.987 31.4117 101.983 22.2964 100.795 12.9397C100.219 8.2799 100.256 1.98642 94.4091 1.42948C92.9055 1.28096 92.4043 3.47161 93.8151 4.00999H93.8336Z" fill="white"/>
<path d="M44.7542 6.34916C45.0141 13.9236 44.55 22.2964 46.1278 29.6852C46.2392 30.2235 47.0374 30.205 47.0931 29.648C47.8913 22.1293 46.5733 13.8308 46.035 6.29347C45.9793 5.56944 44.7171 5.60657 44.7542 6.34916Z" fill="white"/>
<path d="M61.8504 3.56445C60.9408 11.5288 61.6833 19.8087 63.0384 27.6616C63.1869 28.5342 64.5048 28.4785 64.5977 27.6059C64.7462 26.4363 64.8018 25.2667 64.8018 24.0972C64.8018 23.6516 64.1336 23.4288 63.9851 23.9115C63.6138 25.0068 63.3168 26.1207 63.0941 27.2532C63.5953 27.2903 64.0965 27.346 64.5977 27.3831C63.2612 19.4559 63.0941 11.6773 63.057 3.65728C63.057 2.91469 61.9618 2.76617 61.869 3.54589L61.8504 3.56445Z" fill="white"/>
<path d="M46.7405 8.61409C49.2279 7.07321 51.9009 5.68085 54.2027 3.88006C54.4625 3.67584 54.2027 3.24885 53.8871 3.37881C51.2883 4.64122 48.8567 6.40487 46.425 7.92719C46.0166 8.1871 46.3321 8.85543 46.7405 8.61409Z" fill="white"/>
<path d="M46.6106 12.16C50.8243 9.44949 55.1864 6.34916 58.8061 2.87754C59.0846 2.61763 58.8061 2.04212 58.4163 2.2649C54.0913 4.80828 49.9147 8.14995 46.1651 11.4731C45.8309 11.7701 46.2022 12.4199 46.6106 12.16Z" fill="white"/>
<path d="M46.7776 15.1675C52.4763 12.2713 58.5463 7.77865 62.5744 2.82184C62.8528 2.48767 62.3516 2.09781 62.036 2.33916C59.363 4.30703 56.987 6.62763 54.3697 8.66976C51.7524 10.7119 48.968 12.4941 46.3321 14.4806C45.9609 14.759 46.3693 15.3902 46.7776 15.1675Z" fill="white"/>
<path d="M46.1464 19.9943C51.6595 15.743 57.7109 11.6587 62.6485 6.73903C63.0569 6.3306 62.5557 5.75509 62.0731 6.07069C56.2259 9.85792 50.9541 14.889 45.6081 19.3631C45.1997 19.7158 45.7195 20.3285 46.1464 19.9943Z" fill="white"/>
<path d="M47.0189 23.633C52.0308 19.9201 57.4511 15.9658 61.8318 11.5102C62.2773 11.0647 61.7205 10.4149 61.2007 10.7676C56.0032 14.2207 51.1027 18.7876 46.4992 23.0204C46.1279 23.3731 46.6106 23.9301 47.0189 23.633Z" fill="white"/>
<path d="M46.9817 27.5316C52.5134 24.0972 58.4348 19.9201 62.5371 14.8333C62.8713 14.4249 62.2587 13.9236 61.8689 14.2207C56.6528 18.2864 51.8823 22.8904 46.5362 26.8448C46.165 27.1232 46.5734 27.7916 46.9817 27.5316Z" fill="white"/>
<path d="M46.9818 31.2446C52.5876 27.6245 58.769 23.2989 63.0198 18.1193C63.3725 17.6923 62.7414 17.191 62.333 17.4881C56.8942 21.5538 51.9194 26.3806 46.5363 30.5577C46.1836 30.8362 46.5734 31.5045 46.9818 31.2446Z" fill="white"/>
<path d="M53.1631 28.8683C57.3026 27.1418 61.1079 24.3199 63.818 20.7184C64.1707 20.2542 63.4653 19.5859 63.057 20.0129C59.9941 23.2803 56.7643 26.0279 52.9032 28.3114C52.5691 28.5156 52.7919 29.0168 53.1631 28.8683Z" fill="white"/>
<path d="M58.8804 28.9611C60.7738 27.4945 62.8157 26.065 64.4306 24.3014C64.6534 24.06 64.4306 23.5216 64.0779 23.7444C62.0175 25.0254 60.2169 26.7891 58.4163 28.4042C58.0637 28.7198 58.5092 29.2582 58.899 28.9611H58.8804Z" fill="white"/>
<path d="M12.2327 54.1722C20.4188 55.6388 27.4725 52.6684 34.9347 49.5496C45.7195 45.0383 56.857 40.9355 67.1964 35.4588C67.6604 35.2175 67.3263 34.5863 66.8622 34.7348C49.9889 40.1557 30.4797 54.4878 12.3626 52.8912C11.5273 52.817 11.4345 54.0237 12.2327 54.1722Z" fill="white"/>
<path d="M65.3586 36.4428C66.7508 40.4342 71.9298 45.3725 76.5333 43.8687C77.053 43.7016 76.9231 42.9405 76.4776 42.7734C74.5471 42.0122 72.598 41.9194 70.7975 40.7312C68.9598 39.5245 67.6418 37.7794 66.788 35.7559C66.3796 34.7905 65.006 35.496 65.3401 36.4428H65.3586Z" fill="white"/>
<path d="M74.4543 44.6113C74.6771 48.3428 75.4753 52.0929 76.0879 55.7873C76.2549 56.8084 77.8327 56.5299 77.6657 55.5089C77.0902 51.8145 76.6819 48.0087 75.7166 44.3885C75.4938 43.5902 74.4172 43.7944 74.4729 44.6113H74.4543Z" fill="white"/>
<path d="M11.5644 86.4564C9.00279 86.3265 7.25792 83.746 7.14654 81.4254C6.99804 78.5664 9.28123 76.3386 11.4716 74.9091C14.3302 73.0526 17.8014 72.3657 20.5116 70.305C20.8828 70.0266 20.5858 69.3211 20.1218 69.4511C14.9799 70.9548 7.74054 73.6467 6.08848 79.4018C4.9376 83.3561 7.51779 87.1248 11.583 86.9206C11.8614 86.9206 11.8429 86.4379 11.5644 86.4379V86.4564Z" fill="white"/>
<path d="M6.27417 78.9933C7.09092 81.4625 7.85198 84.0987 9.00286 86.4378C9.20705 86.8648 9.94955 86.6606 9.81961 86.1779C9.15136 83.616 7.98192 81.0912 6.97955 78.6592C6.77536 78.1765 6.12567 78.5292 6.27417 78.9933Z" fill="white"/>
<path d="M7.90765 77.2297C8.83577 80.0144 9.7639 82.7992 10.692 85.5839C10.9519 86.345 12.0657 85.8067 11.8243 85.0455C10.8962 82.2608 9.96809 79.4761 9.03996 76.6913C8.78008 75.9302 7.66633 76.4685 7.90765 77.2297Z" fill="white"/>
<path d="M9.42978 75.9487C10.3765 77.8238 11.5273 79.5689 12.3812 81.4996C13.3279 83.6717 13.8291 85.918 14.4788 88.183C14.6273 88.7213 15.3884 88.5914 15.3327 88.0344C14.9429 83.8017 12.9195 78.7149 9.94953 75.6331C9.70822 75.3918 9.26272 75.6331 9.42978 75.9673V75.9487Z" fill="white"/>
<path d="M11.9172 75.2247C14.0519 79.3832 15.3513 83.6346 16.6878 88.1087C16.8177 88.5171 17.3932 88.4243 17.356 87.9973C16.9291 83.3932 15.0728 78.8077 12.7896 74.8163C12.4926 74.2779 11.6388 74.6678 11.9172 75.2247Z" fill="white"/>
<path d="M12.901 72.3286C13.4578 74.2222 13.959 76.1715 14.7758 77.9909C14.9243 78.3436 15.4997 78.158 15.4255 77.7867C14.9985 75.8374 14.256 73.9809 13.5692 72.1244C13.4393 71.7531 12.7896 71.9573 12.901 72.3286Z" fill="white"/>
<path d="M6.84964 82.6506C9.59689 78.882 12.734 75.5032 15.5555 71.8273C15.8153 71.4932 15.3513 71.1033 15.0357 71.3446C11.4903 74.1665 8.5017 78.3436 6.19995 82.1865C5.94007 82.6321 6.55263 83.0776 6.84964 82.6506Z" fill="white"/>
<path d="M6.83106 84.5814C9.98669 81.2212 13.2166 77.8424 16.0195 74.1665C16.2237 73.888 15.8153 73.4982 15.574 73.7581C12.2513 76.9698 9.28131 80.5528 6.29274 84.0801C6.03287 84.3957 6.55262 84.8784 6.83106 84.5814Z" fill="white"/>
<path d="M8.65016 87.1805C10.6178 83.3004 13.3465 80.3115 16.0566 76.9698C16.2979 76.6728 15.871 76.32 15.574 76.5428C12.177 79.1048 9.74535 83.1519 7.96335 86.9391C7.75916 87.3661 8.42741 87.5889 8.65016 87.199V87.1805Z" fill="white"/>
<path d="M10.7477 86.475C11.583 85.1198 12.5297 83.8574 13.6435 82.7063C14.683 81.6481 15.9452 80.8499 16.9847 79.8102C17.2632 79.5318 16.9847 79.0862 16.6135 79.2347C13.8291 80.3672 11.5459 83.5046 10.1352 86.048C9.91241 86.4564 10.4879 86.902 10.7477 86.475Z" fill="white"/>
<path d="M13.3279 87.3847C14.6087 86.1965 15.9452 85.0084 17.1147 83.7088C17.4488 83.3375 16.9291 82.892 16.5392 83.0219C15.3884 83.4489 16.0752 85.0084 17.0219 85.2497C18.6182 85.6581 18.9895 83.4675 18.9152 82.3722C18.8967 82.0009 18.3584 82.0751 18.3027 82.3907C18.2099 82.8734 18.1542 83.4675 17.8943 83.8945C17.7087 84.1915 17.4488 84.5257 17.1147 84.3957C17.0219 84.3586 16.6135 83.913 16.8177 83.8573C16.6877 83.5974 16.5578 83.319 16.4464 83.0591C15.1471 84.1729 13.9591 85.4539 12.7711 86.6792C12.3812 87.0691 12.9196 87.7374 13.3279 87.3475V87.3847Z" fill="white"/>
<path d="M22.999 79.903C24.354 82.6135 25.672 85.3797 27.1384 88.053C27.2869 88.3315 27.7138 88.1272 27.5839 87.8488C26.3216 85.0826 24.8738 82.3907 23.5001 79.6802C23.3331 79.3646 22.8319 79.606 22.999 79.9216V79.903Z" fill="white"/>
<path d="M26.8228 80.7756C28.1593 83.3932 29.5887 85.9737 31.2407 88.4243C31.4263 88.7028 31.8533 88.4057 31.7048 88.1273C30.4797 85.4911 29.0132 82.9477 27.4725 80.4785C27.2312 80.0887 26.6001 80.3672 26.8228 80.7942V80.7756Z" fill="white"/>
<path d="M30.5911 79.8288C31.4821 81.4254 32.3916 83.0034 33.4126 84.5257C33.5796 84.767 33.988 84.5071 33.8581 84.2472C33.0228 82.6506 32.0946 81.1098 31.1294 79.5874C30.9438 79.2718 30.424 79.4946 30.6096 79.8288H30.5911Z" fill="white"/>
<path d="M39.5939 79.8102C39.9837 81.6482 41.0232 83.746 42.7866 84.6185C43.0836 84.767 43.3249 84.3401 43.1393 84.1173C42.601 83.4861 41.9699 82.9663 41.4873 82.2794C40.9304 81.4811 40.5406 80.6271 40.3178 79.6988C40.2064 79.2533 39.5011 79.3647 39.6124 79.8288L39.5939 79.8102Z" fill="white"/>
<path d="M43.5663 77.0255C44.7543 78.9377 45.8866 80.9427 47.3159 82.6692C47.5387 82.9477 48.0027 82.6692 47.8357 82.335C46.8333 80.3115 45.4597 78.4735 44.216 76.5985C43.9746 76.2272 43.325 76.6356 43.5663 77.0255Z" fill="white"/>
<path d="M48.1884 73.2568C49.2093 76.6913 50.8428 80.4228 53.5344 82.9105C53.8499 83.189 54.2583 82.8363 54.0356 82.4835C52.0123 79.3832 50.0632 76.5799 48.8752 73.034C48.7452 72.6442 48.077 72.867 48.1884 73.2568Z" fill="white"/>
<path d="M52.959 72.3657C54.1655 75.1319 55.2422 78.0651 56.7643 80.6827C56.9685 81.0355 57.4326 80.7941 57.3212 80.4228C56.3745 77.5453 54.908 74.7977 53.6458 72.0501C53.4416 71.6231 52.7919 71.9387 52.9775 72.3657H52.959Z" fill="white"/>
<path d="M57.321 74.4821C58.7504 76.3943 60.1054 78.4921 61.8317 80.163C62.0731 80.3857 62.5557 80.163 62.3515 79.8288C61.1078 77.7495 59.4 75.9116 57.8594 74.0366C57.5809 73.6838 57.0612 74.1294 57.3396 74.4821H57.321Z" fill="white"/>
<path d="M62.8714 73.4239C63.7438 75.2804 64.5234 77.2854 65.6372 79.0119C65.8414 79.3461 66.324 79.1233 66.1941 78.752C65.5258 76.8027 64.4492 74.9648 63.5396 73.1269C63.3354 72.7184 62.6857 73.0155 62.8899 73.4425L62.8714 73.4239Z" fill="white"/>
<path d="M66.7138 73.461C67.3078 74.3893 67.8647 75.3918 68.6072 76.2086C68.8299 76.4685 69.2754 76.2086 69.1269 75.8745C68.6443 74.8534 67.9018 73.9252 67.2707 72.9784C67.0108 72.5885 66.4725 73.0712 66.7138 73.4425V73.461Z" fill="white"/>
<path d="M98.2515 59.556C99.588 61.2083 100.33 63.0276 101.054 64.9955C101.184 65.3296 101.648 65.1254 101.611 64.8098C101.351 62.6563 100.201 60.6884 98.8269 59.0547C98.5114 58.6834 97.9545 59.1661 98.2515 59.5374V59.556Z" fill="white"/>
<path d="M100.219 53.838C101.426 57.124 103.096 60.7998 105.584 63.3432C105.844 63.6031 106.363 63.3432 106.159 62.9719C104.377 59.7973 102.335 56.9012 100.85 53.541C100.665 53.114 100.052 53.4296 100.219 53.838Z" fill="white"/>
<path d="M103.245 49.0483C105.565 53.7638 107.644 58.6278 110.076 63.2875C110.336 63.7888 111.022 63.436 110.855 62.9162C109.259 57.978 106.642 53.1326 103.913 48.7327C103.672 48.3428 103.022 48.6213 103.245 49.0483Z" fill="white"/>
<path d="M107.069 46.245C108.851 51.0347 110.67 56.3071 113.306 60.6884C113.473 60.9669 114.03 60.8741 113.918 60.5028C112.526 55.546 109.946 50.5706 107.681 45.9665C107.496 45.5767 106.92 45.8551 107.069 46.2636V46.245Z" fill="white"/>
<path d="M10.0609 97.5211C20.0289 118.945 28.3821 140.629 34.6191 163.445C34.8047 164.113 35.8628 163.946 35.6957 163.259C29.7928 140.48 21.5511 118.109 10.5806 97.2797C10.4136 96.9455 9.8938 97.1869 10.0609 97.5211Z" fill="white"/>
<path d="M36.1783 167.937C37.2178 172.95 38.6843 178.761 41.5986 183.031C41.8028 183.328 42.3597 183.068 42.2483 182.734C40.6705 177.684 38.3316 172.969 36.9208 167.808C36.7909 167.362 36.0855 167.455 36.1969 167.937H36.1783Z" fill="white"/>
<path d="M23.593 115.845C32.2989 137.862 39.2413 160.177 45.7567 182.919C45.9238 183.513 46.8705 183.365 46.722 182.752C41.4688 159.806 33.4497 137.176 24.187 115.566C24.02 115.176 23.426 115.455 23.593 115.845Z" fill="white"/>
<path d="M34.4336 128.023C36.3641 132.219 37.7563 136.563 38.9628 141.018C39.0556 141.371 39.594 141.297 39.5383 140.926C38.8514 136.266 37.2551 131.885 35.1018 127.707C34.8791 127.28 34.2108 127.596 34.415 128.023H34.4336Z" fill="white"/>
<path d="M41.8399 147.479C45.3854 159.843 48.8194 172.152 51.4367 184.757C51.5852 185.444 52.6619 185.258 52.5134 184.572C49.9146 171.985 46.7776 159.398 42.4339 147.293C42.304 146.959 41.7285 147.145 41.8214 147.479H41.8399Z" fill="white"/>
<path d="M38.9442 122.546C40.9118 128.487 42.8423 134.465 45.1998 140.257C45.3297 140.554 45.8495 140.406 45.7567 140.09C43.9747 134.057 41.7472 128.153 39.5939 122.249C39.4454 121.822 38.8328 122.138 38.9628 122.546H38.9442Z" fill="white"/>
<path d="M46.4064 143.803C49.4506 158.915 53.1817 173.823 57.6738 188.563C57.8595 189.194 58.899 189.027 58.7133 188.377C54.3883 173.6 50.5087 158.711 47.0932 143.673C47.0004 143.246 46.3321 143.358 46.4064 143.785V143.803Z" fill="white"/>
<path d="M49.5619 137.176C54.4253 153.884 58.8061 170.574 63.0198 187.449C63.1497 187.988 64.0036 187.858 63.8922 187.301C60.5695 170.295 55.8361 153.346 50.1002 137.008C49.9889 136.711 49.4691 136.86 49.5434 137.176H49.5619Z" fill="white"/>
<path d="M56.6343 142.002C61.5534 156.353 65.6371 170.908 69.0712 185.685C69.2197 186.298 70.185 186.131 70.055 185.518C66.7694 170.629 62.4629 156.056 57.2469 141.742C57.0984 141.353 56.5229 141.631 56.6529 142.021L56.6343 142.002Z" fill="white"/>
<path d="M66.1198 157.17C68.9598 167.139 71.7442 177.146 74.8813 187.022C75.0484 187.523 75.8651 187.412 75.7166 186.874C72.9694 176.867 69.8694 166.954 66.8252 157.04C66.6952 156.613 65.9898 156.724 66.1198 157.17Z" fill="white"/>
<path d="M73.025 165.338C74.4172 168.94 75.0483 172.597 75.9208 176.329C75.995 176.682 76.6076 176.7 76.589 176.31C76.4405 172.449 75.1597 168.587 73.6933 165.023C73.5076 164.577 72.8579 164.893 73.025 165.338Z" fill="white"/>
<path d="M19.2122 101.29C20.1775 104.093 21.3098 107.249 22.999 109.7C23.1846 109.978 23.6672 109.737 23.593 109.421C22.8505 106.544 21.217 103.592 19.7505 101.03C19.5649 100.696 19.1009 100.918 19.2122 101.29Z" fill="white"/>
<path d="M24.2241 101.123C25.4492 104.26 26.8228 107.657 28.5863 110.535C28.8276 110.943 29.3844 110.665 29.2359 110.219C28.1964 107.008 26.5258 103.759 24.9294 100.788C24.6881 100.343 24.0384 100.659 24.2241 101.123Z" fill="white"/>
<path d="M29.8672 100.176C31.0923 103.963 32.5216 107.825 34.2665 111.408C34.4335 111.742 35.0461 111.593 34.9347 111.203C33.7839 107.36 32.2246 103.517 30.5168 99.8788C30.3127 99.4332 29.7187 99.7674 29.8486 100.194L29.8672 100.176Z" fill="white"/>
<path d="M35.0276 99.4147C37.1251 103.852 38.5173 108.456 39.7796 113.19C39.8724 113.561 40.4478 113.487 40.3921 113.078C39.6682 108.177 37.9233 103.499 35.7144 99.0805C35.4916 98.635 34.8234 98.9691 35.0276 99.4147Z" fill="white"/>
<path d="M40.0579 98.3193C41.9884 103.35 44.0303 108.381 46.3135 113.264C46.4806 113.617 46.9632 113.357 46.8518 113.004C44.9956 107.936 42.8609 102.942 40.6705 98.0223C40.5034 97.6324 39.928 97.9109 40.0765 98.3008L40.0579 98.3193Z" fill="white"/>
<path d="M45.4225 97.3911C46.6847 101.531 47.947 105.708 49.6176 109.7C49.7476 109.997 50.2488 109.848 50.1745 109.514C49.1164 105.318 47.6129 101.215 46.1279 97.1498C45.9794 96.7599 45.3111 96.9641 45.4225 97.3726V97.3911Z" fill="white"/>
<path d="M49.3392 95.5161C50.9727 99.229 52.1607 103.016 53.5529 106.822C53.6828 107.156 54.2026 106.971 54.1469 106.636C53.4415 102.682 51.808 98.7649 49.9703 95.219C49.7661 94.8292 49.1721 95.1076 49.3392 95.5161Z" fill="white"/>
<path d="M53.6829 94.7363C54.7966 97.5582 55.8361 100.454 57.2283 103.165C57.414 103.517 57.878 103.258 57.7666 102.905C56.8385 100.009 55.5391 97.224 54.3326 94.4393C54.147 94.0123 53.5158 94.3279 53.6829 94.7549V94.7363Z" fill="white"/>
<path d="M57.3953 94.7363C58.0079 95.7017 58.639 96.6671 59.3444 97.5582C59.5486 97.8181 60.0127 97.5396 59.8456 97.2426C59.2887 96.2401 58.639 95.2933 57.9893 94.3465C57.7666 94.0123 57.1726 94.3836 57.3953 94.7363Z" fill="white"/>
<path d="M79.6333 180.283C80.0045 180.673 80.3015 181.026 80.8027 181.23C81.0997 181.341 81.341 181.026 81.2297 180.766C81.044 180.302 80.7099 180.023 80.3387 179.689C79.9117 179.281 79.2249 179.856 79.6333 180.283Z" fill="white"/>
<path d="M81.6009 167.882C81.1739 171.353 81.935 174.806 84.1996 177.517C84.4224 177.777 84.8864 177.498 84.7008 177.183C83.0116 174.324 82.0092 171.298 82.1763 167.937C82.1949 167.566 81.638 167.51 81.5823 167.882H81.6009Z" fill="white"/>
<path d="M98.1215 128.19C98.9568 130.696 99.8478 133.203 100.887 135.635C101.092 136.117 101.778 135.765 101.611 135.282C100.757 132.794 99.755 130.325 98.697 127.912C98.5299 127.522 97.973 127.8 98.103 128.19H98.1215Z" fill="white"/>
<path d="M99.2353 122.528C101.593 128.023 104.136 134.447 107.607 139.329C107.793 139.589 108.312 139.366 108.22 139.051C106.438 133.314 102.874 127.429 99.9036 122.212C99.6622 121.804 99.0497 122.082 99.2353 122.528Z" fill="white"/>
<path d="M105.844 128.023C108.479 132.646 110.818 137.25 112.897 142.151C113.157 142.764 113.993 142.318 113.807 141.724C112.192 136.73 109.649 131.792 106.456 127.633C106.215 127.318 105.639 127.67 105.844 128.023Z" fill="white"/>
<path d="M113.324 131.736C114.921 135.189 116.443 139.088 118.707 142.151C118.986 142.522 119.431 142.114 119.32 141.761C118.169 138.178 115.867 134.669 114.03 131.42C113.788 130.993 113.12 131.291 113.324 131.755V131.736Z" fill="white"/>
<path d="M118.503 130.993C119.914 135.022 121.195 139.255 123.107 143.079C123.274 143.413 123.849 143.265 123.756 142.875C122.661 138.716 120.824 134.651 119.227 130.659C119.042 130.177 118.355 130.529 118.522 130.993H118.503Z" fill="white"/>
<path d="M123.831 131.569C124.759 135.226 126.745 138.883 129.399 141.575C129.641 141.817 130.123 141.575 129.919 141.241C127.896 138.011 126.151 134.818 124.629 131.328C124.443 130.901 123.701 131.105 123.831 131.588V131.569Z" fill="white"/>
<path d="M128.88 129.917C129.27 133.073 130.179 137.083 132.332 139.533C132.537 139.756 133.001 139.589 132.908 139.273C132.499 137.844 131.738 136.544 131.219 135.152C130.569 133.407 130.105 131.606 129.696 129.787C129.585 129.267 128.824 129.397 128.88 129.935V129.917Z" fill="white"/>
<path d="M132.221 129.694C132.963 131.142 133.687 132.609 134.486 134.038C135.191 135.3 135.785 136.711 136.787 137.788C137.01 138.011 137.493 137.862 137.4 137.51C136.602 134.632 134.467 131.903 132.926 129.378C132.685 128.97 132.017 129.267 132.239 129.712L132.221 129.694Z" fill="white"/>
<path d="M136.509 128.005C136.992 131.309 138.792 135.078 141.558 137.064C141.911 137.306 142.245 136.86 142.022 136.544C141.02 135.096 139.869 133.797 139.015 132.237C138.254 130.826 137.715 129.304 137.214 127.782C137.084 127.355 136.435 127.596 136.49 128.005H136.509Z" fill="white"/>
<path d="M140.333 127.039C141.725 130.307 143.34 133.778 145.345 136.711C145.586 137.064 146.05 136.674 145.92 136.34C144.732 133.036 142.876 129.694 141.075 126.686C140.815 126.241 140.129 126.538 140.333 127.039Z" fill="white"/>
<path d="M144.008 125.183C145.308 127.503 146.57 129.972 148.166 132.089C148.463 132.479 149.076 132.052 148.872 131.625C147.702 129.23 146.069 126.983 144.602 124.793C144.379 124.459 143.804 124.83 144.008 125.183Z" fill="white"/>
<path d="M144.936 89.0369C149.763 96.1101 152.714 103.759 153.382 112.317C153.438 112.967 154.422 112.781 154.385 112.15C153.698 103.536 150.802 95.4232 145.493 88.5728C145.196 88.2015 144.695 88.6656 144.955 89.0369H144.936Z" fill="white"/>
<path d="M145.549 98.4493C148.018 102.274 149.558 106.284 151.025 110.572C151.192 111.055 151.99 110.795 151.879 110.294C150.969 105.857 148.779 101.698 146.18 98.0409C145.939 97.6881 145.289 98.0966 145.53 98.4679L145.549 98.4493Z" fill="white"/>
<path d="M103.95 77.0998C105.212 78.8077 105.806 80.6085 106.419 82.595C106.512 82.9106 107.087 82.9848 107.069 82.5764C107.032 80.3486 105.992 78.2322 104.618 76.5243C104.266 76.0787 103.598 76.6356 103.932 77.0998H103.95Z" fill="white"/>
<path d="M107.588 74.2593C109.296 77.5453 110.299 80.8498 111.152 84.4329C111.245 84.7856 111.858 84.8227 111.858 84.3957C111.709 80.6642 110.261 76.9327 108.182 73.8695C107.96 73.5353 107.403 73.9066 107.588 74.2593Z" fill="white"/>
<path d="M111.821 71.2332C114.178 77.8238 116.74 84.1544 118.615 90.9305C118.707 91.3018 119.264 91.209 119.209 90.8191C118.206 84.0987 116.053 76.7284 112.433 70.9362C112.211 70.5835 111.691 70.8063 111.839 71.2147L111.821 71.2332Z" fill="white"/>
<path d="M115.459 69.4139C117.946 75.6517 120.192 81.8709 122.364 88.2201C122.476 88.5728 123.051 88.3872 122.977 88.0159C121.585 81.481 119.171 75.0205 116.053 69.1169C115.849 68.7456 115.292 69.0055 115.459 69.3953V69.4139Z" fill="white"/>
<path d="M119.227 68.4856C121.882 75.5588 124.165 82.6877 126.244 89.9466C126.337 90.2808 126.856 90.2065 126.801 89.8538C125.446 82.4093 123.032 75.039 119.803 68.2072C119.617 67.8359 119.079 68.0958 119.227 68.4856Z" fill="white"/>
<path d="M16.7063 39.7473C15.7968 42.4021 15.2213 45.4281 15.574 48.2314C15.6297 48.6027 16.1866 48.5656 16.2237 48.2129C16.5207 45.4281 16.7063 42.7362 17.3374 39.9886C17.4303 39.5802 16.8548 39.3389 16.7063 39.7473Z" fill="white"/>
<path d="M21.0313 35.9415C20.5116 38.0765 19.9733 40.1929 19.4721 42.3278C19.2864 43.1447 18.6924 44.5185 19.2493 45.3168C19.9176 46.3007 21.4211 45.3353 20.6415 44.4999C20.3445 44.1843 19.8619 44.6113 20.1403 44.9269C19.3978 44.0915 20.5673 41.511 20.8086 40.4899C21.1427 39.0604 21.4583 37.6309 21.7924 36.22C21.9038 35.7373 21.1613 35.4403 21.0499 35.9415H21.0313Z" fill="white"/>
<path d="M25.8205 34.9204C24.5397 37.371 23.3888 40.8055 23.8714 43.5902C23.9271 43.9429 24.5025 44.0358 24.6139 43.6645C24.9295 42.3464 24.9666 40.9911 25.245 39.6545C25.5606 38.1693 26.0618 36.7584 26.6001 35.3474C26.7672 34.8833 26.0432 34.4749 25.8019 34.939L25.8205 34.9204Z" fill="white"/>
<path d="M29.2731 32.1914C28.6049 34.9205 27.5839 37.8351 27.3983 40.657C27.3612 41.1025 27.9923 41.2325 28.1408 40.8241C29.1989 38.2064 29.5516 35.1432 30.1456 32.3956C30.2569 31.8944 29.3845 31.6902 29.2731 32.1914Z" fill="white"/>
<path d="M31.4449 33.2125C30.8509 35.3846 30.2755 37.5567 29.7371 39.7473C29.6443 40.1186 30.1826 40.3228 30.294 39.9515C30.9066 37.7794 31.5006 35.6073 32.076 33.4353C32.1874 33.0268 31.5563 32.7855 31.4449 33.1939V33.2125Z" fill="white"/>
<path d="M93.481 11.9186C93.6109 20.7369 93.9265 30.2978 95.5414 38.949C95.6342 39.4503 96.4695 39.4688 96.4695 38.9119C96.748 30.1122 95.5971 20.607 94.372 11.8815C94.2977 11.3802 93.4624 11.3988 93.4624 11.9186H93.481Z" fill="white"/>
<path d="M91.439 34.345C91.7546 37.1297 92.0701 39.9144 92.4599 42.6991C92.5713 43.4232 93.6665 43.2189 93.5737 42.4949C93.2024 39.7102 92.7569 36.9626 92.2929 34.1964C92.2001 33.6395 91.3833 33.788 91.439 34.345Z" fill="white"/>
<path d="M13.5692 50.4592C17.5045 55.5089 20.5673 61.004 22.7948 67.0005C23.0733 67.7431 24.2056 67.2047 23.9271 66.4621C21.6439 60.3728 18.5069 54.7663 14.5159 49.6609C14.0147 49.0297 13.0681 49.828 13.5692 50.4592Z" fill="white"/>
<path d="M19.2308 52.26L21.0871 55.0447C21.5326 55.7131 22.4793 54.8962 22.0338 54.2464L20.1775 51.4617C19.732 50.7934 18.7853 51.6102 19.2308 52.26Z" fill="white"/>
<path d="M19.1937 52.1115C21.6811 57.3653 24.1684 62.6192 26.6558 67.873C26.9899 68.597 28.1223 68.0587 27.7881 67.3346C25.3008 62.0808 22.8134 56.8269 20.326 51.5731C19.9919 50.8491 18.8596 51.3874 19.1937 52.1115Z" fill="white"/>
<path d="M23.0918 50.1622C25.4121 55.4346 27.5468 61.0041 30.424 65.9794C30.6282 66.3322 31.1108 66.0908 30.9809 65.7195C29.0504 60.2986 26.2103 55.0447 23.7044 49.8652C23.5187 49.4753 22.9247 49.7538 23.0918 50.1622Z" fill="white"/>
<path d="M29.5145 56.5856C30.0899 58.4607 30.5725 60.4471 31.4264 62.2293C31.5749 62.5449 32.1132 62.3964 32.039 62.0437C31.6491 60.1129 30.8324 58.2379 30.1641 56.3814C30.0342 56.0287 29.4031 56.2143 29.5145 56.5856Z" fill="white"/>
<path d="M33.4682 63.0647C34.0437 64.0487 34.4149 65.2925 35.3059 66.0537C35.5101 66.2393 35.8814 65.998 35.8071 65.7381C35.5287 64.6242 34.6191 63.7516 34.0251 62.8048C33.8209 62.4892 33.264 62.7306 33.4682 63.0647Z" fill="white"/>
<path d="M20.8828 80.9984C23.0361 78.7891 25.2822 76.6356 27.2312 74.2222C27.454 73.9623 27.0456 73.6096 26.7857 73.8138C24.484 75.8188 22.4235 78.1022 20.3074 80.3115C19.9176 80.7199 20.4745 81.4068 20.8828 80.9798V80.9984Z" fill="white"/>
<path d="M22.6092 83.6346C25.7834 81.1283 28.5863 78.0466 30.1827 74.2779C30.3312 73.9437 29.83 73.7024 29.6258 73.9809C27.3798 77.2483 25.1337 80.4414 22.2379 83.189C21.9781 83.4304 22.3122 83.8388 22.6092 83.616V83.6346Z" fill="white"/>
<path d="M25.4678 87.4218C29.6444 84.1915 32.9114 79.1419 34.6562 74.2036C34.7862 73.8138 34.2479 73.6467 34.0808 73.9809C31.5934 78.9191 28.6049 82.8363 25.0223 87.0134C24.781 87.2919 25.2079 87.626 25.4678 87.4218Z" fill="white"/>
<path d="M29.8672 89.0184C33.8395 83.6717 37.7562 78.158 41.2646 72.4771C41.4687 72.1429 41.0047 71.8273 40.7634 72.1244C36.6796 77.3968 32.8929 83.0034 29.2732 88.5914C29.0133 88.9813 29.5887 89.3897 29.8672 88.9998V89.0184Z" fill="white"/>
<path d="M35.7885 86.475C39.204 82.1679 42.7309 77.9166 45.8865 73.4053C46.1093 73.0897 45.6452 72.7927 45.4039 73.0712C41.8028 77.2297 38.5358 81.7038 35.1945 86.0666C34.9161 86.4379 35.4915 86.8277 35.77 86.475H35.7885Z" fill="white"/>
<path d="M41.4502 84.897C44.9585 82.1679 47.8914 78.3622 49.4692 74.1851C49.5991 73.8695 49.0979 73.5724 48.9123 73.888C46.759 77.8795 44.3274 81.2583 41.0047 84.3772C40.6891 84.6742 41.0975 85.1569 41.4316 84.897H41.4502Z" fill="white"/>
<path d="M47.7614 85.6024C50.8614 83.2261 53.2188 79.8845 54.2398 76.0972C54.3326 75.7259 53.8128 75.5032 53.6643 75.893C52.2164 79.476 50.2117 82.5021 47.3159 85.0826C46.9818 85.3797 47.4088 85.8809 47.7614 85.6024Z" fill="white"/>
<path d="M55.0936 82.8549C56.9127 81.7595 58.3977 80.0701 58.9175 77.9723C59.0103 77.601 58.4905 77.3968 58.342 77.7681C57.5995 79.606 56.5043 81.184 54.7966 82.2422C54.4253 82.465 54.7038 83.0776 55.0936 82.8549Z" fill="white"/>
<path d="M30.0156 146.755C31.7048 145.047 33.5982 143.358 35.0089 141.408C35.2131 141.111 34.8233 140.759 34.5449 140.981C32.6886 142.522 31.1479 144.527 29.5515 146.328C29.3288 146.588 29.7557 146.996 29.997 146.736L30.0156 146.755Z" fill="white"/>
<path d="M31.1108 151.805C34.1922 149.93 37.0323 147.238 38.6286 143.97C38.7957 143.636 38.276 143.395 38.0718 143.673C35.9556 146.606 33.7281 149.15 30.6839 151.173C30.3312 151.415 30.721 152.027 31.0923 151.805H31.1108Z" fill="white"/>
<path d="M33.227 158.358C37.255 155.016 40.9304 150.932 43.7334 146.532C43.9375 146.217 43.492 145.901 43.2507 146.198C39.9466 150.301 36.5311 154.162 32.7815 157.838C32.4659 158.135 32.8743 158.636 33.227 158.358Z" fill="white"/>
<path d="M34.0437 165.654C38.1831 161.978 41.84 157.82 44.9028 153.197C45.107 152.9 44.6615 152.584 44.4387 152.863C41.116 157.226 37.5335 161.31 33.5982 165.116C33.2826 165.413 33.7096 165.951 34.0437 165.635V165.654Z" fill="white"/>
<path d="M37.0323 170.574C41.6358 167.084 45.3854 162.127 47.6129 156.799C47.7428 156.464 47.2231 156.186 47.056 156.502C44.216 161.663 40.8561 165.97 36.5868 170.054C36.2712 170.351 36.6796 170.852 37.0323 170.574Z" fill="white"/>
<path d="M37.8304 175.939C42.7124 171.465 47.1303 166.359 50.4901 160.623C50.6757 160.289 50.2302 159.955 50.0075 160.27C46.2021 165.691 42.1741 170.778 37.4035 175.401C37.0879 175.698 37.5149 176.217 37.849 175.92L37.8304 175.939Z" fill="white"/>
<path d="M39.5568 182.14C45.107 175.939 50.7685 169.831 56.0589 163.408C56.263 163.148 55.8547 162.758 55.6319 163.018C49.8961 169.07 44.4944 175.475 38.9999 181.75C38.7029 182.084 39.2783 182.474 39.5568 182.14Z" fill="white"/>
<path d="M44.1046 184.052C49.5992 178.984 54.7781 173.433 58.9547 167.213C59.1589 166.898 58.7134 166.601 58.4906 166.879C53.8128 172.709 49.0608 178.352 43.6591 183.532C43.3436 183.829 43.7705 184.33 44.0861 184.052H44.1046Z" fill="white"/>
<path d="M50.7129 184.145C54.7224 179.782 58.8247 175.475 62.6857 170.964C62.8899 170.741 62.5001 170.388 62.2959 170.611C58.175 174.862 54.2769 179.355 50.2859 183.755C50.0632 183.996 50.4901 184.386 50.7129 184.145Z" fill="white"/>
<path d="M55.205 184.98C58.6761 182.344 62.036 179.169 64.3006 175.419C64.4862 175.103 64.0593 174.806 63.8365 175.085C61.0707 178.538 58.3049 181.768 54.8151 184.497C54.4996 184.739 54.908 185.221 55.2235 184.98H55.205Z" fill="white"/>
<path d="M60.7924 186.799C62.6486 184.943 64.709 183.161 66.3797 181.137C66.6024 180.877 66.1941 180.543 65.9527 180.747C63.9665 182.418 62.2031 184.46 60.384 186.317C60.1055 186.595 60.4954 187.096 60.7924 186.799Z" fill="white"/>
<path d="M14.4416 103.369C15.9266 102.348 17.3559 101.271 18.7296 100.12C18.9709 99.9159 18.711 99.4704 18.4326 99.656C16.8919 100.621 15.3883 101.661 13.9219 102.756C13.5135 103.072 14.0147 103.647 14.4416 103.369Z" fill="white"/>
<path d="M14.5344 109.904C18.2098 106.135 22.0337 102.441 25.4863 98.4679C25.7091 98.208 25.3007 97.8552 25.0594 98.078C21.2355 101.661 17.7272 105.615 14.1261 109.403C13.8291 109.7 14.256 110.219 14.553 109.904H14.5344Z" fill="white"/>
<path d="M16.5763 114.879C22.1822 110.628 27.2126 105.337 30.6096 99.1362C30.7952 98.8021 30.3497 98.4679 30.127 98.8021C26.0989 104.65 21.7181 109.922 16.1679 114.397C15.8338 114.656 16.2607 115.139 16.5949 114.898L16.5763 114.879Z" fill="white"/>
<path d="M19.3978 120.319C25.2821 114.137 30.9066 107.416 35.3059 100.064C35.5101 99.7303 35.046 99.3961 34.8047 99.7117C29.6443 106.581 24.5767 113.394 18.8595 119.817C18.581 120.114 19.1008 120.597 19.3978 120.3V120.319Z" fill="white"/>
<path d="M20.9386 126.556C25.4122 122.565 29.4959 117.794 31.9647 112.299C32.1132 111.965 31.5935 111.705 31.4079 112.002C28.2337 117.163 24.9667 121.878 20.4745 126.018C20.1404 126.315 20.5859 126.854 20.92 126.556H20.9386Z" fill="white"/>
<path d="M22.7948 130.474C26.1546 128.32 29.4216 125.294 31.0737 121.6C31.2222 121.265 30.721 121.024 30.5168 121.303C28.1408 124.607 25.8019 127.54 22.4235 129.88C22.0894 130.102 22.4607 130.696 22.8133 130.474H22.7948Z" fill="white"/>
<path d="M24.6325 136.73C26.7858 134.539 29.1061 132.423 31.0552 130.047C31.2779 129.768 30.8695 129.415 30.6097 129.638C28.3079 131.625 26.266 133.982 24.1685 136.173C23.8529 136.507 24.317 137.064 24.6325 136.73Z" fill="white"/>
<path d="M27.2869 141.241C28.8461 139.682 30.4796 138.159 31.9461 136.507C32.1503 136.266 31.7605 135.932 31.5377 136.136C29.9042 137.584 28.4192 139.199 26.8785 140.74C26.5815 141.037 27.0084 141.52 27.3054 141.241H27.2869Z" fill="white"/>
<path d="M102.465 115.566C100.59 115.083 105.12 104.891 104.192 106.376C105.435 104.353 107.514 102.701 109.668 101.698C113.046 100.12 116.944 99.7303 120.434 98.4307C126.726 96.1101 132.091 92.2858 136.639 87.4032C137.437 86.5492 136.249 85.1197 135.432 85.9923C130.29 91.4875 124.202 95.5718 116.963 97.7438C112.303 99.1362 107.421 99.8045 104.117 103.74C103.041 105.021 98.5486 116.828 102.744 115.585C103.041 115.492 103.096 114.991 102.725 114.991C102.669 114.991 102.632 114.991 102.577 114.991C102.28 114.991 102.113 115.455 102.447 115.548L102.465 115.566Z" fill="white"/>
<path d="M135.803 96.1844C139.813 95.4604 142.876 92.5271 144.417 88.8327C145.66 85.8438 146.477 80.6085 143.674 78.2322C143.303 77.9166 142.894 78.3436 142.913 78.7149C142.969 80.0701 143.581 81.2954 143.711 82.6692C143.897 84.5628 143.544 86.475 142.839 88.2387C141.484 91.5803 138.811 93.9009 135.488 95.1633C134.912 95.3861 135.228 96.2958 135.822 96.1844H135.803Z" fill="white"/>
<path d="M34.3036 18.4906C35.2132 21.5909 34.9533 24.5427 35.009 27.7173C35.009 28.0886 35.5658 28.2928 35.6958 27.8658C36.6982 24.784 35.9371 21.2753 34.9533 18.2864C34.8419 17.9336 34.2108 18.1193 34.3222 18.4906H34.3036Z" fill="white"/>
<path d="M36.0484 32.1729C35.6771 32.6184 35.6586 33.1382 36.0855 33.5652C36.2154 33.6952 36.4568 33.7509 36.6053 33.6023C37.0508 33.1568 37.0693 32.6184 36.6609 32.1357C36.4939 31.9315 36.2154 31.9872 36.0484 32.1729Z" fill="white"/>
<path d="M93.8708 8.66977C94.4091 8.66977 94.5019 7.83435 93.945 7.83435C93.3882 7.83435 93.3139 8.66977 93.8708 8.66977Z" fill="white"/>
<path d="M123.719 126.668C132.871 124.756 142.282 121.117 150.208 116.142C150.728 115.807 150.375 114.953 149.781 115.232C141.112 119.483 132.741 123.066 123.534 126.055C123.181 126.167 123.385 126.724 123.719 126.668Z" fill="white"/>
</g>
<defs>
<clipPath id="clip0_97_22">
<rect width="164" height="193" fill="white"/>
</clipPath>
</defs>
</svg>
