<svg width="220" height="158" viewBox="0 0 220 158" fill="none" xmlns="http://www.w3.org/2000/svg">
<g clip-path="url(#clip0_97_287)">
<path d="M217.462 52.6037C205.285 47.9967 192.707 48.1099 179.882 47.2225C172.19 46.6938 165.396 44.8246 158.124 42.4644C153.105 40.8406 148.677 39.6888 143.448 40.9728C142.035 41.3126 141.921 43.635 143.562 43.6728C155.395 43.9749 166.064 49.6582 177.897 50.6589C191.085 51.7729 204.102 49.8659 216.851 54.2653C217.939 54.6429 218.549 53.0191 217.481 52.6037H217.462Z" fill="white"/>
<path d="M216.889 52.0939C205.915 59.9486 194.502 65.5753 182.478 71.7684C171.962 77.1874 163.812 85.0609 152.475 88.9316C151.33 89.3282 151.96 91.1219 153.124 90.9142C165.854 88.7051 174.538 77.8294 186.066 72.7314C197.193 67.7844 211.316 64.2158 218.416 53.4723C219.065 52.4716 217.843 51.4331 216.908 52.1128L216.889 52.0939Z" fill="white"/>
<path d="M153.143 87.9687C140.489 86.9491 132.321 82.342 121.404 76.5832C114.113 72.7502 106.345 70.6166 98.1573 69.7481C96.7832 69.597 96.6687 71.5418 97.9665 71.8251C105.066 73.3356 112.548 73.9587 118.999 77.5273C123.274 79.8874 126.824 83.2672 131.195 85.533C138.008 89.0827 145.566 90.7065 153.219 90.2156C154.517 90.1401 154.384 88.082 153.124 87.9876L153.143 87.9687Z" fill="white"/>
<path d="M144.707 39.7643C136.844 43.7861 128.179 44.749 120.755 49.6582C111.575 55.7381 102.872 62.7431 93.9395 69.1817C92.279 70.3901 94.3594 72.8635 96.0198 71.6174C104.704 65.0844 113.216 57.7017 122.625 52.2072C129.973 47.9211 139.898 47.9778 145.967 41.7469C146.845 40.8406 145.967 39.1035 144.688 39.7643H144.707Z" fill="white"/>
<path d="M145.967 38.7825C131.405 35.4405 117.205 30.4558 103.559 24.4704C102.108 23.8284 100.829 26.1697 102.242 26.9438C115.22 34.0055 130.794 39.0468 145.471 40.9161C146.692 41.0672 147.207 39.0846 145.967 38.8014V38.7825Z" fill="white"/>
<path d="M103.807 24.206C94.0157 27.7369 82.0872 31.5509 76.7432 41.2182C76.2088 42.1812 77.2585 43.2763 78.2128 42.5399C82.4307 39.3489 85.16 35.1006 90.0268 32.5705C94.7601 30.1159 99.9323 28.4543 104.761 26.1886C106.078 25.5655 105.124 23.7151 103.807 24.1871V24.206Z" fill="white"/>
<path d="M77.7167 41.1993C70.6359 42.9931 60.0052 44.1448 55.0811 50.1491C54.0123 51.452 56.0545 53.3023 57.2951 52.1506C62.7917 47.0148 71.3993 45.5609 78.3083 42.9931C79.3199 42.6154 78.7855 40.935 77.7358 41.1993H77.7167Z" fill="white"/>
<path d="M96.6687 70.711C96.3633 70.4467 96.1725 70.3334 95.7717 70.2201C95.0464 70.0124 94.054 70.5789 94.3021 71.4474C94.4357 71.9195 94.5693 72.2404 94.9128 72.6181C96.1534 73.9775 98.1001 71.995 96.6687 70.711Z" fill="white"/>
<path d="M97.0312 93.8786C98.6917 90.6876 97.6419 87.5911 97.2221 84.2302C96.6113 79.3965 97.4511 75.1859 97.7565 70.4278C97.9473 67.4445 93.1187 67.0669 93.1187 69.9935C93.1187 74.8272 93.9202 79.5098 93.6149 84.3812C93.3858 87.9309 92.8705 91.1974 95.1036 94.2185C95.657 94.9737 96.6686 94.5583 97.0312 93.8786Z" fill="white"/>
<path d="M56.7416 73.5999C56.2835 66.2361 56.0354 58.9668 56.5507 51.603C56.6652 50.1114 54.2986 49.9037 54.2414 51.3764C53.936 58.929 54.3177 66.4061 54.8712 73.9209C54.9666 75.1293 56.8179 74.7894 56.7416 73.5999Z" fill="white"/>
<path d="M96.9169 93.2744C92.3745 88.4785 85.6946 86.7414 79.6444 84.5134C71.4758 81.5112 64.2041 78.5469 57.257 73.3167C55.3484 71.8628 53.2872 74.8461 55.1194 76.3188C60.2916 80.4728 68.3839 82.8518 74.5486 85.2498C81.8202 88.082 88.6719 91.5939 95.6191 95.087C96.6688 95.6157 97.6803 94.0674 96.9169 93.2555V93.2744Z" fill="white"/>
<path d="M103.501 25.6032C83.4804 21.5626 70.1778 3.75741 50.2714 0.0755257C49.2027 -0.113289 48.7828 1.64269 49.8516 1.90703C68.9372 6.85397 83.3087 27.0382 103.291 27.7935C104.742 27.8501 104.875 25.8865 103.501 25.6032Z" fill="white"/>
<path d="M57.3714 49.7526C37.8659 45.0134 19.5056 35.9503 3.43546 24.1116C2.09947 23.1298 0.687129 25.169 1.96587 26.1886C17.4634 38.6692 37.3697 47.8456 56.8943 51.8485C58.1158 52.0939 58.5929 50.017 57.3905 49.7337L57.3714 49.7526Z" fill="white"/>
<path d="M50.3288 0.169933C42.9618 4.8903 34.7549 7.5337 26.9871 11.4422C18.8184 15.5394 11.7377 22.3368 2.63382 24.1305C1.39326 24.376 1.50777 26.0942 2.72925 26.283C11.6231 27.5858 19.5055 18.6738 26.7008 14.8031C35.003 10.347 44.0878 7.43929 51.5694 1.58604C52.5427 0.830784 51.3403 -0.472036 50.3479 0.169933H50.3288Z" fill="white"/>
<path d="M57.6576 74.5817C52.2373 69.0306 43.7251 67.1991 36.4153 65.141C24.7922 61.8934 12.7683 59.1745 2.51927 52.566C1.06876 51.6219 -0.381743 53.68 0.973336 54.7373C7.99685 60.213 17.2343 61.8934 25.5556 64.7445C35.6137 68.1998 46.5498 71.4285 55.9018 76.4699C57.1042 77.1119 58.7837 75.7146 57.6576 74.5629V74.5817Z" fill="white"/>
<path d="M2.38571 25.3578C2.50022 26.9627 2.38571 28.662 2.04217 30.2292C1.7368 31.5509 1.04971 32.6838 1.16423 34.0621C1.22148 34.6475 2.02308 35.0817 2.53839 34.7608C5.59209 32.9292 5.17221 27.6236 4.21793 24.7725C3.8553 23.6585 2.30937 24.3571 2.38571 25.3578Z" fill="white"/>
<path d="M0.992419 35.8748C1.45047 37.593 1.46956 39.8965 1.22145 41.6336C1.0115 43.2196 -0.0191196 44.7868 0.744305 46.3351C0.954247 46.7505 1.43139 47.0148 1.90853 46.9393C4.21789 46.5239 4.65686 43.5973 4.77137 41.6525C4.92406 38.9713 4.10338 37.2531 2.69104 35.0817C2.15664 34.2698 0.72522 34.9873 0.973333 35.8748H0.992419Z" fill="white"/>
<path d="M0.171794 46.826C-0.0572339 49.526 -0.286261 51.9429 0.954304 54.473C2.06127 56.7199 5.57303 55.0772 4.50423 52.7925C3.60721 50.8666 2.36664 48.8652 2.1567 46.7316C2.04219 45.5987 0.248136 45.712 0.171794 46.8071V46.826Z" fill="white"/>
<path d="M219.313 59.8164C218.817 58.4192 217.08 57.9094 215.82 57.3619C214.561 56.8143 212.919 55.7003 211.564 56.5311C211.106 56.8143 210.763 57.2863 210.877 57.8339C211.221 59.4955 212.996 59.8731 214.389 60.4395C215.763 60.9871 217.328 61.8745 218.798 61.1948C219.351 60.9304 219.485 60.3262 219.294 59.7976L219.313 59.8164Z" fill="white"/>
<path d="M217.977 59.4011C212.728 63.8948 207.423 67.4068 201.124 70.3145C195.608 72.8635 189.654 75.1104 184.482 78.2825C183.795 78.7168 184.024 80.0762 184.959 79.793C196.715 76.2622 210.114 69.0872 219.427 61.1004C220.534 60.1563 219.065 58.457 217.958 59.4011H217.977Z" fill="white"/>
<path d="M155.109 94.6716C153.773 94.6716 152.456 94.9737 151.12 95.0304C149.765 95.087 148.391 94.8604 147.036 95.1059C146.234 95.2381 146.005 96.3143 146.673 96.7675C148.925 98.3346 153.143 98.3157 155.567 97.1451C156.655 96.6164 156.483 94.6716 155.128 94.6905L155.109 94.6716Z" fill="white"/>
<path d="M155.109 100.506C153.2 100.109 151.216 100.053 149.288 99.6941C147.417 99.3353 145.528 98.7878 143.639 98.5801C142.493 98.4668 142.15 99.864 142.913 100.506C145.852 102.998 151.502 103.886 155.204 103.131C156.769 102.81 156.54 100.808 155.09 100.506H155.109Z" fill="white"/>
<path d="M147.532 100.317C143.848 98.6745 140.012 97.4094 136.367 95.6723C133.122 94.1241 130.011 92.2737 126.71 90.8576C125.832 90.4799 125.164 91.7828 125.946 92.3114C132.092 96.4465 139.783 99.8829 146.807 102.243C148.085 102.677 148.734 100.846 147.532 100.317Z" fill="white"/>
<path d="M155.929 119.444C149.192 112.439 137.798 109.418 129.305 105.056C118.751 99.6185 105.276 97.0696 95.7525 90.1778C94.2066 89.0638 92.508 91.4429 94.0539 92.5947C102.547 98.9199 114.533 100.544 124.133 105.056C130.966 108.266 137.035 112.061 143.333 116.14C146.997 118.519 150.566 120.634 154.861 121.464C155.929 121.672 156.636 120.18 155.929 119.444Z" fill="white"/>
<path d="M155.91 112.76C155.223 112.326 154.498 111.854 153.754 111.533C152.838 111.136 151.845 111.061 150.91 110.759C149.154 110.154 147.494 109.191 145.833 108.361C144.974 107.926 144.421 109.229 145.089 109.758C146.444 110.834 148.028 111.476 149.536 112.326C150.395 112.798 151.005 113.459 151.807 114.025C152.513 114.535 153.334 114.894 154.078 115.366C155.815 116.461 157.647 113.874 155.91 112.779V112.76Z" fill="white"/>
<path d="M144.86 108.134C138.199 104.471 131.691 99.9584 124.572 97.1451C123.637 96.7674 122.93 98.108 123.751 98.6745C130.03 103.017 137.416 105.906 144.173 109.399C144.917 109.777 145.585 108.512 144.86 108.115V108.134Z" fill="white"/>
<path d="M155.338 106.416C151.063 105.359 146.883 104.112 142.78 102.526C141.883 102.186 141.329 103.395 142.035 103.942C145.604 106.737 150.49 107.832 154.899 108.361C156.025 108.493 156.483 106.699 155.357 106.416H155.338Z" fill="white"/>
<path d="M217.366 85.4008C195.647 93.2177 171.961 104.66 153.849 119.01C152.475 120.105 153.983 122.541 155.567 121.634C176.542 109.588 195.418 95.9933 218.187 87.1001C219.332 86.647 218.511 84.9854 217.366 85.4008Z" fill="white"/>
<path d="M218.626 84.891C217.252 84.4756 215.782 83.8148 214.58 83.0029C213.854 82.5119 212.919 83.4749 213.511 84.1546C214.809 85.6274 216.221 86.4204 218.168 86.798C219.275 87.0057 219.675 85.2309 218.607 84.891H218.626Z" fill="white"/>
<path d="M217.366 79.6797C215.839 80.3406 213.396 81.7189 213.206 83.5693C213.129 84.2302 213.854 84.74 214.465 84.4379C215.19 84.0791 215.591 83.3994 216.183 82.8518C216.794 82.2854 217.462 81.8322 218.225 81.4546C219.37 80.8881 218.549 79.1699 217.366 79.6797Z" fill="white"/>
<path d="M218.492 79.5098C219.237 78.3958 219.599 76.8664 219.351 75.5447C219.103 74.2419 218.187 72.6369 216.775 72.4292C215.992 72.316 215.419 73.2223 215.744 73.8831C216.126 74.6573 216.851 75.0915 217.175 75.9412C217.519 76.8286 217.576 77.6972 217.08 78.5468C216.546 79.4909 217.882 80.4539 218.492 79.5287V79.5098Z" fill="white"/>
<path d="M217.404 72.5425C218.206 70.4467 219.027 68.3697 219.847 66.2928C220.477 64.7067 219.122 62.913 217.939 61.8934C217.004 61.0815 215.553 62.1577 215.763 63.2718C215.897 63.9515 216.088 64.3291 216.374 64.9333C216.851 65.9529 216.889 66.1795 216.603 67.369C216.24 68.8607 215.878 70.3712 215.515 71.8628C215.229 73.0712 216.927 73.7887 217.404 72.5614V72.5425Z" fill="white"/>
<path d="M217.385 78.1692C211.03 81.1336 204.216 84.249 198.395 88.1575C197.594 88.6862 198.472 89.7813 199.254 89.4792C205.724 87.0246 212.194 83.2861 218.187 79.8685C219.237 79.2643 218.492 77.6405 217.366 78.1692H217.385Z" fill="white"/>
<path d="M193.547 90.5555C186.886 93.9919 179.863 97.6549 174.099 102.47C173.813 102.696 174.118 103.206 174.462 103.017C181.027 99.222 187.173 94.8038 193.853 91.1597C194.234 90.952 193.948 90.3478 193.566 90.5555H193.547Z" fill="white"/>
<path d="M172.744 103.187C169.728 104.679 166.713 106.208 163.774 107.832C161.197 109.267 158.296 110.513 155.987 112.364C155.472 112.779 156.025 113.572 156.617 113.326C159.479 112.118 162.113 110.117 164.804 108.549C167.534 106.963 170.263 105.34 173.011 103.772C173.355 103.584 173.107 103.036 172.744 103.206V103.187Z" fill="white"/>
<path d="M198.395 82.0399C183.413 88.8561 168.641 96.5975 155.224 106.114C154.269 106.794 155.453 108.153 156.407 107.492C169.977 98.108 183.642 89.5547 198.662 82.5875C199.025 82.4175 198.758 81.87 198.395 82.021V82.0399Z" fill="white"/>
<path d="M183.088 84.8721C181.504 85.5141 179.882 86.0994 178.355 86.8736C177.992 87.0624 178.26 87.5533 178.622 87.4211C180.245 86.8736 181.791 86.1183 183.375 85.4386C183.756 85.2686 183.489 84.7211 183.107 84.8721H183.088Z" fill="white"/>
<path d="M171.064 91.5939C167.82 93.0478 164.613 94.6338 161.522 96.3709C159.098 97.7304 156.197 99.1276 154.441 101.28C154.04 101.771 154.67 102.3 155.166 102.111C157.781 101.186 160.052 99.1087 162.361 97.636C165.32 95.729 168.354 94.0296 171.465 92.3869C171.98 92.1226 171.618 91.3485 171.083 91.575L171.064 91.5939Z" fill="white"/>
<path d="M172.019 83.6637C168.831 85.5707 165.682 87.5155 162.552 89.517C159.804 91.2729 156.578 92.8968 154.307 95.2192C153.792 95.7479 154.307 96.673 155.052 96.3521C158.067 95.0115 160.682 92.6513 163.373 90.782C166.407 88.6673 169.499 86.6092 172.591 84.5511C173.087 84.2302 172.534 83.3616 172.019 83.6637Z" fill="white"/>
<path d="M204.197 77.9804C206.755 76.6965 209.35 75.4692 211.946 74.2608C213.339 73.6188 216.087 73.0901 216.565 71.4474C216.66 71.1076 216.603 70.5978 216.24 70.4089C216.183 70.3712 216.106 70.3334 216.049 70.2957C215.572 70.0502 214.961 70.1257 214.751 70.6922C214.656 70.9754 214.637 71.1831 214.809 71.4474C215.019 71.7873 215.553 71.9195 215.801 71.523L215.877 71.4097C215.572 71.4663 215.267 71.5229 214.961 71.5796C213.931 70.7488 210.438 73.5055 209.388 74.1286C207.556 75.1859 205.724 76.2433 203.873 77.2629C203.434 77.5084 203.758 78.207 204.216 77.9804H204.197Z" fill="white"/>
<path d="M207.423 80.2273C209.808 79.321 212.232 78.5091 214.599 77.5839C216.049 77.0174 218.416 76.6776 218.893 75.016C219.008 74.6384 218.912 74.2041 218.569 73.9775C217.958 73.581 217.29 73.6943 216.889 74.2985C216.603 74.7328 216.813 75.1859 217.233 75.4125C217.271 75.4314 217.309 75.4503 217.347 75.4692C217.729 75.658 218.168 75.2992 218.206 74.9405C218.34 73.9398 214.809 75.6202 214.618 75.7146C213.854 76.0734 213.072 76.4132 212.309 76.772C210.514 77.6028 208.759 78.4902 206.965 79.321C206.354 79.6042 206.793 80.4916 207.404 80.2462L207.423 80.2273Z" fill="white"/>
<path d="M122.262 89.0827C115.029 84.7211 106.25 79.5664 97.5848 79.1322C96.745 79.0944 96.4587 80.2273 97.2603 80.5672C105.448 83.9469 113.903 85.3631 121.843 89.6869C122.243 89.9135 122.663 89.347 122.262 89.1016V89.0827Z" fill="white"/>
<path d="M116.136 93.1989C115.239 92.2548 113.483 90.6687 112.052 90.9897C111.727 91.0653 111.536 91.4618 111.784 91.7261C112.243 92.217 112.93 92.3492 113.521 92.6513C114.208 93.01 114.895 93.4066 115.506 93.8786C115.926 94.1996 116.499 93.5954 116.117 93.1989H116.136Z" fill="white"/>
<path d="M109.819 89.9513C107.853 88.8372 105.887 87.7232 103.807 86.8358C101.994 86.0428 99.8942 84.9288 97.8902 85.1554C97.2604 85.2309 97.2031 86.0239 97.623 86.3638C99.1117 87.5911 101.383 87.8743 103.196 88.4974C105.295 89.196 107.376 89.8946 109.418 90.7443C109.876 90.9331 110.277 90.2156 109.819 89.9701V89.9513Z" fill="white"/>
<path d="M142.608 92.6135C139.287 91.4995 136.042 89.9135 132.664 89.026C132.359 88.9505 132.072 89.3659 132.378 89.5547C135.374 91.3485 139.02 92.2925 142.36 93.2933C142.799 93.4254 143.066 92.7646 142.608 92.6135Z" fill="white"/>
<path d="M129.687 87.4023C120.831 80.7749 108.502 73.2034 96.9932 73.3733C96.3252 73.3733 96.058 74.2608 96.726 74.5251C101.86 76.5832 107.452 77.3573 112.663 79.3965C118.484 81.6623 124.038 84.6078 129.172 88.1197C129.649 88.4407 130.145 87.7421 129.687 87.4023Z" fill="white"/>
<path d="M53.7452 56.5122C51.8748 55.9835 49.928 55.7758 48.0386 55.3604C45.6719 54.8317 43.4389 54.0198 41.1296 53.3401C40.7479 53.2268 40.4616 53.7177 40.8051 53.9632C44.2787 56.38 49.3936 58.0794 53.6688 57.494C54.146 57.4374 54.2414 56.6632 53.7643 56.5311L53.7452 56.5122Z" fill="white"/>
<path d="M36.3008 51.0743C30.4225 47.1659 24.3914 43.5217 18.2077 40.0853C14.4096 37.9706 8.62667 33.4957 4.27515 33.3258C3.74075 33.3069 3.2827 33.6467 3.20635 34.1943C3.18727 34.3831 3.1491 34.5719 3.13001 34.7608C3.03458 35.4027 3.89344 35.837 4.38966 35.4027C5.76383 34.1754 20.3071 42.5588 21.6812 43.2763C26.529 45.8819 31.2813 48.6575 35.9764 51.5275C36.2817 51.7163 36.6062 51.282 36.3008 51.0743Z" fill="white"/>
<path d="M37.9232 58.5514C24.8304 56.8709 16.0319 45.1833 2.8247 44.2581C2.11853 44.2015 1.41236 44.9945 1.81316 45.6742C1.90859 45.8253 1.98493 45.9575 2.08036 46.1085C2.2903 46.4295 2.5575 46.5805 2.93921 46.5428C3.11098 46.5428 3.26367 46.5239 3.43544 46.505C3.98892 46.4673 4.1416 45.6365 3.68355 45.3721C6.39371 47.0526 10.0391 47.6568 13.2073 49.054C16.6999 50.6023 20.0399 52.4904 23.3799 54.3219C27.9986 56.8332 32.5219 58.929 37.8277 59.3255C38.343 59.3633 38.4003 58.608 37.9041 58.5514H37.9232Z" fill="white"/>
<path d="M16.6426 44.0315C12.9782 41.8035 9.25651 40.0476 5.0195 39.1413C3.96979 38.9147 3.54991 40.7084 4.59962 40.9539C8.56943 41.8791 12.5392 43.0308 16.1846 44.8812C16.6808 45.1267 17.1198 44.3148 16.6426 44.0315Z" fill="white"/>
<path d="M23.4562 59.2311C21.395 58.4381 19.162 57.3052 16.948 57.0031C16.6045 56.9653 16.4327 57.4374 16.719 57.6262C18.5894 58.8157 21.0514 59.3633 23.1318 60.0808C23.6853 60.2696 24.0097 59.4388 23.4562 59.2311Z" fill="white"/>
<path d="M14.0089 55.4359C11.4323 53.9065 8.89391 52.3016 6.29827 50.81C5.1913 50.168 2.63383 48.0155 1.27875 48.6386C0.78252 48.8652 0.572578 49.6016 0.973376 50.017C1.45052 50.489 1.66046 50.5645 2.32846 50.5079C2.82468 50.4701 2.9392 49.847 2.69108 49.526C2.65291 49.4505 2.59565 49.3561 2.55748 49.2806C2.30937 49.6205 2.08034 49.9603 1.83223 50.3191C1.92766 50.3002 3.70262 51.3764 3.93165 51.4897C4.86684 51.9618 5.80204 52.4338 6.75632 52.9058C8.98934 54.0198 11.2605 55.0961 13.4745 56.2478C14.0279 56.5311 14.6005 55.7758 14.047 55.4548L14.0089 55.4359Z" fill="white"/>
<path d="M47.256 60.6661C48.6874 60.9305 50.1188 61.4969 51.3212 62.2899C52.2564 62.8941 53.0771 63.9704 54.184 64.2158C54.5276 64.2913 54.9665 64.0648 54.8711 63.6494C54.5657 62.3466 53.1152 61.6102 51.9701 61.0815C50.4814 60.4018 48.9546 60.0997 47.3323 60.043C46.9124 60.043 46.8742 60.5906 47.275 60.6661H47.256Z" fill="white"/>
<path d="M39.4309 63.1207C42.1219 63.6116 44.8512 64.2536 47.3705 65.3109C48.3248 65.7075 49.2981 66.1795 50.2142 66.6326C51.0922 67.0669 51.9319 67.539 52.7717 68.0488C53.3634 68.7474 54.0695 68.8418 54.8902 68.3509C54.7184 67.8411 54.0886 67.6145 53.726 68.0865C53.6878 68.1243 53.6497 68.1809 53.6306 68.2187C53.4588 68.4642 53.4397 68.8795 53.6687 69.1061C53.726 69.1628 53.7833 69.2194 53.8596 69.2949C54.0505 69.4837 54.3558 69.6537 54.6421 69.5782C54.7184 69.5593 54.7948 69.5404 54.8711 69.5215C55.3483 69.3893 55.7109 68.9928 55.6155 68.4641C55.2528 66.3494 51.493 65.462 49.7753 64.82C46.4735 63.5927 42.9999 62.7619 39.4881 62.3277C38.9728 62.271 38.9155 63.0074 39.4118 63.1018L39.4309 63.1207Z" fill="white"/>
<path d="M119.552 99.0899C112.51 95.238 105.105 91.103 97.4131 88.6862C96.4016 88.3652 95.8672 89.8002 96.8406 90.2156C104.379 93.3877 111.956 95.9178 119.266 99.6374C119.572 99.7885 119.858 99.2598 119.552 99.1088V99.0899Z" fill="white"/>
<path d="M40.0416 56.0024C33.7052 53.5289 28.1704 50.1303 22.4065 46.5805C21.7767 46.2029 21.1659 47.0715 21.7576 47.5057C27.1397 51.4708 33.5525 54.2653 39.8317 56.5688C40.1943 56.701 40.4043 56.1534 40.0416 56.0024Z" fill="white"/>
<path d="M91.6302 82.663C91.4966 77.7916 91.573 72.9013 91.3439 68.0299C91.3058 67.0669 89.798 67.3313 89.8362 68.2942C90.0843 73.109 90.6378 77.886 90.9813 82.7008C91.0004 83.0595 91.6302 83.0406 91.6111 82.6819L91.6302 82.663Z" fill="white"/>
<path d="M88.7291 84.7211C88.481 78.5091 88.2519 72.2971 87.8321 66.104C87.7557 65.0466 85.9044 65.3487 86.1907 66.3872C86.3052 66.8403 86.4197 67.2746 86.5533 67.7278C86.6678 68.1432 87.3549 68.3131 87.4885 67.8033C87.603 67.3879 87.6985 66.9536 87.813 66.5382C87.2786 66.4816 86.7442 66.4438 86.2098 66.3872C86.706 72.5048 87.374 78.6412 88.0229 84.7588C88.0611 85.1553 88.7673 85.1365 88.7482 84.7211H88.7291Z" fill="white"/>
<path d="M84.9502 78.4147C84.5685 74.1475 85.3701 68.8795 84.015 64.8011C83.8051 64.1781 83.0035 64.5179 82.889 64.99C81.9347 69.1439 83.557 74.4118 84.0914 78.5657C84.1677 79.1322 85.0075 78.9622 84.9502 78.4147Z" fill="white"/>
<path d="M80.7132 77.9049C80.4269 73.4111 80.8659 68.2753 79.6826 63.9137C79.4917 63.1962 78.3657 63.1396 78.2893 63.9704C77.9267 68.5397 79.3009 73.5244 79.8544 78.0559C79.9307 78.6035 80.7323 78.4336 80.6941 77.9049H80.7132Z" fill="white"/>
<path d="M76.037 76.4699C76.0561 75.2804 76.2851 73.8831 75.9225 72.7314C75.808 72.3915 75.2736 72.2404 75.14 72.6558C74.7774 73.8076 74.9873 75.1671 75.0064 76.3755C75.0064 77.0175 76.0179 77.1496 76.037 76.4699Z" fill="white"/>
<path d="M75.4646 68.7096C75.5219 67.6145 75.6936 66.5382 75.7318 65.4431C75.77 64.5368 75.9227 63.555 75.4837 62.7431C75.3119 62.4221 74.7584 62.2899 74.5485 62.6675C74.0523 63.555 74.2049 64.5368 74.2622 65.5375C74.3195 66.6138 74.4721 67.6711 74.5294 68.7474C74.5485 69.2761 75.4264 69.2194 75.4455 68.7096H75.4646Z" fill="white"/>
<path d="M72.3537 75.9412C72.2965 71.3908 72.3155 66.8403 72.0865 62.3088C72.0293 61.2137 70.3306 61.5158 70.3879 62.6109C70.636 67.0669 71.1322 71.523 71.5521 75.979C71.5903 76.4321 72.3537 76.3944 72.3537 75.9412Z" fill="white"/>
<path d="M67.6776 76.4699C67.6203 73.2978 67.4294 70.1257 67.5249 66.9536C67.6012 64.499 67.7921 61.9878 66.9905 59.6465C66.8378 59.2122 66.0744 59.25 65.9598 59.6843C65.3682 62.0822 65.769 64.5746 66.0553 67.0103C66.4179 70.1635 66.4942 73.3356 66.7042 76.5077C66.7424 77.0363 67.6585 76.9986 67.6585 76.4699H67.6776Z" fill="white"/>
<path d="M63.8604 71.8062C64.0704 67.5578 64.8338 62.0822 63.2879 58.0038C63.0398 57.3807 62.1046 57.6262 62.0282 58.2304C61.7992 60.1941 62.2572 62.1766 62.5244 64.1214C62.868 66.6515 63.0779 69.2005 63.1734 71.7495C63.1734 72.1649 63.8414 72.2593 63.8604 71.8062Z" fill="white"/>
<path d="M60.3679 69.0872C60.2153 67.8788 60.2153 66.5005 59.6999 65.3865C59.5473 65.0466 59.051 65.1599 58.9938 65.4998C58.8411 66.7082 59.2419 68.0488 59.4709 69.2383C59.5663 69.8047 60.4252 69.6537 60.3679 69.0872Z" fill="white"/>
<path d="M59.7762 63.0074C59.8525 61.5347 60.0625 60.0619 60.1197 58.5892C60.177 57.4185 60.4251 56.3423 59.738 55.3604C59.5281 55.0583 59.0128 55.115 58.8219 55.3982C58.0967 56.4367 58.4402 57.7961 58.4975 59.0045C58.5547 60.364 58.7647 61.7046 58.841 63.0641C58.8601 63.5927 59.7571 63.555 59.7762 63.0263V63.0074Z" fill="white"/>
<path d="M117.72 48.1288C114.323 50.017 111.002 51.8107 107.872 54.1142C104.895 56.3045 101.345 58.6269 99.2261 61.6857C98.9971 62.0067 99.3788 62.5354 99.7605 62.3088C102.681 60.6095 105.085 58.0038 107.776 55.9457C111.059 53.4345 114.476 50.8666 118.006 48.733C118.35 48.5253 118.102 47.94 117.72 48.1477V48.1288Z" fill="white"/>
<path d="M107.089 51.1876C105.276 52.4904 103.482 53.831 101.707 55.1716C100.123 56.3611 98.4055 57.494 97.0695 58.9668C96.8404 59.2311 97.2031 59.6276 97.5084 59.4766C99.2834 58.5703 100.81 57.173 102.375 55.9457C104.131 54.5674 105.868 53.1702 107.586 51.7541C107.967 51.4331 107.49 50.8855 107.089 51.1687V51.1876Z" fill="white"/>
<path d="M100.887 52.8492C98.5582 54.3975 95.9817 55.9269 93.9967 57.8905C93.7486 58.136 93.9967 58.608 94.3403 58.4192C96.8787 57.1164 99.1499 55.1527 101.364 53.3968C101.746 53.0947 101.268 52.6037 100.887 52.8492Z" fill="white"/>
<path d="M96.7642 51.8674C95.3518 53.0758 93.7868 54.2087 92.5653 55.6248C92.2791 55.9457 92.7753 56.3045 93.0807 56.0968C94.6075 55.0772 95.9053 53.6989 97.2604 52.4716C97.623 52.1317 97.1459 51.5464 96.7451 51.8862L96.7642 51.8674Z" fill="white"/>
<path d="M162.037 49.2239C159.384 47.789 155.968 46.0896 152.857 46.505C152.456 46.5617 152.437 47.1281 152.78 47.2603C154.212 47.8267 155.796 47.9589 157.266 48.3554C158.773 48.7708 160.224 49.2806 161.636 49.9603C162.056 50.168 162.457 49.4505 162.018 49.2239H162.037Z" fill="white"/>
<path d="M150.357 45.5043C146.883 44.8623 143.429 44.1637 139.917 43.7483C138.924 43.635 138.791 45.1267 139.764 45.2777C143.257 45.8253 146.769 46.0519 150.28 46.354C150.834 46.4106 150.891 45.5987 150.357 45.5043Z" fill="white"/>
<path d="M95.5809 27.7746C92.8325 26.6606 90.0269 25.6032 87.2977 24.4137C84.1867 23.0731 81.6674 21.0717 78.9191 19.1647C78.6328 18.957 78.2129 19.3724 78.4801 19.6367C82.9271 23.9794 89.2063 27.6236 95.3709 28.6809C95.9244 28.7753 96.058 27.9634 95.5809 27.7746Z" fill="white"/>
<path d="M70.2732 13.7646C64.8147 8.94981 58.6309 5.15464 51.7219 2.79445C50.9394 2.53011 50.5005 3.70076 51.283 3.98399C58.0965 6.40081 64.2994 9.76171 69.8342 14.4065C70.2159 14.7275 70.6549 14.1044 70.2732 13.7835V13.7646Z" fill="white"/>
<path d="M51.7411 2.98327C48.3629 4.55043 44.8703 6.77844 41.912 9.04422C41.6257 9.27079 41.9311 9.72395 42.2555 9.5729C45.6337 8.00574 49.2409 5.94766 52.1801 3.663C52.5427 3.37978 52.161 2.79445 51.7411 2.98327Z" fill="white"/>
<path d="M46.8171 44.1826C34.6595 39.3301 23.0746 33.8733 12.0812 26.7361C11.3751 26.283 10.6307 27.3592 11.3369 27.7935C22.4829 34.5531 34.2015 40.5951 46.569 44.8435C47.0079 44.9945 47.237 44.3525 46.8171 44.1826Z" fill="white"/>
<path d="M22.5974 20.3353C18.6085 22.4878 14.3906 24.0738 10.2681 25.9242C9.4474 26.283 10.0391 27.4725 10.8597 27.1515C15.0586 25.49 18.9711 23.1487 22.8646 20.9018C23.2081 20.6941 22.96 20.1276 22.5974 20.3353Z" fill="white"/>
<path d="M209.541 54.2653C204.426 53.0002 198.949 52.4527 193.681 52.8303C193.357 52.8492 193.395 53.3401 193.7 53.3779C198.91 54.001 204.178 54.4352 209.408 54.8129C209.713 54.8317 209.866 54.3408 209.541 54.2653Z" fill="white"/>
<path d="M143.104 82.7952C135.527 81.0581 129.591 77.6217 122.854 73.9775C122.453 73.751 122.11 74.2419 122.453 74.5629C127.912 79.4343 135.89 82.0588 142.99 83.3805C143.333 83.4371 143.467 82.8707 143.123 82.7952H143.104Z" fill="white"/>
<path d="M118.999 72.0705C113.483 69.4082 106.211 67.2369 100.009 67.5012C99.3406 67.539 99.4933 68.483 100.047 68.5963C103.196 69.2005 106.402 69.3327 109.551 70.0124C112.701 70.6922 115.697 71.7684 118.751 72.788C119.209 72.939 119.438 72.2971 119.018 72.0894L118.999 72.0705Z" fill="white"/>
<path d="M129.878 50.489C121.175 54.2653 113.235 58.9857 106.021 65.141C105.429 65.6508 106.211 66.576 106.803 66.0662C113.884 60.0619 121.652 54.9073 130.126 51.0366C130.469 50.8855 130.221 50.3568 129.878 50.5079V50.489Z" fill="white"/>
<path d="M123.503 56.4933C119.61 58.5514 114.705 60.9116 111.804 64.3102C111.555 64.5935 111.956 65.0466 112.281 64.8767C114.094 63.8948 115.659 62.4221 117.357 61.2514C119.438 59.7787 121.575 58.3815 123.789 57.1164C124.171 56.8898 123.885 56.2856 123.484 56.4933H123.503Z" fill="white"/>
<path d="M120.736 60.7983C119.132 61.3647 116.976 62.3466 116.021 63.8193C115.812 64.1403 116.155 64.5557 116.499 64.3858C117.243 64.027 117.854 63.4228 118.541 62.9696C119.342 62.4221 120.182 61.9312 121.022 61.4403C121.423 61.2137 121.155 60.6472 120.717 60.7983H120.736Z" fill="white"/>
<path d="M76.7241 37.7251C75.6935 38.5182 74.6628 39.3112 73.5368 39.9909C72.6016 40.5762 71.4946 40.9539 70.6358 41.6336C70.3495 41.8602 70.5785 42.3133 70.9221 42.2567C72.1245 42.0868 73.2696 41.2937 74.2811 40.6518C75.3499 39.972 76.3233 39.1979 77.1821 38.2916C77.5066 37.9517 77.0867 37.423 76.6859 37.7251H76.7241Z" fill="white"/>
<path d="M74.4531 37.0265C71.2467 38.5182 67.6395 39.8021 64.7385 41.8035C64.3759 42.049 64.7767 42.4833 65.1202 42.3889C68.4602 41.3126 71.6475 39.2357 74.7394 37.6307C75.1211 37.4419 74.8348 36.8566 74.4531 37.0265Z" fill="white"/>
<path d="M35.6138 12.4618C33.9915 13.2359 32.2357 13.9156 30.747 14.9352C30.4035 15.1807 30.7852 15.615 31.1096 15.5017C32.7892 14.9541 34.3923 13.9912 35.9574 13.1981C36.4345 12.9527 36.091 12.2352 35.5947 12.4618H35.6138Z" fill="white"/>
<path d="M168.259 78.0748C163.869 81.2469 159.174 83.9658 154.174 86.0994C153.391 86.4393 153.964 87.6099 154.746 87.289C159.88 85.0987 164.556 82.2854 168.812 78.7168C169.232 78.358 168.698 77.7538 168.259 78.0748Z" fill="white"/>
<path d="M154.136 85.854C152.8 85.4197 151.254 84.8344 149.822 84.8344C149.479 84.8344 149.192 85.3253 149.555 85.533C150.815 86.2505 152.494 86.4959 153.907 86.7792C154.441 86.8924 154.632 86.0239 154.116 85.854H154.136Z" fill="white"/>
<path d="M154.059 94.0108C153.124 92.538 152.17 91.0653 151.196 89.6114C150.986 89.2904 150.509 89.6869 150.738 90.0079C151.693 91.4429 152.666 92.859 153.677 94.2751C153.83 94.5017 154.231 94.2562 154.078 94.0108H154.059Z" fill="white"/>
<path d="M154.288 99.5619C151.96 95.8611 149.498 92.1604 146.902 88.6295C146.654 88.2897 146.062 88.6673 146.291 89.026C148.62 92.7268 151.158 96.3709 153.773 99.9018C153.983 100.185 154.498 99.864 154.307 99.5619H154.288Z" fill="white"/>
<path d="M153.601 104.32C149.937 98.6934 146.31 92.9156 142.245 87.5722C142.035 87.289 141.539 87.6099 141.711 87.912C145.165 93.6709 149.192 99.1843 153.067 104.66C153.277 104.943 153.792 104.622 153.601 104.32Z" fill="white"/>
<path d="M152.494 108.512C148.257 101.469 143.944 94.2751 139.287 87.4778C139.096 87.1946 138.638 87.4967 138.791 87.7988C142.531 95.0681 147.188 102.205 151.922 108.889C152.151 109.21 152.704 108.852 152.494 108.531V108.512Z" fill="white"/>
<path d="M151.674 116.121C146.101 105.245 139.783 94.4639 133.37 84.0413C133.141 83.6637 132.493 83.928 132.722 84.3434C138.428 95.1625 144.536 106.057 151.082 116.385C151.292 116.725 151.864 116.48 151.674 116.102V116.121Z" fill="white"/>
<path d="M147.417 113.572C146.062 111.438 144.764 109.267 143.199 107.266C142.97 106.982 142.493 107.284 142.665 107.605C143.867 109.833 145.337 111.891 146.768 113.968C147.016 114.327 147.646 113.931 147.417 113.553V113.572Z" fill="white"/>
<path d="M141.634 103.754C138.485 97.9947 135.412 92.0093 131.691 86.5903C131.481 86.2882 131.023 86.6092 131.156 86.9302C133.981 92.8023 137.665 98.4479 141.062 104.018C141.272 104.358 141.825 104.112 141.634 103.754Z" fill="white"/>
<path d="M140.623 108.908C136.806 101.601 133.141 94.0863 128.771 87.0812C128.561 86.7414 128.007 86.968 128.198 87.3456C131.672 94.8226 136.004 101.998 140.05 109.173C140.241 109.531 140.814 109.267 140.623 108.908Z" fill="white"/>
<path d="M132.664 101.733C130.259 97.2395 128.065 92.6135 125.622 88.1386C125.431 87.7799 124.877 88.0253 125.03 88.4219C126.958 93.1233 129.496 97.636 132.053 102.035C132.263 102.413 132.874 102.13 132.664 101.752V101.733Z" fill="white"/>
<path d="M127.53 97.957C125.584 95.3891 124.228 92.6324 122.854 89.7624C122.683 89.4226 122.224 89.668 122.339 90.0079C123.331 93.0289 125.125 95.8423 127.053 98.3724C127.301 98.6934 127.778 98.2968 127.53 97.9759V97.957Z" fill="white"/>
<path d="M54.3177 55.0017C53.497 54.0765 52.7145 53.1135 52.0274 52.075C51.3403 51.0366 50.8441 49.9037 50.1952 48.8463C50.0425 48.582 49.5081 48.6764 49.6226 49.0351C50.367 51.3953 52.1419 53.6422 53.8787 55.3793C54.1268 55.6248 54.5467 55.2849 54.3177 55.0206V55.0017Z" fill="white"/>
<path d="M54.8903 61.799C52.4091 56.9087 49.5272 51.9618 45.8628 47.8267C45.6147 47.5435 45.2139 47.9022 45.4238 48.1855C48.5729 52.7359 51.7221 57.1542 54.3368 62.0445C54.5276 62.3843 55.062 62.1389 54.8903 61.7801V61.799Z" fill="white"/>
<path d="M54.9475 68.483C50.2906 61.1948 45.8818 53.68 40.8814 46.6372C40.6905 46.3728 40.2515 46.6561 40.4042 46.9393C44.7176 54.3975 49.718 61.5158 54.394 68.7474C54.6039 69.0684 55.1574 68.8229 54.9475 68.483Z" fill="white"/>
<path d="M50.5769 68.0865C45.6146 60.4207 40.7669 52.6226 35.4802 45.1833C35.2702 44.9001 34.774 45.2211 34.9458 45.5232C39.679 53.3212 44.9466 60.8549 50.0043 68.4641C50.2143 68.7851 50.7678 68.4264 50.5769 68.1054V68.0865Z" fill="white"/>
<path d="M44.4886 67.4634C43.6679 65.8774 42.9044 64.1592 41.7784 62.7431C41.5112 62.4032 41.0531 62.762 41.1867 63.1207C41.7975 64.7634 42.8663 66.2928 43.7633 67.7844C44.0305 68.2187 44.7367 67.8977 44.4886 67.4446V67.4634Z" fill="white"/>
<path d="M38.6102 58.7213C34.9839 52.0184 31.4912 45.1267 27.4451 38.6503C27.2352 38.3105 26.6817 38.5559 26.8725 38.9147C30.2507 45.7498 34.2968 52.3394 38.0949 58.9668C38.2666 59.2878 38.782 59.0423 38.6102 58.7213Z" fill="white"/>
<path d="M36.0146 62.762C32.0829 56.9654 28.972 50.8289 25.4411 44.7868C25.2312 44.4281 24.6777 44.6735 24.8495 45.07C27.5596 51.4708 31.5867 57.4374 35.5374 63.1585C35.7664 63.4795 36.2245 63.0829 36.0146 62.762Z" fill="white"/>
<path d="M27.4451 57.2297C24.6014 53.3779 22.3874 49.2806 19.9063 45.2211C19.6964 44.8623 19.1811 45.1078 19.3147 45.5043C20.9751 49.9226 23.8952 54.0765 26.8917 57.7017C27.197 58.0605 27.7123 57.6073 27.4451 57.2297Z" fill="white"/>
<path d="M19.2765 53.038C18.7421 52.1506 18.2077 51.2631 17.6351 50.3946C17.4634 50.1303 17.0053 50.4135 17.158 50.6967C17.6351 51.5841 18.1695 52.4338 18.7039 53.3023C18.9139 53.6422 19.4864 53.3779 19.2765 53.038Z" fill="white"/>
<path d="M119.266 91.2729C117.548 88.0065 115.945 84.6267 114.056 81.4357C113.846 81.0958 113.292 81.3413 113.483 81.7C115.086 85.0421 116.995 88.2519 118.751 91.5184C118.923 91.8394 119.438 91.5939 119.266 91.2729Z" fill="white"/>
<path d="M115.506 92.3492C111.861 85.4197 108.826 78.2259 105.448 71.1831C105.276 70.8432 104.78 71.0887 104.914 71.4285C107.586 78.7357 111.307 85.7407 114.991 92.5758C115.163 92.8967 115.678 92.6513 115.506 92.3303V92.3492Z" fill="white"/>
<path d="M111.861 94.9359C107.719 86.5526 104.15 77.886 100.009 69.5026C99.7987 69.0872 99.207 69.3893 99.3788 69.8047C102.681 78.5091 107.108 86.9113 111.345 95.1814C111.517 95.5024 112.033 95.2758 111.88 94.9359H111.861Z" fill="white"/>
<path d="M108.75 95.4457C104.055 87.0813 100.772 78.4147 97.1458 69.597C96.9932 69.2383 96.4015 69.4271 96.4969 69.8047C98.8063 78.9245 103.349 87.6855 108.158 95.729C108.368 96.0877 108.96 95.8234 108.75 95.4457Z" fill="white"/>
<path d="M104.589 94.9171C101.86 88.9317 99.3406 82.8141 96.535 76.8853C96.3823 76.5643 95.8098 76.7153 95.9052 77.0741C97.6992 83.305 100.696 89.5925 103.94 95.2192C104.169 95.6157 104.799 95.3325 104.589 94.9171Z" fill="white"/>
<path d="M100.371 92.7457C98.6536 90.1589 97.7184 87.4589 96.726 84.5511C96.6114 84.1924 96.058 84.4001 96.0961 84.74C96.4587 87.8176 97.9856 90.7254 99.8178 93.18C100.085 93.5576 100.6 93.0856 100.352 92.7268L100.371 92.7457Z" fill="white"/>
<path d="M126.5 103.735C125.564 101.507 124.095 99.4864 122.74 97.5038C122.568 97.2584 122.148 97.5227 122.282 97.787C123.37 99.9395 124.438 102.186 125.946 104.093C126.194 104.396 126.633 104.075 126.5 103.735Z" fill="white"/>
<path d="M121.671 86.7036C120.965 84.8155 120.01 82.9273 118.693 81.3791C118.483 81.1336 118.006 81.4168 118.197 81.7001C119.285 83.4183 120.316 85.0987 121.079 86.9869C121.232 87.3834 121.823 87.1001 121.671 86.7036Z" fill="white"/>
<path d="M124.935 86.6659C123.942 84.891 123.007 83.0406 121.785 81.3979C121.556 81.0958 121.079 81.4168 121.232 81.7378C122.091 83.5504 123.293 85.2309 124.381 86.9113C124.572 87.2134 125.106 87.0057 124.915 86.6659H124.935Z" fill="white"/>
<path d="M134.439 108.342C133.58 106.963 132.836 105.377 131.767 104.15C131.538 103.886 131.099 104.15 131.233 104.49C131.901 105.982 133.027 107.322 133.924 108.682C134.115 108.965 134.63 108.644 134.439 108.361V108.342Z" fill="white"/>
<path d="M120.774 101.129C119.762 99.2032 118.751 97.2206 117.51 95.408C117.319 95.1248 116.9 95.4269 117.033 95.7101C117.911 97.6738 119.075 99.5619 120.163 101.393C120.373 101.752 120.965 101.488 120.774 101.11V101.129Z" fill="white"/>
<path d="M122.244 96.522C121.556 95.2758 120.888 94.0296 120.106 92.8401C119.934 92.5758 119.514 92.859 119.648 93.1422C120.24 94.4073 120.965 95.5968 121.652 96.8052C121.862 97.164 122.453 96.8996 122.244 96.522Z" fill="white"/>
<path d="M111.784 78.9434C111.174 77.8105 110.658 76.6587 109.914 75.5825C109.628 75.1859 108.979 75.6202 109.189 76.0356C109.761 77.1685 110.544 78.1315 111.231 79.1888C111.441 79.5098 111.975 79.2832 111.784 78.9245V78.9434Z" fill="white"/>
<path d="M91.9164 72.146C91.2293 70.6733 90.5613 69.1816 89.7406 67.7844C89.4543 67.3124 88.7291 67.6334 88.9581 68.162C89.6261 69.6348 90.4468 71.0509 91.2484 72.467C91.4774 72.8635 92.1072 72.5803 91.9164 72.146Z" fill="white"/>
<path d="M91.9354 78.7357C91.0574 76.3755 90.0077 74.1286 88.8817 71.8817C87.9083 69.9369 86.8968 67.69 85.2554 66.1984C84.931 65.8963 84.3584 66.1984 84.5683 66.6327C85.5417 68.7663 87.2403 70.5411 88.4236 72.5803C89.6069 74.6195 90.523 76.8098 91.3628 79C91.4964 79.3776 92.069 79.1133 91.9354 78.7357Z" fill="white"/>
<path d="M90.962 83.0784C87.832 76.5076 84.3011 69.9558 80.1405 63.9704C79.7015 63.3473 78.8426 64.1025 79.2434 64.7256C83.2323 70.8432 87.0304 76.8664 90.3894 83.3427C90.5803 83.7015 91.1338 83.4371 90.962 83.0784Z" fill="white"/>
<path d="M86.4387 82.2287C85.6562 80.8881 84.8928 79.5664 83.9767 78.3203C83.7858 78.0559 83.3468 78.3392 83.4804 78.6413C84.1484 80.0007 84.9691 81.2658 85.7898 82.5497C86.0379 82.9273 86.6677 82.6441 86.4387 82.2476V82.2287Z" fill="white"/>
<path d="M81.5337 74.9405C79.7587 71.0509 77.7357 66.5571 74.6438 63.4983C74.3575 63.2151 73.7659 63.4983 74.014 63.9137C76.2661 67.7467 79.1098 71.1264 81.0566 75.1859C81.2093 75.5069 81.6864 75.2804 81.5528 74.9594L81.5337 74.9405Z" fill="white"/>
<path d="M80.8467 80.6238C80.3314 79.963 79.8352 79.3021 79.2817 78.679C79.0336 78.3958 78.6519 78.7545 78.8618 79.0378C79.3389 79.7175 79.8543 80.3783 80.3505 81.0392C80.5986 81.3791 81.1139 80.9448 80.8467 80.6238Z" fill="white"/>
<path d="M76.9532 73.6188C73.9186 69.2194 71.0939 64.4424 67.544 60.4207C67.2959 60.1374 66.7615 60.4395 66.9714 60.7794C69.6625 65.4431 73.2888 69.6726 76.5142 73.9964C76.7433 74.2985 77.1631 73.9209 76.9532 73.6188Z" fill="white"/>
<path d="M74.2431 77.9615C70.7886 71.1642 67.0478 63.9326 62.0474 58.0982C61.7802 57.7961 61.2267 58.1171 61.4366 58.4947C65.3874 65.1599 70.0252 71.3908 73.8232 78.1692C73.9759 78.4336 74.3958 78.2447 74.2622 77.9615H74.2431Z" fill="white"/>
<path d="M67.9447 73.7132C64.5856 68.0676 61.1502 62.441 57.6957 56.8332C57.3331 56.229 56.3216 56.701 56.6842 57.3052C60.196 62.8941 63.7459 68.4642 67.3531 73.9775C67.5821 74.3174 68.1547 74.0719 67.9447 73.6943V73.7132Z" fill="white"/>
<path d="M62.1047 71.353C60.8641 69.4271 59.719 67.1236 58.1158 65.4809C57.8486 65.1977 57.3523 65.4809 57.5241 65.8585C58.4593 67.9732 60.177 69.8614 61.513 71.7306C61.742 72.0516 62.3146 71.6929 62.1047 71.353Z" fill="white"/>
<path d="M205.113 109.871C195.742 110.664 188.184 113.383 180.149 118.198C171.293 123.522 163.678 127.563 153.658 130.622C152.15 131.075 152.456 133.246 154.097 133.058C162.132 132.132 169.194 128.016 175.874 123.749C185.321 117.707 193.929 112.703 205.361 111.268C206.277 111.155 206.01 109.796 205.113 109.871Z" fill="white"/>
<path d="M153.849 130.244C133.103 124.58 117.491 107.19 98.4244 98.1269C97.2029 97.5416 96.3823 99.3731 97.3747 100.109C107.509 107.813 118.846 114.573 129.668 121.313C136.405 125.505 145.108 132 153.372 132.359C154.555 132.416 155.128 130.584 153.868 130.244H153.849Z" fill="white"/>
<path d="M105.143 94.9926C101.898 95.6157 98.7872 96.6542 95.6189 97.5982C93.5004 98.2402 94.4166 101.148 96.5351 100.468C99.6651 99.4486 102.814 98.5045 105.83 97.1828C107.032 96.6542 106.421 94.766 105.124 95.0115L105.143 94.9926Z" fill="white"/>
<path d="M95.2563 98.2402C93.5768 104.131 93.9203 111.476 95.0464 117.443C95.2372 118.406 96.745 118.387 96.8213 117.367C97.0694 114.063 96.974 110.759 97.1458 107.435C97.2985 104.433 97.7374 101.431 97.6038 98.429C97.5466 97.2395 95.5807 97.1073 95.2563 98.2213V98.2402Z" fill="white"/>
<path d="M96.4969 118.406C85.6371 108.625 72.3345 98.4479 59.2035 91.8583C57.8866 91.1974 57.1041 93.1611 58.0775 93.973C63.5169 98.5801 69.9297 102.224 75.7699 106.321C82.2017 110.853 88.3664 115.724 94.7982 120.256C95.9434 121.049 97.6038 119.387 96.4969 118.406Z" fill="white"/>
<path d="M57.7339 77.3573C57.3522 79.642 57.6957 82.0588 57.9629 84.3435C58.2492 86.7792 58.3828 89.2149 58.8981 91.5939C59.108 92.538 60.3486 92.5947 60.7303 91.7639C61.6464 89.7436 61.0166 87.3267 60.7494 85.212C60.444 82.7385 59.7379 80.0574 59.8524 77.565C59.9096 76.2056 57.9629 76.0356 57.7339 77.3573Z" fill="white"/>
<path d="M58.5547 90.2345C48.592 79.5664 31.7203 76.8475 20.6507 67.3313C19.6773 66.5005 18.5512 68.1243 19.5055 68.9362C30.4988 78.5091 46.0727 82.0966 57.1233 91.7639C58.0203 92.5569 59.3563 91.0841 58.5356 90.2156L58.5547 90.2345Z" fill="white"/>
<path d="M205.8 109.248C203.147 107.247 199.903 105.868 196.906 104.433C193.929 103.017 190.837 101.261 187.593 100.638C186.543 100.43 186.123 101.941 186.906 102.489C189.444 104.282 192.593 105.264 195.418 106.586C198.548 108.059 201.602 109.871 204.884 111.004C205.972 111.382 206.716 109.947 205.819 109.248H205.8Z" fill="white"/>
<path d="M149.708 155.3C134.745 141.252 116.231 127.318 98.2337 117.292C96.5923 116.385 94.9128 118.613 96.5351 119.708C105.391 125.618 114.437 131.075 122.988 137.419C131.519 143.745 139.344 150.957 148.009 157.131C149.135 157.943 150.757 156.301 149.708 155.3Z" fill="white"/>
<path d="M153.773 138.741C148.391 135.229 142.646 132.321 137.283 128.734C132.378 125.43 127.606 122.371 122.091 120.18C121.671 120.011 121.461 120.634 121.862 120.822C132.435 126.071 141.672 137.344 153.41 139.798C153.983 139.912 154.25 139.062 153.792 138.76L153.773 138.741Z" fill="white"/>
<path d="M206.525 118.632C202.193 117.537 198.719 115.46 194.807 113.459C194.463 113.289 194.196 113.78 194.406 114.044C197.135 117.443 202.021 119.255 206.277 119.765C206.926 119.841 207.193 118.802 206.545 118.632H206.525Z" fill="white"/>
<path d="M207.117 118.443C201.888 121.087 195.647 121.521 190.131 123.655C184.997 125.637 179.825 128.035 175.549 131.509C175.225 131.774 175.569 132.34 175.969 132.132C182.115 128.809 187.688 125.675 194.521 123.843C199.177 122.597 203.453 121.729 207.556 119.104C207.938 118.859 207.518 118.255 207.136 118.443H207.117Z" fill="white"/>
<path d="M171.561 132.925C168.622 134.681 165.644 136.173 162.304 137.079C159.365 137.891 156.235 138.005 153.334 138.911C152.571 139.156 152.475 140.308 153.391 140.402C159.67 141.101 167.057 137.06 172 133.605C172.381 133.341 171.962 132.68 171.561 132.925Z" fill="white"/>
<path d="M202.823 120.067C201.525 121.294 200.303 122.616 200.17 124.448C199.998 126.525 201.162 127.337 202.307 128.866C202.212 128.356 202.117 127.846 202.04 127.337C201.468 129.017 199.387 129.999 199.922 132C200.094 132.661 200.933 133.114 201.086 133.718C201.525 135.493 197.956 136.607 196.62 137.457C195.628 138.08 196.276 139.534 197.422 139.119C199.235 138.458 202.746 137.4 203.529 135.305C203.701 134.851 203.796 134.228 203.624 133.775C203.109 132.34 202.575 133.794 203.682 132.586C204.731 131.434 206.067 129.772 205.533 128.13C205.247 127.223 204.636 126.997 204.025 126.374C203.224 125.543 203.51 126.581 202.861 124.957C202.231 123.371 203.185 122.635 204.273 121.37C204.999 120.539 203.643 119.331 202.842 120.086L202.823 120.067Z" fill="white"/>
<path d="M199.96 136.456C182.84 141.743 164.518 145.161 149.002 154.45C146.998 155.659 148.429 158.906 150.605 157.792C166.675 149.579 183.375 143.839 200.437 137.929C201.258 137.646 200.8 136.211 199.96 136.475V136.456Z" fill="white"/>
<path d="M151.654 142.385C144.096 139.987 137.76 134.927 130.813 131.264C130.45 131.075 130.107 131.528 130.45 131.774C134.401 134.625 138.6 137.136 142.665 139.817C145.432 141.649 148.009 143.272 151.311 143.914C152.208 144.084 152.513 142.649 151.673 142.385H151.654Z" fill="white"/>
<path d="M148.124 145.991C147.207 144.764 145.528 143.896 144.249 143.046C142.894 142.14 141.482 141.365 139.993 140.723C139.611 140.554 139.23 141.082 139.516 141.384C140.642 142.536 141.864 143.575 143.199 144.5C144.459 145.387 145.852 146.633 147.36 147.068C148.028 147.256 148.563 146.539 148.124 145.973V145.991Z" fill="white"/>
<path d="M148.658 150.334C146.826 148.748 144.841 146.935 142.646 145.84C142.226 145.633 141.882 146.237 142.15 146.558C143.696 148.446 145.948 149.975 147.914 151.41C148.601 151.92 149.288 150.882 148.677 150.353L148.658 150.334Z" fill="white"/>
<path d="M128.942 134.776C119.304 126.921 108.273 118.821 96.9358 113.572C96.4014 113.326 95.9816 114.157 96.4587 114.459C107.242 121.427 118.159 127.695 128.561 135.286C128.904 135.531 129.248 135.021 128.923 134.776H128.942Z" fill="white"/>
<path d="M111.861 118.5C110.315 117.443 108.769 116.121 107.051 115.385C106.727 115.252 106.402 115.706 106.65 115.951C107.986 117.273 109.78 118.198 111.365 119.217C111.842 119.52 112.338 118.821 111.861 118.5Z" fill="white"/>
<path d="M103.902 113.345C102.566 112.854 101.364 112.212 100.18 111.457C99.2071 110.834 98.2719 109.984 97.184 109.569C96.6687 109.361 96.3633 109.984 96.6114 110.362C97.9856 112.439 101.326 113.459 103.597 114.195C104.15 114.384 104.475 113.553 103.921 113.345H103.902Z" fill="white"/>
<path d="M101.44 106.019C100.658 105.51 99.8561 104.981 99.0736 104.452C98.4247 104.018 97.7948 103.527 97.0123 103.395C96.5924 103.319 96.4207 103.848 96.6306 104.131C97.0887 104.773 97.8903 105.132 98.5774 105.51C99.3408 105.963 100.104 106.397 100.868 106.85C101.421 107.171 102.013 106.378 101.459 106.019H101.44Z" fill="white"/>
<path d="M58.7264 80.1329C57.0278 78.4524 55.1192 76.9986 53.2488 75.5069C51.3975 74.0342 49.5844 72.4104 47.4659 71.3153C47.0651 71.1076 46.7215 71.6929 46.9887 71.995C48.4583 73.6943 50.3478 74.9783 52.1037 76.3566C54.0695 77.886 55.9971 79.472 58.1156 80.7749C58.5164 81.0203 59.089 80.4916 58.7073 80.1329H58.7264Z" fill="white"/>
<path d="M20.9751 68.4453C21.1278 68.3697 21.2614 68.2942 21.4141 68.2187C22.2156 67.69 21.0896 68.3509 21.6431 68.0676C22.063 67.8599 22.3302 67.7089 22.6737 67.3501C23.3035 66.6893 23.5707 65.9529 23.6471 65.0277C23.7998 63.2529 23.0172 61.4214 21.3186 60.7039C19.7345 60.0241 18.7421 62.0067 19.5627 63.1773C19.9635 63.7249 20.2689 64.2536 20.2307 64.9522C20.2307 65.1033 20.1735 65.2354 20.1544 65.3676C20.1544 65.4809 19.9635 66.6138 20.0781 66.0473C20.1735 65.5564 19.9445 66.3683 19.9063 66.4627C19.7727 66.9159 20.2117 66.1984 19.7345 66.5571C18.723 67.3501 19.8109 68.9928 20.956 68.4453H20.9751Z" fill="white"/>
<path d="M59.089 84.2679C55.2146 81.7378 51.3021 79.1888 47.3895 76.772C47.0842 76.5832 46.6452 76.9986 46.9506 77.2629C50.3478 80.3595 54.4894 83.135 58.5928 85.212C59.1463 85.4952 59.6043 84.5889 59.089 84.2679Z" fill="white"/>
<path d="M44.7939 75.2048C37.8467 70.5978 30.0789 65.8963 21.872 63.9326C21.0514 63.7438 20.5933 64.8389 21.414 65.1788C29.3154 68.5208 37.0451 71.202 44.374 75.809C44.7748 76.0545 45.1947 75.4692 44.7939 75.2048Z" fill="white"/>
<path d="M54.2031 84.5134C52.2754 82.8707 50.2142 81.3602 47.9239 80.2651C47.6376 80.1329 47.3895 80.6049 47.6567 80.756C49.8134 82.0588 51.9319 83.3616 53.8977 84.9477C54.1649 85.1742 54.4703 84.7211 54.2222 84.4945L54.2031 84.5134Z" fill="white"/>
<path d="M45.92 79.2266C37.9994 73.5433 29.2964 68.5208 19.8681 65.7263C18.952 65.462 18.4367 66.8026 19.3528 67.1236C28.7238 70.3334 37.446 73.9964 45.6146 79.6797C45.9009 79.8874 46.2063 79.4343 45.92 79.2455V79.2266Z" fill="white"/>
<path d="M92.1645 97.0696C91.5728 101.752 91.3247 106.454 91.9354 111.155C91.9927 111.552 92.6225 111.514 92.6416 111.136C92.8516 106.473 92.9852 101.828 93.5386 97.2017C93.6341 96.3332 92.279 96.2199 92.1836 97.0696H92.1645Z" fill="white"/>
<path d="M89.168 96.05C88.4809 100.808 88.2901 105.755 88.3091 110.551C88.3091 111.004 88.9771 111.098 89.0344 110.626C89.6833 105.868 90.1604 100.959 90.1032 96.1444C90.1032 95.559 89.2634 95.4457 89.168 96.05Z" fill="white"/>
<path d="M85.5417 94.4828C85.141 99.1088 84.8737 103.848 84.7783 108.493C84.7783 109.003 85.4845 109.078 85.5799 108.568C86.4388 103.999 86.7441 99.1088 86.496 94.445C86.4769 93.8975 85.599 93.973 85.5417 94.4828Z" fill="white"/>
<path d="M82.7361 91.745C81.5146 96.1255 81.3047 100.978 82.0109 105.453C82.0681 105.868 82.7552 105.849 82.7743 105.415C82.8125 100.865 83.1369 96.4465 83.5759 91.9338C83.6141 91.4618 82.8697 91.2729 82.7361 91.745Z" fill="white"/>
<path d="M79.129 90.7254C78.0412 93.8408 77.5831 97.5794 78.3084 100.827C78.4038 101.261 79.1099 101.28 79.129 100.789C79.2626 97.4094 79.3581 94.2562 79.9497 90.9142C80.0261 90.4611 79.3008 90.2911 79.1481 90.7254H79.129Z" fill="white"/>
<path d="M74.6439 88.2897C74.2431 91.0086 73.9187 93.9164 74.0523 96.6542C74.0713 97.0884 74.7012 96.994 74.7775 96.6164C75.3119 93.9541 75.4264 91.0653 75.4455 88.3463C75.4455 87.8365 74.7203 87.761 74.663 88.2708L74.6439 88.2897Z" fill="white"/>
<path d="M71.9719 85.5896C71.1894 88.5163 70.6359 91.5562 70.9794 94.5961C71.0176 94.9926 71.6284 94.936 71.6665 94.5772C71.991 91.6695 72.1818 88.7806 72.8498 85.9106C72.9834 85.3442 72.1437 85.0232 71.9719 85.5896Z" fill="white"/>
<path d="M68.5745 85.1554C68.3073 87.7421 67.9065 90.461 68.0783 93.0478C68.0974 93.501 68.7463 93.3877 68.8227 93.01C69.338 90.4988 69.3189 87.7799 69.4334 85.212C69.4525 84.6833 68.6509 84.6078 68.5936 85.1365L68.5745 85.1554Z" fill="white"/>
<path d="M66.1125 81.549C65.7308 84.8155 65.2727 88.1197 65.2537 91.4051C65.2537 91.8205 65.8262 91.8772 65.9217 91.4618C66.5133 88.233 66.6851 84.891 66.9141 81.6245C66.9523 81.1147 66.1889 81.0392 66.1316 81.549H66.1125Z" fill="white"/>
<path d="M63.3644 80.4916C62.849 83.8903 62.5818 87.5722 63.1735 90.9708C63.2498 91.3673 63.8797 91.3485 63.8988 90.9331C64.0514 87.4778 63.9369 84.0225 64.2041 80.5672C64.2423 80.0196 63.4407 79.963 63.3644 80.4916Z" fill="white"/>
<path d="M60.9977 78.9811C60.9595 82.2665 60.7305 85.6274 61.0359 88.9128C61.074 89.3282 61.7229 89.2715 61.7611 88.875C62.0665 85.6274 61.8375 82.3043 61.7993 79.0566C61.7993 78.5468 60.9977 78.4524 60.9977 78.9811Z" fill="white"/>
<path d="M71.2084 88.0442C70.0824 88.5918 68.8991 89.3093 67.9829 90.1401C67.6967 90.4044 67.983 90.8764 68.3456 90.7065C69.4907 90.1967 70.5977 89.3848 71.552 88.5729C71.8192 88.3463 71.552 87.8932 71.2084 88.0442Z" fill="white"/>
<path d="M71.1513 84.8344C68.4602 86.4393 65.8264 88.3652 63.8606 90.8009C63.6506 91.0653 64.0514 91.4051 64.2995 91.1974C66.5898 89.1016 68.8037 87.0813 71.4757 85.4575C71.8574 85.2309 71.5712 84.6078 71.1704 84.8344H71.1513Z" fill="white"/>
<path d="M69.3954 83.2295C66.1126 85.6463 62.7536 88.0442 59.5663 90.5932C59.2418 90.8387 59.5854 91.3862 59.9671 91.1974C63.5552 89.2715 66.9715 86.6092 69.8916 83.8148C70.2351 83.4749 69.7962 82.9462 69.3954 83.2483V83.2295Z" fill="white"/>
<path d="M66.8377 80.7182C63.3069 83.5693 59.6806 86.4015 56.3979 89.5547C56.0925 89.8568 56.4743 90.31 56.8369 90.0645C60.5013 87.3834 63.8986 84.2868 67.334 81.3035C67.6966 80.9826 67.2195 80.4161 66.8377 80.7371V80.7182Z" fill="white"/>
<path d="M63.0207 79.5098C60.1579 81.9833 57.0469 84.3623 54.4513 87.119C54.1459 87.44 54.5276 87.912 54.9094 87.6477C57.9821 85.4197 60.7114 82.6441 63.5361 80.114C63.9178 79.7741 63.4025 79.1888 63.0207 79.5287V79.5098Z" fill="white"/>
<path d="M61.1886 77.2063C57.6768 80.0951 54.0124 82.8707 50.7487 86.0428C50.4434 86.3449 50.8251 86.8169 51.1877 86.5526C54.8712 83.8903 58.2303 80.7371 61.6657 77.7727C62.0283 77.4706 61.5512 76.9042 61.1886 77.2063Z" fill="white"/>
<path d="M57.4478 75.0538C54.5277 77.7538 51.2068 79.963 48.3057 82.6441C48.0385 82.8896 48.3057 83.3616 48.6493 83.1917C52.1038 81.398 55.1957 78.3392 57.9058 75.6013C58.2303 75.2804 57.7913 74.7328 57.4478 75.0538Z" fill="white"/>
<path d="M54.8903 73.0335C51.8556 76.0356 48.3821 78.3391 45.1184 81.0392C44.813 81.2847 45.1184 81.7945 45.5001 81.6245C49.2409 79.7741 52.5427 76.5643 55.3483 73.5621C55.6537 73.2412 55.2147 72.7125 54.8903 73.0335Z" fill="white"/>
<path d="M51.2831 72.0894C48.1339 74.4496 44.7749 76.6965 41.8929 79.3776C41.5303 79.6986 41.9884 80.1895 42.3701 79.9252C45.6719 77.7916 48.7065 75.1104 51.7793 72.6747C52.161 72.3726 51.6839 71.8062 51.2831 72.0894Z" fill="white"/>
<path d="M47.4468 69.8047C44.4886 72.3915 41.1486 74.7139 38.4193 77.5084C38.1903 77.7538 38.4193 78.2636 38.7629 78.0559C42.0838 75.979 45.0421 73.0146 47.924 70.3901C48.2675 70.0691 47.8095 69.5215 47.4468 69.8236V69.8047Z" fill="white"/>
<path d="M43.6297 67.8222C42.6373 69.4837 41.473 70.9754 40.0416 72.2971C38.7056 73.5244 37.1788 74.3929 35.7092 75.4692C35.3466 75.7335 35.7474 76.2244 36.11 76.0734C39.6026 74.7894 42.4846 71.3908 44.2595 68.2753C44.4886 67.8599 43.8778 67.4068 43.6297 67.8411V67.8222Z" fill="white"/>
<path d="M39.6217 67.2369C37.0452 69.4838 34.2205 71.7307 31.9875 74.3174C31.7203 74.6195 32.1974 74.9783 32.4837 74.7706C35.213 72.7691 37.675 70.1446 40.0989 67.7844C40.4233 67.4634 39.9844 66.9159 39.6217 67.2369Z" fill="white"/>
<path d="M36.9497 64.7823C35.9382 66.5005 34.7358 68.0865 33.3234 69.4837C31.9874 70.8054 30.4415 71.7684 28.9719 72.9202C28.6475 73.1845 28.991 73.6754 29.3727 73.5244C32.9417 72.0139 35.8046 68.5208 37.5795 65.2165C37.8086 64.8011 37.1978 64.348 36.9497 64.7823Z" fill="white"/>
<path d="M33.2472 65.1033C32.1975 66.2361 31.0905 67.3124 29.8881 68.2942C28.7239 69.2761 27.3115 70.0691 26.2237 71.1453C25.9374 71.4285 26.2237 71.9195 26.6245 71.7495C28.0559 71.1831 29.3346 69.9936 30.4798 68.9928C31.6821 67.9544 32.7891 66.8215 33.8388 65.6319C34.1442 65.2921 33.5525 64.7445 33.2281 65.0844L33.2472 65.1033Z" fill="white"/>
<path d="M29.0865 64.7445C28.2276 65.7452 27.3115 66.7271 26.3954 67.6711C25.9755 68.1054 25.5366 68.5397 25.1167 68.974C24.9067 69.1816 24.6777 69.3893 24.4678 69.597C24.2578 69.918 23.9525 69.9747 23.5898 69.767C23.6471 69.3893 23.1127 69.3138 22.9791 69.6348C22.7882 70.0502 22.8455 70.5222 23.2654 70.8055C23.8379 71.202 24.5059 70.8432 24.964 70.4845C26.7962 69.0306 28.3612 67.048 29.8308 65.2543C30.1935 64.82 29.4682 64.348 29.1056 64.7634L29.0865 64.7445Z" fill="white"/>
<path d="M26.1282 64.2536C25.3838 64.8956 24.6395 65.5375 23.8951 66.1795C23.2462 66.7459 22.4256 67.3124 22.0057 68.0676C21.8339 68.3697 22.1011 68.7474 22.4446 68.5963C23.2462 68.2565 23.8761 67.5012 24.525 66.9159C25.2502 66.255 25.9564 65.5753 26.6816 64.8956C27.0824 64.5368 26.548 63.8948 26.1282 64.2536Z" fill="white"/>
<path d="M23.9905 63.1585C22.7691 64.1781 21.4903 65.1788 20.4024 66.3494C20.1162 66.6515 20.4788 67.0858 20.8223 66.8403C22.1392 65.934 23.3035 64.82 24.5059 63.7627C24.8876 63.4228 24.3913 62.8375 23.9905 63.1585Z" fill="white"/>
<path d="M202.689 128.375C199.712 128.224 196.696 129.13 193.891 130.018C190.284 131.169 186.505 132.265 183.031 133.813C182.688 133.964 182.859 134.549 183.241 134.436C186.696 133.379 190.036 132.095 193.585 131.396C196.658 130.811 199.96 130.414 202.823 129.168C203.205 128.998 203.09 128.394 202.689 128.375Z" fill="white"/>
<path d="M172.649 138.307C168.908 139.968 165.148 141.63 161.388 143.291C156.903 145.274 151.12 149.069 146.902 144.632C146.368 144.065 145.471 144.632 145.776 145.349C147.246 148.975 151.387 149.069 154.689 147.974C160.968 145.897 167.056 141.894 172.954 138.93C173.374 138.722 173.068 138.099 172.649 138.288V138.307Z" fill="white"/>
<path d="M197.326 134.058C191.486 134.965 185.207 136.381 179.92 139.081C179.596 139.251 179.729 139.855 180.13 139.742C185.913 137.967 191.505 135.984 197.46 134.776C197.937 134.681 197.803 133.983 197.326 134.058Z" fill="white"/>
<path d="M155.319 149.315C153.162 149.503 148.963 152.751 147.646 149.673C147.475 149.258 146.883 149.409 146.826 149.824C146.635 151.335 148.066 152.203 149.441 152.298C151.712 152.43 153.296 150.372 155.452 150.07C155.949 149.994 155.796 149.296 155.319 149.333V149.315Z" fill="white"/>
<path d="M152.036 140.516C150.357 136.758 148.982 132.907 147.551 129.055C147.436 128.753 146.921 128.923 146.997 129.225C148.143 133.19 149.765 137.042 151.483 140.78C151.654 141.139 152.208 140.875 152.036 140.516Z" fill="white"/>
<path d="M152.704 135.267C152.131 133.53 151.54 131.698 150.643 130.074C150.471 129.753 149.918 129.886 150.013 130.282C150.433 132.095 151.234 133.907 151.998 135.588C152.208 136.06 152.857 135.72 152.704 135.248V135.267Z" fill="white"/>
<path d="M150.299 147.219C148.486 140.629 146.826 133.907 144.574 127.45C144.459 127.129 143.925 127.299 144.001 127.639C145.471 134.266 147.608 140.837 149.536 147.351C149.67 147.823 150.433 147.691 150.299 147.219Z" fill="white"/>
<path d="M147.456 149.843C145.623 141.724 143.906 133.549 141.634 125.543C141.52 125.165 140.928 125.241 141.005 125.656C142.608 133.813 144.764 141.894 146.807 149.957C146.902 150.353 147.532 150.259 147.436 149.843H147.456Z" fill="white"/>
<path d="M145.146 151.977C142.799 142.951 140.566 133.832 137.76 124.957C137.626 124.561 136.978 124.636 137.092 125.071C139.211 134.153 141.94 143.14 144.535 152.09C144.65 152.468 145.261 152.373 145.165 151.977H145.146Z" fill="white"/>
<path d="M140.852 148.333C137.588 139.647 135.298 130.848 133.237 121.823C133.141 121.408 132.492 121.502 132.569 121.936C134.134 131.037 136.958 139.968 140.279 148.597C140.432 148.975 140.985 148.71 140.852 148.333Z" fill="white"/>
<path d="M135.47 141.479C135.107 140.629 134.764 139.761 134.382 138.911C134.229 138.59 133.752 138.816 133.886 139.156C134.21 140.025 134.573 140.893 134.916 141.743C135.069 142.102 135.622 141.837 135.47 141.479Z" fill="white"/>
<path d="M132.721 134.87C131.538 129.527 130.527 124.108 129.038 118.84C128.923 118.443 128.332 118.538 128.408 118.953C129.362 124.334 130.813 129.659 132.092 134.984C132.187 135.399 132.836 135.286 132.741 134.87H132.721Z" fill="white"/>
<path d="M131.042 140.61C128.274 132 126.137 123.296 123.808 114.573C123.694 114.176 123.083 114.271 123.159 114.686C124.705 123.541 127.416 132.321 130.412 140.799C130.526 141.139 131.156 140.95 131.042 140.61Z" fill="white"/>
<path d="M125.316 135.399C123.77 127.374 122.186 119.142 119.495 111.401C119.38 111.042 118.789 111.25 118.865 111.589C120.621 119.595 122.969 127.469 124.705 135.493C124.782 135.89 125.392 135.777 125.316 135.38V135.399Z" fill="white"/>
<path d="M121.404 131.868C119.342 123.862 117.319 115.762 114.838 107.87C114.724 107.492 114.094 107.568 114.189 107.983C116.002 116.045 118.369 124.07 120.697 132C120.831 132.416 121.499 132.321 121.385 131.887L121.404 131.868Z" fill="white"/>
<path d="M116.747 128.092C116.174 126.204 115.754 124.164 114.896 122.371C114.724 122.012 114.17 122.201 114.228 122.578C114.533 124.504 115.296 126.392 115.888 128.224C116.06 128.734 116.9 128.602 116.728 128.073L116.747 128.092Z" fill="white"/>
<path d="M113.388 115.649C112.567 113.232 111.823 110.74 110.849 108.38C110.735 108.096 110.22 108.247 110.315 108.549C111.04 111.023 112.033 113.44 112.93 115.875C113.044 116.178 113.502 115.97 113.388 115.649Z" fill="white"/>
<path d="M112.892 126.581C110.888 119.822 109.017 112.949 106.651 106.303C106.536 106 106.002 106.152 106.097 106.473C107.853 113.27 110.124 119.992 112.243 126.695C112.376 127.091 113.006 126.997 112.892 126.581Z" fill="white"/>
<path d="M109.208 124.523C107.166 117.084 105.295 109.531 102.91 102.186C102.795 101.865 102.242 102.035 102.318 102.375C104.093 109.852 106.402 117.254 108.521 124.636C108.635 125.052 109.322 124.939 109.208 124.523Z" fill="white"/>
<path d="M105.582 121.313C102.891 114.365 100.963 107.303 99.1117 100.109C99.0162 99.7507 98.4628 99.8262 98.52 100.204C99.6461 107.568 102.032 114.761 104.895 121.615C105.085 122.069 105.753 121.748 105.582 121.294V121.313Z" fill="white"/>
<path d="M102.051 118.16C100.085 112.76 98.7489 107.247 97.1648 101.752C97.0503 101.375 96.4778 101.45 96.535 101.865C97.432 107.53 99.3788 113.119 101.421 118.462C101.574 118.878 102.203 118.576 102.051 118.16Z" fill="white"/>
<path d="M94.2829 103.621C93.0041 100.676 91.4582 97.7304 89.7596 94.9926C89.5687 94.6905 89.0916 94.8982 89.2443 95.2381C90.5039 98.1836 92.0117 101.167 93.6912 103.905C93.9012 104.263 94.4546 104.018 94.2829 103.621Z" fill="white"/>
<path d="M93.5768 109.418C90.9048 103.772 88.4046 97.9759 85.5418 92.4247C85.3509 92.066 84.8165 92.3114 84.9692 92.6891C87.145 98.5234 90.0269 104.207 92.9088 109.72C93.1188 110.136 93.7868 109.833 93.5768 109.399V109.418Z" fill="white"/>
<path d="M92.0881 114.025C88.061 106.888 84.8737 99.5053 82.0491 91.8205C81.9345 91.5184 81.4192 91.6884 81.5146 91.9905C83.9576 99.7885 87.4312 107.209 91.4964 114.289C91.7064 114.648 92.298 114.384 92.0881 114.006V114.025Z" fill="white"/>
<path d="M85.6373 108.927C82.1828 101.507 78.8619 93.973 75.102 86.7036C74.9112 86.3449 74.3577 86.6092 74.5294 86.968C77.774 94.4828 81.4957 101.809 85.0456 109.191C85.2174 109.569 85.809 109.286 85.6373 108.908V108.927Z" fill="white"/>
<path d="M79.9306 104.773C76.5525 98.4857 73.6324 92.0471 70.6359 85.5708C70.4642 85.1931 69.9107 85.4575 70.0443 85.854C72.6208 92.4625 75.9036 98.8444 79.3199 105.075C79.5298 105.434 80.1215 105.17 79.9115 104.792L79.9306 104.773Z" fill="white"/>
<path d="M72.5634 98.0703C70.235 92.859 67.9829 87.5722 65.3109 82.512C65.1391 82.1721 64.6429 82.4175 64.7765 82.7574C66.895 88.0631 69.4715 93.1989 71.9336 98.3535C72.1244 98.7689 72.7543 98.4668 72.5634 98.0514V98.0703Z" fill="white"/>
<path d="M66.9141 95.9556C65.7499 93.18 64.662 90.3478 63.3642 87.6288C63.1924 87.2701 62.6771 87.5344 62.8107 87.8932C63.8604 90.7254 65.1391 93.4632 66.3034 96.2388C66.4751 96.6353 67.0668 96.3521 66.9141 95.9556Z" fill="white"/>
<path d="M58.0202 84.0602C55.1955 78.4713 52.3136 72.9013 49.2599 67.4257C49.0881 67.1047 48.5919 67.3313 48.7446 67.6711C51.512 73.2978 54.4512 78.8112 57.4477 84.3246C57.6385 84.6644 58.192 84.419 58.0202 84.0602Z" fill="white"/>
<path d="M56.9133 89.2526C53.4588 82.2476 50.0998 75.186 46.3399 68.3509C46.1681 68.0488 45.691 68.2565 45.8437 68.5774C49.0882 75.658 52.7336 82.5875 56.3026 89.5359C56.4934 89.9135 57.1042 89.6303 56.9133 89.2526Z" fill="white"/>
<path d="M51.6265 84.6267C48.9355 79.1322 46.1299 73.6188 42.7708 68.483C42.5799 68.1998 42.1028 68.5019 42.2555 68.804C45.1947 74.1664 48.2865 79.4343 51.0349 84.891C51.2257 85.2687 51.8174 84.9854 51.6265 84.6078V84.6267Z" fill="white"/>
<path d="M45.92 80.4728C42.9045 75.5069 40.0607 70.4278 37.2361 65.3487C37.0643 65.0466 36.5681 65.2543 36.7398 65.5942C39.2782 70.8243 42.1792 75.8657 45.3093 80.7749C45.5383 81.1336 46.1681 80.8693 45.9391 80.4728H45.92Z" fill="white"/>
<path d="M40.1561 77.2818C38.4765 74.9971 36.8161 72.6936 35.0411 70.4845C34.793 70.1824 34.354 70.56 34.5831 70.881C36.2053 73.2223 37.9231 75.4881 39.6217 77.7538C39.8889 78.1126 40.4424 77.6594 40.1752 77.3007L40.1561 77.2818Z" fill="white"/>
<path d="M183.394 108.568C176.141 113.496 167.82 117.367 160.873 122.654C160.472 122.956 160.911 123.504 161.331 123.353C169.328 120.35 177.038 114.12 183.775 109.022C184.081 108.795 183.699 108.361 183.394 108.568Z" fill="white"/>
<path d="M183.413 106.076C172.248 111.703 161.083 118.519 150.948 125.807C150.586 126.071 150.986 126.713 151.387 126.468C162.266 120.086 173.164 113.421 183.776 106.605C184.1 106.397 183.756 105.887 183.413 106.057V106.076Z" fill="white"/>
<path d="M154.174 121.125C153.124 121.597 152.17 122.257 151.196 122.88C150.299 123.447 149.383 123.957 148.62 124.674C148.353 124.92 148.62 125.354 148.963 125.203C150.032 124.769 150.986 124.089 151.96 123.466C152.838 122.899 153.773 122.371 154.555 121.691C154.861 121.427 154.555 120.955 154.174 121.106V121.125Z" fill="white"/>
<path d="M151.673 119.727C149.918 120.785 148.066 121.597 146.272 122.578C145.967 122.748 146.081 123.277 146.463 123.183C148.505 122.748 150.452 121.597 152.074 120.331C152.399 120.067 152.036 119.482 151.673 119.708V119.727Z" fill="white"/>
<path d="M148.104 118.292C146.635 119.35 145.032 120.218 143.524 121.2C143.218 121.389 143.543 121.823 143.848 121.71C145.566 121.03 147.112 119.935 148.562 118.821C148.925 118.538 148.467 118.028 148.104 118.292Z" fill="white"/>
<path d="M145.413 117.008C143.447 117.65 141.234 118.387 139.592 119.671C139.306 119.897 139.611 120.294 139.936 120.18C141.902 119.463 143.734 118.368 145.719 117.613C146.139 117.462 145.833 116.876 145.432 117.008H145.413Z" fill="white"/>
<path d="M141.863 115.026C140.451 115.554 138.905 115.989 137.626 116.782C137.34 116.971 137.436 117.48 137.817 117.405C139.325 117.084 140.776 116.31 142.169 115.706C142.608 115.517 142.302 114.875 141.844 115.026H141.863Z" fill="white"/>
<path d="M139.268 113.005C137.779 113.081 136.1 113.723 135.26 115.007C135.069 115.309 135.451 115.668 135.737 115.422C136.863 114.497 137.875 113.78 139.382 113.629C139.802 113.591 139.669 112.968 139.268 113.005Z" fill="white"/>
<path d="M136.825 110.872C135.394 111.533 133.809 112.08 132.473 112.949C132.206 113.119 132.435 113.61 132.741 113.515C134.267 113.062 135.699 112.212 137.13 111.514C137.55 111.306 137.245 110.664 136.806 110.853L136.825 110.872Z" fill="white"/>
<path d="M134.439 108.889C132.512 109.815 130.469 110.683 128.656 111.816C128.332 112.024 128.542 112.515 128.923 112.364C130.927 111.589 132.836 110.494 134.745 109.512C135.126 109.305 134.84 108.701 134.458 108.908L134.439 108.889Z" fill="white"/>
<path d="M131.615 107.02C129.897 108.153 128.122 109.229 126.538 110.551C126.252 110.777 126.557 111.287 126.9 111.098C128.714 110.06 130.393 108.795 132.092 107.587C132.473 107.303 131.996 106.794 131.615 107.039V107.02Z" fill="white"/>
<path d="M128.198 106.246C126.671 107.171 125.049 108.096 123.713 109.286C123.427 109.531 123.713 110.003 124.076 109.833C125.698 109.059 127.187 107.945 128.618 106.907C128.981 106.642 128.58 106.019 128.179 106.246H128.198Z" fill="white"/>
<path d="M125.469 104.32C123.885 105.094 122.205 105.812 120.736 106.794C120.392 107.02 120.774 107.454 121.098 107.341C122.74 106.756 124.285 105.849 125.812 105.056C126.289 104.811 125.946 104.093 125.45 104.32H125.469Z" fill="white"/>
<path d="M121.48 103.074C120.01 103.999 118.407 104.471 116.861 105.207C116.518 105.377 116.709 105.849 117.052 105.812C118.789 105.642 120.469 104.641 121.881 103.697C122.224 103.47 121.843 102.847 121.48 103.074Z" fill="white"/>
<path d="M118.751 101.148C117.147 101.884 115.506 102.677 114.113 103.754C113.846 103.961 114.132 104.396 114.437 104.245C116.002 103.451 117.472 102.526 119.056 101.752C119.438 101.563 119.171 100.959 118.77 101.148H118.751Z" fill="white"/>
<path d="M116.041 99.6374C114.342 100.563 112.491 101.356 110.926 102.489C110.639 102.696 110.945 103.112 111.25 102.979C113.006 102.281 114.685 101.148 116.327 100.242C116.709 100.034 116.422 99.4109 116.041 99.6374Z" fill="white"/>
<path d="M111.307 98.8444C109.895 99.6752 108.349 100.43 107.051 101.412C106.784 101.62 107.051 102.035 107.376 101.903C108.845 101.242 110.219 100.261 111.613 99.4486C111.975 99.2409 111.689 98.6367 111.326 98.8633L111.307 98.8444Z" fill="white"/>
<path d="M107.815 98.8822C106.918 99.1843 106.001 99.4486 105.143 99.8262C104.856 99.9584 104.99 100.449 105.314 100.374C106.269 100.128 107.166 99.7696 108.101 99.4486C108.483 99.3164 108.215 98.75 107.834 98.8822H107.815Z" fill="white"/>
<path d="M105.773 96.5975C104.532 97.5794 103.158 98.0892 101.612 98.3913C101.23 98.4668 101.345 98.9766 101.707 98.9577C103.368 98.8633 104.914 98.1269 106.192 97.0884C106.517 96.8241 106.097 96.3143 105.753 96.5786L105.773 96.5975Z" fill="white"/>
<path d="M154.231 125.902C154.116 125.241 153.983 124.618 153.792 123.976C153.696 123.655 153.2 123.711 153.258 124.07C153.334 124.731 153.487 125.373 153.639 126.015C153.735 126.392 154.326 126.298 154.25 125.902H154.231Z" fill="white"/>
<path d="M153.353 122.805C153.086 121.88 152.876 120.917 152.532 120.011C152.418 119.708 151.921 119.859 151.979 120.18C152.15 121.106 152.475 122.012 152.742 122.899C152.857 123.277 153.486 123.183 153.372 122.786L153.353 122.805Z" fill="white"/>
<path d="M156.159 123.976C155.815 122.654 155.548 121.257 154.994 119.992C154.842 119.652 154.326 119.841 154.384 120.18C154.555 121.502 155.052 122.805 155.433 124.089C155.567 124.523 156.273 124.429 156.159 123.957V123.976Z" fill="white"/>
<path d="M158.964 122.673C158.411 121.313 158.162 119.916 157.723 118.538C157.628 118.217 157.036 118.141 157.036 118.557C157.036 120.086 157.647 121.615 158.277 122.994C158.487 123.428 159.136 123.107 158.964 122.673Z" fill="white"/>
<path d="M160.51 120.558C160.472 119.199 160.262 117.726 159.556 116.536C159.384 116.253 158.811 116.348 158.926 116.725C159.308 118.028 159.728 119.218 159.804 120.577C159.823 120.973 160.529 120.955 160.51 120.539V120.558Z" fill="white"/>
<path d="M151.693 125.864C150.414 122.899 149.231 119.822 147.742 116.952C147.551 116.593 147.036 116.838 147.169 117.216C148.314 120.237 149.803 123.183 151.158 126.109C151.311 126.449 151.845 126.204 151.693 125.864Z" fill="white"/>
<path d="M148.696 124.636C147.074 121.615 145.795 118.443 144.306 115.366C144.173 115.064 143.638 115.215 143.734 115.554C144.707 118.878 146.329 121.955 148.085 124.939C148.295 125.297 148.906 125.033 148.696 124.655V124.636Z" fill="white"/>
<path d="M144.707 121.559C143.944 119.501 143.295 117.329 142.226 115.403C142.054 115.082 141.482 115.215 141.596 115.611C142.169 117.764 143.199 119.822 144.077 121.861C144.249 122.276 144.86 121.974 144.707 121.559Z" fill="white"/>
<path d="M140.451 119.218C139.669 116.914 139.02 114.459 137.913 112.288C137.741 111.967 137.188 112.118 137.283 112.496C137.856 114.894 138.962 117.216 139.84 119.501C139.993 119.897 140.566 119.614 140.432 119.218H140.451Z" fill="white"/>
<path d="M136.481 116.121C135.222 113.987 134.477 111.703 133.37 109.512C133.199 109.191 132.664 109.343 132.741 109.72C133.256 112.08 134.63 114.365 135.89 116.404C136.1 116.744 136.691 116.48 136.481 116.121Z" fill="white"/>
<path d="M131.71 112.269C130.851 110.098 130.164 107.7 129 105.661C128.828 105.359 128.294 105.491 128.389 105.849C129 108.153 130.202 110.362 131.118 112.552C131.29 112.93 131.863 112.666 131.71 112.269Z" fill="white"/>
<path d="M127.416 108.38C126.805 106.963 126.29 105.434 125.526 104.075C125.354 103.791 124.801 103.905 124.915 104.263C125.393 105.774 126.156 107.209 126.805 108.663C126.977 109.059 127.587 108.776 127.416 108.38Z" fill="white"/>
<path d="M123.98 109.116C123.083 107.266 122.263 105.359 121.117 103.64C120.888 103.282 120.411 103.678 120.526 104.018C121.232 105.906 122.282 107.681 123.236 109.475C123.484 109.928 124.19 109.607 123.961 109.135L123.98 109.116Z" fill="white"/>
<path d="M119.552 106.85C118.693 104.905 117.949 102.828 116.785 101.035C116.594 100.751 116.021 100.846 116.155 101.242C116.804 103.3 117.93 105.226 118.903 107.152C119.113 107.568 119.724 107.266 119.552 106.85Z" fill="white"/>
<path d="M116.518 104.735C115.831 103.754 115.201 102.734 114.686 101.639C114.208 100.657 113.903 99.5997 113.369 98.6556C113.159 98.2969 112.624 98.4668 112.682 98.8822C112.911 101.186 114.495 103.489 115.85 105.302C116.193 105.755 116.823 105.189 116.518 104.754V104.735Z" fill="white"/>
<path d="M112.643 104.452C111.67 102.035 110.868 99.1843 109.38 97.0318C109.17 96.7297 108.654 96.994 108.731 97.3339C109.284 99.8829 110.811 102.432 111.899 104.811C112.128 105.283 112.834 104.943 112.643 104.452Z" fill="white"/>
<path d="M199.197 118.632C197.822 117.764 196.486 116.857 195.112 116.008C193.91 115.271 192.669 114.271 191.295 113.893C190.971 113.799 190.608 114.176 190.875 114.478C191.849 115.517 193.299 116.121 194.521 116.838C195.933 117.669 197.364 118.406 198.796 119.199C199.178 119.425 199.597 118.878 199.197 118.632Z" fill="white"/>
<path d="M197.154 119.199C195.761 118.387 194.33 117.65 192.956 116.782C191.715 115.989 190.608 114.988 189.291 114.327C188.928 114.138 188.623 114.667 188.852 114.95C189.845 116.121 191.295 116.971 192.593 117.764C193.929 118.594 195.303 119.369 196.754 119.954C197.212 120.124 197.574 119.444 197.154 119.199Z" fill="white"/>
<path d="M194.101 120.18C192.173 118.991 190.207 117.575 188.089 116.744C187.726 116.593 187.516 117.084 187.783 117.31C189.52 118.727 191.715 119.708 193.681 120.785C194.082 121.011 194.521 120.445 194.101 120.18Z" fill="white"/>
<path d="M190.99 120.936C190.055 120.445 189.139 119.916 188.242 119.35C187.421 118.84 186.657 118.217 185.76 117.858C185.398 117.707 185.092 118.179 185.341 118.462C186.638 119.935 188.833 120.86 190.589 121.71C191.028 121.918 191.429 121.181 190.99 120.936Z" fill="white"/>
<path d="M188.566 121.427C187.058 120.445 185.169 119.18 183.336 118.934C182.993 118.897 182.821 119.369 183.107 119.557C183.814 120.029 184.653 120.294 185.417 120.652C186.333 121.068 187.23 121.559 188.108 122.087C188.547 122.352 189.024 121.71 188.585 121.427H188.566Z" fill="white"/>
<path d="M185.875 122.881C184.234 121.842 182.516 120.426 180.665 119.784C180.34 119.671 179.977 120.105 180.245 120.369C181.676 121.71 183.699 122.578 185.398 123.56C185.856 123.825 186.314 123.183 185.875 122.899V122.881Z" fill="white"/>
<path d="M183.432 123.598C181.962 122.899 180.283 121.823 178.661 121.597C178.279 121.54 178.164 122.031 178.412 122.257C179.672 123.296 181.638 123.787 183.127 124.391C183.642 124.599 183.909 123.825 183.432 123.598Z" fill="white"/>
<path d="M180.741 124.863C179.367 123.862 177.611 122.805 175.874 122.786C175.435 122.786 175.34 123.315 175.702 123.504C177.21 124.259 178.775 124.693 180.187 125.656C180.703 126.015 181.237 125.241 180.741 124.882V124.863Z" fill="white"/>
<path d="M177.954 125.902C176.599 125.373 174.996 124.448 173.546 124.334C173.145 124.297 172.954 124.806 173.278 125.052C174.462 125.92 176.275 126.26 177.649 126.751C178.203 126.94 178.508 126.128 177.954 125.92V125.902Z" fill="white"/>
<path d="M175.282 127.96C174.481 127.469 173.679 126.997 172.859 126.506C172.191 126.109 171.561 125.656 170.797 125.505C170.454 125.429 170.244 125.92 170.454 126.147C170.969 126.732 171.752 127.053 172.439 127.412C173.221 127.827 174.004 128.243 174.767 128.658C175.263 128.923 175.779 128.224 175.282 127.922V127.96Z" fill="white"/>
<path d="M172.057 128.224C171.045 127.79 169.938 127.129 168.831 127.016C168.411 126.978 168.259 127.506 168.564 127.733C169.442 128.413 170.721 128.696 171.732 129.074C172.286 129.281 172.591 128.451 172.057 128.205V128.224Z" fill="white"/>
<path d="M170.072 129.47C169.003 128.96 167.629 127.997 166.427 127.941C166.102 127.941 165.854 128.318 166.083 128.583C166.923 129.508 168.583 129.904 169.709 130.414C170.301 130.679 170.626 129.753 170.053 129.47H170.072Z" fill="white"/>
<path d="M167.457 130.244C166.808 129.659 165.93 129.206 165.052 129.489C164.709 129.602 164.823 130.074 165.09 130.188C165.72 130.49 166.331 130.546 166.904 131.018C167.381 131.415 167.915 130.641 167.457 130.225V130.244Z" fill="white"/>
<path d="M165.396 131.302C164.556 131 163.697 130.509 162.8 130.603C162.514 130.622 162.342 131.056 162.571 131.264C163.239 131.868 164.213 132 165.052 132.265C165.682 132.453 166.026 131.547 165.396 131.321V131.302Z" fill="white"/>
<path d="M163.85 132.661C162.991 132.057 161.922 131.547 160.835 131.736C160.453 131.793 160.377 132.378 160.758 132.491C161.655 132.774 162.495 132.907 163.278 133.435C163.793 133.775 164.327 133.02 163.831 132.661H163.85Z" fill="white"/>
<path d="M197.88 117.103C197.918 117.65 197.651 118.085 197.212 118.406C196.964 118.576 197.231 118.991 197.498 118.84C198.223 118.443 198.529 117.82 198.452 117.008C198.414 116.631 197.842 116.744 197.88 117.103Z" fill="white"/>
<path d="M196.219 116.517C195.857 117.726 195.456 118.915 195.189 120.124C195.112 120.445 195.647 120.539 195.742 120.256C196.181 119.104 196.486 117.915 196.849 116.744C196.964 116.348 196.353 116.121 196.219 116.517Z" fill="white"/>
<path d="M194.578 115.064C194.273 117.008 193.509 118.651 192.86 120.483C192.746 120.841 193.223 121.087 193.433 120.785C194.597 119.199 195.074 117.046 195.284 115.12C195.341 114.648 194.616 114.592 194.559 115.045L194.578 115.064Z" fill="white"/>
<path d="M192.078 113.836C191.505 116.045 190.837 118.273 190.551 120.539C190.513 120.898 191.047 121.011 191.162 120.671C191.906 118.519 192.307 116.215 192.784 113.987C192.86 113.591 192.173 113.421 192.078 113.817V113.836Z" fill="white"/>
<path d="M188.642 115.724C187.936 117.745 187.497 119.954 187.287 122.069C187.249 122.427 187.783 122.541 187.898 122.201C188.604 120.199 189.158 117.99 189.367 115.875C189.406 115.46 188.776 115.309 188.642 115.706V115.724Z" fill="white"/>
<path d="M185.646 116.914C184.997 118.745 184.272 120.596 183.852 122.484C183.776 122.862 184.329 122.937 184.463 122.616C185.264 120.86 185.78 118.991 186.352 117.159C186.505 116.706 185.799 116.442 185.646 116.895V116.914Z" fill="white"/>
<path d="M181.619 118.16C181.428 120.426 180.855 122.597 180.378 124.825C180.302 125.184 180.836 125.26 180.97 124.957C181.943 122.843 182.268 120.52 182.363 118.236C182.382 117.745 181.638 117.669 181.6 118.16H181.619Z" fill="white"/>
<path d="M178.947 120.105C178.508 122.22 177.725 124.183 177.096 126.241C177 126.562 177.477 126.864 177.649 126.525C178.756 124.599 179.29 122.333 179.691 120.162C179.767 119.69 179.042 119.633 178.947 120.086V120.105Z" fill="white"/>
<path d="M174.805 121.993C174.328 123.787 173.679 125.637 173.507 127.488C173.469 127.846 173.985 127.96 174.118 127.62C174.824 125.92 175.111 124.032 175.53 122.257C175.645 121.785 174.939 121.502 174.805 121.993Z" fill="white"/>
<path d="M171.599 125.467C171.045 126.864 170.416 128.281 170.072 129.753C169.996 130.055 170.454 130.395 170.625 130.037C171.351 128.677 171.809 127.185 172.324 125.732C172.496 125.26 171.771 124.995 171.599 125.467Z" fill="white"/>
<path d="M167.572 127.865C167.572 128.677 167.343 129.395 167.19 130.188C167.133 130.527 167.648 130.697 167.82 130.414C168.335 129.64 168.392 128.734 168.354 127.827C168.354 127.393 167.553 127.412 167.553 127.865H167.572Z" fill="white"/>
<path d="M105.486 65.5942C116.861 68.6907 136.214 61.95 136.806 48.412C136.844 47.4113 135.336 47.2603 135.222 48.261C133.676 62.0822 116.899 65.1977 105.658 64.82C105.219 64.82 105.009 65.4809 105.486 65.5942Z" fill="white"/>
<path d="M158.907 59.5332C155.968 58.6647 152.399 58.3059 150.357 61.1193C148.734 63.3473 149.479 65.934 151.444 67.6522C157.17 72.6181 168.851 72.6558 173.126 65.9718C173.507 65.3865 172.649 64.7823 172.229 65.3487C168.545 70.3145 162.629 70.6166 157.017 68.9551C155.166 68.4075 152.723 67.6334 151.635 65.9152C148.047 60.213 155.968 59.892 158.697 60.3451C159.174 60.4206 159.346 59.6654 158.888 59.5332H158.907Z" fill="white"/>
<path d="M163.583 59.6465C165.091 60.213 173.336 64.1781 170.187 66.3494C169.843 66.576 170.091 67.0858 170.435 67.1236C172.801 67.4634 172.725 64.4424 171.656 63.1585C169.805 60.9305 166.56 59.6654 163.85 58.9101C163.373 58.778 163.106 59.4577 163.583 59.6276V59.6465Z" fill="white"/>
<path d="M132.741 73.3356C136.081 73.5999 138.428 74.9594 141.043 76.923C141.291 77.1119 141.673 76.8097 141.52 76.5265C139.955 73.4677 136.004 71.9761 132.702 72.3726C132.149 72.4293 132.187 73.2978 132.741 73.3356Z" fill="white"/>
<path d="M143.218 77.7538C146.31 78.3769 149.345 79.2266 152.322 80.1895C153.067 80.435 153.506 79.3021 152.742 79.0566C149.669 77.9804 146.52 77.3195 143.276 76.9608C142.741 76.9042 142.703 77.6405 143.199 77.7538H143.218Z" fill="white"/>
<path d="M138.829 71.353C141.386 72.0327 143.886 72.8446 146.348 73.8265C148.811 74.8083 150.986 76.3566 153.467 77.2251C153.983 77.414 154.288 76.7342 153.906 76.4132C150.032 73.26 143.925 71.674 139.134 70.56C138.619 70.4467 138.313 71.202 138.848 71.353H138.829Z" fill="white"/>
<path d="M49.8707 15.9737C46.4544 13.9534 43.5534 17.7108 44.6603 21.0151C46.3971 26.1886 56.398 30.2859 61.4748 29.2851C66.0744 28.3599 69.3381 23.4508 66.2271 19.3724C63.4406 15.7283 55.6346 11.4988 51.4739 14.973C51.0731 15.3129 51.493 15.8793 51.9511 15.7094C57.0851 13.7646 71.781 20.3164 64.2231 26.8305C61.1122 29.5117 57.0851 28.5865 53.5542 27.076C52.2373 26.5096 50.8632 25.8109 49.6608 25.0368C48.8592 24.6025 48.153 24.055 47.5041 23.413C44.9466 21.7326 45.6528 19.4479 49.5844 16.5402C49.9089 16.6723 50.1952 16.1814 49.8707 15.9926V15.9737Z" fill="white"/>
<path d="M26.7771 29.0208C27.2925 28.3977 27.9223 27.8313 28.6475 27.4536C29.2201 27.1326 29.869 27.0194 30.4225 26.6606C30.7279 26.4529 30.4988 26.0375 30.2126 25.9809C28.6094 25.7165 26.8726 27.3215 26.0901 28.5299C25.8038 28.983 26.4527 29.4362 26.7771 29.0019V29.0208Z" fill="white"/>
<path d="M26.5481 28.6809C30.9951 33.8356 37.5796 37.0076 44.3168 37.9328C44.9848 38.0272 45.0803 37.0076 44.4123 36.9132C37.5224 35.9125 32.102 32.9293 27.1016 28.2467C26.7771 27.9446 26.2618 28.3411 26.5672 28.6998L26.5481 28.6809Z" fill="white"/>
<path d="M32.9609 26.1131C37.3315 29.9838 42.3129 32.9104 47.924 34.7041C48.6302 34.9307 49.0119 33.8733 48.3248 33.6468C42.8473 31.853 37.8468 29.153 33.419 25.4711C33.0373 25.1501 32.5983 25.7732 32.98 26.0942L32.9609 26.1131Z" fill="white"/>
<path d="M46.9888 39.5189C48.2294 38.8014 49.928 38.0461 50.8441 36.9321C51.054 36.6867 50.7678 36.2146 50.4433 36.309C49.031 36.7244 47.695 37.9706 46.5307 38.8203C46.149 39.0846 46.5689 39.7455 46.9697 39.5L46.9888 39.5189Z" fill="white"/>
<path d="M186.027 54.9073C184.959 57.5318 186.333 61.5724 189.501 61.9501C189.845 61.9878 190.055 61.4969 189.749 61.3081C187.573 60.0241 185.951 57.8717 186.982 55.266C187.23 54.6618 186.276 54.3031 186.027 54.9073Z" fill="white"/>
<path d="M179.863 70.0313C181.581 68.9928 183.127 67.69 184.711 66.4816C186.276 65.2732 188.032 64.1592 189.368 62.7053C189.635 62.4221 189.215 61.9689 188.89 62.1389C187.23 63.0074 185.799 64.3291 184.329 65.4809C182.688 66.7648 180.951 67.9732 179.443 69.4271C179.157 69.6914 179.443 70.2768 179.844 70.0313H179.863Z" fill="white"/>
<path d="M177.84 52.7737C180.588 54.0954 184.119 54.5296 187.096 55.1905C187.707 55.3227 187.955 54.2842 187.345 54.1331C184.386 53.3779 181.046 52.1883 177.993 52.1128C177.592 52.1128 177.496 52.6037 177.84 52.7737Z" fill="white"/>
<path d="M45.4428 10.2715C49.3363 11.631 55.1002 11.2156 58.192 8.2512C58.5165 7.94909 58.192 7.42041 57.7722 7.60923C55.7873 8.42113 54.0886 9.42185 51.8938 9.78059C49.7562 10.1205 47.7331 9.85612 45.6528 9.44073C45.1566 9.34632 44.9848 10.1393 45.4619 10.2904L45.4428 10.2715Z" fill="white"/>
<path d="M19.4864 29.7005C20.6506 27.8501 21.8148 24.7913 21.2041 22.6011C21.1087 22.2235 20.5361 22.0913 20.3834 22.5256C20.0399 23.5829 20.0589 24.7158 19.8108 25.7921C19.5436 26.9816 19.1047 28.1334 18.6848 29.2851C18.513 29.7572 19.2001 30.1348 19.4864 29.7005Z" fill="white"/>
<path d="M147.226 84.3057C149.44 83.1917 151.654 82.2098 154.097 81.6812C156.292 81.2091 158.487 81.4357 160.682 81.0958C161.083 81.0392 161.159 80.435 160.758 80.3028C156.368 78.9245 150.337 81.0392 146.768 83.5693C146.368 83.8525 146.807 84.4945 147.226 84.2868V84.3057Z" fill="white"/>
</g>
<defs>
<clipPath id="clip0_97_287">
<rect width="220" height="158" fill="white"/>
</clipPath>
</defs>
</svg>
