<svg width="238" height="161" viewBox="0 0 238 161" fill="none" xmlns="http://www.w3.org/2000/svg">
<g clip-path="url(#clip0_97_1690)">
<path d="M9.18526 109.303C6.54103 103.989 4.41373 98.5552 3.61847 92.6261C3.26061 89.9887 2.36594 86.4193 3.32025 84.0198C5.64637 78.2096 8.01226 79.7167 10.4775 83.6431C13.3206 88.1841 15.6467 93.1416 16.8992 98.3768C17.5354 101.054 18.4699 105 17.9927 107.578C17.9728 108.371 17.9529 109.164 17.9132 109.958C13.1218 112.793 10.3384 112.377 9.52324 108.708C9.20514 107.935 7.83332 108.331 8.09178 109.164C9.28466 113.091 14.1556 119.119 18.3307 114.28C21.0942 111.068 19.8616 104.227 19.3844 100.36C18.6488 94.3909 16.8992 88.3428 13.8574 83.1275C11.2927 78.7649 4.85112 70.6147 1.29235 79.0822C-2.54476 88.2238 3.14132 102.442 8.13154 110.017C8.54905 110.632 9.54312 109.958 9.22502 109.323L9.18526 109.303Z" fill="white"/>
<path d="M4.79138 77.3966C6.12344 76.881 7.43561 76.3456 8.8273 76.0085C10.0599 75.711 11.2727 75.8498 12.1674 74.8583C12.565 74.4221 12.2867 73.7677 11.9089 73.4504C10.8154 72.4986 8.96647 73.1728 7.73383 73.5496C6.24272 74.0057 4.89079 74.779 3.79731 75.8697C3.0617 76.6034 3.79731 77.7734 4.79138 77.3966Z" fill="white"/>
<path d="M16.3226 115.609C27.5158 116.521 49.5046 115.133 51.6717 100.657C51.7711 100.003 50.8168 99.6657 50.4589 100.221C42.6058 112.397 29.4045 112.635 16.2629 113.824C15.2291 113.924 15.3285 115.53 16.3425 115.609H16.3226Z" fill="white"/>
<path d="M26.1241 114.836C30.6571 131.473 53.5803 145.989 70.7777 140.912C71.9706 140.555 72.1495 138.592 70.6783 138.533C52.1687 137.779 36.363 132.028 27.7544 114.32C27.3369 113.487 25.8657 113.864 26.1241 114.836Z" fill="white"/>
<path d="M42.8046 64.9037C37.1384 64.5864 35.5081 73.2918 39.1066 76.6629C41.0749 78.4873 43.9179 78.7649 46.3435 77.7535C48.5901 76.8215 50.9559 74.5212 50.4589 71.8839C50.3396 71.2295 49.5245 71.2493 49.2461 71.7847C48.3515 73.5297 47.3574 74.9377 45.3693 75.5326C43.7589 76.0085 41.7906 75.8499 40.6375 74.5212C38.1126 71.6261 40.6773 67.9972 43.2221 66.3314C43.7986 65.9547 43.4209 64.983 42.7847 64.9433L42.8046 64.9037Z" fill="white"/>
<path d="M43.7589 66.1926C42.0491 68.136 41.3135 71.745 42.745 74.0255C43.8981 75.8697 46.2838 76.9008 48.2919 75.7904C48.7293 75.5524 49.1666 74.9773 48.9877 74.4419C48.1129 71.5864 47.2381 68.711 46.3634 65.8555C45.5681 66.1133 44.753 66.3711 43.9577 66.6289C44.7927 68.6119 45.9459 70.4164 47.3773 72.0425C47.3574 71.5269 47.3376 70.9915 47.2978 70.4759C46.7014 71.3683 46.1844 72.2804 45.8266 73.2918C45.5283 74.1643 46.5622 74.898 47.2779 74.3031C48.093 73.6289 48.769 72.8159 49.4052 71.9433C49.7432 71.4872 49.7034 70.7932 49.3257 70.3768C48.0334 68.9093 47.0195 67.3229 46.264 65.5184C45.7073 64.2295 43.4209 64.9037 43.8583 66.2918C44.7331 69.1473 45.6278 72.0028 46.5025 74.8782C46.7411 74.4221 46.9797 73.966 47.1984 73.5297C45.8465 74.2833 44.6337 72.8357 44.4945 71.5666C44.3156 69.9008 45.3295 68.4533 45.5085 66.847C45.6278 65.796 44.3355 65.5382 43.7589 66.1926Z" fill="white"/>
<path d="M46.5225 72.221C48.8685 70.5354 46.4231 66.6487 43.8385 67.7989C43.3812 67.9972 43.0432 68.5921 43.1625 69.1076C43.4806 70.4561 43.7788 71.8045 44.0969 73.153C44.3156 74.0651 45.3296 74.4221 46.0652 73.8668C49.0872 71.6062 48.2124 66.4108 44.7133 65.1416C44.5343 65.915 44.3554 66.6884 44.1765 67.4816C46.5423 67.9773 48.0931 70.3371 47.8744 72.6771C47.7153 74.2238 50.121 74.4419 50.28 72.8952C50.6578 69.1473 48.0533 65.8357 44.415 65.0623C43.0432 64.7847 42.6257 66.9462 43.8782 67.4023C45.767 68.0765 46.0652 70.8527 44.5144 72.0227C45.1705 72.2606 45.8266 72.4986 46.4827 72.7365C46.1646 71.3881 45.8664 70.0397 45.5483 68.6912C45.3296 69.1275 45.091 69.5637 44.8723 70C44.8127 70.0397 45.1109 70.2776 44.9518 70.3966C43.6794 71.3088 45.2501 73.1331 46.5225 72.2408V72.221Z" fill="white"/>
<path d="M9.42381 74.9773C12.9031 74.9773 16.0841 72.7167 18.271 70.1983C20.2194 67.9377 22.7245 63.8725 21.5515 60.8187C21.3526 60.3229 20.5574 60.2436 20.279 60.7195C19.6031 61.8697 19.5236 63.1388 19.106 64.3881C18.6289 65.8357 17.8535 67.1841 16.9191 68.3739C14.8315 71.0312 12.1078 72.1813 9.16536 73.6289C8.56891 73.9263 8.66832 74.9972 9.40393 74.9972L9.42381 74.9773Z" fill="white"/>
<path d="M23.2612 58.9745C24.6727 36.3088 43.9577 24.034 63.1233 16.221C83.8795 7.7932 105.093 1.30878 127.738 3.74788C147.818 5.90935 171.298 13.5241 186.288 27.5637C201.299 41.6232 202.532 61.1161 205.951 80.034C206.17 81.2238 208.078 81.2238 208.138 79.9547C208.894 60.9575 202.909 38.6884 188.774 25.2833C172.888 10.1926 147.719 2.26062 126.326 0.356941C101.892 -1.82436 78.0344 6.26629 56.0257 16.2011C38.4505 24.1331 20.935 37.7564 21.452 58.8159C21.4718 59.9462 23.1618 60.1643 23.2413 58.9943L23.2612 58.9745Z" fill="white"/>
<path d="M187.044 149.201C195.513 138.552 198.953 124.374 202.571 111.564C206.13 98.9518 211.876 84.694 207.025 71.7252C206.687 70.8329 205.156 71.0906 205.156 72.0623C205.076 98.0991 197.024 125.048 185.791 148.567C185.434 149.32 186.547 149.796 187.024 149.221L187.044 149.201Z" fill="white"/>
<path d="M109.029 145.275C127.221 150.788 151.079 142.003 163.385 128.062C163.962 127.408 163.027 126.357 162.292 126.773C154.777 131.096 148.037 136.49 139.925 139.762C129.726 143.867 120.123 144.006 109.308 144.045C108.632 144.045 108.274 145.057 109.029 145.275Z" fill="white"/>
<path d="M148.474 135.816C149.309 141.249 152.112 146.861 155.572 151.164C156.804 152.691 159.131 150.728 157.898 149.201C156.188 147.099 154.856 144.64 153.604 142.261C152.411 140 150.959 137.72 150.005 135.36C149.647 134.507 148.355 134.963 148.494 135.836L148.474 135.816Z" fill="white"/>
<path d="M155.93 151.402C161.954 156.142 171.079 155.943 178.197 154.258C183.267 153.068 190.603 151.006 190.762 144.779C190.782 143.649 189.41 143.431 188.933 144.363C183.147 155.388 166.109 152.156 156.705 149.975C155.83 149.776 155.174 150.807 155.95 151.402H155.93Z" fill="white"/>
<path d="M66.7816 51.3201C71.9309 45.8074 77.5175 42.7139 84.8736 40.949C90.4205 39.6204 97.4387 40.017 102.429 37.3003C103.383 36.7847 103.105 35.4957 102.071 35.2974C95.5499 34.0878 86.3449 36.7649 80.122 38.7677C73.8395 40.7904 68.054 44.0425 65.0121 50.0708C64.5151 51.0425 66.0261 52.1133 66.7816 51.3003V51.3201Z" fill="white"/>
<path d="M104.039 66.4901C108.115 57.3881 108.493 43.745 102.926 35.1586C102.23 34.068 100.62 35.0595 100.779 36.17C101.594 41.4844 103.681 46.2436 103.781 51.7167C103.86 56.5751 102.628 61.2748 102.25 66.0737C102.17 67.1445 103.622 67.4221 104.059 66.4901H104.039Z" fill="white"/>
<path d="M98.393 76.6629C102.409 72.9745 105.431 66.3909 104.715 60.898C104.616 60.204 103.582 60.1246 103.363 60.779C102.548 63.1983 102.071 65.7167 101.137 68.1161C100.103 70.7734 98.5123 73.0142 97.0212 75.4136C96.4844 76.2861 97.5778 77.4363 98.4129 76.6629H98.393Z" fill="white"/>
<path d="M74.0979 59.2125C77.3783 50.7847 85.9472 49.8329 93.6015 47.6714C94.0986 47.5326 94.1781 46.6799 93.5618 46.6799C85.1321 46.6204 74.5154 49.3173 71.732 58.3399C71.2549 59.8867 73.5014 60.7394 74.0979 59.2125Z" fill="white"/>
<path d="M13.2808 25.898C20.0405 26.4533 26.3627 27.7224 32.3868 30.9745C34.0767 31.8867 35.8263 29.4278 34.1165 28.5156C27.6948 25.085 20.4977 23.2408 13.2211 24.3909C12.3662 24.5297 12.4259 25.8385 13.2808 25.898Z" fill="white"/>
<path d="M11.6306 26.3938C11.9089 35.0991 14.8513 45.1926 19.8614 52.3909C20.7163 53.6006 22.5255 52.2918 21.9888 51.0227C20.3386 47.2153 18.3107 43.6459 16.919 39.7195C15.3881 35.3371 14.5531 30.8357 13.559 26.3144C13.3403 25.3031 11.5908 25.2436 11.6306 26.3938Z" fill="white"/>
<path d="M15.0701 29.1501C17.277 31.153 19.3645 33.2946 21.1141 35.7139C22.5455 37.6969 23.5396 40.5722 25.488 42.0198C26.2037 42.5552 26.999 41.8414 26.9393 41.0878C26.8002 38.5496 24.136 35.7932 22.5058 33.9688C20.5176 31.7479 18.2909 29.7252 15.8256 28.0397C15.1099 27.5439 14.4538 28.5552 15.0701 29.1105V29.1501Z" fill="white"/>
<path d="M67.8551 133.773C68.4317 137.62 70.1812 141.19 71.6326 144.779C73.243 148.765 74.5353 153.207 76.8415 156.816C77.438 157.748 79.108 157.45 78.8495 156.181C78.0145 152.116 75.9866 148.249 74.416 144.422C72.8454 140.595 71.5332 136.55 69.1275 133.178C68.6901 132.564 67.7557 133.099 67.8551 133.773Z" fill="white"/>
<path d="M77.4976 156.518C83.7603 160.564 96.2657 162.904 103.204 158.997C106.027 157.411 106.703 154.297 107.697 151.382C109.427 146.326 110.759 141.091 111.276 135.776C111.435 134.15 109.129 134.031 108.811 135.538C107.996 139.445 107.26 143.391 106.127 147.218C105.332 149.875 104.437 154.892 102.011 156.518C99.3672 158.283 93.6811 157.966 90.7188 157.807C86.4045 157.569 82.3885 156.142 78.273 155.031C77.3982 154.793 76.6427 155.963 77.4976 156.499V156.518Z" fill="white"/>
<path d="M44.6934 135.856C45.2501 142.836 47.437 151.898 53.6201 156.062C60.0617 160.385 68.3522 158.343 75.1715 156.062C76.8018 155.507 75.6487 153.108 74.0184 153.643C66.7617 156.062 57.2385 158.065 51.8507 151.006C48.4311 146.504 48.2323 140.496 46.0652 135.419C45.7272 134.626 44.6337 135.082 44.6934 135.856Z" fill="white"/>
<path d="M127.38 145.572C129.646 155.844 149.11 152.711 155.91 150.688C157.341 150.252 157.043 148.031 155.492 148.329C148.196 149.737 133.205 153.663 128.792 145.116C128.414 144.402 127.201 144.72 127.38 145.572Z" fill="white"/>
<path d="M40.3393 123.878C48.6497 118.147 52.5862 107.756 52.3874 97.9405C52.3476 96.1756 49.5841 95.9178 49.6438 97.6827C49.9619 107.697 45.8464 115.629 39.3054 122.946C38.7289 123.581 39.7428 124.314 40.3393 123.898V123.878Z" fill="white"/>
<path d="M30.8161 114.34C31.85 116.363 33.3808 118.187 35.0509 119.734C36.4625 121.042 38.3313 122.847 40.2996 123.125C41.1147 123.244 41.6117 122.193 41.0948 121.598C39.882 120.21 37.8939 119.416 36.4823 118.167C34.8719 116.739 33.6592 115.054 32.3868 113.329C31.7506 112.456 30.339 113.388 30.8161 114.34Z" fill="white"/>
<path d="M35.1901 117.057C36.1046 116.164 36.9794 115.232 37.8542 114.3C38.6097 113.507 39.6435 112.714 40.061 111.703C40.2797 111.187 39.6832 110.671 39.1862 110.909C38.1524 111.405 37.377 112.595 36.6016 113.428C35.7666 114.32 34.9515 115.212 34.1562 116.125C33.6393 116.72 34.6135 117.612 35.1901 117.057Z" fill="white"/>
<path d="M36.6811 118.425C39.0271 115.926 42.0292 113.309 43.5402 110.176C43.8583 109.521 42.9835 109.105 42.4865 109.442C41.1146 110.414 40.1007 111.881 39.0271 113.17C37.8541 114.598 36.8004 116.045 35.7069 117.533C35.2695 118.127 36.1642 118.98 36.6811 118.425Z" fill="white"/>
<path d="M38.6096 119.912C40.3194 117.909 41.9497 115.847 43.5601 113.765C45.0114 111.901 46.7411 110.096 47.6755 107.915C47.9936 107.181 47.0393 106.626 46.4627 107.062C44.5939 108.53 43.2817 110.691 41.8503 112.555C40.2399 114.637 38.6692 116.739 37.1583 118.901C36.5022 119.853 37.874 120.765 38.6096 119.912Z" fill="white"/>
<path d="M41.055 119.555C42.7648 117.652 44.2957 115.609 45.8266 113.567C47.1984 111.762 48.9082 109.957 49.6836 107.816C49.942 107.122 49.107 106.606 48.5503 107.023C46.7013 108.371 45.4488 110.552 44.0969 112.377C42.566 114.419 41.0352 116.462 39.7031 118.643C39.1464 119.555 40.3393 120.348 41.0352 119.575L41.055 119.555Z" fill="white"/>
<path d="M41.1545 117.909C40.5581 118.822 39.9219 119.654 39.2061 120.487C39.902 120.745 40.5978 121.003 41.2937 121.261C41.7708 118.623 40.061 115.867 37.894 114.479C37.5957 115.272 37.2975 116.085 36.9993 116.878C37.0788 116.878 37.1385 116.878 37.218 116.898L36.3233 116.442C36.5221 116.025 36.7408 115.609 36.9396 115.173C36.8402 115.054 36.7607 114.935 36.6613 114.816C36.5221 114.538 36.1842 114.261 35.9456 114.082C35.4485 113.686 34.9714 113.507 34.3352 113.507C32.8043 113.507 32.3669 115.411 33.7387 116.085C34.8123 116.601 35.6871 117.215 36.8999 117.037C37.5162 116.958 37.9934 116.164 37.6554 115.589C36.9794 114.459 35.8462 114.142 34.6732 113.586L34.0767 116.164C34.5539 116.164 35.1304 117.195 35.4883 117.473C35.7865 117.691 36.1245 117.85 36.5023 117.929C37.2379 118.088 37.9735 117.87 38.4308 117.255C39.3055 116.105 38.7489 114.399 37.2577 114.241C35.9655 114.102 35.2299 115.926 36.3631 116.64C38.1723 117.79 38.7091 119.317 39.0073 121.34C39.1862 122.49 40.8165 122.569 41.2141 121.538C41.572 120.606 41.9696 119.714 42.4468 118.822C42.9239 117.949 41.7112 117.037 41.1346 117.909H41.1545Z" fill="white"/>
<path d="M73.084 19.017C91.8321 10.7875 110.719 7.71388 131.118 9.79603C132.47 9.93484 132.668 7.83286 131.317 7.71388C111.097 5.84986 90.9375 9.24079 72.5273 17.847C71.7718 18.204 72.3086 19.3541 73.084 19.017Z" fill="white"/>
<path d="M72.746 18.4618C73.5214 19.6912 75.0125 20.2068 76.2849 20.8414C77.7362 21.5751 79.4063 22.8244 81.0564 22.8839C81.7324 22.9037 82.1698 22.1501 81.7324 21.6147C80.7582 20.4051 78.949 19.8697 77.5772 19.1955C76.2053 18.5212 74.754 17.4901 73.2033 17.6289C72.8454 17.6686 72.5869 18.1445 72.7858 18.4419L72.746 18.4618Z" fill="white"/>
<path d="M80.619 23.3994C98.3532 18.6601 115.471 16.9547 133.603 14.8329C134.816 14.6941 134.736 12.7507 133.523 12.6912C115.749 11.9178 96.9019 16.221 80.1816 22.0312C79.4261 22.289 79.8238 23.5977 80.619 23.3994Z" fill="white"/>
<path d="M130.998 9.08215C133.444 10.6686 135.83 12.711 137.5 15.1303C137.838 14.4759 138.176 13.8215 138.533 13.1671C136.744 12.9887 135.233 12.1161 133.484 11.7394C132.927 11.6204 132.43 12.3541 132.728 12.83C133.901 14.7337 136.207 15.3683 138.315 15.5467C139.428 15.6459 139.925 14.4164 139.349 13.5836C138.394 12.2351 137.281 11.0453 136.008 10.0142C134.637 8.90368 133.344 8.34844 131.674 7.85269C130.939 7.63456 130.322 8.62606 131.018 9.08215H130.998Z" fill="white"/>
<path d="M130.442 7.91218C129.726 8.82436 129.169 9.81586 128.792 10.9065C128.474 11.8385 128.036 12.949 128.652 13.8215C128.871 14.1388 129.368 14.1388 129.647 13.9008C130.322 13.3258 130.283 12.3541 130.541 11.5609C130.859 10.6289 131.317 9.73654 131.873 8.92351C132.509 7.9915 131.118 7.01983 130.422 7.91218H130.442Z" fill="white"/>
<path d="M10.0401 93.221C10.0003 93.7365 9.76177 94.0935 9.96058 94.6487C10.2389 95.4816 10.8354 96.255 11.1535 97.068C11.6903 98.3966 11.5909 100.558 12.8831 101.351C13.241 101.569 13.8176 101.629 14.1357 101.292C15.1894 100.142 14.6725 98.8527 14.255 97.5043C13.7778 95.9773 13.1018 94.5297 12.1674 93.221C11.909 92.8442 11.3523 92.7054 10.9149 92.7649C10.8751 92.7649 10.8354 92.7649 10.7757 92.7451C10.4377 92.6657 10.06 92.8244 10.0202 93.221H10.0401Z" fill="white"/>
<path d="M4.57273 91.4759C4.35404 92.3881 3.99617 92.8045 4.01605 93.8159C4.01605 94.728 4.23475 95.6204 4.47333 96.4929C4.91072 97.9802 5.50716 99.6062 7.07779 100.181C7.69411 100.399 8.15138 99.8839 8.1315 99.3088C8.07186 97.9009 7.09767 96.7507 6.70004 95.4221C6.50123 94.728 6.38194 94.034 6.30241 93.3201C6.22289 92.745 5.92467 92.17 5.8849 91.6147C5.84514 90.9603 4.75166 90.8612 4.57273 91.4957V91.4759Z" fill="white"/>
<path d="M200.504 42.7932C202.015 36.2691 204.42 28.5354 212.234 27.187C216.488 26.4533 220.982 28.7932 222.711 32.779C224.998 38.034 220.425 49.4561 213.606 43.2096C212.631 42.3173 211.319 43.4278 212.055 44.5184C214.818 48.6232 220.524 47.5524 223.367 44.102C227.264 39.4023 226.409 31.9858 222.055 27.9008C212.095 18.5609 196.249 30.4986 198.098 42.5751C198.277 43.7054 200.205 44.0227 200.484 42.7932H200.504Z" fill="white"/>
<path d="M205.792 55.5439C206.607 51.3796 207.442 47.2153 209.967 43.6856C212.035 40.8102 214.798 39.8782 217.423 37.8357C218.119 37.3003 217.761 35.9122 216.826 35.932C213.188 35.9518 209.749 39.3626 207.78 42.1586C204.997 46.085 203.665 50.8442 204.043 55.6232C204.122 56.694 205.613 56.4561 205.792 55.5439Z" fill="white"/>
<path d="M209.411 40.2153C208.079 42.0198 210.564 44.6572 212.532 43.8838C213.109 43.6657 213.049 42.9122 212.651 42.5751C212.293 42.2776 211.856 42.0595 211.498 41.7224C211.021 41.2861 210.922 40.6317 210.464 40.1558C210.166 39.8385 209.669 39.8385 209.411 40.1955V40.2153Z" fill="white"/>
<path d="M220.962 28.6346C223.944 26.5127 227.463 25.2238 230.982 26.9688C234.063 28.4958 235.038 31.4108 236.211 34.3853C236.409 34.8612 237.284 34.881 237.404 34.3258C239.591 24.8669 225.017 20.3853 219.789 27.5637C219.232 28.3371 220.246 29.1501 220.962 28.6346Z" fill="white"/>
<path d="M225.475 33.8499C228.517 32.1246 234.242 28.6742 235.992 33.9292C236.37 35.0595 238.199 34.4249 237.98 33.2946C237.523 30.8952 235.435 29.3881 233.069 29.0708C229.869 28.6544 226.946 30.5581 224.64 32.5609C224.003 33.1161 224.679 34.3059 225.475 33.8499Z" fill="white"/>
<path d="M200.822 44.9943C201.836 45.2918 202.79 45.728 203.605 46.4023C204.44 47.0963 204.878 48.0283 205.593 48.8017C205.951 49.1785 206.607 48.9008 206.528 48.3654C206.17 46.0057 203.188 44.2606 201.06 43.8838C200.404 43.7649 200.166 44.8159 200.802 45.0142L200.822 44.9943Z" fill="white"/>
<path d="M200.544 39.9773C201.001 39.5014 201.398 39.6799 201.876 39.9773C202.333 40.2351 202.87 39.8187 202.671 39.3229C202.174 38.0538 200.384 38.3116 199.708 39.2436C199.331 39.7592 200.106 40.4929 200.544 40.017V39.9773Z" fill="white"/>
<path d="M204.738 42.0991C205.693 42.6147 206.408 43.4476 206.826 44.4193C207.164 45.2125 208.397 44.6374 208.059 43.8442C207.502 42.5156 206.567 41.6827 205.235 41.1671C204.679 40.949 204.202 41.8017 204.738 42.0991Z" fill="white"/>
<path d="M203.287 35.9518C204.699 36.289 205.951 36.983 206.965 38.034C207.979 39.0652 208.397 40.255 208.933 41.5439C209.212 42.1983 210.067 41.8017 210.027 41.187C209.808 37.9348 206.468 35.4561 203.526 34.8612C202.909 34.7422 202.651 35.7932 203.267 35.9518H203.287Z" fill="white"/>
<path d="M208.874 33.949C210.405 35.1586 210.941 36.7054 211.319 38.5496C211.438 39.1246 212.333 39.1246 212.373 38.5099C212.512 36.3683 211.18 34.2861 209.53 33.0368C208.953 32.6006 208.317 33.5128 208.874 33.949Z" fill="white"/>
<path d="M212.79 32.3031C213.307 33.6516 213.705 35.1586 214.421 36.4079C214.679 36.8442 215.454 36.6855 215.335 36.1105C215.017 34.6629 214.281 33.2351 213.745 31.847C213.506 31.2323 212.572 31.6686 212.81 32.2833L212.79 32.3031Z" fill="white"/>
<path d="M213.128 39.7592C212.691 42.2578 213.924 44.7762 216.23 45.847C216.687 46.0652 217.085 45.3314 216.647 45.0538C214.818 43.9235 213.745 41.9802 214.023 39.8385C214.103 39.2635 213.228 39.1841 213.128 39.7592Z" fill="white"/>
<path d="M214.699 40.5722C215.534 43.0906 217.88 45.3909 220.624 45.6091C221.141 45.6487 221.379 44.8357 220.842 44.6771C218.397 43.9632 216.468 42.6544 215.594 40.1558C215.395 39.5609 214.52 39.9972 214.719 40.5722H214.699Z" fill="white"/>
<path d="M218.019 40.4929C218.874 41.9008 220.266 42.7734 221.916 42.8725C222.592 42.9122 222.671 41.881 222.015 41.8414C220.723 41.7819 219.59 41.1671 218.914 40.0567C218.576 39.5212 217.681 39.9377 218.019 40.4731V40.4929Z" fill="white"/>
<path d="M220.842 39.2436C221.598 39.7195 222.334 40.1955 223.129 40.5921C223.626 40.8499 223.984 40.0567 223.566 39.7394C222.89 39.2238 222.155 38.8272 221.439 38.3909C220.862 38.0538 220.266 38.8867 220.842 39.2436Z" fill="white"/>
<path d="M223.308 27.9207C224.739 29.1303 225.514 30.6771 226.051 32.4419C226.23 33.017 227.006 32.8782 226.966 32.2833C226.827 30.2011 225.534 28.3569 223.904 27.1076C223.387 26.711 222.83 27.5241 223.328 27.9405L223.308 27.9207Z" fill="white"/>
<path d="M225.912 26.9688C226.429 27.9207 226.886 28.9122 227.523 29.8045C227.861 30.2805 228.517 29.7649 228.318 29.289C227.94 28.3173 227.383 27.4249 226.906 26.5127C226.568 25.898 225.594 26.3541 225.932 26.9887L225.912 26.9688Z" fill="white"/>
<path d="M27.0188 52.8074C29.7624 42.7932 35.9853 36.6855 43.918 30.5382C44.4548 30.1218 43.8782 29.3286 43.3016 29.5864C34.355 33.4731 28.331 43.3484 25.985 52.4306C25.806 53.1048 26.8399 53.5014 27.0188 52.8074Z" fill="white"/>
<path d="M48.7093 26.5524C51.5524 24.7875 54.4153 23.0822 57.3776 21.5354C60.3201 19.9887 63.6601 18.9972 66.4634 17.2521C67.0599 16.8952 66.8412 15.9037 66.0658 16.0425C59.7037 17.0935 53.0236 21.6544 48.0334 25.5411C47.4966 25.9575 48.093 26.949 48.7093 26.5722V26.5524Z" fill="white"/>
<path d="M132.808 147.793C134.617 146.326 136.466 144.898 138.176 143.331C138.613 142.935 138.056 142.28 137.579 142.637C135.71 144.025 133.961 145.572 132.171 147.059C131.694 147.456 132.311 148.19 132.808 147.793Z" fill="white"/>
<path d="M134.358 150.609C138.295 147.833 142.55 144.303 145.094 140.159C145.373 139.703 144.776 139.068 144.359 139.484C142.629 141.269 141.138 143.252 139.349 144.977C137.559 146.703 135.651 148.289 133.663 149.776C133.106 150.193 133.802 150.986 134.358 150.589V150.609Z" fill="white"/>
<path d="M138.553 151.105C143.007 147.991 147.918 144.025 150.82 139.365C151.138 138.85 150.462 138.136 149.985 138.612C147.997 140.595 146.307 142.856 144.279 144.819C142.271 146.782 140.104 148.586 137.858 150.312C137.321 150.728 137.997 151.501 138.534 151.105H138.553Z" fill="white"/>
<path d="M143.464 151.244C147.003 149.399 149.806 146.365 151.735 142.895C152.112 142.221 151.138 141.527 150.741 142.201C148.752 145.552 146.049 148.11 142.868 150.351C142.371 150.688 142.907 151.521 143.444 151.244H143.464Z" fill="white"/>
<path d="M149.747 150.708C151.198 149.3 152.629 147.853 153.822 146.227C154.16 145.79 153.524 145.215 153.107 145.572C151.556 146.881 150.224 148.408 148.912 149.955C148.494 150.45 149.289 151.164 149.747 150.708Z" fill="white"/>
<path d="M51.135 142.479C53.0436 142.261 55.7673 141.428 56.9403 139.782C57.2783 139.326 56.7415 138.771 56.2644 138.989C55.4095 139.365 54.6738 140.02 53.8189 140.416C52.9044 140.853 51.9302 141.13 50.9362 141.368C50.2204 141.527 50.3994 142.578 51.135 142.479Z" fill="white"/>
<path d="M53.3616 146.484C54.0574 146.445 54.7533 146.405 55.4491 146.326C55.9859 146.266 55.9661 145.394 55.4094 145.354C54.7135 145.314 54.0177 145.314 53.3218 145.354C52.4868 145.374 52.5266 146.524 53.3616 146.484Z" fill="white"/>
<path d="M58.3519 144.858C60.181 143.946 62.4077 143.133 63.9783 141.805C64.376 141.467 64.0777 140.654 63.5211 140.813C61.5329 141.428 59.6641 142.816 57.8747 143.847C57.2783 144.204 57.6958 145.156 58.3519 144.839V144.858Z" fill="white"/>
<path d="M56.2643 149.776C61.4334 148.19 66.7418 145.612 70.3005 141.388C70.7379 140.873 69.9427 140.238 69.4655 140.615C65.2109 143.926 61.1352 147.02 55.9859 148.864C55.4889 149.042 55.7673 149.915 56.2643 149.756V149.776Z" fill="white"/>
<path d="M57.835 154C59.3062 153.564 60.7774 153.187 62.1691 152.572C62.686 152.354 62.4276 151.541 61.8709 151.64C60.3798 151.938 58.9483 152.453 57.497 152.929C56.9006 153.127 57.2187 154.178 57.835 154Z" fill="white"/>
<path d="M65.5887 150.926C68.1733 149.637 70.8573 147.912 72.5074 145.493C72.8653 144.977 72.1694 144.323 71.6923 144.759C69.5451 146.623 67.6365 148.547 65.1115 149.935C64.4952 150.272 64.9525 151.244 65.5887 150.926Z" fill="white"/>
<path d="M63.6006 156.36C67.4377 154.952 71.0362 152.374 73.422 149.042C73.7799 148.547 73.0442 148.091 72.6665 148.507C69.9229 151.521 66.9208 153.802 63.1632 155.428C62.5469 155.705 62.9843 156.598 63.6006 156.36Z" fill="white"/>
<path d="M71.4537 154.833C73.0243 153.603 74.8932 152.453 76.2252 150.986C76.5632 150.609 76.0264 150.034 75.6089 150.252C74.754 150.728 74.0184 151.422 73.2629 152.017C72.4279 152.671 71.5929 153.346 70.7578 154C70.221 154.436 70.9169 155.249 71.4537 154.813V154.833Z" fill="white"/>
<path d="M182.253 147.516C184.022 146.98 185.692 146.028 186.726 144.442C187.024 143.986 186.408 143.351 185.99 143.768C184.777 144.957 183.565 145.969 181.934 146.544C181.398 146.742 181.696 147.694 182.253 147.516Z" fill="white"/>
<path d="M181.616 144.125C184.479 142.518 187.601 140.258 189.45 137.521C189.788 137.006 189.152 136.45 188.674 136.807C187.342 137.799 186.189 139.008 184.917 140.079C183.644 141.15 182.292 142.102 180.96 143.093C180.404 143.51 181.02 144.462 181.616 144.105V144.125Z" fill="white"/>
<path d="M180.821 139.405C184.638 137.799 188.714 135.062 191.1 131.612C191.438 131.116 190.802 130.561 190.344 130.918C188.774 132.167 187.402 133.615 185.791 134.824C184.062 136.133 182.213 137.263 180.344 138.374C179.728 138.751 180.145 139.683 180.841 139.405H180.821Z" fill="white"/>
<path d="M180.404 133.714C182.213 133.496 183.843 132.762 184.937 131.275C185.314 130.759 184.619 130.204 184.141 130.561C182.929 131.433 181.656 132.187 180.185 132.465C179.37 132.603 179.589 133.813 180.404 133.714Z" fill="white"/>
<path d="M188.237 129.153C189.728 128.161 191.06 127.031 192.273 125.722C193.346 124.552 194.639 123.204 195.096 121.657C195.235 121.181 194.659 120.666 194.241 121.062C193.088 122.133 192.293 123.601 191.219 124.79C190.066 126.04 188.794 127.19 187.442 128.241C186.805 128.737 187.601 129.589 188.237 129.173V129.153Z" fill="white"/>
<path d="M183.784 126.516C188.356 124.671 193.784 120.805 195.911 116.224C196.17 115.688 195.374 115.133 194.957 115.55C193.207 117.295 191.816 119.317 189.907 120.963C187.859 122.708 185.573 124.037 183.207 125.286C182.432 125.703 182.988 126.853 183.803 126.516H183.784Z" fill="white"/>
<path d="M183.704 120.527C189.509 117.671 195.315 112.853 198.058 106.884C198.317 106.309 197.462 105.912 197.104 106.388C193.048 111.742 189.151 116.144 183.167 119.436C182.471 119.813 182.988 120.904 183.704 120.547V120.527Z" fill="white"/>
<path d="M185.533 111.762C186.666 110.85 188.217 109.938 189.032 108.728C189.35 108.232 188.833 107.618 188.297 107.856C186.964 108.47 185.831 109.839 184.738 110.83C184.161 111.365 184.917 112.258 185.533 111.762Z" fill="white"/>
<path d="M193.645 105.813C196.348 103.453 199.351 100.518 200.822 97.187C201.06 96.6317 200.285 96.3144 199.947 96.7309C198.834 98.0595 197.959 99.5666 196.865 100.915C195.692 102.382 194.38 103.751 193.008 105.02C192.531 105.456 193.167 106.229 193.664 105.793L193.645 105.813Z" fill="white"/>
<path d="M189.151 101.728C194.937 99.0906 200.782 93.9547 202.79 87.7479C202.969 87.1926 202.174 86.7167 201.856 87.2521C200.186 90.0283 198.714 92.7649 196.428 95.1246C194.181 97.4249 191.537 99.2889 188.674 100.756C188.058 101.074 188.495 102.006 189.132 101.728H189.151Z" fill="white"/>
<path d="M191.756 92.8045C196.806 90.2465 201.359 85.6459 202.631 79.9943C202.77 79.3994 201.895 79.3003 201.657 79.7762C199.231 84.8329 196.329 89.0368 191.279 91.813C190.662 92.1501 191.12 93.1218 191.756 92.8045Z" fill="white"/>
<path d="M192.313 85.6657C196.607 82.6516 200.762 78.2096 202.512 73.1926C202.691 72.6572 201.915 72.2011 201.597 72.7167C198.794 77.4164 196.03 81.4419 191.577 84.7932C190.981 85.2493 191.716 86.0822 192.333 85.6657H192.313Z" fill="white"/>
<path d="M190.702 78.1105C191.935 77.2776 193.148 76.4051 194.36 75.5127C195.414 74.7394 196.865 73.966 197.661 72.915C197.959 72.5382 197.581 71.8442 197.084 72.0028C195.812 72.3796 194.659 73.5099 193.605 74.3031C192.372 75.255 191.14 76.2068 189.867 77.119C189.191 77.5949 190.026 78.5467 190.702 78.1105Z" fill="white"/>
<path d="M198.973 70.0397C200.086 68.5921 201.418 67.1445 202.214 65.4788C202.452 64.983 201.736 64.5071 201.339 64.864C199.967 66.0935 198.953 67.779 197.86 69.2663C197.343 69.9603 198.436 70.7139 198.953 70.0397H198.973Z" fill="white"/>
<path d="M195.394 68.7507C197.581 65.915 200.166 63.119 201.935 60.0255C202.194 59.5694 201.617 58.915 201.2 59.3513C198.675 61.9688 196.686 65.2408 194.539 68.1558C194.142 68.6912 194.977 69.2663 195.374 68.7507H195.394Z" fill="white"/>
<path d="M194.36 61.9292C196.686 60.0255 199.132 57.2691 199.748 54.255C199.867 53.7195 198.993 53.4023 198.734 53.8782C198.019 55.1275 197.521 56.4363 196.726 57.6459C195.871 58.9348 194.838 60.0652 193.665 61.0765C193.128 61.5524 193.824 62.3853 194.38 61.9292H194.36Z" fill="white"/>
<path d="M193.605 54.8895C194.44 53.6204 195.295 52.3711 196.13 51.102C196.885 49.9717 197.76 48.8414 198.257 47.5524C198.456 47.0368 197.76 46.4816 197.343 46.898C195.354 48.8612 194.002 51.7564 192.511 54.0963C192.054 54.83 193.128 55.6034 193.625 54.8697L193.605 54.8895Z" fill="white"/>
<path d="M192.71 47.7705C193.108 46.8385 193.505 45.9065 193.863 44.9547C194.181 44.1218 194.619 43.3484 194.579 42.4561C194.559 42 193.883 41.8017 193.585 42.0991C192.949 42.7139 192.75 43.6062 192.432 44.4193C192.074 45.3711 191.716 46.3229 191.378 47.2748C191.06 48.1473 192.372 48.6232 192.73 47.7705H192.71Z" fill="white"/>
<path d="M190.464 41.5836C190.921 40.3739 191.736 38.966 191.637 37.6771C191.597 37.221 190.941 36.983 190.623 37.3201C189.728 38.2521 189.45 39.8584 189.032 41.068C188.714 42 190.106 42.5156 190.464 41.6034V41.5836Z" fill="white"/>
<path d="M113.264 140.853C123.424 142.419 134.617 141.17 143.444 135.578C144.041 135.201 143.643 134.269 142.967 134.567C133.205 138.85 124.1 141.17 113.384 139.703C112.628 139.603 112.529 140.754 113.264 140.873V140.853Z" fill="white"/>
<path d="M146.227 133.496C147.4 133.02 148.752 132.643 149.786 131.89C150.224 131.572 149.846 130.858 149.349 130.957C148.096 131.215 146.903 131.969 145.77 132.524C145.154 132.822 145.591 133.754 146.227 133.496Z" fill="white"/>
<path d="M114.556 137.224C121.097 138.116 129.05 137.343 135.074 134.626C135.631 134.388 135.352 133.496 134.756 133.615C131.635 134.229 128.613 135.181 125.451 135.637C121.853 136.153 118.274 136.113 114.636 136.212C114 136.212 113.861 137.144 114.537 137.224H114.556Z" fill="white"/>
<path d="M117.221 133.754C119.189 133.972 121.336 133.813 123.046 132.762C123.483 132.504 123.324 131.671 122.748 131.85C120.919 132.365 119.248 132.822 117.32 132.663C116.624 132.603 116.525 133.674 117.221 133.754Z" fill="white"/>
<path d="M90.679 156.399C94.7547 157.093 99.0491 155.527 102.349 153.246C103.204 152.671 102.151 151.422 101.316 152.017C97.9954 154.357 94.5957 154.932 90.6194 155.15C89.8639 155.19 90.0229 156.28 90.6592 156.38L90.679 156.399Z" fill="white"/>
<path d="M94.8938 152.572C98.7508 152.156 102.369 150.47 105.113 147.694C105.789 147.02 104.854 145.87 104.139 146.544C101.435 149.062 98.3333 150.669 94.695 151.343C93.8998 151.482 94.1185 152.652 94.9137 152.572H94.8938Z" fill="white"/>
<path d="M97.7567 147.198C100.56 146.048 103.343 144.799 106.047 143.45C106.882 143.034 106.286 141.765 105.431 142.142C102.648 143.351 99.9238 144.68 97.2398 146.088C96.524 146.465 97.041 147.516 97.7766 147.198H97.7567Z" fill="white"/>
<path d="M100.978 141.963C103.264 141.17 105.61 140 107.359 138.314C107.996 137.7 107.181 136.728 106.465 137.263C104.536 138.691 102.687 139.96 100.421 140.833C99.6455 141.13 100.202 142.241 100.958 141.983L100.978 141.963Z" fill="white"/>
<path d="M104.258 136.272C105.471 135.558 106.803 134.924 107.876 134.051C108.493 133.555 107.837 132.603 107.141 132.921C105.908 133.456 104.795 134.329 103.662 135.042C102.926 135.499 103.483 136.748 104.258 136.292V136.272Z" fill="white"/>
<path d="M97.9754 82.9887C101.097 79.6969 104.536 75.4136 105.769 70.9518C105.928 70.3966 105.192 69.9207 104.834 70.4561C103.542 72.3994 102.608 74.5609 101.315 76.5241C100.023 78.4873 98.5321 80.3116 96.9813 82.0765C96.4843 82.6516 97.4386 83.5439 97.9754 82.9887Z" fill="white"/>
<path d="M102.17 82.83C103.96 81.1048 105.55 78.8839 105.988 76.4051C106.087 75.8697 105.252 75.5722 104.974 76.0283C103.761 78.051 102.747 80.1331 101.276 82.017C100.858 82.5524 101.673 83.3258 102.17 82.83Z" fill="white"/>
<path d="M140.203 9.30028C149.866 10.8669 157.58 13.8612 166.268 18.2436C166.944 18.5807 167.441 17.5297 166.864 17.0935C159.409 11.6997 149.468 8.60623 140.323 7.95184C139.428 7.89235 139.329 9.16147 140.203 9.32011V9.30028Z" fill="white"/>
<path d="M171.914 20.9405C173.028 21.4759 174.141 22.0113 175.254 22.5071C176.268 22.9632 177.282 23.5184 178.396 23.6771C179.052 23.7762 179.251 22.9235 178.813 22.5666C177.958 21.8527 176.825 21.4957 175.811 21.0595C174.678 20.5637 173.545 20.1076 172.411 19.6516C171.556 19.3144 171.139 20.5836 171.934 20.9603L171.914 20.9405Z" fill="white"/>
<path d="M23.7781 29.4476C25.4084 30.0822 26.82 30.9745 28.2315 31.9858C29.4045 32.8187 30.3986 34.1076 31.6909 34.7025C32.1879 34.9207 32.5856 34.3456 32.4066 33.9093C31.8698 32.5212 30.1004 31.3711 28.8677 30.6176C27.3965 29.7054 25.7265 29.1105 24.0763 28.6147C23.5395 28.4561 23.2413 29.2295 23.7781 29.4476Z" fill="white"/>
<path d="M25.965 33.7705C26.7205 35 27.3369 36.9632 28.7087 37.677C29.1858 37.9348 29.8618 37.6374 29.7425 37.0227C29.4642 35.4759 27.814 34.3059 26.8398 33.1955C26.4621 32.7592 25.6469 33.2351 25.965 33.7507V33.7705Z" fill="white"/>
<path d="M42.4467 129.45C47.1785 127.011 52.1687 121.399 52.9242 115.986C53.0236 115.331 52.1091 115.054 51.7512 115.55C50.2402 117.691 49.1666 120.11 47.5761 122.212C45.8465 124.473 43.7191 126.278 41.6316 128.201C41.0352 128.756 41.6515 129.847 42.4269 129.45H42.4467Z" fill="white"/>
<path d="M74.8732 63.0198C75.4896 61.4731 76.4041 60.0057 77.5373 58.7762C78.6507 57.5864 80.0026 56.8527 81.2552 55.8612C81.6727 55.5241 81.3347 54.711 80.7979 54.8697C77.4379 55.8414 74.8931 59.4703 73.8195 62.6232C73.5809 63.3173 74.6148 63.694 74.8732 63.0198Z" fill="white"/>
<path d="M78.7302 63.0198C79.2472 62.5241 79.8038 62.068 80.1617 61.4334C80.4003 60.9972 80.0027 60.2833 79.4659 60.6006C78.8297 60.9575 78.3923 61.4929 77.8952 62.0283C77.3386 62.6232 78.1139 63.6147 78.7302 63.0198Z" fill="white"/>
<path d="M78.6507 20.0482C78.9887 18.5411 79.7442 17.1331 80.1418 15.6459C80.2014 15.3881 79.9032 15.2096 79.7243 15.4278C78.6308 16.7167 78.3922 18.4023 78.2332 20.0085C78.2133 20.2861 78.591 20.3059 78.6507 20.0482Z" fill="white"/>
<path d="M81.7721 19.8895C82.4282 18.0652 83.5813 16.1416 83.6409 14.1586C83.6409 13.9207 83.3228 13.762 83.1837 13.9802C82.0703 15.6261 81.8516 17.847 81.3347 19.711C81.2552 20.0085 81.6727 20.1671 81.792 19.8697L81.7721 19.8895Z" fill="white"/>
<path d="M84.7543 20.5836C86.2454 18.3428 87.6968 15.983 88.9692 13.6232C89.2078 13.187 88.6113 12.7507 88.333 13.187C86.8419 15.4278 85.47 17.8272 84.1976 20.2068C83.9988 20.5836 84.5157 20.9802 84.7543 20.6034V20.5836Z" fill="white"/>
<path d="M89.7446 19.0963C91.3748 16.7762 92.9057 14.3569 94.3769 11.9377C94.6155 11.5411 94.0389 11.1246 93.7805 11.5212C92.2297 13.9008 90.6989 16.3201 89.3271 18.7989C89.168 19.0765 89.5656 19.3739 89.7446 19.0963Z" fill="white"/>
<path d="M95.3511 15.5269C96.4445 14.2974 97.4784 13.0085 98.5122 11.7394C98.8104 11.3626 98.1941 10.9462 97.8959 11.3229C96.8621 12.6119 95.8282 13.881 94.8739 15.2096C94.6552 15.5071 95.1125 15.8045 95.3511 15.5269Z" fill="white"/>
<path d="M100.003 14.4957C100.938 13.1076 102.071 11.6997 102.628 10.1331C102.707 9.91501 102.409 9.67705 102.23 9.85552C101.077 11.085 100.341 12.711 99.5262 14.1785C99.3473 14.4957 99.7847 14.813 99.9835 14.4957H100.003Z" fill="white"/>
<path d="M104.835 13.6034C105.988 11.9773 107.3 10.3909 108.254 8.66572C108.473 8.26912 107.956 7.87252 107.658 8.24929C106.405 9.79603 105.411 11.5807 104.318 13.2465C104.099 13.5836 104.596 13.9207 104.835 13.6034Z" fill="white"/>
<path d="M109.845 13.5042C111.037 11.898 112.191 10.2521 113.264 8.56657C113.543 8.15014 112.906 7.69405 112.628 8.11048C111.495 9.75637 110.421 11.4618 109.387 13.187C109.208 13.4844 109.626 13.8017 109.845 13.5042Z" fill="white"/>
<path d="M114.02 12.7705C115.352 11.5411 116.883 10.3513 118.016 8.92351C118.254 8.62606 117.817 8.28895 117.539 8.48725C116.107 9.53824 114.855 11.0057 113.602 12.255C113.304 12.5524 113.722 13.0482 114.02 12.7507V12.7705Z" fill="white"/>
<path d="M118.215 12.6317C119.388 11.4221 120.62 10.272 121.694 8.983C122.012 8.62606 121.416 8.07082 121.078 8.40793C119.885 9.5779 118.811 10.8867 117.678 12.136C117.4 12.4334 117.936 12.9292 118.215 12.6317Z" fill="white"/>
<path d="M121.773 12.4334C122.827 10.8272 124.219 9.91501 125.77 8.86402C126.147 8.60623 125.73 8.13031 125.372 8.24929C123.603 8.86402 122.131 10.4703 121.177 12.017C120.938 12.4136 121.515 12.8102 121.773 12.4334Z" fill="white"/>
<path d="M125.392 12.949C125.71 12.0567 126.207 11.2833 126.943 10.6686C127.638 10.0737 128.454 9.85552 129.189 9.39943C129.408 9.26062 129.408 8.84419 129.09 8.82436C127.062 8.72521 125.292 10.9858 124.716 12.6912C124.577 13.1275 125.233 13.3853 125.392 12.949Z" fill="white"/>
<path d="M127.877 11.6204C128.811 11.1246 129.806 10.6686 130.641 10.0142C130.879 9.81586 130.641 9.49858 130.362 9.59773C129.388 9.93484 128.493 10.5297 127.579 11.0057C127.201 11.204 127.479 11.8187 127.877 11.6204Z" fill="white"/>
<path d="M21.5514 98.2181C22.3665 102.224 22.1478 105.853 21.949 109.878C21.9291 110.433 22.7244 110.652 22.9232 110.096C24.1757 106.348 23.7383 101.768 22.6051 98.0397C22.4063 97.4051 21.4321 97.5439 21.5713 98.2181H21.5514Z" fill="white"/>
<path d="M25.3289 100.122C25.6669 101.609 25.9254 103.116 26.0447 104.643C26.1639 106.15 25.9452 107.697 26.1639 109.204C26.2435 109.739 27.0785 109.839 27.2574 109.303C28.1322 106.428 27.3171 102.739 26.5218 99.9235C26.323 99.1898 25.15 99.3683 25.3289 100.142V100.122Z" fill="white"/>
<path d="M28.8876 102.819C29.1262 104.207 29.1659 105.833 29.7823 107.122C30.0208 107.618 30.8757 107.518 30.8956 106.924C30.9354 105.496 30.3191 103.989 29.9811 102.62C29.8021 101.946 28.7683 102.105 28.8876 102.819Z" fill="white"/>
<path d="M31.7903 103.533C32.0488 104.266 32.2476 105.04 32.685 105.694C33.0031 106.17 33.679 105.734 33.6194 105.258C33.52 104.484 33.1423 103.751 32.844 103.037C32.5657 102.323 31.512 102.839 31.7704 103.552L31.7903 103.533Z" fill="white"/>
<path d="M85.5297 153.465C83.3825 153.722 81.5535 152.909 79.7045 151.938C79.4659 151.799 79.108 152.096 79.3466 152.334C80.9769 154 83.4024 154.297 85.6093 153.921C85.8876 153.881 85.8081 153.445 85.5297 153.484V153.465Z" fill="white"/>
<path d="M83.8397 150.153C82.9451 150.054 82.0902 149.875 81.275 149.518C80.44 149.161 79.7839 148.606 79.0284 148.13C78.6905 147.912 78.273 148.348 78.5314 148.666C79.7243 150.093 81.951 150.847 83.7801 150.867C84.2374 150.867 84.3169 150.212 83.8397 150.153Z" fill="white"/>
<path d="M82.6469 146.881C81.5137 146.663 80.4202 146.266 79.4659 145.612C78.5514 144.997 77.9748 144.125 77.1795 143.391C76.941 143.173 76.603 143.391 76.7024 143.708C77.438 145.949 80.4003 147.337 82.5873 147.535C83.0247 147.575 83.0644 146.96 82.6469 146.881Z" fill="white"/>
<path d="M80.9768 143.034C80.102 142.677 79.2471 142.221 78.4917 141.626C77.7362 141.031 77.2192 140.238 76.5234 139.584C76.3246 139.405 75.8673 139.504 75.9667 139.841C76.5632 141.824 78.9092 143.232 80.8178 143.649C81.1756 143.728 81.2751 143.173 80.9569 143.034H80.9768Z" fill="white"/>
<path d="M79.7442 138.87C78.4917 137.977 77.1398 136.847 75.6884 136.292C75.4101 136.193 75.1119 136.569 75.3306 136.788C76.424 137.878 77.9947 138.652 79.3267 139.425C79.7045 139.643 80.1021 139.127 79.7244 138.85L79.7442 138.87Z" fill="white"/>
<path d="M74.078 147.198C71.6922 145.076 69.2667 142.816 66.6623 140.952C66.4237 140.773 66.0658 141.13 66.3044 141.348C68.6106 143.609 71.2549 145.632 73.7798 147.635C74.0581 147.853 74.3365 147.416 74.078 147.198Z" fill="white"/>
<path d="M74.8136 151.045C73.919 150.133 72.9448 149.102 71.8513 148.428C71.5928 148.269 71.2747 148.586 71.4736 148.824C72.2688 149.836 73.3822 150.688 74.3961 151.482C74.6745 151.7 75.0522 151.283 74.8136 151.026V151.045Z" fill="white"/>
<path d="M70.1415 146.405C67.5172 143.569 64.535 140.754 61.1552 138.85C60.8172 138.671 60.4991 139.108 60.8172 139.346C63.9584 141.686 66.9804 143.926 69.7042 146.782C69.9626 147.059 70.4199 146.683 70.1614 146.405H70.1415Z" fill="white"/>
<path d="M74.4359 154.873C72.5472 152.909 70.6386 150.867 68.5709 149.102C68.2727 148.844 67.8353 149.32 68.0938 149.618C69.903 151.62 71.9706 153.445 73.9588 155.269C74.2371 155.527 74.6944 155.17 74.4161 154.873H74.4359Z" fill="white"/>
<path d="M67.2786 148.249C64.8133 144.938 61.5726 141.329 57.815 139.484C57.5168 139.346 57.3578 139.782 57.5765 139.96C59.2067 141.329 60.9961 142.459 62.5866 143.907C64.1572 145.354 65.5887 146.921 66.9008 148.606C67.0996 148.884 67.4973 148.527 67.2985 148.269L67.2786 148.249Z" fill="white"/>
<path d="M69.2667 154.119C67.3979 152.116 65.5887 150.054 63.5409 148.229C63.3421 148.051 63.0637 148.368 63.2228 148.567C64.9525 150.649 66.9605 152.513 68.8691 154.436C69.1077 154.674 69.4854 154.357 69.2667 154.099V154.119Z" fill="white"/>
<path d="M61.3938 146.108C59.9424 143.966 57.9742 141.884 55.5685 140.773C55.2902 140.654 55.1112 141.051 55.3299 141.229C57.4572 142.776 59.4056 144.303 60.9365 146.484C61.1552 146.802 61.5926 146.405 61.3739 146.108H61.3938Z" fill="white"/>
<path d="M64.356 153.147C60.6183 148.646 56.9999 144.025 53.123 139.663C52.8447 139.365 52.3874 139.742 52.6459 140.079C56.2643 144.66 60.2008 149.023 63.9783 153.465C64.1771 153.703 64.5548 153.385 64.356 153.147Z" fill="white"/>
<path d="M55.8866 146.881C54.654 145.414 53.481 143.788 52.0694 142.479C51.8109 142.241 51.453 142.538 51.6519 142.836C52.7255 144.422 54.1569 145.83 55.4293 147.258C55.6878 147.535 56.1252 147.178 55.8866 146.881Z" fill="white"/>
<path d="M155.313 148.388C152.769 145.374 149.806 142.221 146.387 140.198C145.989 139.96 145.631 140.476 145.969 140.773C149.011 143.391 152.132 145.771 154.856 148.765C155.115 149.042 155.552 148.666 155.313 148.388Z" fill="white"/>
<path d="M153.186 148.844C152.291 148.071 151.377 147.238 150.323 146.703C150.065 146.584 149.846 146.941 150.025 147.139C150.8 148.031 151.854 148.705 152.828 149.38C153.166 149.618 153.504 149.122 153.186 148.864V148.844Z" fill="white"/>
<path d="M148.613 145.255C146.426 143.629 144.299 141.844 141.973 140.397C141.615 140.178 141.277 140.654 141.595 140.932C143.723 142.657 146.088 144.105 148.335 145.652C148.593 145.83 148.852 145.453 148.613 145.275V145.255Z" fill="white"/>
<path d="M149.687 148.705C146.546 146.385 143.225 144.045 139.826 142.102C139.448 141.884 139.09 142.38 139.428 142.657C142.53 145.037 145.969 147.178 149.329 149.181C149.647 149.38 149.985 148.924 149.667 148.705H149.687Z" fill="white"/>
<path d="M146.546 149.816C144.041 147.278 140.939 144.501 137.539 143.292C137.241 143.193 137.022 143.589 137.281 143.788C138.692 144.799 140.263 145.552 141.675 146.564C143.225 147.674 144.697 148.884 146.088 150.212C146.367 150.47 146.824 150.113 146.546 149.816Z" fill="white"/>
<path d="M141.595 149.34C139.488 147.436 136.943 145.076 134.219 144.065C133.901 143.946 133.702 144.363 133.961 144.581C135.094 145.533 136.486 146.227 137.698 147.099C138.931 147.972 140.104 148.884 141.237 149.875C141.555 150.133 141.893 149.637 141.595 149.36V149.34Z" fill="white"/>
<path d="M134.398 146.921C134.001 146.564 133.623 146.187 133.205 145.85C133.006 145.691 132.728 145.989 132.907 146.167C133.265 146.544 133.643 146.881 134.02 147.238C134.239 147.456 134.617 147.139 134.398 146.921Z" fill="white"/>
<path d="M46.423 122.569C45.8464 121.122 45.2898 119.654 44.574 118.266C44.415 117.949 43.9577 118.167 44.077 118.504C44.6138 119.952 45.3096 121.38 45.9856 122.768C46.1248 123.045 46.5224 122.847 46.423 122.569Z" fill="white"/>
<path d="M44.6734 126C43.739 123.482 42.8841 120.824 41.6713 118.445C41.552 118.207 41.1146 118.306 41.1942 118.603C41.9497 121.201 43.1425 123.739 44.2161 126.238C44.3553 126.555 44.7927 126.317 44.6933 126.02L44.6734 126Z" fill="white"/>
<path d="M42.1684 128.3C41.3532 125.762 40.6375 123.125 39.5639 120.686C39.4446 120.428 39.0072 120.567 39.0867 120.844C39.7229 123.422 40.7767 125.96 41.6912 128.459C41.7906 128.737 42.2678 128.578 42.1684 128.3Z" fill="white"/>
<path d="M39.2857 129.51C39.0073 126.416 38.8682 123.244 38.2916 120.21C38.2518 119.952 37.7946 119.932 37.7946 120.229C37.8741 123.363 38.391 126.496 38.7687 129.609C38.8085 129.946 39.3055 129.847 39.2857 129.53V129.51Z" fill="white"/>
<path d="M36.5817 126.932C36.5419 123.977 36.7209 121.102 36.8998 118.167C36.9197 117.83 36.4624 117.81 36.4028 118.127C35.7666 120.963 35.7069 124.076 36.025 126.952C36.0648 127.249 36.5817 127.249 36.5817 126.932Z" fill="white"/>
<path d="M33.858 123.72C34.3749 121.598 34.9316 119.278 34.9714 117.096C34.9714 116.799 34.534 116.66 34.4346 116.977C33.7785 119.059 33.5797 121.459 33.4007 123.62C33.3809 123.878 33.7785 123.977 33.858 123.72Z" fill="white"/>
<path d="M31.7704 121.062C32.6651 118.98 33.5001 116.64 33.9176 114.399C33.9773 114.102 33.5399 114.042 33.4206 114.28C32.4464 116.343 31.7704 118.722 31.2734 120.924C31.2138 121.221 31.671 121.3 31.7903 121.042L31.7704 121.062Z" fill="white"/>
<path d="M30.1799 118.445C30.9155 116.462 31.8499 114.38 32.2078 112.278C32.2675 111.921 31.7704 111.881 31.6511 112.159C30.7167 114.023 30.2396 116.244 29.6431 118.246C29.5437 118.603 30.0606 118.802 30.1799 118.445Z" fill="white"/>
<path d="M29.0269 115.827C29.7028 114.776 30.1005 113.626 30.0607 112.377C30.0607 112.059 29.5835 112 29.5637 112.337C29.4841 113.487 29.1859 114.538 28.5696 115.51C28.3708 115.827 28.8479 116.144 29.0467 115.847L29.0269 115.827Z" fill="white"/>
<path d="M25.8458 39.9575C24.0565 43.2691 22.1081 46.5609 20.5574 49.9915C20.4381 50.2493 20.8556 50.4872 21.0147 50.2295C22.9829 47.017 24.5933 43.5467 26.323 40.1955C26.4622 39.9377 26.0049 39.6799 25.8458 39.9575Z" fill="white"/>
<path d="M23.6389 38.4108C21.8894 41.187 20.0801 43.9632 18.5493 46.8584C18.3902 47.1756 18.8077 47.4929 19.0066 47.1756C20.8555 44.4788 22.4858 41.5637 24.1161 38.728C24.295 38.4108 23.8377 38.0737 23.6389 38.3909V38.4108Z" fill="white"/>
<path d="M22.3864 35.6742C20.5971 38.4306 18.7282 41.2465 17.2371 44.1615C17.1178 44.4193 17.5155 44.5977 17.6546 44.3796C19.5632 41.7422 21.1935 38.7875 22.8437 35.9717C23.0226 35.6742 22.5852 35.3569 22.3864 35.6544V35.6742Z" fill="white"/>
<path d="M20.8357 33.5722C18.7481 35.5751 16.8793 38.153 16.084 40.9688C15.9846 41.2861 16.422 41.4448 16.5612 41.1473C17.8733 38.5297 19.1656 36.1501 21.1736 33.9887C21.4122 33.7309 21.0742 33.3343 20.8158 33.5722H20.8357Z" fill="white"/>
<path d="M19.0265 31.8669C17.3366 33.3144 15.766 35.5156 15.4678 37.7762C15.428 38.0935 15.8853 38.1728 16.0046 37.8952C16.4618 36.8839 16.7799 35.8527 17.3565 34.881C17.9331 33.9292 18.6289 33.0765 19.3844 32.2635C19.623 32.0057 19.3049 31.6091 19.0265 31.847V31.8669Z" fill="white"/>
<path d="M17.8734 29.7649C16.3624 31.3909 14.9111 33.4136 14.3146 35.5949C14.2351 35.8924 14.6327 36.051 14.7719 35.7535C15.7858 33.711 16.76 31.8272 18.271 30.102C18.4698 29.8839 18.0921 29.5467 17.8933 29.745L17.8734 29.7649Z" fill="white"/>
<path d="M15.6268 28.932C14.7719 30.5977 13.8375 32.2635 13.1814 34.0085C13.082 34.2861 13.4796 34.5043 13.6387 34.2465C14.6129 32.6204 15.3683 30.8357 16.1636 29.1303C16.3227 28.7932 15.7859 28.6147 15.6268 28.932Z" fill="white"/>
<path d="M14.6128 28.3173C13.6585 29.2889 13.0223 30.4589 12.9825 31.8272C12.9825 32.1445 13.4199 32.1841 13.4796 31.8669C13.6784 30.6572 14.1357 29.6261 14.9906 28.7337C15.249 28.4759 14.8713 28.0198 14.6128 28.2974V28.3173Z" fill="white"/>
<path d="M45.8664 94.153C45.2103 93.0028 44.4747 91.8527 43.6794 90.8017C43.5204 90.5836 43.1426 90.8215 43.2818 91.0595C43.9379 92.2096 44.7133 93.3399 45.4886 94.3909C45.6278 94.5892 45.9857 94.3711 45.8664 94.153Z" fill="white"/>
<path d="M45.2302 98.1388C43.8385 95.898 42.407 93.6176 40.7768 91.5354C40.6177 91.3371 40.2598 91.5354 40.3791 91.7932C41.6913 94.0737 43.2619 96.255 44.8127 98.3966C44.9717 98.6147 45.3495 98.3768 45.2103 98.1388H45.2302Z" fill="white"/>
<path d="M43.4607 101.966C43.3613 100.895 42.9636 99.7847 42.0889 99.1303C41.8304 98.932 41.5918 99.2889 41.731 99.5071C42.2678 100.34 42.7449 101.054 42.8841 102.065C42.9438 102.442 43.4806 102.323 43.4607 101.966Z" fill="white"/>
<path d="M40.9954 97.0878C40.061 95.66 39.2061 94.0142 38.053 92.745C37.8542 92.5269 37.4963 92.745 37.6355 93.0226C38.391 94.5496 39.564 95.9773 40.5381 97.3853C40.7171 97.643 41.1743 97.3456 40.9954 97.0878Z" fill="white"/>
<path d="M40.2001 101.431C39.6633 99.983 39.047 98.4958 38.2518 97.1671C38.1126 96.9292 37.6553 97.0283 37.7547 97.3258C38.212 98.8329 38.9079 100.3 39.6236 101.688C39.8224 102.065 40.3393 101.788 40.2001 101.411V101.431Z" fill="white"/>
<path d="M37.9734 102.779C38.1921 101.629 37.715 100.3 36.5817 99.8045C36.3432 99.7054 36.0648 100.062 36.2636 100.241C37.0191 100.935 37.4963 101.649 37.3372 102.7C37.2776 103.096 37.8939 103.156 37.9734 102.759V102.779Z" fill="white"/>
<path d="M12.6247 107.776C10.3582 107.36 8.60868 106.368 6.64042 105.258C6.40185 105.119 6.0241 105.436 6.28256 105.654C7.9526 107.241 10.3582 107.994 12.6048 108.252C12.9229 108.292 12.9428 107.836 12.6446 107.776H12.6247Z" fill="white"/>
<path d="M12.565 105.119C10.3781 104.286 8.15137 103.195 5.86501 102.68C5.54691 102.601 5.40774 102.997 5.68608 103.136C7.77362 104.207 10.1793 104.802 12.3861 105.595C12.6843 105.694 12.8633 105.238 12.565 105.139V105.119Z" fill="white"/>
<path d="M10.2786 101.847C8.98634 101.49 7.67417 101.074 6.34211 100.856C6.06377 100.816 5.96437 101.252 6.22283 101.351C7.49523 101.788 8.84717 102.025 10.1593 102.323C10.4377 102.382 10.5371 101.926 10.2587 101.847H10.2786Z" fill="white"/>
<path d="M8.42965 81.5807C6.44151 81.1643 4.39373 80.7479 2.36583 80.6487C2.10737 80.6487 1.9682 81.0453 2.26642 81.1246C4.25456 81.6799 6.3421 81.9178 8.38989 82.1558C8.76763 82.1955 8.78751 81.6601 8.44953 81.5807H8.42965Z" fill="white"/>
<path d="M9.06592 84.3569C6.87896 84.1586 4.5926 83.7819 2.40565 83.9009C2.06767 83.9009 2.14719 84.3966 2.42553 84.4363C4.55284 84.8527 6.85908 84.813 9.00627 84.932C9.38402 84.9518 9.42378 84.3966 9.06592 84.3569Z" fill="white"/>
<path d="M8.62847 88.2436C7.03795 87.8867 5.30827 87.3116 3.65812 87.2521C3.3599 87.2521 3.24061 87.6685 3.53883 87.7677C5.08958 88.3626 6.93855 88.5014 8.56882 88.779C8.92669 88.8385 8.96645 88.3031 8.62847 88.2238V88.2436Z" fill="white"/>
<path d="M8.76765 91.4164C7.67417 91.4363 6.46141 91.3173 5.4077 91.5751C5.12936 91.6346 5.14924 92.0312 5.42758 92.0708C6.50117 92.2493 7.71394 92.051 8.78753 91.9915C9.10563 91.9915 9.08575 91.4164 8.76765 91.4164Z" fill="white"/>
<path d="M8.31045 94.1728C7.37603 94.1926 6.42172 94.1728 5.4873 94.272C5.14931 94.3116 5.16919 94.847 5.50718 94.8669C6.4416 94.8867 7.39591 94.8074 8.33033 94.7677C8.66832 94.7677 8.64844 94.1728 8.31045 94.1728Z" fill="white"/>
<path d="M7.87297 96.9093C7.29641 96.9093 6.71985 96.9093 6.14329 97.0085C5.84507 97.068 5.86496 97.4844 6.16318 97.5241C6.73974 97.5836 7.3163 97.5241 7.89286 97.5241C8.23084 97.5042 8.21096 96.9093 7.87297 96.9093Z" fill="white"/>
<path d="M193.148 39.1841C191.497 38.6289 189.788 38.1331 188.078 37.7564C187.819 37.6969 187.74 38.1133 187.978 38.2125C189.589 38.8074 191.299 39.2833 192.969 39.6997C193.307 39.779 193.505 39.3031 193.148 39.1841Z" fill="white"/>
<path d="M195.553 43.4476C192.81 41.9207 189.728 40.6119 186.567 40.2748C186.269 40.2351 186.169 40.6912 186.448 40.7904C189.509 41.7025 192.412 42.5156 195.275 43.9632C195.553 44.102 195.812 43.6261 195.533 43.4674L195.553 43.4476Z" fill="white"/>
<path d="M198.038 49.2776C195.195 47.2946 191.875 45.6091 188.396 45.153C188.098 45.1133 187.978 45.5892 188.277 45.6884C191.637 46.7394 194.718 47.8102 197.7 49.7734C198.019 49.9915 198.356 49.4958 198.038 49.2776Z" fill="white"/>
<path d="M199.351 52.9065C196.01 50.9632 192.69 48.8414 189.151 47.2748C188.853 47.136 188.635 47.5921 188.893 47.7705C192.034 49.9518 195.573 51.677 198.933 53.5014C199.331 53.7195 199.748 53.1445 199.351 52.9263V52.9065Z" fill="white"/>
<path d="M200.504 57.983C197.184 55.8414 193.903 53.4618 190.384 51.6374C190.066 51.4788 189.847 51.9745 190.106 52.153C193.247 54.4929 196.826 56.3768 200.186 58.4193C200.484 58.5977 200.782 58.1813 200.484 57.983H200.504Z" fill="white"/>
<path d="M201.716 63.0595C198.516 59.8867 194.4 56.932 189.927 55.9405C189.589 55.8612 189.529 56.3569 189.808 56.4759C194.003 58.4391 197.8 60.2436 201.2 63.4957C201.518 63.7932 202.054 63.3569 201.736 63.0397L201.716 63.0595Z" fill="white"/>
<path d="M200.782 67.3626C197.82 65.2011 194.678 62.9008 191.279 61.4731C190.981 61.3541 190.762 61.7904 191.02 61.949C194.082 64.0113 197.382 65.7167 200.424 67.8385C200.742 68.0567 201.08 67.5807 200.762 67.3428L200.782 67.3626Z" fill="white"/>
<path d="M201.677 73.153C198.516 70.8923 195.414 68.3938 192.034 66.4703C191.716 66.2918 191.418 66.7082 191.696 66.9462C194.659 69.4448 198.098 71.5071 201.299 73.6884C201.657 73.9263 202.015 73.3909 201.677 73.153Z" fill="white"/>
<path d="M201.319 77.5156C198.893 75.7705 196.508 73.8867 193.963 72.3598C193.665 72.1813 193.386 72.5779 193.645 72.796C195.951 74.6997 198.516 76.3258 200.941 78.051C201.279 78.2889 201.657 77.7734 201.319 77.5156Z" fill="white"/>
<path d="M202.074 83.5439C198.973 81.0057 195.792 78.4278 192.332 76.4051C192.034 76.2266 191.756 76.6232 192.034 76.8414C195.235 79.2804 198.595 81.5212 201.756 84.0198C202.054 84.2578 202.373 83.7819 202.094 83.5439H202.074Z" fill="white"/>
<path d="M199.708 85.5269C196.905 83.2266 194.082 80.7875 190.98 78.9037C190.682 78.7252 190.404 79.1218 190.662 79.3399C193.466 81.6799 196.508 83.7224 199.37 85.983C199.649 86.2011 199.967 85.745 199.689 85.5269H199.708Z" fill="white"/>
<path d="M200.504 92.1501C197.263 89.017 193.545 85.7054 189.37 83.881C189.052 83.7422 188.814 84.2181 189.092 84.4164C192.81 87.1133 196.627 89.3938 200.007 92.5666C200.305 92.8442 200.802 92.4476 200.504 92.1501Z" fill="white"/>
<path d="M201.359 95.7989C200.524 94.5892 199.211 93.796 197.76 93.6176C197.442 93.5779 197.343 94.034 197.641 94.153C198.854 94.6686 199.867 95.3229 200.802 96.2748C201.14 96.6119 201.637 96.1955 201.359 95.7989Z" fill="white"/>
<path d="M196.826 92.6855C194.321 90.3654 191.1 88.2238 187.72 87.4504C187.362 87.3711 187.183 87.8272 187.521 87.9858C190.702 89.5127 193.625 90.9405 196.388 93.1615C196.667 93.3796 197.084 92.9433 196.826 92.6855Z" fill="white"/>
<path d="M200.345 100.161C196.11 97.1671 191.915 93.8555 187.422 91.2776C187.104 91.0991 186.825 91.4957 187.104 91.7337C191.12 95.0255 195.692 97.7819 199.987 100.657C200.325 100.875 200.663 100.38 200.345 100.142V100.161Z" fill="white"/>
<path d="M198.277 104.048C194.519 101.47 190.762 98.8329 186.885 96.4136C186.607 96.2351 186.328 96.6317 186.587 96.83C190.285 99.5071 194.122 102.006 197.919 104.524C198.237 104.742 198.575 104.266 198.257 104.048H198.277Z" fill="white"/>
<path d="M196.826 109.601C193.446 106.646 189.688 103.473 185.573 101.609C185.235 101.45 185.016 101.946 185.294 102.144C188.992 104.861 192.949 107.122 196.507 110.076C196.806 110.314 197.124 109.839 196.845 109.601H196.826Z" fill="white"/>
<path d="M198.575 115.669C193.784 111.921 189.092 107.935 184.022 104.524C183.704 104.306 183.426 104.762 183.684 105C188.277 109.006 193.366 112.476 198.237 116.144C198.535 116.363 198.854 115.907 198.575 115.669Z" fill="white"/>
<path d="M195.454 119.575C191.199 116.006 187.064 112.178 182.551 108.966C182.292 108.788 181.934 109.164 182.173 109.382C186.229 113.21 190.802 116.541 195.136 120.051C195.414 120.289 195.732 119.813 195.454 119.595V119.575Z" fill="white"/>
<path d="M193.466 124.632C190.305 121.518 186.865 117.989 182.988 115.807C182.71 115.649 182.312 116.006 182.591 116.244C185.891 119.337 189.708 121.895 193.028 125.009C193.307 125.266 193.744 124.89 193.466 124.632Z" fill="white"/>
<path d="M192.412 129.728C188.913 126 185.056 122.173 180.742 119.416C180.404 119.198 180.086 119.674 180.384 119.912C184.34 123.263 188.356 126.357 191.975 130.105C192.233 130.382 192.67 130.006 192.412 129.728Z" fill="white"/>
<path d="M191.617 135.677C187.939 131.79 183.903 127.686 179.33 124.85C179.012 124.652 178.714 125.088 178.992 125.326C183.048 128.935 187.322 132.167 191.14 136.074C191.418 136.351 191.875 135.974 191.617 135.677Z" fill="white"/>
<path d="M188.853 139.167C185.911 135.737 182.451 131.969 178.515 129.669C178.256 129.53 177.879 129.847 178.137 130.085C181.597 133.258 185.255 136.014 188.376 139.564C188.635 139.861 189.112 139.465 188.853 139.167Z" fill="white"/>
<path d="M186.865 142.974C184.599 139.703 181.318 136.034 177.541 134.448C177.223 134.309 177.024 134.765 177.282 134.963C178.992 136.312 180.841 137.382 182.451 138.87C183.923 140.238 185.215 141.745 186.388 143.371C186.627 143.688 187.084 143.292 186.865 142.974Z" fill="white"/>
<path d="M185.473 145.671C182.869 143.034 180.344 139.98 177.421 137.7C177.143 137.482 176.825 137.878 177.024 138.136C179.31 141.031 182.352 143.51 184.996 146.068C185.275 146.346 185.772 145.949 185.473 145.652V145.671Z" fill="white"/>
<path d="M183.942 147.992C182.769 146.068 180.523 144.065 178.117 144.006C177.819 144.006 177.68 144.422 177.998 144.541C179.032 144.918 180.026 145.136 180.98 145.771C181.954 146.405 182.77 147.278 183.366 148.269C183.585 148.606 184.141 148.348 183.942 147.992Z" fill="white"/>
<path d="M181.716 149.578C180.423 148.547 179.151 147.357 177.74 146.465C177.481 146.306 177.123 146.643 177.362 146.881C178.555 148.071 180.026 149.062 181.338 150.113C181.676 150.371 182.054 149.836 181.716 149.578Z" fill="white"/>
<path d="M107.658 132.96C106.803 131.85 105.868 130.561 104.715 129.748C104.497 129.589 104.139 129.847 104.298 130.105C105.013 131.314 106.186 132.385 107.2 133.337C107.479 133.595 107.896 133.258 107.658 132.96Z" fill="white"/>
<path d="M107.658 136.371C106.027 134.725 104.417 132.881 102.548 131.513C102.29 131.314 101.972 131.671 102.17 131.929C103.622 133.734 105.55 135.261 107.26 136.807C107.519 137.045 107.916 136.609 107.658 136.371Z" fill="white"/>
<path d="M107.379 141.765C105.53 139.822 103.761 137.541 101.634 135.875C101.375 135.677 101.077 136.034 101.256 136.292C102.826 138.433 105.013 140.278 106.882 142.181C107.161 142.479 107.658 142.062 107.359 141.765H107.379Z" fill="white"/>
<path d="M106.326 146.266C104.159 143.133 101.614 139.782 98.4924 137.541C98.2339 137.363 97.9158 137.7 98.1345 137.938C100.739 140.873 103.542 143.47 105.888 146.643C106.107 146.96 106.544 146.564 106.346 146.266H106.326Z" fill="white"/>
<path d="M104.417 150.629C102.091 147.575 99.5461 144.303 96.4843 141.983C96.206 141.785 95.868 142.161 96.0867 142.419C98.6514 145.354 101.494 147.991 103.94 151.045C104.198 151.363 104.656 150.966 104.417 150.629Z" fill="white"/>
<path d="M101.276 153.425C99.1881 150.966 97.2 148.17 94.7944 146.028C94.516 145.79 94.2178 146.207 94.3967 146.465C96.1662 149.122 98.6712 151.442 100.799 153.822C101.077 154.119 101.534 153.722 101.276 153.405V153.425Z" fill="white"/>
<path d="M99.0092 155.805C97.9953 154.575 96.9813 153.365 95.9873 152.136C95.0727 151.045 94.2377 149.816 93.1442 148.904C92.9255 148.705 92.5478 149.023 92.7068 149.28C93.4226 150.49 94.4962 151.561 95.4107 152.632C96.4445 153.841 97.4784 155.051 98.4923 156.261C98.7707 156.598 99.2876 156.161 99.0092 155.824V155.805Z" fill="white"/>
<path d="M95.7686 157.074C94.9734 155.21 93.3829 152.909 91.3351 152.314C90.9971 152.215 90.8182 152.612 91.0568 152.83C91.8321 153.524 92.7268 154.02 93.4624 154.773C94.1781 155.527 94.7547 156.38 95.212 157.331C95.3909 157.688 95.9476 157.431 95.7885 157.054L95.7686 157.074Z" fill="white"/>
<path d="M92.508 156.399C91.3748 155.686 90.2615 154.892 89.0487 154.297C88.6908 154.119 88.4324 154.674 88.7306 154.892C89.7843 155.666 90.9772 156.28 92.1104 156.955C92.4882 157.173 92.8858 156.637 92.508 156.399Z" fill="white"/>
<path d="M88.5914 155.626C88.1937 155.249 87.816 154.853 87.3587 154.555C87.0605 154.377 86.7623 154.714 86.9611 154.992C87.2792 155.408 87.6569 155.745 88.0546 156.082C88.3926 156.399 88.9492 155.943 88.6113 155.606L88.5914 155.626Z" fill="white"/>
<path d="M161.735 148.051C160.801 148.051 159.866 148.051 158.932 148.17C158.673 148.21 158.693 148.606 158.932 148.606C159.866 148.646 160.801 148.606 161.735 148.547C162.013 148.547 162.013 148.031 161.715 148.031L161.735 148.051Z" fill="white"/>
<path d="M160.999 145.215C159.568 145.632 157.958 145.929 156.626 146.603C156.367 146.722 156.486 147.119 156.785 147.079C158.276 146.881 159.767 146.207 161.178 145.751C161.477 145.652 161.318 145.136 160.999 145.215Z" fill="white"/>
<path d="M160.761 142.399C159.727 142.836 158.673 143.272 157.58 143.569C156.705 143.827 155.79 143.966 154.936 144.263C154.697 144.343 154.777 144.779 155.035 144.779C157.043 144.779 159.27 143.867 161.019 142.915C161.337 142.737 161.119 142.241 160.781 142.399H160.761Z" fill="white"/>
<path d="M162.312 137.72C159.508 139.881 156.606 140.932 153.206 141.785C152.848 141.884 152.928 142.399 153.305 142.36C156.745 142.062 160.065 140.337 162.689 138.176C162.988 137.938 162.61 137.501 162.312 137.739V137.72Z" fill="white"/>
<path d="M162.829 134.963C158.872 136.688 154.757 138.314 150.959 140.377C150.661 140.535 150.86 140.991 151.198 140.853C155.234 139.346 159.17 137.283 163.047 135.439C163.365 135.3 163.127 134.824 162.829 134.963Z" fill="white"/>
<path d="M163.027 130.402C159.27 133.139 155.433 135.261 151.297 137.363C150.979 137.521 151.198 137.957 151.536 137.858C155.81 136.47 160.045 133.793 163.365 130.799C163.604 130.581 163.306 130.204 163.027 130.402Z" fill="white"/>
<path d="M166.288 134.19C165.91 134.011 165.552 133.853 165.175 133.694C164.896 133.595 164.777 133.972 165.015 134.11C165.373 134.309 165.751 134.467 166.129 134.646C166.407 134.765 166.566 134.329 166.288 134.21V134.19Z" fill="white"/>
<path d="M162.908 132.703C161.815 132.187 160.721 131.533 159.548 131.195C159.29 131.116 159.051 131.473 159.309 131.652C160.343 132.326 161.576 132.762 162.709 133.258C163.067 133.416 163.246 132.861 162.908 132.703Z" fill="white"/>
<path d="M166.109 131.414C165.095 131.255 164.141 130.938 163.246 130.442C162.491 130.025 161.894 129.431 161.198 128.935C160.92 128.737 160.642 129.093 160.82 129.351C161.934 130.958 164.2 131.751 166.069 131.989C166.447 132.028 166.507 131.453 166.129 131.394L166.109 131.414Z" fill="white"/>
<path d="M164.976 128.201C163.862 127.884 162.709 127.448 161.556 127.309C161.238 127.269 161.158 127.725 161.437 127.824C162.49 128.28 163.663 128.479 164.777 128.776C165.155 128.875 165.373 128.32 164.996 128.201H164.976Z" fill="white"/>
<path d="M167.023 139.028C166.109 138.691 165.194 138.275 164.24 138.057C163.922 137.977 163.763 138.394 164.061 138.552C164.936 138.989 165.91 139.266 166.825 139.584C167.183 139.703 167.381 139.167 167.023 139.028Z" fill="white"/>
<path d="M161.477 137.006C159.349 135.955 157.123 134.428 154.836 133.833C154.518 133.754 154.26 134.15 154.558 134.368C156.486 135.776 159.111 136.55 161.278 137.541C161.616 137.7 161.795 137.164 161.477 137.006Z" fill="white"/>
<path d="M165.97 141.943C160.82 140.357 156.148 138.096 151.556 135.28C151.198 135.062 150.84 135.578 151.178 135.796C155.592 138.85 160.602 141.011 165.771 142.439C166.109 142.538 166.308 142.023 165.97 141.923V141.943Z" fill="white"/>
<path d="M164.479 145.354C161.079 143.49 157.441 141.567 153.782 140.238C153.504 140.139 153.266 140.555 153.544 140.714C156.864 142.717 160.642 144.363 164.22 145.83C164.499 145.949 164.757 145.493 164.479 145.334V145.354Z" fill="white"/>
<path d="M163.385 147.555C161.437 146.623 159.449 145.433 157.381 144.759C157.103 144.68 156.884 145.057 157.142 145.215C158.991 146.385 161.198 147.178 163.186 148.091C163.524 148.249 163.723 147.694 163.385 147.535V147.555Z" fill="white"/>
<path d="M161.795 149.697C161.059 149.538 160.323 149.3 159.588 149.28C159.27 149.28 159.17 149.697 159.469 149.816C160.184 150.113 160.98 150.212 161.735 150.371C162.172 150.47 162.232 149.776 161.795 149.697Z" fill="white"/>
<path d="M175.016 150.331C171.258 150.411 167.739 149.836 164.101 148.963C163.644 148.844 163.365 149.518 163.842 149.677C167.441 150.867 171.278 151.164 175.056 150.946C175.394 150.926 175.374 150.331 175.036 150.331H175.016Z" fill="white"/>
<path d="M107.479 65.3994C108.851 61.6714 109.169 57.6261 108.87 53.6997C108.831 53.204 108.075 53.3428 108.115 53.8385C108.393 57.7649 107.856 61.3938 106.962 65.221C106.882 65.5581 107.359 65.7564 107.479 65.4193V65.3994Z" fill="white"/>
<path d="M109.566 64.4278C109.069 65.3598 108.672 66.3314 108.294 67.3031C107.896 68.2748 107.399 69.2266 107.24 70.2578C107.2 70.5751 107.638 70.7139 107.817 70.4759C108.373 69.6827 108.652 68.711 109.01 67.7989C109.407 66.7875 109.845 65.7762 110.123 64.7252C110.203 64.4079 109.745 64.0907 109.566 64.4278Z" fill="white"/>
<path d="M108.89 72.7365C108.354 73.4703 107.797 74.204 107.34 74.9972C107.161 75.3144 107.558 75.5921 107.797 75.3144C108.393 74.6204 108.89 73.847 109.407 73.0935C109.646 72.7564 109.129 72.3796 108.89 72.7167V72.7365Z" fill="white"/>
<path d="M97.0212 49.119C96.5043 48.068 95.709 47.2946 94.6354 46.7989C94.2577 46.6204 94.039 47.2351 94.4167 47.4136C95.3114 47.8499 96.0072 48.5042 96.5043 49.3768C96.6832 49.694 97.2001 49.4759 97.0212 49.1388V49.119Z" fill="white"/>
<path d="M97.9357 46.8187C97.379 46.4023 96.8422 45.9858 96.1861 45.728C95.9078 45.6289 95.5897 46.0057 95.8283 46.2238C96.3452 46.7195 96.9217 47.017 97.5381 47.3541C97.9158 47.5524 98.2737 47.0765 97.9158 46.8187H97.9357Z" fill="white"/>
<path d="M94.9137 52.4901C93.9793 50.17 91.7526 47.4731 89.2276 46.8385C88.9493 46.7592 88.7107 47.136 88.9692 47.3144C90.0626 48.068 91.176 48.6034 92.1502 49.5552C93.0846 50.4674 93.8003 51.5779 94.3769 52.7479C94.5558 53.085 95.0529 52.847 94.9137 52.4901Z" fill="white"/>
<path d="M96.3849 58.9348C95.5897 57.7054 94.8541 56.2974 93.8799 55.2068C93.6612 54.9688 93.2834 55.2068 93.4226 55.5042C94.0389 56.8329 95.0529 58.0623 95.868 59.2719C96.0668 59.5694 96.5837 59.2323 96.3849 58.9348Z" fill="white"/>
<path d="M91.7526 52.966C90.0428 51.1813 88.3926 49.2578 86.5436 47.6317C86.2653 47.3739 85.8677 47.83 86.1062 48.1076C87.6769 49.9717 89.5457 51.6374 91.2754 53.3626C91.5537 53.6402 92.0309 53.2436 91.7526 52.966Z" fill="white"/>
<path d="M94.2576 61.1955C91.5935 56.9518 88.2535 53.1246 84.4959 49.7932C84.1579 49.4957 83.6211 50.0708 83.9591 50.3881C87.6371 53.779 90.838 57.4674 93.7805 61.5127C93.9594 61.7705 94.4167 61.4731 94.2576 61.2153V61.1955Z" fill="white"/>
<path d="M93.2237 65.5581C91.7525 63.7337 90.2813 61.8102 88.5317 60.2436C88.2931 60.0255 88.0148 60.4023 88.1739 60.6402C89.4463 62.5637 91.1561 64.289 92.7466 65.9745C93.0249 66.272 93.5021 65.8754 93.2436 65.5581H93.2237Z" fill="white"/>
<path d="M86.2851 57.0708C85.2712 55.7819 84.2175 54.5127 83.0842 53.3428C82.1498 52.3909 81.0961 51.2408 79.9032 50.6261C79.6249 50.4872 79.4261 50.8838 79.5851 51.0821C80.4599 52.2323 81.7522 53.1445 82.8059 54.1756C83.8795 55.2266 84.8736 56.3173 85.8279 57.4674C86.0863 57.7847 86.5635 57.3881 86.305 57.051L86.2851 57.0708Z" fill="white"/>
<path d="M89.9037 67.4023C86.1262 62.6431 82.2692 57.8244 78.1339 53.3626C77.8158 53.0255 77.279 53.4617 77.5772 53.8385C81.2751 58.6572 85.3906 63.2578 89.4464 67.779C89.7048 68.0567 90.1422 67.6997 89.9037 67.4023Z" fill="white"/>
<path d="M87.2793 69.068C83.4621 64.0907 79.5057 58.6572 74.6745 54.6317C74.3962 54.3938 74.0582 54.8102 74.2769 55.068C78.1538 60.0652 82.8458 64.5071 86.8419 69.4448C87.0805 69.7422 87.5179 69.3654 87.2793 69.068Z" fill="white"/>
<path d="M81.6727 67.66C79.6846 64.5864 76.9807 60.8782 73.6804 59.1133C73.4021 58.9745 73.0442 59.2719 73.2828 59.5496C74.5552 60.9972 76.1656 62.1473 77.4976 63.5552C78.8297 64.9632 80.0623 66.4901 81.1757 68.0765C81.4143 68.4334 81.9113 67.9972 81.6926 67.6402L81.6727 67.66Z" fill="white"/>
<path d="M79.0086 68.2748C78.3127 67.4221 77.6169 66.5496 76.9011 65.7167C76.2649 64.9632 75.6884 64.0708 74.8732 63.4957C74.6347 63.3371 74.3166 63.5949 74.4557 63.8527C74.8931 64.745 75.6884 65.4589 76.3246 66.2125C77.0403 67.0453 77.7759 67.8782 78.5115 68.711C78.7899 69.0283 79.3068 68.6119 79.0284 68.2748H79.0086Z" fill="white"/>
<path d="M24.9511 58.2606C24.633 60.779 24.0763 63.2181 23.122 65.5779C22.2472 67.6997 20.8754 69.4646 19.8217 71.4872C19.6825 71.7649 20.0802 72.0028 20.2989 71.8244C23.798 68.6317 25.3487 62.881 25.4879 58.3201C25.4879 57.983 25.0108 57.9235 24.9511 58.2606Z" fill="white"/>
<path d="M15.7262 74.2238C13.7977 75.2946 11.8096 75.8697 9.72202 76.5439C9.32439 76.6629 9.56297 77.2578 9.94072 77.2181C12.1078 77 14.2749 75.949 16.0642 74.779C16.3624 74.5807 16.0443 74.0651 15.7262 74.2436V74.2238Z" fill="white"/>
<path d="M14.1953 76.881C13.0819 77.1785 11.8493 77.4759 10.8552 78.0708C10.5769 78.2295 10.6961 78.6657 11.0341 78.6261C12.1873 78.4674 13.3205 77.932 14.3941 77.4759C14.7122 77.3371 14.5531 76.7819 14.1953 76.881Z" fill="white"/>
<path d="M14.8315 79.5184C14.076 79.6969 13.2807 79.8555 12.5849 80.2323C12.2668 80.3909 12.4258 80.8272 12.7638 80.7875C13.5392 80.728 14.2947 80.4306 15.0303 80.1926C15.4081 80.0736 15.2092 79.4391 14.8116 79.5184H14.8315Z" fill="white"/>
<path d="M188.177 33.2748C186.527 30.9745 184.42 28.5949 181.815 27.3654C181.557 27.2465 181.259 27.6431 181.477 27.8414C183.605 29.7847 185.811 31.4703 187.621 33.7507C187.919 34.1275 188.436 33.6516 188.177 33.2748Z" fill="white"/>
<path d="M128.175 4.75921C110.262 3.35128 89.1083 6.10765 73.0641 14.4561C72.5471 14.7337 72.9249 15.5467 73.4617 15.289C90.6392 7.25779 109.487 5.71105 128.135 5.19547C128.414 5.19547 128.473 4.77904 128.175 4.75921Z" fill="white"/>
<path d="M171.934 107.657C166.069 115.966 159.29 121.994 151.059 127.844C150.8 128.023 151.079 128.439 151.357 128.3C159.886 123.898 167.441 116.105 172.352 107.935C172.511 107.657 172.133 107.38 171.954 107.657H171.934Z" fill="white"/>
<path d="M166.964 117.79C164.141 121.3 160.82 123.541 157.023 125.861C156.725 126.04 156.924 126.476 157.262 126.337C161.337 124.79 164.836 121.518 167.421 118.108C167.64 117.81 167.182 117.513 166.964 117.79Z" fill="white"/>
<path d="M166.248 108.093C164.757 110.076 163.246 112.059 161.894 114.142C161.715 114.399 162.093 114.657 162.292 114.419C163.882 112.496 165.294 110.473 166.745 108.45C166.964 108.133 166.487 107.796 166.248 108.093Z" fill="white"/>
<path d="M159.111 116.581C152.212 123.204 145.353 128.955 136.168 132.088C135.81 132.207 136.009 132.802 136.366 132.722C145.731 130.779 152.948 123.462 159.449 116.997C159.687 116.759 159.349 116.343 159.091 116.581H159.111Z" fill="white"/>
<path d="M152.947 117.334C147.48 122.887 141.158 126.337 134.04 129.292C133.762 129.411 133.901 129.887 134.199 129.807C141.555 127.924 148.176 123.244 153.345 117.81C153.623 117.533 153.226 117.057 152.947 117.334Z" fill="white"/>
<path d="M140.362 122.946C137.659 124.295 134.736 125.465 132.231 127.13C131.973 127.309 132.251 127.666 132.509 127.567C135.293 126.496 137.957 124.81 140.581 123.402C140.879 123.244 140.661 122.788 140.362 122.926V122.946Z" fill="white"/>
<path d="M70.2211 136.649C63.1831 136.292 56.6819 134.606 50.2403 131.81C49.7632 131.592 49.5047 132.346 49.962 132.564C56.2644 135.677 63.1632 137.184 70.1615 137.263C70.5591 137.263 70.6386 136.649 70.2211 136.629V136.649Z" fill="white"/>
<path d="M65.7278 134.388C61.9503 133.972 58.6103 132.782 55.2702 131.017C54.8726 130.799 54.4551 131.354 54.8527 131.612C58.1132 133.654 61.8509 134.725 65.6682 134.983C66.0459 135.003 66.1056 134.448 65.7278 134.388Z" fill="white"/>
<path d="M64.5151 131.116C62.1691 130.977 60.1213 130.184 57.8747 129.669C57.5566 129.589 57.4174 130.085 57.656 130.244C59.5646 131.453 62.2287 131.731 64.4355 131.79C64.853 131.79 64.9326 131.156 64.4952 131.116H64.5151Z" fill="white"/>
</g>
<defs>
<clipPath id="clip0_97_1690">
<rect width="238" height="161" fill="white"/>
</clipPath>
</defs>
</svg>
